<?xml version="1.0" encoding="UTF-8" standalone="no"?>
<!-- Created with Sodipodi ("http://www.sodipodi.com/") -->

<svg
   xmlns:a="http://ns.adobe.com/AdobeSVGViewerExtensions/3.0/"
   xmlns:dc="http://purl.org/dc/elements/1.1/"
   xmlns:cc="http://creativecommons.org/ns#"
   xmlns:rdf="http://www.w3.org/1999/02/22-rdf-syntax-ns#"
   xmlns:svg="http://www.w3.org/2000/svg"
   xmlns="http://www.w3.org/2000/svg"
   xmlns:xlink="http://www.w3.org/1999/xlink"
   xmlns:sodipodi="http://sodipodi.sourceforge.net/DTD/sodipodi-0.dtd"
   xmlns:inkscape="http://www.inkscape.org/namespaces/inkscape"
   width="32pt"
   height="32pt"
   viewBox="0 0 170.66667 170.66667"
   overflow="visible"
   enable-background="new 0 0 256 256"
   xml:space="preserve"
   id="svg153"
   sodipodi:version="0.32"
   sodipodi:docname="add.svg"
   inkscape:version="0.91 r"
   inkscape:output_extension="org.inkscape.output.svg.inkscape"
   version="1.1"
   style="overflow:visible"><metadata
     id="metadata51"><rdf:RDF><cc:Work
         rdf:about=""><dc:format>image/svg+xml</dc:format><dc:type
           rdf:resource="http://purl.org/dc/dcmitype/StillImage" /><dc:title></dc:title></cc:Work></rdf:RDF></metadata><defs
     id="defs177"><linearGradient
       id="linearGradient7185"><stop
         style="stop-color:#fafafa;stop-opacity:1;"
         offset="0"
         id="stop7187" /><stop
         style="stop-color:#e7c507;stop-opacity:1;"
         offset="1"
         id="stop7189" /></linearGradient><linearGradient
       id="linearGradient860"><stop
         offset="0.000000"
         style="stop-color: rgb(0, 102, 204); stop-opacity: 1;"
         id="stop862" /><stop
         offset="0.994400"
         style="stop-color: rgb(0, 51, 102); stop-opacity: 1;"
         id="stop861" /></linearGradient><linearGradient
       y2="32.742199"
       x2="26.496099"
       y1="32.742199"
       x1="2.5518"
       gradientUnits="userSpaceOnUse"
       id="XMLID_50_"><stop
         id="stop760"
         style="stop-color: rgb(248, 49, 14);"
         offset="0" /><stop
         id="stop761"
         style="stop-color: rgb(165, 1, 0);"
         offset="1" /><a:midPointStop
         id="midPointStop762"
         style="stop-color:#F8310E"
         offset="0" /><a:midPointStop
         id="midPointStop763"
         style="stop-color:#F8310E"
         offset="0.5" /><a:midPointStop
         id="midPointStop764"
         style="stop-color:#A50100"
         offset="1" /></linearGradient><linearGradient
       id="linearGradient3144"><stop
         id="stop3146"
         offset="0"
         style="stop-color: rgb(250, 250, 250); stop-opacity: 1;" /><stop
         id="stop3148"
         offset="1"
         style="stop-color: rgb(146, 104, 250); stop-opacity: 1;" /></linearGradient><linearGradient
       id="linearGradient3164"><stop
         id="stop3166"
         offset="0"
         style="stop-color: rgb(255, 255, 255); stop-opacity: 0.875;" /><stop
         id="stop3168"
         offset="1"
         style="stop-color: rgb(255, 255, 255); stop-opacity: 0.34375;" /></linearGradient><linearGradient
       id="linearGradient3193"><stop
         id="stop3195"
         offset="0"
         style="stop-color: rgb(197, 193, 255); stop-opacity: 1;" /><stop
         id="stop3197"
         offset="1"
         style="stop-color: rgb(255, 255, 255); stop-opacity: 1;" /></linearGradient><linearGradient
       spreadMethod="reflect"
       gradientUnits="userSpaceOnUse"
       xlink:href="#linearGradient5135"
       id="linearGradient2199"
       y2="78.979912"
       x2="24.566963"
       y1="62.104912"
       x1="61.41518"
       gradientTransform="matrix(2.8958187,0,0,3.0301681,-23.706764,140.74353)" /><linearGradient
       gradientUnits="userSpaceOnUse"
       xlink:href="#linearGradient5135"
       id="linearGradient2197"
       y2="47.973961"
       x2="48.609955"
       y1="67.811272"
       x1="68.447266"
       gradientTransform="matrix(2.8958187,0,0,3.0301681,-23.706764,140.74353)" /><linearGradient
       spreadMethod="reflect"
       gradientUnits="userSpaceOnUse"
       xlink:href="#linearGradient5135"
       id="linearGradient2194"
       y2="99.953125"
       x2="44.25"
       y1="69.578125"
       x1="72.71875"
       gradientTransform="matrix(2.8958187,0,0,3.0301681,-23.706764,140.74353)" /><linearGradient
       gradientTransform="matrix(2.8958187,0,0,3.0301681,-1337.9943,-1242.7585)"
       gradientUnits="userSpaceOnUse"
       xlink:href="#linearGradient5135"
       id="linearGradient2191"
       y2="595.53839"
       x2="517.85712"
       y1="520.57648"
       x1="517.85712" /><linearGradient
       gradientTransform="matrix(0,2.5107426,-2.6061904,0,305.9855,-203.50085)"
       gradientUnits="userSpaceOnUse"
       xlink:href="#linearGradient9053"
       id="linearGradient2188"
       y2="64.36039"
       x2="133.07745"
       y1="64.36039"
       x1="87.135818" /><filter
       id="filter10990"><feGaussianBlur
         inkscape:collect="always"
         stdDeviation="1.065"
         id="feGaussianBlur10992" /></filter><linearGradient
       id="linearGradient5135"><stop
         id="stop5137"
         offset="0"
         style="stop-color: rgb(0, 136, 0); stop-opacity: 1;" /><stop
         id="stop5139"
         offset="1"
         style="stop-color: rgb(255, 255, 255); stop-opacity: 1;" /></linearGradient><linearGradient
       id="linearGradient9053"><stop
         id="stop9055"
         offset="0"
         style="stop-color: rgb(255, 255, 255); stop-opacity: 1;" /><stop
         id="stop9057"
         offset="1"
         style="stop-color: rgb(255, 255, 255); stop-opacity: 0;" /></linearGradient><linearGradient
       id="linearGradient7607"><stop
         id="stop7609"
         offset="0"
         style="stop-color: rgb(255, 0, 0); stop-opacity: 1;" /><stop
         id="stop7611"
         offset="1"
         style="stop-color: rgb(255, 255, 255); stop-opacity: 1;" /></linearGradient><linearGradient
       inkscape:collect="always"
       xlink:href="#linearGradient5135"
       id="linearGradient7641"
       gradientUnits="userSpaceOnUse"
       x1="68.447266"
       y1="67.811272"
       x2="48.609955"
       y2="47.973961" /><linearGradient
       inkscape:collect="always"
       xlink:href="#linearGradient5135"
       id="linearGradient7643"
       gradientUnits="userSpaceOnUse"
       spreadMethod="reflect"
       x1="61.41518"
       y1="62.104912"
       x2="24.566963"
       y2="78.979912" /><linearGradient
       inkscape:collect="always"
       xlink:href="#linearGradient5135"
       id="linearGradient7645"
       gradientUnits="userSpaceOnUse"
       spreadMethod="reflect"
       x1="72.71875"
       y1="69.578125"
       x2="44.25"
       y2="99.953125" /><linearGradient
       inkscape:collect="always"
       xlink:href="#linearGradient5135"
       id="linearGradient7647"
       gradientUnits="userSpaceOnUse"
       gradientTransform="translate(-453.857,-456.576)"
       x1="517.85712"
       y1="520.57648"
       x2="517.85712"
       y2="595.53839" /><linearGradient
       inkscape:collect="always"
       xlink:href="#linearGradient9053"
       id="linearGradient7649"
       gradientUnits="userSpaceOnUse"
       gradientTransform="matrix(0,1,-1,0,128.36,-70.3503)"
       x1="87.135818"
       y1="64.36039"
       x2="133.07745"
       y2="64.36039" /><linearGradient
       inkscape:collect="always"
       xlink:href="#linearGradient9053"
       id="linearGradient7653"
       gradientUnits="userSpaceOnUse"
       gradientTransform="matrix(0,1,-1,0,201.32897,220.88115)"
       x1="87.135818"
       y1="64.36039"
       x2="133.07745"
       y2="64.36039" /><linearGradient
       inkscape:collect="always"
       xlink:href="#XMLID_50_"
       id="linearGradient7656"
       gradientUnits="userSpaceOnUse"
       gradientTransform="translate(-380.88803,-165.34455)"
       x1="517.85712"
       y1="520.57648"
       x2="517.85712"
       y2="595.53839" /><linearGradient
       inkscape:collect="always"
       xlink:href="#linearGradient7607"
       id="linearGradient7659"
       gradientUnits="userSpaceOnUse"
       spreadMethod="reflect"
       x1="72.71875"
       y1="69.578125"
       x2="44.25"
       y2="99.953125"
       gradientTransform="translate(72.968968,291.23145)" /><linearGradient
       inkscape:collect="always"
       xlink:href="#linearGradient7607"
       id="linearGradient7662"
       gradientUnits="userSpaceOnUse"
       x1="68.447266"
       y1="67.811272"
       x2="48.609955"
       y2="47.973961"
       gradientTransform="translate(72.968968,291.23145)" /><linearGradient
       inkscape:collect="always"
       xlink:href="#linearGradient5135"
       id="linearGradient7664"
       gradientUnits="userSpaceOnUse"
       spreadMethod="reflect"
       x1="61.41518"
       y1="62.104912"
       x2="24.566963"
       y2="78.979912"
       gradientTransform="translate(72.968968,291.23145)" /><linearGradient
       inkscape:collect="always"
       xlink:href="#linearGradient7607"
       id="linearGradient7677"
       gradientUnits="userSpaceOnUse"
       gradientTransform="translate(72.968968,291.23145)"
       spreadMethod="reflect"
       x1="61.41518"
       y1="62.104912"
       x2="24.566963"
       y2="78.979912" /></defs><sodipodi:namedview
     id="base"
     showgrid="false"
     inkscape:zoom="5.4447222"
     inkscape:cx="21.394379"
     inkscape:cy="20.159318"
     inkscape:window-width="767"
     inkscape:window-height="667"
     inkscape:window-x="307"
     inkscape:window-y="0"
     inkscape:current-layer="g7494"
     inkscape:window-maximized="0" /><g
     id="g7494"
     transform="matrix(0.5,0,0,0.5,3.9138213,-82.193777)"><path
       id="path9045"
       style="fill:#000000;fill-opacity:1;stroke:#000000;stroke-width:0.84395826;stroke-linecap:round;stroke-linejoin:round;stroke-miterlimit:4;stroke-dasharray:none;stroke-opacity:1;filter:url(#filter10990)"
       d="m 65,13 c -28.69876,0 -52,23.30126 -52,52 0,28.69875 23.30124,52 52,52 28.69876,0 52,-23.30125 52,-52 C 117,36.30126 93.69876,13 65,13 Z m 0,11.625 c 22.29029,0 40.375,18.08472 40.375,40.375 0,22.29029 -18.0847,40.375 -40.375,40.375 C 42.7097,105.375 24.625,87.2903 24.625,65 24.625,42.70972 42.7097,24.625 65,24.625 Z M 59.4375,37 c -1.385,0 -2.5,1.115 -2.5,2.5 l 0,18 -18,0 c -1.385,0 -2.5,1.115 -2.5,2.5 l 0,10 c 0,1.385 1.115,2.5 2.5,2.5 l 18,0 0,18 c 0,1.385 1.115,2.5 2.5,2.5 l 10,0 c 1.385,0 2.5,-1.115 2.5,-2.5 l 0,-18 18,0 c 1.385,0 2.5,-1.115 2.5,-2.5 l 0,-10 c 0,-1.385 -1.115,-2.5 -2.5,-2.5 l -18,0 0,-18 c 0,-1.385 -1.115,-2.5 -2.5,-2.5 l -10,0 z"
       inkscape:connector-curvature="0"
       transform="matrix(2.8958187,0,0,3.0301681,-23.706764,140.74353)" /><path
       id="rect20765"
       style="fill:url(#linearGradient2197);fill-opacity:1;stroke:url(#linearGradient2199);stroke-width:2.5;stroke-linecap:butt;stroke-linejoin:miter;stroke-miterlimit:4;stroke-dasharray:none;stroke-opacity:1"
       d="m 174.56632,323.50007 0,-66.09506 -29.0174,0 0,61.51812 -59.667045,0 0,31.65954 62.763105,0"
       inkscape:connector-curvature="0" /><path
       id="rect28548"
       style="fill:url(#linearGradient2194);fill-opacity:1;stroke:none;stroke-width:2.5;stroke-linecap:butt;stroke-linejoin:miter;stroke-miterlimit:4;stroke-dasharray:none;stroke-opacity:1"
       d="m 179.81039,313.93659 -39.26994,41.08721 0,60.70747 39.9001,0 0,-61.07681 57.56229,0 0,-40.71787 -58.19245,0 z"
       inkscape:connector-curvature="0" /><path
       id="path2221"
       style="fill:url(#linearGradient2191);fill-opacity:1;stroke:#006600;stroke-width:2.5;stroke-linecap:round;stroke-linejoin:round;stroke-miterlimit:4;stroke-dasharray:none;stroke-opacity:1"
       d="m 161.62563,177.13442 c -83.106403,0 -150.555002,70.57784 -150.555002,157.53984 0,86.96205 67.448599,157.53994 150.555002,157.53994 83.1064,0 150.55501,-70.57789 150.55501,-157.53994 0,-86.962 -67.44861,-157.53984 -150.55501,-157.53984 z m 0,35.17878 c 64.54863,0 116.93593,54.81778 116.93593,122.36106 0,67.54333 -52.38725,122.36113 -116.93593,122.36113 -64.548665,0 -116.935907,-54.81778 -116.935907,-122.36113 0,-67.54328 52.387242,-122.36106 116.935907,-122.36106 z"
       inkscape:connector-curvature="0" /><path
       id="rect13965"
       style="fill:none;fill-opacity:1;stroke:#006600;stroke-width:2.5;stroke-linecap:round;stroke-linejoin:miter;stroke-miterlimit:4;stroke-dasharray:none;stroke-opacity:1"
       d="m 145.51764,249.82959 c -4.01071,0 -7.23955,3.37864 -7.23955,7.57542 l 0,54.54301 -52.124733,0 c -4.010708,0 -7.239545,3.37865 -7.239545,7.57542 l 0,30.30171 c 0,4.19677 3.228837,7.57541 7.239545,7.57541 l 52.124733,0 0,54.54302 c 0,4.19678 3.22884,7.57545 7.23955,7.57542 l 28.95819,0 c 4.01071,0 7.23954,-3.37862 7.23954,-7.57542 l 0,-54.54302 52.12473,0 c 4.01073,0 7.23955,-3.37864 7.23955,-7.57541 l 0,-30.30171 c 0,-4.19677 -3.22882,-7.57542 -7.23955,-7.57542 l -52.12473,0 0,-54.54301 c 0,-4.19678 -3.22883,-7.57542 -7.23954,-7.57542 l -28.95819,0 z"
       inkscape:connector-curvature="0" /></g></svg>