<?xml version="1.0" encoding="UTF-8" standalone="no"?>
<!-- Created with Inkscape (http://www.inkscape.org/) -->

<svg
   xmlns:i="http://ns.adobe.com/AdobeIllustrator/10.0/"
   xmlns:a="http://ns.adobe.com/AdobeSVGViewerExtensions/3.0/"
   xmlns:dc="http://purl.org/dc/elements/1.1/"
   xmlns:cc="http://creativecommons.org/ns#"
   xmlns:rdf="http://www.w3.org/1999/02/22-rdf-syntax-ns#"
   xmlns:svg="http://www.w3.org/2000/svg"
   xmlns="http://www.w3.org/2000/svg"
   xmlns:xlink="http://www.w3.org/1999/xlink"
   xmlns:sodipodi="http://sodipodi.sourceforge.net/DTD/sodipodi-0.dtd"
   xmlns:inkscape="http://www.inkscape.org/namespaces/inkscape"
   version="1.0"
   width="100pt"
   height="48pt"
   viewBox="0 0 533.33333 256"
   id="svg2"
   xml:space="preserve"
   inkscape:version="0.91 r"
   sodipodi:docname="tblCertificate.svg"><metadata
     id="metadata194"><rdf:RDF><cc:Work
         rdf:about=""><dc:format>image/svg+xml</dc:format><dc:type
           rdf:resource="http://purl.org/dc/dcmitype/StillImage" /><dc:title></dc:title></cc:Work></rdf:RDF></metadata><sodipodi:namedview
     pagecolor="#ffffff"
     bordercolor="#666666"
     borderopacity="1"
     objecttolerance="10"
     gridtolerance="10"
     guidetolerance="10"
     inkscape:pageopacity="0"
     inkscape:pageshadow="2"
     inkscape:window-width="1680"
     inkscape:window-height="998"
     id="namedview192"
     showgrid="false"
     inkscape:zoom="3.9333333"
     inkscape:cx="-0.4744069"
     inkscape:cy="53.181653"
     inkscape:window-x="0"
     inkscape:window-y="0"
     inkscape:window-maximized="1"
     inkscape:current-layer="svg2" /><defs
     id="defs305"><linearGradient
       id="linearGradient4824"><stop
         id="stop4826"
         style="stop-color:#fd9696;stop-opacity:0.34741783"
         offset="0" /><stop
         id="stop4832"
         style="stop-color:#fd9696;stop-opacity:1"
         offset="0.5" /><stop
         id="stop4828"
         style="stop-color:#fd9696;stop-opacity:0.30985916"
         offset="1" /></linearGradient><linearGradient
       x1="210.6445"
       y1="210.6416"
       x2="43.025101"
       y2="43.022202"
       id="XMLID_27_"
       gradientUnits="userSpaceOnUse"
       gradientTransform="translate(-4.882813e-4,9.765625e-4)"><stop
         id="stop16"
         style="stop-color:#003399;stop-opacity:1"
         offset="0" /><stop
         id="stop18"
         style="stop-color:#333366;stop-opacity:1"
         offset="1" /><a:midPointStop
         style="stop-color:#003399"
         offset="0" /><a:midPointStop
         style="stop-color:#003399"
         offset="0.5" /><a:midPointStop
         style="stop-color:#333366"
         offset="1" /></linearGradient><linearGradient
       x1="126.8467"
       y1="197.0508"
       x2="126.8467"
       y2="56.633801"
       id="XMLID_28_"
       gradientUnits="userSpaceOnUse"
       gradientTransform="translate(-4.882813e-4,9.765625e-4)"><stop
         id="stop23"
         style="stop-color:#9a9ab1;stop-opacity:1"
         offset="0" /><stop
         id="stop25"
         style="stop-color:#ffffff;stop-opacity:1"
         offset="1" /><a:midPointStop
         style="stop-color:#9A9AB1"
         offset="0" /><a:midPointStop
         style="stop-color:#9A9AB1"
         offset="0.5" /><a:midPointStop
         style="stop-color:#FFFFFF"
         offset="1" /></linearGradient><linearGradient
       x1="126.8462"
       y1="198.0625"
       x2="126.8462"
       y2="57.389599"
       id="XMLID_29_"
       gradientUnits="userSpaceOnUse"
       gradientTransform="translate(-4.882813e-4,9.765625e-4)"><stop
         id="stop30"
         style="stop-color:#7c74ff;stop-opacity:1"
         offset="0.0056" /><stop
         id="stop32"
         style="stop-color:#9b95ff;stop-opacity:1"
         offset="0.69099998" /><stop
         id="stop34"
         style="stop-color:#a3a1ff;stop-opacity:1"
         offset="0.76300001" /><stop
         id="stop36"
         style="stop-color:#afb2ff;stop-opacity:1"
         offset="0.8987" /><stop
         id="stop38"
         style="stop-color:#b3b8ff;stop-opacity:1"
         offset="1" /><a:midPointStop
         style="stop-color:#7C74FF"
         offset="0.0056" /><a:midPointStop
         style="stop-color:#7C74FF"
         offset="0.5" /><a:midPointStop
         style="stop-color:#9B95FF"
         offset="0.691" /><a:midPointStop
         style="stop-color:#9B95FF"
         offset="0.3559" /><a:midPointStop
         style="stop-color:#B3B8FF"
         offset="1" /></linearGradient><linearGradient
       x1="126.8457"
       y1="198.08501"
       x2="126.8457"
       y2="57.074299"
       id="XMLID_30_"
       gradientUnits="userSpaceOnUse"
       gradientTransform="translate(-4.882813e-4,9.765625e-4)"><stop
         id="stop43"
         style="stop-color:#e9e9ef;stop-opacity:1"
         offset="0" /><stop
         id="stop45"
         style="stop-color:#f9f9fb;stop-opacity:1"
         offset="0.56" /><stop
         id="stop47"
         style="stop-color:#ffffff;stop-opacity:1"
         offset="1" /><a:midPointStop
         style="stop-color:#E9E9EF"
         offset="0" /><a:midPointStop
         style="stop-color:#E9E9EF"
         offset="0.3559" /><a:midPointStop
         style="stop-color:#FFFFFF"
         offset="1" /></linearGradient><linearGradient
       x1="117.8765"
       y1="72.8638"
       x2="211.9673"
       y2="72.8638"
       id="XMLID_31_"
       gradientUnits="userSpaceOnUse"
       gradientTransform="matrix(0.9659,0.2588,-0.2588,0.9659,37.4352,-29.1286)"><stop
         id="stop52"
         style="stop-color:#7d7d99;stop-opacity:1"
         offset="0" /><stop
         id="stop54"
         style="stop-color:#b1b1c5;stop-opacity:1"
         offset="1" /><a:midPointStop
         style="stop-color:#7D7D99"
         offset="0" /><a:midPointStop
         style="stop-color:#7D7D99"
         offset="0.5" /><a:midPointStop
         style="stop-color:#B1B1C5"
         offset="1" /></linearGradient><linearGradient
       x1="117.8711"
       y1="102.1147"
       x2="211.9619"
       y2="102.1147"
       id="XMLID_32_"
       gradientUnits="userSpaceOnUse"
       gradientTransform="matrix(0.9659,0.2588,-0.2588,0.9659,37.4352,-29.1286)"><stop
         id="stop59"
         style="stop-color:#7d7d99;stop-opacity:1"
         offset="0" /><stop
         id="stop61"
         style="stop-color:#b1b1c5;stop-opacity:1"
         offset="1" /><a:midPointStop
         style="stop-color:#7D7D99"
         offset="0" /><a:midPointStop
         style="stop-color:#7D7D99"
         offset="0.5" /><a:midPointStop
         style="stop-color:#B1B1C5"
         offset="1" /></linearGradient><linearGradient
       x1="117.8755"
       y1="131.3672"
       x2="211.9653"
       y2="131.3672"
       id="XMLID_33_"
       gradientUnits="userSpaceOnUse"
       gradientTransform="matrix(0.9659,0.2588,-0.2588,0.9659,37.4352,-29.1286)"><stop
         id="stop66"
         style="stop-color:#7d7d99;stop-opacity:1"
         offset="0" /><stop
         id="stop68"
         style="stop-color:#b1b1c5;stop-opacity:1"
         offset="1" /><a:midPointStop
         style="stop-color:#7D7D99"
         offset="0" /><a:midPointStop
         style="stop-color:#7D7D99"
         offset="0.5" /><a:midPointStop
         style="stop-color:#B1B1C5"
         offset="1" /></linearGradient><linearGradient
       x1="117.8706"
       y1="160.6172"
       x2="211.9615"
       y2="160.6172"
       id="XMLID_34_"
       gradientUnits="userSpaceOnUse"
       gradientTransform="matrix(0.9659,0.2588,-0.2588,0.9659,37.4352,-29.1286)"><stop
         id="stop73"
         style="stop-color:#7d7d99;stop-opacity:1"
         offset="0" /><stop
         id="stop75"
         style="stop-color:#b1b1c5;stop-opacity:1"
         offset="1" /><a:midPointStop
         style="stop-color:#7D7D99"
         offset="0" /><a:midPointStop
         style="stop-color:#7D7D99"
         offset="0.5" /><a:midPointStop
         style="stop-color:#B1B1C5"
         offset="1" /></linearGradient><linearGradient
       x1="117.8706"
       y1="160.6172"
       x2="211.9615"
       y2="160.6172"
       id="linearGradient3604"
       xlink:href="#XMLID_34_"
       gradientUnits="userSpaceOnUse"
       gradientTransform="matrix(2.187708,0.38379276,-0.58616712,1.4324012,66.068934,-103.37281)" /><linearGradient
       x1="117.8755"
       y1="131.3672"
       x2="211.9653"
       y2="131.3672"
       id="linearGradient3607"
       xlink:href="#XMLID_33_"
       gradientUnits="userSpaceOnUse"
       gradientTransform="matrix(2.187708,0.38379276,-0.58616712,1.4324012,66.068934,-103.37281)" /><linearGradient
       x1="117.8711"
       y1="102.1147"
       x2="211.9619"
       y2="102.1147"
       id="linearGradient3610"
       xlink:href="#XMLID_32_"
       gradientUnits="userSpaceOnUse"
       gradientTransform="matrix(2.187708,0.38379276,-0.58616712,1.4324012,66.068934,-103.37281)" /><linearGradient
       x1="117.8765"
       y1="72.8638"
       x2="211.9673"
       y2="72.8638"
       id="linearGradient3613"
       xlink:href="#XMLID_31_"
       gradientUnits="userSpaceOnUse"
       gradientTransform="matrix(2.187708,0.38379276,-0.58616712,1.4324012,66.068934,-103.37281)" /><linearGradient
       x1="126.8457"
       y1="198.08501"
       x2="126.8457"
       y2="57.074299"
       id="linearGradient3616"
       xlink:href="#XMLID_30_"
       gradientUnits="userSpaceOnUse"
       gradientTransform="matrix(2.2649425,0,0,1.4829705,-18.720748,-60.174509)" /><linearGradient
       x1="126.8462"
       y1="198.0625"
       x2="126.8462"
       y2="57.389599"
       id="linearGradient3619"
       xlink:href="#XMLID_29_"
       gradientUnits="userSpaceOnUse"
       gradientTransform="matrix(2.2649425,0,0,1.4829705,-18.720748,-60.174509)" /><linearGradient
       x1="126.8467"
       y1="197.0508"
       x2="126.8467"
       y2="56.633801"
       id="linearGradient3622"
       xlink:href="#XMLID_28_"
       gradientUnits="userSpaceOnUse"
       gradientTransform="matrix(2.2649425,0,0,1.4829705,-18.720748,-60.174509)" /><linearGradient
       x1="210.6445"
       y1="210.6416"
       x2="43.025101"
       y2="43.022202"
       id="linearGradient3625"
       xlink:href="#XMLID_27_"
       gradientUnits="userSpaceOnUse"
       gradientTransform="matrix(2.2649425,0,0,1.4829705,-18.720748,-60.174509)" /><linearGradient
       x1="86.342796"
       y1="69.372597"
       x2="86.342796"
       y2="128.8848"
       id="linearGradient3838"
       xlink:href="#XMLID_41_"
       gradientUnits="userSpaceOnUse"
       gradientTransform="matrix(1.6693358,0,0,1.5579382,4.5365029,-75.138034)" /><linearGradient
       x1="119.9502"
       y1="167.94141"
       x2="91.554802"
       y2="139.54601"
       id="linearGradient3844"
       xlink:href="#XMLID_44_"
       gradientUnits="userSpaceOnUse"
       gradientTransform="translate(-4.882813e-4,9.765625e-4)" /><linearGradient
       x1="119.0371"
       y1="166.7041"
       x2="93.096397"
       y2="140.7634"
       id="linearGradient3848"
       xlink:href="#XMLID_46_"
       gradientUnits="userSpaceOnUse"
       gradientTransform="translate(-4.882813e-4,9.765625e-4)" /><linearGradient
       x1="595.99017"
       y1="136.166"
       x2="595.99017"
       y2="131.64909"
       id="linearGradient3860"
       xlink:href="#XMLID_52_"
       gradientUnits="userSpaceOnUse"
       gradientTransform="matrix(-1,0,0,-1,682.334,255)" /><linearGradient
       x1="86.347198"
       y1="112.7109"
       x2="86.347198"
       y2="183.20261"
       id="XMLID_35_"
       gradientUnits="userSpaceOnUse"
       gradientTransform="translate(-4.882813e-4,9.765625e-4)"><stop
         id="stop86"
         style="stop-color:#428aff;stop-opacity:1"
         offset="0" /><stop
         id="stop88"
         style="stop-color:#0035ed;stop-opacity:1"
         offset="1" /><a:midPointStop
         offset="0"
         style="stop-color:#428AFF" /><a:midPointStop
         offset="0.5"
         style="stop-color:#428AFF" /><a:midPointStop
         offset="1"
         style="stop-color:#0035ED" /></linearGradient><radialGradient
       cx="87.391602"
       cy="90.318802"
       r="89.119003"
       fx="87.391602"
       fy="90.318802"
       id="XMLID_36_"
       gradientUnits="userSpaceOnUse"
       gradientTransform="translate(-4.882813e-4,9.765625e-4)"><stop
         id="stop93"
         style="stop-color:#428aff;stop-opacity:1"
         offset="0.34830001" /><stop
         id="stop95"
         style="stop-color:#ffffff;stop-opacity:1"
         offset="0.53930002" /><stop
         id="stop97"
         style="stop-color:#57adff;stop-opacity:1"
         offset="1" /><a:midPointStop
         offset="0.3483"
         style="stop-color:#428AFF" /><a:midPointStop
         offset="0.5"
         style="stop-color:#428AFF" /><a:midPointStop
         offset="0.5393"
         style="stop-color:#FFFFFF" /><a:midPointStop
         offset="0.5"
         style="stop-color:#FFFFFF" /><a:midPointStop
         offset="1"
         style="stop-color:#57ADFF" /></radialGradient><linearGradient
       x1="86.343803"
       y1="167.0137"
       x2="86.343803"
       y2="114.2524"
       id="XMLID_37_"
       gradientUnits="userSpaceOnUse"
       gradientTransform="translate(-4.882813e-4,9.765625e-4)"><stop
         id="stop102"
         style="stop-color:#57adff;stop-opacity:1"
         offset="0" /><stop
         id="stop104"
         style="stop-color:#00008d;stop-opacity:1"
         offset="1" /><a:midPointStop
         offset="0"
         style="stop-color:#57ADFF" /><a:midPointStop
         offset="0.5"
         style="stop-color:#57ADFF" /><a:midPointStop
         offset="1"
         style="stop-color:#00008D" /></linearGradient><linearGradient
       x1="105.4448"
       y1="122.6216"
       x2="67.244598"
       y2="122.6222"
       id="XMLID_38_"
       gradientUnits="userSpaceOnUse"
       gradientTransform="translate(-4.882813e-4,9.765625e-4)"><stop
         id="stop115"
         style="stop-color:#428aff;stop-opacity:1"
         offset="0" /><stop
         id="stop117"
         style="stop-color:#0035ed;stop-opacity:1"
         offset="1" /><a:midPointStop
         offset="0"
         style="stop-color:#428AFF" /><a:midPointStop
         offset="0.5"
         style="stop-color:#428AFF" /><a:midPointStop
         offset="1"
         style="stop-color:#0035ED" /></linearGradient><linearGradient
       x1="66.526901"
       y1="122.1152"
       x2="106.1616"
       y2="122.1152"
       id="XMLID_39_"
       gradientUnits="userSpaceOnUse"
       gradientTransform="translate(-4.882813e-4,9.765625e-4)"><stop
         id="stop126"
         style="stop-color:#dcf0ff;stop-opacity:1"
         offset="0" /><stop
         id="stop128"
         style="stop-color:#94caff;stop-opacity:1"
         offset="1" /><a:midPointStop
         offset="0"
         style="stop-color:#DCF0FF" /><a:midPointStop
         offset="0.5"
         style="stop-color:#DCF0FF" /><a:midPointStop
         offset="1"
         style="stop-color:#94CAFF" /></linearGradient><linearGradient
       x1="66.807602"
       y1="117.8262"
       x2="105.8804"
       y2="117.8262"
       id="XMLID_40_"
       gradientUnits="userSpaceOnUse"
       gradientTransform="translate(-4.882813e-4,9.765625e-4)"><stop
         id="stop135"
         style="stop-color:#0053bd;stop-opacity:1"
         offset="0" /><stop
         id="stop137"
         style="stop-color:#00008d;stop-opacity:1"
         offset="1" /><a:midPointStop
         offset="0"
         style="stop-color:#0053BD" /><a:midPointStop
         offset="0.5"
         style="stop-color:#0053BD" /><a:midPointStop
         offset="1"
         style="stop-color:#00008D" /></linearGradient><linearGradient
       x1="86.342796"
       y1="69.372597"
       x2="86.342796"
       y2="128.8848"
       id="XMLID_41_"
       gradientUnits="userSpaceOnUse"
       gradientTransform="translate(-4.882813e-4,9.765625e-4)"><stop
         id="stop142"
         style="stop-color:#c76200;stop-opacity:1"
         offset="0" /><stop
         id="stop144"
         style="stop-color:#d8922a;stop-opacity:1"
         offset="0.5" /><stop
         id="stop146"
         style="stop-color:#996600;stop-opacity:1"
         offset="1" /><a:midPointStop
         offset="0"
         style="stop-color:#C76200" /><a:midPointStop
         offset="0.5"
         style="stop-color:#C76200" /><a:midPointStop
         offset="0.5"
         style="stop-color:#D8922A" /><a:midPointStop
         offset="0.5"
         style="stop-color:#D8922A" /><a:midPointStop
         offset="1"
         style="stop-color:#996600" /></linearGradient><radialGradient
       cx="76.373497"
       cy="82.791"
       r="47.318901"
       fx="76.373497"
       fy="82.791"
       id="XMLID_42_"
       gradientUnits="userSpaceOnUse"
       gradientTransform="translate(-4.882813e-4,9.765625e-4)"><stop
         id="stop151"
         style="stop-color:#ffffff;stop-opacity:1"
         offset="0" /><stop
         id="stop153"
         style="stop-color:#ffdb9d;stop-opacity:1"
         offset="0.51679999" /><stop
         id="stop155"
         style="stop-color:#f0cd87;stop-opacity:1"
         offset="0.75279999" /><stop
         id="stop157"
         style="stop-color:#ba8a2b;stop-opacity:1"
         offset="1" /><a:midPointStop
         offset="0"
         style="stop-color:#FFFFFF" /><a:midPointStop
         offset="0.5"
         style="stop-color:#FFFFFF" /><a:midPointStop
         offset="0.5168"
         style="stop-color:#FFDB9D" /><a:midPointStop
         offset="0.5"
         style="stop-color:#FFDB9D" /><a:midPointStop
         offset="0.7528"
         style="stop-color:#F0CD87" /><a:midPointStop
         offset="0.5"
         style="stop-color:#F0CD87" /><a:midPointStop
         offset="1"
         style="stop-color:#BA8A2B" /></radialGradient><linearGradient
       x1="117.4688"
       y1="192.0938"
       x2="90.433403"
       y2="165.0584"
       id="XMLID_43_"
       gradientUnits="userSpaceOnUse"
       gradientTransform="matrix(1.0703,1e-4,1e-4,1.0985,-1.5319,-45.9813)"><stop
         id="stop170"
         style="stop-color:#0035ed;stop-opacity:1"
         offset="0" /><stop
         id="stop172"
         style="stop-color:#1c50f0;stop-opacity:1"
         offset="0.0847" /><stop
         id="stop174"
         style="stop-color:#497cf4;stop-opacity:1"
         offset="0.23980001" /><stop
         id="stop176"
         style="stop-color:#6fa0f8;stop-opacity:1"
         offset="0.396" /><stop
         id="stop178"
         style="stop-color:#8cbdfb;stop-opacity:1"
         offset="0.55089998" /><stop
         id="stop180"
         style="stop-color:#a0d1fd;stop-opacity:1"
         offset="0.704" /><stop
         id="stop182"
         style="stop-color:#adddff;stop-opacity:1"
         offset="0.85470003" /><stop
         id="stop184"
         style="stop-color:#b1e1ff;stop-opacity:1"
         offset="1" /><a:midPointStop
         offset="0"
         style="stop-color:#0035ED" /><a:midPointStop
         offset="0.3"
         style="stop-color:#0035ED" /><a:midPointStop
         offset="1"
         style="stop-color:#B1E1FF" /></linearGradient><linearGradient
       x1="119.9502"
       y1="167.94141"
       x2="91.554802"
       y2="139.54601"
       id="XMLID_44_"
       gradientUnits="userSpaceOnUse"
       gradientTransform="translate(-4.882813e-4,9.765625e-4)"><stop
         id="stop189"
         style="stop-color:#0035ed;stop-opacity:1"
         offset="0" /><stop
         id="stop191"
         style="stop-color:#1c50f0;stop-opacity:1"
         offset="0.0847" /><stop
         id="stop193"
         style="stop-color:#497cf4;stop-opacity:1"
         offset="0.23980001" /><stop
         id="stop195"
         style="stop-color:#6fa0f8;stop-opacity:1"
         offset="0.396" /><stop
         id="stop197"
         style="stop-color:#8cbdfb;stop-opacity:1"
         offset="0.55089998" /><stop
         id="stop199"
         style="stop-color:#a0d1fd;stop-opacity:1"
         offset="0.704" /><stop
         id="stop201"
         style="stop-color:#adddff;stop-opacity:1"
         offset="0.85470003" /><stop
         id="stop203"
         style="stop-color:#b1e1ff;stop-opacity:1"
         offset="1" /><a:midPointStop
         offset="0"
         style="stop-color:#0035ED" /><a:midPointStop
         offset="0.3"
         style="stop-color:#0035ED" /><a:midPointStop
         offset="1"
         style="stop-color:#B1E1FF" /></linearGradient><linearGradient
       x1="122.7407"
       y1="163.00591"
       x2="96.799301"
       y2="137.06441"
       id="XMLID_45_"
       gradientUnits="userSpaceOnUse"
       gradientTransform="translate(-4.882813e-4,9.765625e-4)"><stop
         id="stop208"
         style="stop-color:#034cfe;stop-opacity:1"
         offset="0" /><stop
         id="stop210"
         style="stop-color:#1359fe;stop-opacity:1"
         offset="0.038" /><stop
         id="stop212"
         style="stop-color:#4885fe;stop-opacity:1"
         offset="0.17739999" /><stop
         id="stop214"
         style="stop-color:#76aaff;stop-opacity:1"
         offset="0.31850001" /><stop
         id="stop216"
         style="stop-color:#9cc9ff;stop-opacity:1"
         offset="0.4585" /><stop
         id="stop218"
         style="stop-color:#b9e0ff;stop-opacity:1"
         offset="0.59740001" /><stop
         id="stop220"
         style="stop-color:#cdf1ff;stop-opacity:1"
         offset="0.73470002" /><stop
         id="stop222"
         style="stop-color:#dafcff;stop-opacity:1"
         offset="0.86970001" /><stop
         id="stop224"
         style="stop-color:#deffff;stop-opacity:1"
         offset="1" /><a:midPointStop
         offset="0"
         style="stop-color:#034CFE" /><a:midPointStop
         offset="0.3"
         style="stop-color:#034CFE" /><a:midPointStop
         offset="1"
         style="stop-color:#DEFFFF" /></linearGradient><linearGradient
       x1="119.0371"
       y1="166.7041"
       x2="93.096397"
       y2="140.7634"
       id="XMLID_46_"
       gradientUnits="userSpaceOnUse"
       gradientTransform="translate(-4.882813e-4,9.765625e-4)"><stop
         id="stop229"
         style="stop-color:#006dff;stop-opacity:1"
         offset="0" /><stop
         id="stop231"
         style="stop-color:#1379ff;stop-opacity:1"
         offset="0.0447" /><stop
         id="stop233"
         style="stop-color:#489cff;stop-opacity:1"
         offset="0.183" /><stop
         id="stop235"
         style="stop-color:#76bbff;stop-opacity:1"
         offset="0.32319999" /><stop
         id="stop237"
         style="stop-color:#9cd3ff;stop-opacity:1"
         offset="0.4623" /><stop
         id="stop239"
         style="stop-color:#b9e6ff;stop-opacity:1"
         offset="0.6002" /><stop
         id="stop241"
         style="stop-color:#cdf4ff;stop-opacity:1"
         offset="0.73650002" /><stop
         id="stop243"
         style="stop-color:#dafcff;stop-opacity:1"
         offset="0.87059999" /><stop
         id="stop245"
         style="stop-color:#deffff;stop-opacity:1"
         offset="1" /><a:midPointStop
         offset="0"
         style="stop-color:#006DFF" /><a:midPointStop
         offset="0.3"
         style="stop-color:#006DFF" /><a:midPointStop
         offset="1"
         style="stop-color:#DEFFFF" /></linearGradient><linearGradient
       x1="108.0044"
       y1="152.14059"
       x2="108.0044"
       y2="147.99429"
       id="XMLID_47_"
       gradientUnits="userSpaceOnUse"
       gradientTransform="translate(-4.882813e-4,9.765625e-4)"><stop
         id="stop254"
         style="stop-color:#006600;stop-opacity:1"
         offset="0" /><stop
         id="stop256"
         style="stop-color:#99ff66;stop-opacity:1"
         offset="1" /><a:midPointStop
         offset="0"
         style="stop-color:#006600" /><a:midPointStop
         offset="0.5"
         style="stop-color:#006600" /><a:midPointStop
         offset="1"
         style="stop-color:#99FF66" /></linearGradient><linearGradient
       x1="110.0752"
       y1="150.06351"
       x2="105.9336"
       y2="150.06351"
       id="XMLID_48_"
       gradientUnits="userSpaceOnUse"
       gradientTransform="translate(-4.882813e-4,9.765625e-4)"><stop
         id="stop261"
         style="stop-color:#009933;stop-opacity:1"
         offset="0" /><stop
         id="stop263"
         style="stop-color:#6fcf00;stop-opacity:1"
         offset="1" /><a:midPointStop
         offset="0"
         style="stop-color:#009933" /><a:midPointStop
         offset="0.5"
         style="stop-color:#009933" /><a:midPointStop
         offset="1"
         style="stop-color:#6FCF00" /></linearGradient><linearGradient
       x1="86.3452"
       y1="130.9951"
       x2="86.3452"
       y2="124.2214"
       id="XMLID_51_"
       gradientUnits="userSpaceOnUse"
       gradientTransform="translate(-4.882813e-4,9.765625e-4)"><stop
         id="stop290"
         style="stop-color:#663333;stop-opacity:1"
         offset="0" /><stop
         id="stop292"
         style="stop-color:#824f26;stop-opacity:1"
         offset="1" /><a:midPointStop
         offset="0"
         style="stop-color:#663333" /><a:midPointStop
         offset="0.5"
         style="stop-color:#663333" /><a:midPointStop
         offset="1"
         style="stop-color:#824F26" /></linearGradient><linearGradient
       x1="595.99017"
       y1="136.166"
       x2="595.99017"
       y2="131.64909"
       id="XMLID_52_"
       gradientUnits="userSpaceOnUse"
       gradientTransform="matrix(-1,0,0,-1,682.334,255)"><stop
         id="stop297"
         style="stop-color:#663333;stop-opacity:1"
         offset="0" /><stop
         id="stop299"
         style="stop-color:#824f26;stop-opacity:1"
         offset="1" /><a:midPointStop
         offset="0"
         style="stop-color:#663333" /><a:midPointStop
         offset="0.5"
         style="stop-color:#663333" /><a:midPointStop
         offset="1"
         style="stop-color:#824F26" /></linearGradient><linearGradient
       x1="86.3452"
       y1="130.9951"
       x2="86.3452"
       y2="124.2214"
       id="linearGradient3942"
       xlink:href="#XMLID_51_"
       gradientUnits="userSpaceOnUse"
       gradientTransform="matrix(1.6693358,0,0,1.5579382,4.5365029,-75.138034)" /><linearGradient
       x1="110.0752"
       y1="150.06351"
       x2="105.9336"
       y2="150.06351"
       id="linearGradient3957"
       xlink:href="#XMLID_48_"
       gradientUnits="userSpaceOnUse"
       gradientTransform="matrix(1.6693358,0,0,1.5579382,4.5365029,-75.138034)" /><linearGradient
       x1="108.0044"
       y1="152.14059"
       x2="108.0044"
       y2="147.99429"
       id="linearGradient3960"
       xlink:href="#XMLID_47_"
       gradientUnits="userSpaceOnUse"
       gradientTransform="matrix(1.6693358,0,0,1.5579382,4.5365029,-75.138034)" /><linearGradient
       x1="122.7407"
       y1="163.00591"
       x2="96.799301"
       y2="137.06441"
       id="linearGradient3966"
       xlink:href="#XMLID_45_"
       gradientUnits="userSpaceOnUse"
       gradientTransform="matrix(1.6693358,0,0,1.5579382,4.5365029,-75.138034)" /><linearGradient
       x1="117.4688"
       y1="192.0938"
       x2="90.433403"
       y2="165.0584"
       id="linearGradient3970"
       xlink:href="#XMLID_43_"
       gradientUnits="userSpaceOnUse"
       gradientTransform="matrix(1.7866901,1.5579382e-4,1.6693358e-4,1.7113952,1.9800619,-146.77558)" /><radialGradient
       cx="76.373497"
       cy="82.791"
       r="47.318901"
       fx="76.373497"
       fy="82.791"
       id="radialGradient3977"
       xlink:href="#XMLID_42_"
       gradientUnits="userSpaceOnUse"
       gradientTransform="matrix(1.6693358,0,0,1.5579382,4.5365029,-75.138034)" /><linearGradient
       x1="66.807602"
       y1="117.8262"
       x2="105.8804"
       y2="117.8262"
       id="linearGradient3981"
       xlink:href="#XMLID_40_"
       gradientUnits="userSpaceOnUse"
       gradientTransform="matrix(1.6693358,0,0,1.5579382,4.5365029,-75.138034)" /><linearGradient
       x1="66.526901"
       y1="122.1152"
       x2="106.1616"
       y2="122.1152"
       id="linearGradient3985"
       xlink:href="#XMLID_39_"
       gradientUnits="userSpaceOnUse"
       gradientTransform="matrix(1.6693358,0,0,1.5579382,4.5365029,-75.138034)" /><linearGradient
       x1="105.4448"
       y1="122.6216"
       x2="67.244598"
       y2="122.6222"
       id="linearGradient3990"
       xlink:href="#XMLID_38_"
       gradientUnits="userSpaceOnUse"
       gradientTransform="matrix(1.6693358,0,0,1.5579382,4.5365029,-75.138034)" /><linearGradient
       x1="86.343803"
       y1="167.0137"
       x2="86.343803"
       y2="114.2524"
       id="linearGradient3996"
       xlink:href="#XMLID_37_"
       gradientUnits="userSpaceOnUse"
       gradientTransform="matrix(1.6693358,0,0,1.5579382,4.5365029,-75.138034)" /><radialGradient
       cx="87.391602"
       cy="90.318802"
       r="89.119003"
       fx="87.391602"
       fy="90.318802"
       id="radialGradient3999"
       xlink:href="#XMLID_36_"
       gradientUnits="userSpaceOnUse"
       gradientTransform="matrix(1.6693358,0,0,1.5579382,4.5365029,-75.138034)" /><linearGradient
       x1="86.347198"
       y1="112.7109"
       x2="86.347198"
       y2="183.20261"
       id="linearGradient4002"
       xlink:href="#XMLID_35_"
       gradientUnits="userSpaceOnUse"
       gradientTransform="matrix(1.6693358,0,0,1.5579382,4.5365029,-75.138034)" /><linearGradient
       x1="80.309097"
       y1="127.1787"
       x2="80.309097"
       y2="110.0138"
       id="XMLID_49_"
       gradientUnits="userSpaceOnUse"
       gradientTransform="translate(-4.882813e-4,9.765625e-4)"><stop
         id="stop276"
         style="stop-color:#663333;stop-opacity:1"
         offset="0" /><stop
         id="stop278"
         style="stop-color:#824f26;stop-opacity:1"
         offset="1" /><a:midPointStop
         style="stop-color:#663333"
         offset="0" /><a:midPointStop
         style="stop-color:#663333"
         offset="0.5" /><a:midPointStop
         style="stop-color:#824F26"
         offset="1" /></linearGradient><linearGradient
       x1="545.81152"
       y1="127.1797"
       x2="545.81152"
       y2="110.014"
       id="XMLID_50_"
       gradientUnits="userSpaceOnUse"
       gradientTransform="matrix(-1,0,0,1,638.1875,0)"><stop
         id="stop283"
         style="stop-color:#663333;stop-opacity:1"
         offset="0" /><stop
         id="stop285"
         style="stop-color:#824f26;stop-opacity:1"
         offset="1" /><a:midPointStop
         style="stop-color:#663333"
         offset="0" /><a:midPointStop
         style="stop-color:#663333"
         offset="0.5" /><a:midPointStop
         style="stop-color:#824F26"
         offset="1" /></linearGradient><linearGradient
       x1="545.81152"
       y1="127.1797"
       x2="545.81152"
       y2="110.014"
       id="linearGradient4017"
       xlink:href="#XMLID_50_"
       gradientUnits="userSpaceOnUse"
       gradientTransform="matrix(-1.6693358,0,0,1.5579382,1069.8866,-75.139555)" /><linearGradient
       x1="80.309097"
       y1="127.1787"
       x2="80.309097"
       y2="110.0138"
       id="linearGradient4020"
       xlink:href="#XMLID_49_"
       gradientUnits="userSpaceOnUse"
       gradientTransform="matrix(1.6693358,0,0,1.5579382,4.5365029,-75.138034)" /><linearGradient
       x1="154.16801"
       y1="151.19952"
       x2="156.48553"
       y2="151.39146"
       id="linearGradient4830"
       xlink:href="#linearGradient4824"
       gradientUnits="userSpaceOnUse"
       gradientTransform="matrix(3.7580216,-0.67965557,0.24512155,1.5325101,-478.98965,28.011026)" /></defs><rect
     width="256"
     height="256"
     x="0"
     y="0"
     id="rect13"
     style="fill:none" /><path
     d="m 37.826913,12.522223 c -14.135506,0 -25.636884,7.524592 -25.636884,16.782777 l 0,197.23508 c 0,9.25374 11.503643,16.7902 25.636884,16.7902 l 461.491097,0 c 14.13324,-0.003 25.63689,-7.52163 25.63689,-16.78426 l 0,-197.24102 c -0.002,-9.258185 -11.50365,-16.782777 -25.63915,-16.782777 l -461.488837,0 z"
     id="path20"
     style="fill:url(#linearGradient3625)"
     inkscape:connector-curvature="0" /><path
     d="m 37.826913,23.810594 c -4.627277,0 -8.398407,2.463214 -8.398407,5.495889 l 0,197.243987 c 0,3.02081 3.77113,5.4944 8.398407,5.4944 l 461.491097,0 c 4.61595,-0.003 8.412,-2.46173 8.412,-5.4944 l 0.002,-197.243987 c 0,-3.031192 -3.79604,-5.494406 -8.41426,-5.495889 l -461.491097,0 z"
     id="path27"
     style="fill:url(#linearGradient3622)"
     inkscape:connector-curvature="0" /><path
     d="m 48.469878,36.260132 c 0,12.489577 0,170.842658 0,183.332238 19.806922,-0.009 420.405042,-0.006 440.218762,0 -0.002,-12.48958 -0.002,-170.842661 0,-183.332238 -19.81599,0.0015 -420.41184,0 -440.218762,0 z"
     id="path40"
     style="fill:url(#linearGradient3619)"
     inkscape:connector-curvature="0" /><path
     d="m 48.467613,35.819689 c 0,12.516271 0,171.251961 0,183.772681 19.809187,-0.006 420.405037,-0.006 440.218757,0 -0.002,-12.52072 0,-171.25641 0,-183.771198 -19.81372,0 -420.40957,0 -440.218757,-0.0015 z"
     id="path49"
     style="fill:url(#linearGradient3616)"
     inkscape:connector-curvature="0" /><path
     d="m 262.07208,51.263344 c 0,5.128112 0,12.961162 0,18.090757 12.94414,0 185.80909,0 198.7487,0 0,-5.129595 0,-12.961162 0,-18.090757 -12.94414,-0.0015 -185.80456,0 -198.7487,0 z"
     id="path56"
     style="fill:url(#linearGradient3613)"
     inkscape:connector-curvature="0" /><path
     d="m 262.07208,96.167691 c 0,5.129599 0,12.962649 0,18.092239 12.94414,0 185.80682,0 198.74644,0 0,-5.13107 0,-12.96264 0.002,-18.090756 -12.94867,0 -185.80456,-0.0015 -198.7487,-0.0015 z"
     id="path63"
     style="fill:url(#linearGradient3610)"
     inkscape:connector-curvature="0" /><path
     d="m 262.07208,141.07649 c 0,5.1296 0,12.96117 0,18.09373 12.94188,0 185.80682,-0.003 198.74644,-0.003 0,-5.12959 0,-12.96116 0.002,-18.09076 -12.94867,0 -185.80456,0 -198.7487,0 z"
     id="path70"
     style="fill:url(#linearGradient3607)"
     inkscape:connector-curvature="0" /><path
     d="m 262.07208,185.98529 c 0,5.1296 0,12.9582 -0.002,18.09076 12.94641,-0.003 185.8023,0 198.74871,0 -0.002,-5.1296 0,-12.96116 0,-18.09373 -12.94641,0.003 -185.8023,0.003 -198.74644,0.003 z"
     id="path77"
     style="fill:url(#linearGradient3604)"
     inkscape:connector-curvature="0" /><path
     d="m 189.11578,112.98772 c 7.74572,-8.17762 12.44991,-18.911817 12.44991,-30.682036 0,-25.603157 -22.23222,-46.361126 -49.66775,-46.359568 -27.4322,0 -49.67109,20.757968 -49.66942,46.359568 0,11.770219 4.71087,22.505976 12.45158,30.685146 -21.352477,11.85592 -35.662027,33.60786 -35.662027,58.48346 0,37.56032 32.630507,41.81194 72.878187,41.80882 40.24936,0.003 72.87987,-4.2485 72.8782,-41.80882 0,-24.87249 -14.30621,-46.62599 -35.65868,-58.48657 z"
     id="path81"
     style="opacity:0.2"
     inkscape:connector-curvature="0" /><path
     d="m 187.50487,111.49054 c 7.74572,-8.18074 12.45325,-18.916486 12.45158,-30.688267 0,-25.604715 -22.24057,-46.35801 -49.67109,-46.356452 -27.43387,0 -49.67443,20.751737 -49.67443,46.356452 0,11.770223 4.70753,22.507527 12.45158,30.688267 -21.349135,11.85747 -35.653676,33.61096 -35.653676,58.48345 0,37.56345 32.623826,41.81195 72.874856,41.81506 40.24936,-0.003 72.87986,-4.25161 72.87986,-41.81506 0,-24.8756 -14.30955,-46.62443 -35.65868,-58.48345 z"
     id="path83"
     style="opacity:0.2"
     inkscape:connector-curvature="0" /><path
     d="m 75.801263,168.47058 c 0,37.55254 32.627167,41.80883 72.873187,41.80883 40.24602,0 72.8832,-4.25629 72.88153,-41.80883 0,-37.56657 -32.63384,-68.0118 -72.88153,-68.01336 -40.24602,0.003 -72.873187,30.44367 -72.873187,68.01336 z"
     id="path90"
     style="fill:url(#linearGradient4002)"
     inkscape:connector-curvature="0" /><path
     d="m 79.841056,167.05597 c 0,35.47581 30.820944,39.49685 68.833394,39.49685 38.01244,0 68.8334,-4.0226 68.8334,-39.49685 0,-35.47893 -30.82096,-64.24159 -68.8334,-64.24159 -38.01245,-0.001 -68.833394,28.76266 -68.833394,64.24159 z"
     id="path99"
     style="fill:url(#radialGradient3999)"
     inkscape:connector-curvature="0" /><path
     d="m 83.480208,185.05795 c 9.022757,-46.86279 33.889182,-80.85078 63.374672,-82.19838 -7.30001,0.17759 -14.31623,1.4146 -20.88173,3.5443 -20.3709,12.52738 -36.373156,41.41935 -42.916954,77.73021 0.140225,0.30225 0.27711,0.61228 0.424012,0.92387 m 130.810822,-0.92542 c -6.54045,-36.30775 -22.54438,-65.20283 -42.91528,-77.73022 -6.5655,-2.13282 -13.58339,-3.3667 -20.87671,-3.54274 29.4838,1.3476 54.34689,35.33871 63.37633,82.19526 0.13855,-0.31003 0.28045,-0.6185 0.41566,-0.9223 z"
     id="path106"
     style="fill:url(#linearGradient3996)"
     inkscape:connector-curvature="0" /><path
     d="m 129.62621,107.65853 39.50762,0.1039 -13.02082,23.47293 -15.46918,0.20773 -11.01762,-23.78456 z"
     id="rect4837"
     style="fill:#fe0300;fill-opacity:1;fill-rule:nonzero;stroke:#ac0000;stroke-width:0.85333329;stroke-miterlimit:4;stroke-dasharray:none;stroke-opacity:1"
     inkscape:connector-curvature="0" /><path
     d="m 148.67445,102.02295 c -17.60648,0 -31.88432,8.72912 -31.88432,19.4867 0,6.24733 4.81938,11.79826 12.298,15.37373 -0.4407,-1.01266 -0.67441,-2.07206 -0.67274,-3.16729 -0.001,-6.84091 9.07284,-8.58892 20.25739,-8.58892 11.18622,10e-4 20.25906,1.74957 20.25739,8.58892 0.001,1.09523 -0.2287,2.15463 -0.67107,3.16729 7.48196,-3.57547 12.30133,-9.12485 12.29967,-15.37063 0,-10.76379 -14.2795,-19.49135 -31.88432,-19.4898 z"
     id="path112"
     style="opacity:0.2;fill:#0035ed"
     inkscape:connector-curvature="0" /><path
     d="m 148.67445,94.914086 c -17.60482,0 -31.88432,10.506724 -31.88432,23.457864 0,7.52329 4.81938,14.21775 12.298,18.51143 -0.4407,-1.21987 -0.67441,-2.4927 -0.67274,-3.81228 0,-8.23526 9.07117,-10.3447 20.25906,-10.3447 11.18622,-0.001 20.25739,2.10944 20.25739,10.34782 0,1.31801 -0.23037,2.59241 -0.67274,3.80916 7.48363,-4.29679 12.29967,-10.98814 12.30133,-18.50831 0,-12.95426 -14.28116,-23.460984 -31.88598,-23.460984 z"
     id="path119"
     style="fill:url(#linearGradient3990)"
     inkscape:connector-curvature="0" /><path
     d="m 170.94172,133.47149 c 0,1.44577 -0.25541,2.85103 -0.73451,4.1893 8.21981,-4.72523 13.51995,-12.07247 13.51995,-20.34201 0,-1.45355 -0.17027,-2.8775 -0.48911,-4.26408 -10.10282,-5.66309 -21.92339,-8.92698 -34.5636,-8.92698 -12.63687,0 -24.46078,3.26389 -34.56194,8.92543 -0.31716,1.38968 -0.48911,2.8152 -0.48744,4.2672 0,8.26953 5.2968,15.61833 13.51995,20.34044 -0.48243,-1.33516 -0.7345,-2.74509 -0.7345,-4.1893 10e-4,-9.05474 9.9676,-16.38795 22.26393,-16.38795 12.29966,0.001 22.2656,7.33477 22.26727,16.38795 z"
     id="path123"
     style="opacity:0.5;fill:#0035ed"
     inkscape:connector-curvature="0" /><path
     d="m 148.67445,93.335883 c -18.26921,0 -33.0829,10.902447 -33.0829,24.344337 0,7.80684 4.99799,14.74589 12.7554,19.20316 -0.44572,-1.26817 -0.69779,-2.5893 -0.69779,-3.95873 -10e-4,-8.54061 9.41506,-15.475 21.02529,-15.47344 11.61357,0 21.02361,6.93283 21.02361,15.47344 0,1.36943 -0.24538,2.69056 -0.69777,3.95873 7.75907,-4.45727 12.75539,-11.39477 12.75539,-19.20316 0,-13.44344 -14.81035,-24.344337 -33.08123,-24.344337 z"
     id="path130"
     style="fill:url(#linearGradient3985)"
     inkscape:connector-curvature="0" /><path
     d="m 128.02477,135.80528 c -0.11519,-0.41441 -0.18864,-0.84596 -0.25041,-1.27127 -5.67574,-5.55561 -8.89422,-13.09292 -8.08459,-20.81094 0.40398,-3.83876 0.28379,-6.35016 -0.0701,-7.68531 -1.21027,1.62337 -2.1668,3.37294 -2.84789,5.19572 -0.12019,1.64986 -0.14189,3.59883 -0.007,5.81111 0.47243,7.76477 4.83106,14.48883 11.25967,18.76069 z"
     id="path132"
     style="fill:#ffffff"
     inkscape:connector-curvature="0" /><path
     d="m 148.67445,93.335883 c -16.3812,0 -29.97459,8.768077 -32.61382,20.267217 4.51723,4.28434 9.9192,7.68063 15.93214,9.91784 3.83781,-3.69232 9.88247,-6.06973 16.68168,-6.06973 6.80087,10e-4 12.84554,2.37897 16.68668,6.06973 6.00794,-2.23721 11.40824,-5.63506 15.92546,-9.91939 -2.63588,-11.49759 -16.22594,-20.265667 -32.61214,-20.265667 z"
     id="path139"
     style="opacity:0.1;fill:url(#linearGradient3981)"
     inkscape:connector-curvature="0" /><ellipse
     cx="148.67278"
     cy="79.300423"
     id="circle148"
     style="fill:url(#linearGradient3838)"
     rx="49.672756"
     ry="46.358009" /><path
     d="m 102.12669,79.906458 c 0,23.996922 20.84165,43.443102 46.54776,43.444672 25.70944,-0.001 46.5511,-19.44775 46.5511,-43.444672 0,-23.984459 -20.84166,-43.438433 -46.54943,-43.438433 -25.70778,0 -46.54943,19.453974 -46.54943,43.438433 z"
     id="path159"
     style="fill:url(#radialGradient3977)"
     inkscape:connector-curvature="0" /><path
     d="m 158.78895,130.98969 c 0,0 -13.7837,-0.003 -17.92032,0 -0.66439,4.9262 -6.79252,50.08149 -7.32838,53.99815 3.06324,1.52677 13.87886,6.92504 16.29605,8.13399 2.41053,-1.2074 13.21614,-6.60254 16.28271,-8.13399 -0.53085,-3.91354 -6.66232,-49.06883 -7.33006,-53.99815 z"
     id="path161"
     style="opacity:0.2;fill:#0035ed"
     inkscape:connector-curvature="0" /><rect
     width="29.266796"
     height="6.5480142"
     x="169.63463"
     y="152.25713"
     id="rect186"
     style="opacity:0.95999995;fill:url(#linearGradient3970)" /><polygon
     points="116.258,160.611 116.255,150.508 98.884,150.51 98.884,160.615 98.884,160.615 107.572,162.186 "
     id="polygon205"
     style="fill:url(#linearGradient3844)"
     transform="matrix(1.6693358,0,0,1.5579382,4.5373179,-75.139555)" /><rect
     width="26.243626"
     height="5.7114015"
     x="171.54266"
     y="152.84601"
     id="rect226"
     style="opacity:0.95999995;fill:url(#linearGradient3966)" /><polygon
     points="115.591,160.082 115.591,150.705 99.861,150.709 99.861,160.082 99.861,160.082 107.729,161.537 "
     id="polygon247"
     style="fill:url(#linearGradient3848)"
     transform="matrix(1.6693358,0,0,1.5579382,4.5373179,-75.139555)" /><polygon
     points="101.633,151.105 100.184,151.105 100.187,159.369 107.41,160.658 114.631,159.365 114.631,159.078 108.854,160.148 108.854,160.148 101.633,158.811 "
     id="polygon249"
     style="fill:#dcf0ff"
     transform="matrix(1.6693358,0,0,1.5579382,4.5373179,-75.139555)" /><path
     d="m 182.4134,158.7911 c 0,1.452 1.26869,2.63448 2.82451,2.63448 1.55249,0 2.82452,-1.18715 2.82285,-2.63448 0,-1.45199 -1.27204,-2.63759 -2.82285,-2.63759 -1.55749,0 -2.82451,1.18404 -2.82451,2.63759 z"
     id="path251"
     style="opacity:0.2"
     inkscape:connector-curvature="0" /><path
     d="m 182.00608,158.65713 c 0,1.44888 1.27871,2.63136 2.82786,2.63136 1.55247,0.003 2.82451,-1.18404 2.82618,-2.63136 -0.001,-1.452 -1.27203,-2.63448 -2.82452,-2.63448 -1.55248,0.003 -2.82952,1.18403 -2.82952,2.63448 z"
     id="path258"
     style="fill:url(#linearGradient3960)"
     inkscape:connector-curvature="0" /><path
     d="m 182.65211,158.65713 c 0,1.12015 0.97489,2.0331 2.18183,2.02999 1.20692,0 2.17848,-0.90984 2.18014,-2.02999 0,-1.1264 -0.97322,-2.04247 -2.18014,-2.04247 -1.20527,-10e-4 -2.18183,0.91763 -2.18183,2.04247 z"
     id="path265"
     style="fill:url(#linearGradient3957)"
     inkscape:connector-curvature="0" /><path
     d="m 183.93082,157.80493 c -0.42067,0.38637 -0.63601,0.81481 -0.4791,0.96125 0.15525,0.14645 0.61432,-0.0483 1.03165,-0.44401 0.41733,-0.38637 0.626,-0.8148 0.47577,-0.95814 -0.15859,-0.14332 -0.61766,0.0499 -1.02832,0.4409 z"
     id="path267"
     style="fill:#006a00"
     inkscape:connector-curvature="0" /><path
     d="m 185.17949,158.98273 c -0.40732,0.38326 -0.62434,0.8148 -0.46909,0.95502 0.15525,0.14956 0.61432,-0.0483 1.03166,-0.43467 0.41733,-0.38948 0.62599,-0.82414 0.47575,-0.96747 -0.15525,-0.14645 -0.61766,0.0545 -1.03832,0.44712 z"
     id="path269"
     style="fill:#006a00"
     inkscape:connector-curvature="0" /><rect
     width="279.66605"
     height="183.10979"
     x="37.016064"
     y="35.195358"
     id="rect271"
     style="opacity:0.2;fill:none" /><path
     d="m 138.23776,119.79902 -3.33033,-9.78852 c -1.38721,-4.08647 1.64096,-7.63857 6.85764,-7.64013 l 7.27497,0 0,-8.406635 -11.51175,0 c -7.12973,0 -10.95084,5.163011 -8.74565,10.952305 l 5.04974,13.27675 c 1.54414,4.05531 6.96615,7.09485 12.23456,7.09485 l 1.54247,0 c -4.14663,0.004 -8.30995,-2.37274 -9.37165,-5.48862 z"
     id="path280"
     style="fill:url(#linearGradient4020)"
     inkscape:connector-curvature="0" /><path
     d="m 159.09945,119.79747 3.33366,-9.78697 c 1.38722,-4.08647 -1.63594,-7.64013 -6.85429,-7.63857 l -7.27997,-0.001 0,-8.40663 11.51007,0 c 7.14142,0 10.96253,5.16301 8.75567,10.95074 l -5.04974,13.27676 c -1.54247,4.05375 -6.96614,7.09485 -12.23624,7.09641 l -1.54246,0 c 4.14329,0.004 8.31329,-2.37275 9.3633,-5.49018 z"
     id="path287"
     style="fill:url(#linearGradient4017)"
     inkscape:connector-curvature="0" /><path
     d="m 135.12278,121.46446 c 0,2.18735 6.06637,8.38326 13.55334,8.38326 7.48697,0 13.55334,-6.19591 13.555,-8.38638 0,-2.19357 -6.0697,-3.97429 -13.555,-3.97429 -7.48864,0 -13.55334,1.78227 -13.55334,3.97741 z"
     id="path294"
     style="fill:url(#linearGradient3942)"
     inkscape:connector-curvature="0" /><polygon
     points="89.398,118.447 86.345,123.738 83.292,118.449 89.398,118.447 "
     id="polygon301"
     style="fill:url(#linearGradient3860)"
     transform="matrix(1.6693358,0,0,1.5579382,4.5373179,-75.139555)" /><polyline
     style="fill:none"
     points="0,256 0,0 256,0 256,256 "
     i:knockout="Off"
     id="_x3C_Slice_x3E_" /><path
     d="m 139.07618,130.62263 18.7123,0 6.92097,51.6731 -16.13474,7.01679 -14.6252,-7.01679 5.12667,-51.6731 z"
     id="rect4024-1"
     style="fill:#ae1515;fill-opacity:1;fill-rule:nonzero;stroke:none"
     inkscape:connector-curvature="0" /><path
     d="m 140.44328,134.60949 15.28171,0 5.65214,46.40746 -15.22738,7.25865 -9.6369,-5.10561 3.93043,-48.5605 z"
     id="rect4024"
     style="fill:#fd0000;fill-opacity:1;fill-rule:nonzero;stroke:none"
     inkscape:connector-curvature="0" /><path
     d="m 144.96022,134.75058 2.03244,42.80041 c -4.36268,2.0691 -7.84317,1.9753 -11.07705,1.27693 l 3.56554,-43.68201 5.47905,-0.39539 z"
     id="rect4821"
     style="fill:url(#linearGradient4830);fill-opacity:1;fill-rule:nonzero;stroke:none"
     inkscape:connector-curvature="0" /><path
     d="m 149.41424,189.52846 c 2.36879,-1.16845 12.99911,-6.42649 16.01393,-7.92056 -0.0133,-0.11528 -0.0351,-0.28665 -0.0685,-0.46893 l -21.85995,5.47148 c 2.62086,1.2962 4.94625,2.44285 5.91446,2.91801 m -14.82871,-16.65903 c -0.44738,3.27946 -0.8113,5.91861 -1.0233,7.46408 l 30.64566,-7.66505 c -0.29548,-2.10322 -0.61932,-4.45726 -0.95987,-6.97489 l -28.66249,7.17586 m 4.53058,-33.06724 c -0.31217,2.29796 -0.66106,4.82338 -1.0183,7.46408 l 21.87832,-5.46836 c -0.35724,-2.61111 -0.68777,-4.98385 -0.9582,-6.9749 l -19.90182,4.97918 m -2.26195,16.52505 c -0.34723,2.53789 -0.69779,5.0633 -1.02498,7.47655 l 26.26199,-6.56983 c -0.31718,-2.32444 -0.64269,-4.68004 -0.9582,-6.97489 l -24.27881,6.06817 z"
     id="path167"
     style="opacity:0.2"
     inkscape:connector-curvature="0" /><path
     d="m 149.76954,135.70143 6.45476,-0.20773 4.45156,45.69953 -4.63483,1.02598 -1.15544,-16.72389 -4.00317,-0.0893 -1.11288,-29.70468 z"
     id="rect4834"
     style="opacity:0.40375588;fill:#fd9696;fill-opacity:1;fill-rule:nonzero;stroke:none"
     inkscape:connector-curvature="0" /></svg>