<?xml version="1.0" encoding="UTF-8" standalone="no"?>
<!-- Created with Inkscape (http://www.inkscape.org/) -->

<svg
   xmlns:i="http://ns.adobe.com/AdobeIllustrator/10.0/"
   xmlns:a="http://ns.adobe.com/AdobeSVGViewerExtensions/3.0/"
   xmlns:dc="http://purl.org/dc/elements/1.1/"
   xmlns:cc="http://creativecommons.org/ns#"
   xmlns:rdf="http://www.w3.org/1999/02/22-rdf-syntax-ns#"
   xmlns:svg="http://www.w3.org/2000/svg"
   xmlns="http://www.w3.org/2000/svg"
   xmlns:xlink="http://www.w3.org/1999/xlink"
   xmlns:sodipodi="http://sodipodi.sourceforge.net/DTD/sodipodi-0.dtd"
   xmlns:inkscape="http://www.inkscape.org/namespaces/inkscape"
   version="1.0"
   width="48pt"
   height="48pt"
   viewBox="0 0 256 256"
   id="svg2"
   xml:space="preserve"
   inkscape:version="0.91 r"
   sodipodi:docname="certificate.svg"><metadata
     id="metadata194"><rdf:RDF><cc:Work
         rdf:about=""><dc:format>image/svg+xml</dc:format><dc:type
           rdf:resource="http://purl.org/dc/dcmitype/StillImage" /></cc:Work></rdf:RDF></metadata><sodipodi:namedview
     pagecolor="#ffffff"
     bordercolor="#666666"
     borderopacity="1"
     objecttolerance="10"
     gridtolerance="10"
     guidetolerance="10"
     inkscape:pageopacity="0"
     inkscape:pageshadow="2"
     inkscape:window-width="1680"
     inkscape:window-height="998"
     id="namedview192"
     showgrid="false"
     inkscape:zoom="5.5625733"
     inkscape:cx="6.1301456"
     inkscape:cy="35.963791"
     inkscape:window-x="0"
     inkscape:window-y="0"
     inkscape:window-maximized="1"
     inkscape:current-layer="svg2" /><defs
     id="defs305"><linearGradient
       id="linearGradient4824"><stop
         id="stop4826"
         style="stop-color:#fd9696;stop-opacity:0.34741783"
         offset="0" /><stop
         id="stop4832"
         style="stop-color:#fd9696;stop-opacity:1"
         offset="0.5" /><stop
         id="stop4828"
         style="stop-color:#fd9696;stop-opacity:0.30985916"
         offset="1" /></linearGradient><linearGradient
       x1="210.6445"
       y1="210.6416"
       x2="43.025101"
       y2="43.022202"
       id="XMLID_27_"
       gradientUnits="userSpaceOnUse"
       gradientTransform="translate(-4.882813e-4,9.765625e-4)"><stop
         id="stop16"
         style="stop-color:#003399;stop-opacity:1"
         offset="0" /><stop
         id="stop18"
         style="stop-color:#333366;stop-opacity:1"
         offset="1" /><a:midPointStop
         style="stop-color:#003399"
         offset="0" /><a:midPointStop
         style="stop-color:#003399"
         offset="0.5" /><a:midPointStop
         style="stop-color:#333366"
         offset="1" /></linearGradient><linearGradient
       x1="126.8467"
       y1="197.0508"
       x2="126.8467"
       y2="56.633801"
       id="XMLID_28_"
       gradientUnits="userSpaceOnUse"
       gradientTransform="translate(-4.882813e-4,9.765625e-4)"><stop
         id="stop23"
         style="stop-color:#9a9ab1;stop-opacity:1"
         offset="0" /><stop
         id="stop25"
         style="stop-color:#ffffff;stop-opacity:1"
         offset="1" /><a:midPointStop
         style="stop-color:#9A9AB1"
         offset="0" /><a:midPointStop
         style="stop-color:#9A9AB1"
         offset="0.5" /><a:midPointStop
         style="stop-color:#FFFFFF"
         offset="1" /></linearGradient><linearGradient
       x1="126.8462"
       y1="198.0625"
       x2="126.8462"
       y2="57.389599"
       id="XMLID_29_"
       gradientUnits="userSpaceOnUse"
       gradientTransform="translate(-4.882813e-4,9.765625e-4)"><stop
         id="stop30"
         style="stop-color:#7c74ff;stop-opacity:1"
         offset="0.0056" /><stop
         id="stop32"
         style="stop-color:#9b95ff;stop-opacity:1"
         offset="0.69099998" /><stop
         id="stop34"
         style="stop-color:#a3a1ff;stop-opacity:1"
         offset="0.76300001" /><stop
         id="stop36"
         style="stop-color:#afb2ff;stop-opacity:1"
         offset="0.8987" /><stop
         id="stop38"
         style="stop-color:#b3b8ff;stop-opacity:1"
         offset="1" /><a:midPointStop
         style="stop-color:#7C74FF"
         offset="0.0056" /><a:midPointStop
         style="stop-color:#7C74FF"
         offset="0.5" /><a:midPointStop
         style="stop-color:#9B95FF"
         offset="0.691" /><a:midPointStop
         style="stop-color:#9B95FF"
         offset="0.3559" /><a:midPointStop
         style="stop-color:#B3B8FF"
         offset="1" /></linearGradient><linearGradient
       x1="126.8457"
       y1="198.08501"
       x2="126.8457"
       y2="57.074299"
       id="XMLID_30_"
       gradientUnits="userSpaceOnUse"
       gradientTransform="translate(-4.882813e-4,9.765625e-4)"><stop
         id="stop43"
         style="stop-color:#e9e9ef;stop-opacity:1"
         offset="0" /><stop
         id="stop45"
         style="stop-color:#f9f9fb;stop-opacity:1"
         offset="0.56" /><stop
         id="stop47"
         style="stop-color:#ffffff;stop-opacity:1"
         offset="1" /><a:midPointStop
         style="stop-color:#E9E9EF"
         offset="0" /><a:midPointStop
         style="stop-color:#E9E9EF"
         offset="0.3559" /><a:midPointStop
         style="stop-color:#FFFFFF"
         offset="1" /></linearGradient><linearGradient
       x1="117.8765"
       y1="72.8638"
       x2="211.9673"
       y2="72.8638"
       id="XMLID_31_"
       gradientUnits="userSpaceOnUse"
       gradientTransform="matrix(0.9659,0.2588,-0.2588,0.9659,37.4352,-29.1286)"><stop
         id="stop52"
         style="stop-color:#7d7d99;stop-opacity:1"
         offset="0" /><stop
         id="stop54"
         style="stop-color:#b1b1c5;stop-opacity:1"
         offset="1" /><a:midPointStop
         style="stop-color:#7D7D99"
         offset="0" /><a:midPointStop
         style="stop-color:#7D7D99"
         offset="0.5" /><a:midPointStop
         style="stop-color:#B1B1C5"
         offset="1" /></linearGradient><linearGradient
       x1="117.8711"
       y1="102.1147"
       x2="211.9619"
       y2="102.1147"
       id="XMLID_32_"
       gradientUnits="userSpaceOnUse"
       gradientTransform="matrix(0.9659,0.2588,-0.2588,0.9659,37.4352,-29.1286)"><stop
         id="stop59"
         style="stop-color:#7d7d99;stop-opacity:1"
         offset="0" /><stop
         id="stop61"
         style="stop-color:#b1b1c5;stop-opacity:1"
         offset="1" /><a:midPointStop
         style="stop-color:#7D7D99"
         offset="0" /><a:midPointStop
         style="stop-color:#7D7D99"
         offset="0.5" /><a:midPointStop
         style="stop-color:#B1B1C5"
         offset="1" /></linearGradient><linearGradient
       x1="117.8755"
       y1="131.3672"
       x2="211.9653"
       y2="131.3672"
       id="XMLID_33_"
       gradientUnits="userSpaceOnUse"
       gradientTransform="matrix(0.9659,0.2588,-0.2588,0.9659,37.4352,-29.1286)"><stop
         id="stop66"
         style="stop-color:#7d7d99;stop-opacity:1"
         offset="0" /><stop
         id="stop68"
         style="stop-color:#b1b1c5;stop-opacity:1"
         offset="1" /><a:midPointStop
         style="stop-color:#7D7D99"
         offset="0" /><a:midPointStop
         style="stop-color:#7D7D99"
         offset="0.5" /><a:midPointStop
         style="stop-color:#B1B1C5"
         offset="1" /></linearGradient><linearGradient
       x1="117.8706"
       y1="160.6172"
       x2="211.9615"
       y2="160.6172"
       id="XMLID_34_"
       gradientUnits="userSpaceOnUse"
       gradientTransform="matrix(0.9659,0.2588,-0.2588,0.9659,37.4352,-29.1286)"><stop
         id="stop73"
         style="stop-color:#7d7d99;stop-opacity:1"
         offset="0" /><stop
         id="stop75"
         style="stop-color:#b1b1c5;stop-opacity:1"
         offset="1" /><a:midPointStop
         style="stop-color:#7D7D99"
         offset="0" /><a:midPointStop
         style="stop-color:#7D7D99"
         offset="0.5" /><a:midPointStop
         style="stop-color:#B1B1C5"
         offset="1" /></linearGradient><linearGradient
       x1="117.8706"
       y1="160.6172"
       x2="211.9615"
       y2="160.6172"
       id="linearGradient3604"
       xlink:href="#XMLID_34_"
       gradientUnits="userSpaceOnUse"
       gradientTransform="matrix(0.9659,0.38379276,-0.2588,1.4324012,43.571449,-104.45756)" /><linearGradient
       x1="117.8755"
       y1="131.3672"
       x2="211.9653"
       y2="131.3672"
       id="linearGradient3607"
       xlink:href="#XMLID_33_"
       gradientUnits="userSpaceOnUse"
       gradientTransform="matrix(0.9659,0.38379276,-0.2588,1.4324012,43.571449,-104.45756)" /><linearGradient
       x1="117.8711"
       y1="102.1147"
       x2="211.9619"
       y2="102.1147"
       id="linearGradient3610"
       xlink:href="#XMLID_32_"
       gradientUnits="userSpaceOnUse"
       gradientTransform="matrix(0.9659,0.38379276,-0.2588,1.4324012,43.571449,-104.45756)" /><linearGradient
       x1="117.8765"
       y1="72.8638"
       x2="211.9673"
       y2="72.8638"
       id="linearGradient3613"
       xlink:href="#XMLID_31_"
       gradientUnits="userSpaceOnUse"
       gradientTransform="matrix(0.9659,0.38379276,-0.2588,1.4324012,43.571449,-104.45756)" /><linearGradient
       x1="126.8457"
       y1="198.08501"
       x2="126.8457"
       y2="57.074299"
       id="linearGradient3616"
       xlink:href="#XMLID_30_"
       gradientUnits="userSpaceOnUse"
       gradientTransform="matrix(1,0,0,1.4829705,6.1357604,-61.259255)" /><linearGradient
       x1="126.8462"
       y1="198.0625"
       x2="126.8462"
       y2="57.389599"
       id="linearGradient3619"
       xlink:href="#XMLID_29_"
       gradientUnits="userSpaceOnUse"
       gradientTransform="matrix(1,0,0,1.4829705,6.1357604,-61.259255)" /><linearGradient
       x1="126.8467"
       y1="197.0508"
       x2="126.8467"
       y2="56.633801"
       id="linearGradient3622"
       xlink:href="#XMLID_28_"
       gradientUnits="userSpaceOnUse"
       gradientTransform="matrix(1,0,0,1.4829705,6.1357604,-61.259255)" /><linearGradient
       x1="210.6445"
       y1="210.6416"
       x2="43.025101"
       y2="43.022202"
       id="linearGradient3625"
       xlink:href="#XMLID_27_"
       gradientUnits="userSpaceOnUse"
       gradientTransform="matrix(1,0,0,1.4829705,6.1357604,-61.259255)" /><linearGradient
       x1="86.342796"
       y1="69.372597"
       x2="86.342796"
       y2="128.8848"
       id="linearGradient3838"
       xlink:href="#XMLID_41_"
       gradientUnits="userSpaceOnUse"
       gradientTransform="matrix(1,0,0,1.4829705,6.1357604,-61.259255)" /><linearGradient
       x1="119.9502"
       y1="167.94141"
       x2="91.554802"
       y2="139.54601"
       id="linearGradient3844"
       xlink:href="#XMLID_44_"
       gradientUnits="userSpaceOnUse"
       gradientTransform="translate(-4.882813e-4,9.765625e-4)" /><linearGradient
       x1="119.0371"
       y1="166.7041"
       x2="93.096397"
       y2="140.7634"
       id="linearGradient3848"
       xlink:href="#XMLID_46_"
       gradientUnits="userSpaceOnUse"
       gradientTransform="translate(-4.882813e-4,9.765625e-4)" /><linearGradient
       x1="595.99017"
       y1="136.166"
       x2="595.99017"
       y2="131.64909"
       id="linearGradient3860"
       xlink:href="#XMLID_52_"
       gradientUnits="userSpaceOnUse"
       gradientTransform="matrix(-1,0,0,-1,682.334,255)" /><linearGradient
       x1="86.347198"
       y1="112.7109"
       x2="86.347198"
       y2="183.20261"
       id="XMLID_35_"
       gradientUnits="userSpaceOnUse"
       gradientTransform="translate(-4.882813e-4,9.765625e-4)"><stop
         id="stop86"
         style="stop-color:#428aff;stop-opacity:1"
         offset="0" /><stop
         id="stop88"
         style="stop-color:#0035ed;stop-opacity:1"
         offset="1" /><a:midPointStop
         offset="0"
         style="stop-color:#428AFF" /><a:midPointStop
         offset="0.5"
         style="stop-color:#428AFF" /><a:midPointStop
         offset="1"
         style="stop-color:#0035ED" /></linearGradient><radialGradient
       cx="87.391602"
       cy="90.318802"
       r="89.119003"
       fx="87.391602"
       fy="90.318802"
       id="XMLID_36_"
       gradientUnits="userSpaceOnUse"
       gradientTransform="translate(-4.882813e-4,9.765625e-4)"><stop
         id="stop93"
         style="stop-color:#428aff;stop-opacity:1"
         offset="0.34830001" /><stop
         id="stop95"
         style="stop-color:#ffffff;stop-opacity:1"
         offset="0.53930002" /><stop
         id="stop97"
         style="stop-color:#57adff;stop-opacity:1"
         offset="1" /><a:midPointStop
         offset="0.3483"
         style="stop-color:#428AFF" /><a:midPointStop
         offset="0.5"
         style="stop-color:#428AFF" /><a:midPointStop
         offset="0.5393"
         style="stop-color:#FFFFFF" /><a:midPointStop
         offset="0.5"
         style="stop-color:#FFFFFF" /><a:midPointStop
         offset="1"
         style="stop-color:#57ADFF" /></radialGradient><linearGradient
       x1="86.343803"
       y1="167.0137"
       x2="86.343803"
       y2="114.2524"
       id="XMLID_37_"
       gradientUnits="userSpaceOnUse"
       gradientTransform="translate(-4.882813e-4,9.765625e-4)"><stop
         id="stop102"
         style="stop-color:#57adff;stop-opacity:1"
         offset="0" /><stop
         id="stop104"
         style="stop-color:#00008d;stop-opacity:1"
         offset="1" /><a:midPointStop
         offset="0"
         style="stop-color:#57ADFF" /><a:midPointStop
         offset="0.5"
         style="stop-color:#57ADFF" /><a:midPointStop
         offset="1"
         style="stop-color:#00008D" /></linearGradient><linearGradient
       x1="105.4448"
       y1="122.6216"
       x2="67.244598"
       y2="122.6222"
       id="XMLID_38_"
       gradientUnits="userSpaceOnUse"
       gradientTransform="translate(-4.882813e-4,9.765625e-4)"><stop
         id="stop115"
         style="stop-color:#428aff;stop-opacity:1"
         offset="0" /><stop
         id="stop117"
         style="stop-color:#0035ed;stop-opacity:1"
         offset="1" /><a:midPointStop
         offset="0"
         style="stop-color:#428AFF" /><a:midPointStop
         offset="0.5"
         style="stop-color:#428AFF" /><a:midPointStop
         offset="1"
         style="stop-color:#0035ED" /></linearGradient><linearGradient
       x1="66.526901"
       y1="122.1152"
       x2="106.1616"
       y2="122.1152"
       id="XMLID_39_"
       gradientUnits="userSpaceOnUse"
       gradientTransform="translate(-4.882813e-4,9.765625e-4)"><stop
         id="stop126"
         style="stop-color:#dcf0ff;stop-opacity:1"
         offset="0" /><stop
         id="stop128"
         style="stop-color:#94caff;stop-opacity:1"
         offset="1" /><a:midPointStop
         offset="0"
         style="stop-color:#DCF0FF" /><a:midPointStop
         offset="0.5"
         style="stop-color:#DCF0FF" /><a:midPointStop
         offset="1"
         style="stop-color:#94CAFF" /></linearGradient><linearGradient
       x1="66.807602"
       y1="117.8262"
       x2="105.8804"
       y2="117.8262"
       id="XMLID_40_"
       gradientUnits="userSpaceOnUse"
       gradientTransform="translate(-4.882813e-4,9.765625e-4)"><stop
         id="stop135"
         style="stop-color:#0053bd;stop-opacity:1"
         offset="0" /><stop
         id="stop137"
         style="stop-color:#00008d;stop-opacity:1"
         offset="1" /><a:midPointStop
         offset="0"
         style="stop-color:#0053BD" /><a:midPointStop
         offset="0.5"
         style="stop-color:#0053BD" /><a:midPointStop
         offset="1"
         style="stop-color:#00008D" /></linearGradient><linearGradient
       x1="86.342796"
       y1="69.372597"
       x2="86.342796"
       y2="128.8848"
       id="XMLID_41_"
       gradientUnits="userSpaceOnUse"
       gradientTransform="translate(-4.882813e-4,9.765625e-4)"><stop
         id="stop142"
         style="stop-color:#c76200;stop-opacity:1"
         offset="0" /><stop
         id="stop144"
         style="stop-color:#d8922a;stop-opacity:1"
         offset="0.5" /><stop
         id="stop146"
         style="stop-color:#996600;stop-opacity:1"
         offset="1" /><a:midPointStop
         offset="0"
         style="stop-color:#C76200" /><a:midPointStop
         offset="0.5"
         style="stop-color:#C76200" /><a:midPointStop
         offset="0.5"
         style="stop-color:#D8922A" /><a:midPointStop
         offset="0.5"
         style="stop-color:#D8922A" /><a:midPointStop
         offset="1"
         style="stop-color:#996600" /></linearGradient><radialGradient
       cx="76.373497"
       cy="82.791"
       r="47.318901"
       fx="76.373497"
       fy="82.791"
       id="XMLID_42_"
       gradientUnits="userSpaceOnUse"
       gradientTransform="translate(-4.882813e-4,9.765625e-4)"><stop
         id="stop151"
         style="stop-color:#ffffff;stop-opacity:1"
         offset="0" /><stop
         id="stop153"
         style="stop-color:#ffdb9d;stop-opacity:1"
         offset="0.51679999" /><stop
         id="stop155"
         style="stop-color:#f0cd87;stop-opacity:1"
         offset="0.75279999" /><stop
         id="stop157"
         style="stop-color:#ba8a2b;stop-opacity:1"
         offset="1" /><a:midPointStop
         offset="0"
         style="stop-color:#FFFFFF" /><a:midPointStop
         offset="0.5"
         style="stop-color:#FFFFFF" /><a:midPointStop
         offset="0.5168"
         style="stop-color:#FFDB9D" /><a:midPointStop
         offset="0.5"
         style="stop-color:#FFDB9D" /><a:midPointStop
         offset="0.7528"
         style="stop-color:#F0CD87" /><a:midPointStop
         offset="0.5"
         style="stop-color:#F0CD87" /><a:midPointStop
         offset="1"
         style="stop-color:#BA8A2B" /></radialGradient><linearGradient
       x1="117.4688"
       y1="192.0938"
       x2="90.433403"
       y2="165.0584"
       id="XMLID_43_"
       gradientUnits="userSpaceOnUse"
       gradientTransform="matrix(1.0703,1e-4,1e-4,1.0985,-1.5319,-45.9813)"><stop
         id="stop170"
         style="stop-color:#0035ed;stop-opacity:1"
         offset="0" /><stop
         id="stop172"
         style="stop-color:#1c50f0;stop-opacity:1"
         offset="0.0847" /><stop
         id="stop174"
         style="stop-color:#497cf4;stop-opacity:1"
         offset="0.23980001" /><stop
         id="stop176"
         style="stop-color:#6fa0f8;stop-opacity:1"
         offset="0.396" /><stop
         id="stop178"
         style="stop-color:#8cbdfb;stop-opacity:1"
         offset="0.55089998" /><stop
         id="stop180"
         style="stop-color:#a0d1fd;stop-opacity:1"
         offset="0.704" /><stop
         id="stop182"
         style="stop-color:#adddff;stop-opacity:1"
         offset="0.85470003" /><stop
         id="stop184"
         style="stop-color:#b1e1ff;stop-opacity:1"
         offset="1" /><a:midPointStop
         offset="0"
         style="stop-color:#0035ED" /><a:midPointStop
         offset="0.3"
         style="stop-color:#0035ED" /><a:midPointStop
         offset="1"
         style="stop-color:#B1E1FF" /></linearGradient><linearGradient
       x1="119.9502"
       y1="167.94141"
       x2="91.554802"
       y2="139.54601"
       id="XMLID_44_"
       gradientUnits="userSpaceOnUse"
       gradientTransform="translate(-4.882813e-4,9.765625e-4)"><stop
         id="stop189"
         style="stop-color:#0035ed;stop-opacity:1"
         offset="0" /><stop
         id="stop191"
         style="stop-color:#1c50f0;stop-opacity:1"
         offset="0.0847" /><stop
         id="stop193"
         style="stop-color:#497cf4;stop-opacity:1"
         offset="0.23980001" /><stop
         id="stop195"
         style="stop-color:#6fa0f8;stop-opacity:1"
         offset="0.396" /><stop
         id="stop197"
         style="stop-color:#8cbdfb;stop-opacity:1"
         offset="0.55089998" /><stop
         id="stop199"
         style="stop-color:#a0d1fd;stop-opacity:1"
         offset="0.704" /><stop
         id="stop201"
         style="stop-color:#adddff;stop-opacity:1"
         offset="0.85470003" /><stop
         id="stop203"
         style="stop-color:#b1e1ff;stop-opacity:1"
         offset="1" /><a:midPointStop
         offset="0"
         style="stop-color:#0035ED" /><a:midPointStop
         offset="0.3"
         style="stop-color:#0035ED" /><a:midPointStop
         offset="1"
         style="stop-color:#B1E1FF" /></linearGradient><linearGradient
       x1="122.7407"
       y1="163.00591"
       x2="96.799301"
       y2="137.06441"
       id="XMLID_45_"
       gradientUnits="userSpaceOnUse"
       gradientTransform="translate(-4.882813e-4,9.765625e-4)"><stop
         id="stop208"
         style="stop-color:#034cfe;stop-opacity:1"
         offset="0" /><stop
         id="stop210"
         style="stop-color:#1359fe;stop-opacity:1"
         offset="0.038" /><stop
         id="stop212"
         style="stop-color:#4885fe;stop-opacity:1"
         offset="0.17739999" /><stop
         id="stop214"
         style="stop-color:#76aaff;stop-opacity:1"
         offset="0.31850001" /><stop
         id="stop216"
         style="stop-color:#9cc9ff;stop-opacity:1"
         offset="0.4585" /><stop
         id="stop218"
         style="stop-color:#b9e0ff;stop-opacity:1"
         offset="0.59740001" /><stop
         id="stop220"
         style="stop-color:#cdf1ff;stop-opacity:1"
         offset="0.73470002" /><stop
         id="stop222"
         style="stop-color:#dafcff;stop-opacity:1"
         offset="0.86970001" /><stop
         id="stop224"
         style="stop-color:#deffff;stop-opacity:1"
         offset="1" /><a:midPointStop
         offset="0"
         style="stop-color:#034CFE" /><a:midPointStop
         offset="0.3"
         style="stop-color:#034CFE" /><a:midPointStop
         offset="1"
         style="stop-color:#DEFFFF" /></linearGradient><linearGradient
       x1="119.0371"
       y1="166.7041"
       x2="93.096397"
       y2="140.7634"
       id="XMLID_46_"
       gradientUnits="userSpaceOnUse"
       gradientTransform="translate(-4.882813e-4,9.765625e-4)"><stop
         id="stop229"
         style="stop-color:#006dff;stop-opacity:1"
         offset="0" /><stop
         id="stop231"
         style="stop-color:#1379ff;stop-opacity:1"
         offset="0.0447" /><stop
         id="stop233"
         style="stop-color:#489cff;stop-opacity:1"
         offset="0.183" /><stop
         id="stop235"
         style="stop-color:#76bbff;stop-opacity:1"
         offset="0.32319999" /><stop
         id="stop237"
         style="stop-color:#9cd3ff;stop-opacity:1"
         offset="0.4623" /><stop
         id="stop239"
         style="stop-color:#b9e6ff;stop-opacity:1"
         offset="0.6002" /><stop
         id="stop241"
         style="stop-color:#cdf4ff;stop-opacity:1"
         offset="0.73650002" /><stop
         id="stop243"
         style="stop-color:#dafcff;stop-opacity:1"
         offset="0.87059999" /><stop
         id="stop245"
         style="stop-color:#deffff;stop-opacity:1"
         offset="1" /><a:midPointStop
         offset="0"
         style="stop-color:#006DFF" /><a:midPointStop
         offset="0.3"
         style="stop-color:#006DFF" /><a:midPointStop
         offset="1"
         style="stop-color:#DEFFFF" /></linearGradient><linearGradient
       x1="108.0044"
       y1="152.14059"
       x2="108.0044"
       y2="147.99429"
       id="XMLID_47_"
       gradientUnits="userSpaceOnUse"
       gradientTransform="translate(-4.882813e-4,9.765625e-4)"><stop
         id="stop254"
         style="stop-color:#006600;stop-opacity:1"
         offset="0" /><stop
         id="stop256"
         style="stop-color:#99ff66;stop-opacity:1"
         offset="1" /><a:midPointStop
         offset="0"
         style="stop-color:#006600" /><a:midPointStop
         offset="0.5"
         style="stop-color:#006600" /><a:midPointStop
         offset="1"
         style="stop-color:#99FF66" /></linearGradient><linearGradient
       x1="110.0752"
       y1="150.06351"
       x2="105.9336"
       y2="150.06351"
       id="XMLID_48_"
       gradientUnits="userSpaceOnUse"
       gradientTransform="translate(-4.882813e-4,9.765625e-4)"><stop
         id="stop261"
         style="stop-color:#009933;stop-opacity:1"
         offset="0" /><stop
         id="stop263"
         style="stop-color:#6fcf00;stop-opacity:1"
         offset="1" /><a:midPointStop
         offset="0"
         style="stop-color:#009933" /><a:midPointStop
         offset="0.5"
         style="stop-color:#009933" /><a:midPointStop
         offset="1"
         style="stop-color:#6FCF00" /></linearGradient><linearGradient
       x1="86.3452"
       y1="130.9951"
       x2="86.3452"
       y2="124.2214"
       id="XMLID_51_"
       gradientUnits="userSpaceOnUse"
       gradientTransform="translate(-4.882813e-4,9.765625e-4)"><stop
         id="stop290"
         style="stop-color:#663333;stop-opacity:1"
         offset="0" /><stop
         id="stop292"
         style="stop-color:#824f26;stop-opacity:1"
         offset="1" /><a:midPointStop
         offset="0"
         style="stop-color:#663333" /><a:midPointStop
         offset="0.5"
         style="stop-color:#663333" /><a:midPointStop
         offset="1"
         style="stop-color:#824F26" /></linearGradient><linearGradient
       x1="595.99017"
       y1="136.166"
       x2="595.99017"
       y2="131.64909"
       id="XMLID_52_"
       gradientUnits="userSpaceOnUse"
       gradientTransform="matrix(-1,0,0,-1,682.334,255)"><stop
         id="stop297"
         style="stop-color:#663333;stop-opacity:1"
         offset="0" /><stop
         id="stop299"
         style="stop-color:#824f26;stop-opacity:1"
         offset="1" /><a:midPointStop
         offset="0"
         style="stop-color:#663333" /><a:midPointStop
         offset="0.5"
         style="stop-color:#663333" /><a:midPointStop
         offset="1"
         style="stop-color:#824F26" /></linearGradient><linearGradient
       x1="86.3452"
       y1="130.9951"
       x2="86.3452"
       y2="124.2214"
       id="linearGradient3942"
       xlink:href="#XMLID_51_"
       gradientUnits="userSpaceOnUse"
       gradientTransform="matrix(1,0,0,1.4829705,6.1357604,-61.259255)" /><linearGradient
       x1="110.0752"
       y1="150.06351"
       x2="105.9336"
       y2="150.06351"
       id="linearGradient3957"
       xlink:href="#XMLID_48_"
       gradientUnits="userSpaceOnUse"
       gradientTransform="matrix(1,0,0,1.4829705,6.1357604,-61.259255)" /><linearGradient
       x1="108.0044"
       y1="152.14059"
       x2="108.0044"
       y2="147.99429"
       id="linearGradient3960"
       xlink:href="#XMLID_47_"
       gradientUnits="userSpaceOnUse"
       gradientTransform="matrix(1,0,0,1.4829705,6.1357604,-61.259255)" /><linearGradient
       x1="122.7407"
       y1="163.00591"
       x2="96.799301"
       y2="137.06441"
       id="linearGradient3966"
       xlink:href="#XMLID_45_"
       gradientUnits="userSpaceOnUse"
       gradientTransform="matrix(1,0,0,1.4829705,6.1357604,-61.259255)" /><linearGradient
       x1="117.4688"
       y1="192.0938"
       x2="90.433403"
       y2="165.0584"
       id="linearGradient3970"
       xlink:href="#XMLID_43_"
       gradientUnits="userSpaceOnUse"
       gradientTransform="matrix(1.0703,1.4829705e-4,1e-4,1.6290431,4.6043487,-129.44961)" /><radialGradient
       cx="76.373497"
       cy="82.791"
       r="47.318901"
       fx="76.373497"
       fy="82.791"
       id="radialGradient3977"
       xlink:href="#XMLID_42_"
       gradientUnits="userSpaceOnUse"
       gradientTransform="matrix(1,0,0,1.4829705,6.1357604,-61.259255)" /><linearGradient
       x1="66.807602"
       y1="117.8262"
       x2="105.8804"
       y2="117.8262"
       id="linearGradient3981"
       xlink:href="#XMLID_40_"
       gradientUnits="userSpaceOnUse"
       gradientTransform="matrix(1,0,0,1.4829705,6.1357604,-61.259255)" /><linearGradient
       x1="66.526901"
       y1="122.1152"
       x2="106.1616"
       y2="122.1152"
       id="linearGradient3985"
       xlink:href="#XMLID_39_"
       gradientUnits="userSpaceOnUse"
       gradientTransform="matrix(1,0,0,1.4829705,6.1357604,-61.259255)" /><linearGradient
       x1="105.4448"
       y1="122.6216"
       x2="67.244598"
       y2="122.6222"
       id="linearGradient3990"
       xlink:href="#XMLID_38_"
       gradientUnits="userSpaceOnUse"
       gradientTransform="matrix(1,0,0,1.4829705,6.1357604,-61.259255)" /><linearGradient
       x1="86.343803"
       y1="167.0137"
       x2="86.343803"
       y2="114.2524"
       id="linearGradient3996"
       xlink:href="#XMLID_37_"
       gradientUnits="userSpaceOnUse"
       gradientTransform="matrix(1,0,0,1.4829705,6.1357604,-61.259255)" /><radialGradient
       cx="87.391602"
       cy="90.318802"
       r="89.119003"
       fx="87.391602"
       fy="90.318802"
       id="radialGradient3999"
       xlink:href="#XMLID_36_"
       gradientUnits="userSpaceOnUse"
       gradientTransform="matrix(1,0,0,1.4829705,6.1357604,-61.259255)" /><linearGradient
       x1="86.347198"
       y1="112.7109"
       x2="86.347198"
       y2="183.20261"
       id="linearGradient4002"
       xlink:href="#XMLID_35_"
       gradientUnits="userSpaceOnUse"
       gradientTransform="matrix(1,0,0,1.4829705,6.1357604,-61.259255)" /><linearGradient
       x1="80.309097"
       y1="127.1787"
       x2="80.309097"
       y2="110.0138"
       id="XMLID_49_"
       gradientUnits="userSpaceOnUse"
       gradientTransform="translate(-4.882813e-4,9.765625e-4)"><stop
         id="stop276"
         style="stop-color:#663333;stop-opacity:1"
         offset="0" /><stop
         id="stop278"
         style="stop-color:#824f26;stop-opacity:1"
         offset="1" /><a:midPointStop
         style="stop-color:#663333"
         offset="0" /><a:midPointStop
         style="stop-color:#663333"
         offset="0.5" /><a:midPointStop
         style="stop-color:#824F26"
         offset="1" /></linearGradient><linearGradient
       x1="545.81152"
       y1="127.1797"
       x2="545.81152"
       y2="110.014"
       id="XMLID_50_"
       gradientUnits="userSpaceOnUse"
       gradientTransform="matrix(-1,0,0,1,638.1875,0)"><stop
         id="stop283"
         style="stop-color:#663333;stop-opacity:1"
         offset="0" /><stop
         id="stop285"
         style="stop-color:#824f26;stop-opacity:1"
         offset="1" /><a:midPointStop
         style="stop-color:#663333"
         offset="0" /><a:midPointStop
         style="stop-color:#663333"
         offset="0.5" /><a:midPointStop
         style="stop-color:#824F26"
         offset="1" /></linearGradient><linearGradient
       x1="545.81152"
       y1="127.1797"
       x2="545.81152"
       y2="110.014"
       id="linearGradient4017"
       xlink:href="#XMLID_50_"
       gradientUnits="userSpaceOnUse"
       gradientTransform="matrix(-1,0,0,1.4829705,644.32375,-61.260703)" /><linearGradient
       x1="80.309097"
       y1="127.1787"
       x2="80.309097"
       y2="110.0138"
       id="linearGradient4020"
       xlink:href="#XMLID_49_"
       gradientUnits="userSpaceOnUse"
       gradientTransform="matrix(1,0,0,1.4829705,6.1357604,-61.259255)" /><linearGradient
       x1="154.16801"
       y1="151.19952"
       x2="156.48553"
       y2="151.39146"
       id="linearGradient4830"
       xlink:href="#linearGradient4824"
       gradientUnits="userSpaceOnUse"
       gradientTransform="matrix(2.2512077,-0.64695065,0.14683777,1.458766,-283.51606,36.926289)" /></defs><rect
     width="256"
     height="256"
     x="0"
     y="0"
     id="rect13"
     style="fill:none" /><path
     d="m 31.102249,11.437477 c -6.241,0 -11.319,7.524592 -11.319,16.782777 l 0,197.235076 c 0,9.25374 5.079,16.7902 11.319,16.7902 l 203.754001,0 c 6.24,-0.003 11.319,-7.52163 11.319,-16.78426 l 0,-197.241016 c -0.001,-9.258185 -5.079,-16.782777 -11.32,-16.782777 l -203.753001,0 z"
     id="path20"
     style="fill:url(#linearGradient3625)"
     inkscape:connector-curvature="0" /><path
     d="m 31.102249,22.725848 c -2.043,0 -3.708,2.463214 -3.708,5.495889 l 0,197.243983 c 0,3.02081 1.665,5.4944 3.708,5.4944 l 203.754001,0 c 2.038,-0.003 3.714,-2.46173 3.714,-5.4944 l 0.001,-197.243983 c 0,-3.031192 -1.676,-5.494406 -3.715,-5.495889 l -203.754001,0 z"
     id="path27"
     style="fill:url(#linearGradient3622)"
     inkscape:connector-curvature="0" /><path
     d="m 35.801249,35.175386 c 0,12.489577 0,170.842654 0,183.332234 8.745,-0.009 185.614001,-0.006 194.362001,0 -0.001,-12.48958 -0.001,-170.842657 0,-183.332234 -8.749,0.0015 -185.617001,0 -194.362001,0 z"
     id="path40"
     style="fill:url(#linearGradient3619)"
     inkscape:connector-curvature="0" /><path
     d="m 35.800249,34.734943 c 0,12.516271 0,171.251957 0,183.772677 8.746,-0.006 185.614001,-0.006 194.362001,0 -0.001,-12.52072 0,-171.256406 0,-183.771194 -8.748,0 -185.616001,0 -194.362001,-0.0015 z"
     id="path49"
     style="fill:url(#linearGradient3616)"
     inkscape:connector-curvature="0" /><path
     d="m 130.10925,50.178598 c 0,5.128112 0,12.961162 0,18.090757 5.715,0 82.037,0 87.75,0 0,-5.129595 0,-12.961162 0,-18.090757 -5.715,-0.0015 -82.035,0 -87.75,0 z"
     id="path56"
     style="fill:url(#linearGradient3613)"
     inkscape:connector-curvature="0" /><path
     d="m 130.10925,95.082945 c 0,5.129595 0,12.962645 0,18.092235 5.715,0 82.036,0 87.749,0 0,-5.13107 0,-12.96264 0.001,-18.090752 -5.717,0 -82.035,-0.0015 -87.75,-0.0015 z"
     id="path63"
     style="fill:url(#linearGradient3610)"
     inkscape:connector-curvature="0" /><path
     d="m 130.10925,139.99174 c 0,5.1296 0,12.96117 0,18.09373 5.714,0 82.036,-0.003 87.749,-0.003 0,-5.12959 0,-12.96116 0.001,-18.09076 -5.717,0 -82.035,0 -87.75,0 z"
     id="path70"
     style="fill:url(#linearGradient3607)"
     inkscape:connector-curvature="0" /><path
     d="m 130.10925,184.90054 c 0,5.1296 0,12.9582 -0.001,18.09076 5.716,-0.003 82.034,0 87.75,0 -0.001,-5.1296 0,-12.96116 0,-18.09373 -5.716,0.003 -82.034,0.003 -87.749,0.003 z"
     id="path77"
     style="fill:url(#linearGradient3604)"
     inkscape:connector-curvature="0" /><path
     d="m 116.70625,117.81392 c 4.64,-7.78412 7.458,-18.001782 7.458,-29.205624 0,-24.371137 -13.318,-44.130236 -29.753001,-44.128753 -16.433,0 -29.755,19.759098 -29.754,44.128753 0,11.203842 2.822,21.422994 7.459,29.208584 -12.791,11.28541 -21.363,31.99065 -21.363,55.66924 0,35.75293 19.547,39.79996 43.657,39.79699 24.111001,0.003 43.658001,-4.04406 43.657001,-39.79699 0,-23.67563 -8.57,-44.38235 -21.361,-55.6722 z"
     id="path81"
     style="opacity:0.2"
     inkscape:connector-curvature="0" /><path
     d="m 115.74125,116.38878 c 4.64,-7.78708 7.46,-18.006226 7.459,-29.211551 0,-24.37262 -13.323,-44.12727 -29.755001,-44.125787 -16.434,0 -29.757,19.753167 -29.757,44.125787 0,11.203842 2.82,21.424471 7.459,29.211551 -12.789,11.28689 -21.358,31.99361 -21.358,55.66924 0,35.7559 19.543,39.79996 43.655,39.80292 24.111001,-0.003 43.658001,-4.04702 43.658001,-39.80292 0,-23.67859 -8.572,-44.38087 -21.361,-55.66924 z"
     id="path83"
     style="opacity:0.2"
     inkscape:connector-curvature="0" /><path
     d="m 48.826249,170.62695 c 0,35.74552 19.545,39.797 43.654,39.797 24.109001,0 43.660001,-4.05148 43.659001,-39.797 0,-35.75887 -19.549,-64.73908 -43.659001,-64.74057 -24.109,0.003 -43.654,28.97873 -43.654,64.74057 z"
     id="path90"
     style="fill:url(#linearGradient4002)"
     inkscape:connector-curvature="0" /><path
     d="m 51.246249,169.28041 c 0,33.76872 18.463,37.59627 41.234,37.59627 22.771001,0 41.234001,-3.82903 41.234001,-37.59627 0,-33.77169 -18.463,-61.15029 -41.234001,-61.15029 -22.771,-0.001 -41.234,27.3786 -41.234,61.15029 z"
     id="path99"
     style="fill:url(#radialGradient3999)"
     inkscape:connector-curvature="0" /><path
     d="m 53.426249,186.41614 c 5.405,-44.60776 20.301,-76.96025 37.964,-78.24301 -4.373,0.16905 -8.576,1.34653 -12.509,3.37375 -12.203,11.92457 -21.789,39.42626 -25.709,73.98985 0.084,0.2877 0.166,0.58281 0.254,0.87941 m 78.361001,-0.88089 c -3.918,-34.56063 -13.505,-62.06528 -25.708,-73.98985 -3.933,-2.03019 -8.137001,-3.2047 -12.506001,-3.37227 17.662001,1.28276 32.556001,33.63822 37.965001,78.24004 0.083,-0.29511 0.168,-0.58874 0.249,-0.87792 z"
     id="path106"
     style="fill:url(#linearGradient3996)"
     inkscape:connector-curvature="0" /><path
     d="m 81.069583,112.74117 23.666667,0.0989 -7.800001,22.34342 -9.266666,0.19773 -6.6,-22.64005 z"
     id="rect4837"
     style="fill:#fe0300;fill-opacity:1;fill-rule:nonzero;stroke:#ac0000;stroke-width:0.85333335;stroke-miterlimit:4;stroke-dasharray:none;stroke-opacity:1"
     inkscape:connector-curvature="0" /><path
     d="m 92.480249,107.37677 c -10.547,0 -19.1,8.30908 -19.1,18.549 0,5.94671 2.887,11.23053 7.367,14.63395 -0.264,-0.96393 -0.404,-1.97235 -0.403,-3.01488 -0.001,-6.51172 5.435,-8.17562 12.135,-8.17562 6.701,0.001 12.136001,1.66538 12.135001,8.17562 0.001,1.04253 -0.137,2.05095 -0.402,3.01488 4.482,-3.40342 7.369,-8.68576 7.368,-14.63099 0,-10.24584 -8.554,-18.55344 -19.100001,-18.55196 z"
     id="path112"
     style="opacity:0.2;fill:#0035ed"
     inkscape:connector-curvature="0" /><path
     d="m 92.480249,100.60998 c -10.546,0 -19.1,10.00115 -19.1,22.32908 0,7.16127 2.887,13.53359 7.367,17.62066 -0.264,-1.16117 -0.404,-2.37275 -0.403,-3.62883 0,-7.83898 5.434,-9.84692 12.136,-9.84692 6.701,-0.001 12.135001,2.00794 12.135001,9.84989 0,1.25459 -0.138,2.46766 -0.403,3.62586 4.483,-4.09003 7.368,-10.45939 7.369,-17.61769 0,-12.3309 -8.555,-22.33205 -19.101001,-22.33205 z"
     id="path119"
     style="fill:url(#linearGradient3990)"
     inkscape:connector-curvature="0" /><path
     d="m 105.81925,137.31201 c 0,1.3762 -0.153,2.71384 -0.44,3.98771 4.924,-4.49785 8.099,-11.49154 8.099,-19.36315 0,-1.38361 -0.102,-2.73904 -0.293,-4.05889 -6.052,-5.39059 -13.133,-8.49742 -20.705001,-8.49742 -7.57,0 -14.653,3.10683 -20.704,8.49594 -0.19,1.32281 -0.293,2.67973 -0.292,4.06186 0,7.8716 3.173,14.86678 8.099,19.36166 -0.289,-1.27091 -0.44,-2.61299 -0.44,-3.98771 0.001,-8.61902 5.971,-15.59936 13.337,-15.59936 7.368,0.001 13.338001,6.98182 13.339001,15.59936 z"
     id="path123"
     style="opacity:0.5;fill:#0035ed"
     inkscape:connector-curvature="0" /><path
     d="m 92.480249,99.107727 c -10.944,0 -19.818,10.377823 -19.818,23.172893 0,7.43117 2.994,14.03632 7.641,18.2791 -0.267,-1.20714 -0.418,-2.4647 -0.418,-3.76823 -0.001,-8.12964 5.64,-14.73035 12.595,-14.72886 6.957,0 12.594001,6.59922 12.594001,14.72886 0,1.30353 -0.147,2.56109 -0.418,3.76823 4.648,-4.24278 7.641,-10.84645 7.641,-18.2791 0,-12.79655 -8.872,-23.172893 -19.817001,-23.172893 z"
     id="path130"
     style="fill:url(#linearGradient3985)"
     inkscape:connector-curvature="0" /><path
     d="m 80.110249,139.5335 c -0.069,-0.39447 -0.113,-0.80525 -0.15,-1.2101 -3.4,-5.28827 -5.328,-12.46289 -4.843,-19.80952 0.242,-3.65404 0.17,-6.04459 -0.042,-7.31549 -0.725,1.54525 -1.298,3.21063 -1.706,4.9457 -0.072,1.57047 -0.085,3.42566 -0.004,5.53148 0.283,7.39113 2.894,13.79163 6.745,17.85793 z"
     id="path132"
     style="fill:#ffffff"
     inkscape:connector-curvature="0" /><path
     d="m 92.480249,99.107727 c -9.813,0 -17.956,8.346153 -19.537,19.291963 2.706,4.07817 5.942,7.31104 9.544,9.44059 2.299,-3.51464 5.92,-5.77765 9.993,-5.77765 4.074,0.001 7.695001,2.26449 9.996001,5.77765 3.599,-2.12955 6.834,-5.3639 9.54,-9.44207 -1.579,-10.94433 -9.72,-19.290483 -19.536001,-19.290483 z"
     id="path139"
     style="opacity:0.1;fill:url(#linearGradient3981)"
     inkscape:connector-curvature="0" /><ellipse
     cx="92.479248"
     cy="85.747643"
     id="circle148"
     style="fill:url(#linearGradient3838)"
     rx="29.756001"
     ry="44.12727" /><path
     d="m 64.596249,86.324521 c 0,22.842199 12.485,41.352629 27.884,41.354119 15.401001,-0.001 27.886001,-18.51192 27.886001,-41.354119 0,-22.830331 -12.485,-41.348183 -27.885001,-41.348183 -15.4,0 -27.885,18.517852 -27.885,41.348183 z"
     id="path159"
     style="fill:url(#radialGradient3977)"
     inkscape:connector-curvature="0" /><path
     d="m 98.539249,134.94964 c 0,0 -8.257,-0.003 -10.735,0 -0.398,4.68915 -4.069,47.67157 -4.39,51.39976 1.835,1.45331 8.314,6.59181 9.762,7.74259 1.444,-1.1493 7.917001,-6.28483 9.754001,-7.74259 -0.318,-3.72522 -3.991001,-46.70764 -4.391001,-51.39976 z"
     id="path161"
     style="opacity:0.2;fill:#0035ed"
     inkscape:connector-curvature="0" /><rect
     width="17.532"
     height="6.2329249"
     x="105.03625"
     y="155.19368"
     id="rect186"
     style="opacity:0.95999995;fill:url(#linearGradient3970)" /><polygon
     points="98.884,160.615 98.884,160.615 107.572,162.186 116.258,160.611 116.255,150.508 98.884,150.51 "
     id="polygon205"
     style="fill:url(#linearGradient3844)"
     transform="matrix(1,0,0,1.4829705,6.1362487,-61.260703)" /><rect
     width="15.721"
     height="5.4365697"
     x="106.17924"
     y="155.75423"
     id="rect226"
     style="opacity:0.95999995;fill:url(#linearGradient3966)" /><polygon
     points="99.861,160.082 99.861,160.082 107.729,161.537 115.591,160.082 115.591,150.705 99.861,150.709 "
     id="polygon247"
     style="fill:url(#linearGradient3848)"
     transform="matrix(1,0,0,1.4829705,6.1362487,-61.260703)" /><polygon
     points="101.633,151.105 100.184,151.105 100.187,159.369 107.41,160.658 114.631,159.365 114.631,159.078 108.854,160.148 108.854,160.148 101.633,158.811 "
     id="polygon249"
     style="fill:#dcf0ff"
     transform="matrix(1,0,0,1.4829705,6.1362487,-61.260703)" /><path
     d="m 112.69125,161.41325 c 0,1.38213 0.76,2.50771 1.692,2.50771 0.93,0 1.692,-1.13003 1.691,-2.50771 0,-1.38212 -0.762,-2.51067 -1.691,-2.51067 -0.933,0 -1.692,1.12706 -1.692,2.51067 z"
     id="path251"
     style="opacity:0.2"
     inkscape:connector-curvature="0" /><path
     d="m 112.44725,161.28572 c 0,1.37916 0.766,2.50474 1.694,2.50474 0.93,0.003 1.692,-1.12706 1.693,-2.50474 -10e-4,-1.38213 -0.762,-2.50771 -1.692,-2.50771 -0.93,0.003 -1.695,1.12706 -1.695,2.50771 z"
     id="path258"
     style="fill:url(#linearGradient3960)"
     inkscape:connector-curvature="0" /><path
     d="m 112.83425,161.28572 c 0,1.06625 0.584,1.93527 1.307,1.93231 0.723,0 1.305,-0.86606 1.306,-1.93231 0,-1.07219 -0.583,-1.94418 -1.306,-1.94418 -0.722,-0.001 -1.307,0.87347 -1.307,1.94418 z"
     id="path265"
     style="fill:url(#linearGradient3957)"
     inkscape:connector-curvature="0" /><path
     d="m 113.60025,160.47453 c -0.252,0.36778 -0.381,0.7756 -0.287,0.915 0.093,0.1394 0.368,-0.046 0.618,-0.42265 0.25,-0.36778 0.375,-0.77559 0.285,-0.91203 -0.095,-0.13643 -0.37,0.0475 -0.616,0.41968 z"
     id="path267"
     style="fill:#006a00"
     inkscape:connector-curvature="0" /><path
     d="m 114.34825,161.59566 c -0.244,0.36481 -0.374,0.77559 -0.281,0.90906 0.093,0.14236 0.368,-0.046 0.618,-0.41375 0.25,-0.37074 0.375,-0.78449 0.285,-0.92092 -0.093,-0.1394 -0.37,0.0519 -0.622,0.42561 z"
     id="path269"
     style="fill:#006a00"
     inkscape:connector-curvature="0" /><rect
     width="123.476"
     height="183.10979"
     x="30.744249"
     y="34.110611"
     id="rect271"
     style="opacity:0.2;fill:none" /><path
     d="m 86.228249,124.29746 -1.995,-9.3175 c -0.831,-3.88983 0.983,-7.271 4.108,-7.27249 l 4.358,0 0,-8.002106 -6.896,0 c -4.271,0 -6.56,4.914566 -5.239,10.425286 l 3.025,12.63787 c 0.925,3.86017 4.173,6.75345 7.329,6.75345 l 0.924,0 c -2.484,0.004 -4.978,-2.25857 -5.614,-5.22451 z"
     id="path280"
     style="fill:url(#linearGradient4020)"
     inkscape:connector-curvature="0" /><path
     d="m 98.725249,124.29598 1.997001,-9.31602 c 0.831,-3.88983 -0.980001,-7.27249 -4.106001,-7.271 l -4.361,-0.001 0,-8.002106 6.895,0 c 4.278001,0 6.567001,4.914566 5.245001,10.423796 l -3.025,12.63788 c -0.924,3.85869 -4.173001,6.75345 -7.330001,6.75493 l -0.924,0 c 2.482,0.004 4.98,-2.25857 5.609,-5.22599 z"
     id="path287"
     style="fill:url(#linearGradient4017)"
     inkscape:connector-curvature="0" /><path
     d="m 84.362249,125.88276 c 0,2.08209 3.634,7.97986 8.119,7.97986 4.485,0 8.119001,-5.89777 8.120001,-7.98283 0,-2.08802 -3.636001,-3.78305 -8.120001,-3.78305 -4.486,0 -8.119,1.69651 -8.119,3.78602 z"
     id="path294"
     style="fill:url(#linearGradient3942)"
     inkscape:connector-curvature="0" /><polygon
     points="89.398,118.447 89.398,118.447 86.345,123.738 83.292,118.449 "
     id="polygon301"
     style="fill:url(#linearGradient3860)"
     transform="matrix(1,0,0,1.4829705,6.1362487,-61.260703)" /><polyline
     style="fill:none"
     points="0,256 0,0 256,0 256,256 "
     i:knockout="Off"
     id="_x3C_Slice_x3E_" /><path
     d="m 86.730493,134.60024 11.20943,0 4.145947,49.1866 -9.665367,6.67914 -8.76109,-6.67914 3.07108,-49.1866 z"
     id="rect4024-1"
     style="fill:#ae1515;fill-opacity:1;fill-rule:nonzero;stroke:none"
     inkscape:connector-curvature="0" /><path
     d="m 87.549443,138.39525 9.15437,0 3.385857,44.17434 -9.121817,6.90937 -5.7729,-4.85993 2.35449,-46.22378 z"
     id="rect4024"
     style="fill:#fd0000;fill-opacity:1;fill-rule:nonzero;stroke:none"
     inkscape:connector-curvature="0" /><path
     d="m 90.255273,138.52955 1.21752,40.74086 c -2.61343,1.96954 -4.69838,1.88025 -6.63561,1.21549 l 2.13591,-41.58004 3.28217,-0.37636 z"
     id="rect4821"
     style="fill:url(#linearGradient4830);fill-opacity:1;fill-rule:nonzero;stroke:none"
     inkscape:connector-curvature="0" /><path
     d="m 92.923413,190.67153 c 1.419,-1.11222 7.786997,-6.11725 9.592997,-7.53942 -0.008,-0.10974 -0.021,-0.27286 -0.041,-0.44637 l -13.094997,5.20819 c 1.57,1.23383 2.963,2.3253 3.543,2.7776 m -8.883,-15.8574 c -0.268,3.12165 -0.486,5.63381 -0.613,7.10491 l 18.357997,-7.29621 c -0.177,-2.00201 -0.371,-4.24278 -0.575,-6.63926 l -17.169997,6.83056 m 2.714,-31.47605 c -0.187,2.18738 -0.396,4.59128 -0.61,7.10491 l 13.106,-5.20522 c -0.214,-2.48547 -0.412,-4.74403 -0.574,-6.63927 l -11.922,4.73958 m -1.355,15.72987 c -0.208,2.41576 -0.418,4.81965 -0.614,7.11678 l 15.731997,-6.25369 c -0.19,-2.21259 -0.385,-4.45484 -0.573997,-6.63926 l -14.544,5.77617 z"
     id="path167"
     style="opacity:0.2"
     inkscape:connector-curvature="0" /><path
     d="m 93.136253,139.43465 3.86666,-0.19774 2.66667,43.50048 -2.77645,0.97661 -0.69216,-15.91914 -2.39806,-0.085 -0.66666,-28.2753 z"
     id="rect4834"
     style="opacity:0.40375588;fill:#fd9696;fill-opacity:1;fill-rule:nonzero;stroke:none"
     inkscape:connector-curvature="0" /></svg>