<?xml version="1.0" encoding="UTF-8" standalone="no"?>
<!-- Created with Sodipodi ("http://www.sodipodi.com/") -->

<svg
   xmlns:a="http://ns.adobe.com/AdobeSVGViewerExtensions/3.0/"
   xmlns:xapMM="http://ns.adobe.com/xap/1.0/mm/"
   xmlns:xapGImg="http://ns.adobe.com/xap/1.0/g/img/"
   xmlns:xap="http://ns.adobe.com/xap/1.0/"
   xmlns:pdf="http://ns.adobe.com/pdf/1.3/"
   xmlns:x="adobe:ns:meta/"
   xmlns:dc="http://purl.org/dc/elements/1.1/"
   xmlns:cc="http://creativecommons.org/ns#"
   xmlns:rdf="http://www.w3.org/1999/02/22-rdf-syntax-ns#"
   xmlns:svg="http://www.w3.org/2000/svg"
   xmlns="http://www.w3.org/2000/svg"
   xmlns:xlink="http://www.w3.org/1999/xlink"
   xmlns:sodipodi="http://sodipodi.sourceforge.net/DTD/sodipodi-0.dtd"
   xmlns:inkscape="http://www.inkscape.org/namespaces/inkscape"
   width="48pt"
   height="48pt"
   viewBox="0 0 48 48"
   style="overflow:visible;enable-background:new 0 0 48 48"
   xml:space="preserve"
   id="svg589"
   sodipodi:version="0.32"
   sodipodi:docname="export.svg"
   version="1.1"
   inkscape:version="0.91 r"><defs
     id="defs677"><filter
       style="color-interpolation-filters:sRGB;"
       inkscape:label="Color Shift"
       id="filter4338"><feColorMatrix
         type="hueRotate"
         values="260"
         result="color1"
         id="feColorMatrix4340" /><feColorMatrix
         type="saturate"
         values="0.6"
         result="color2"
         id="feColorMatrix4342" /></filter><filter
       style="color-interpolation-filters:sRGB;"
       inkscape:label="Color Shift"
       id="filter4344"><feColorMatrix
         type="hueRotate"
         values="260"
         result="color1"
         id="feColorMatrix4346" /><feColorMatrix
         type="saturate"
         values="0.6"
         result="color2"
         id="feColorMatrix4348" /></filter><filter
       style="color-interpolation-filters:sRGB;"
       inkscape:label="Color Shift"
       id="filter4350"><feColorMatrix
         type="hueRotate"
         values="260"
         result="color1"
         id="feColorMatrix4352" /><feColorMatrix
         type="saturate"
         values="0.6"
         result="color2"
         id="feColorMatrix4354" /></filter><filter
       style="color-interpolation-filters:sRGB;"
       inkscape:label="Color Shift"
       id="filter4362"><feColorMatrix
         type="hueRotate"
         values="260"
         result="color1"
         id="feColorMatrix4364" /><feColorMatrix
         type="saturate"
         values="0.6"
         result="color2"
         id="feColorMatrix4366" /></filter><filter
       style="color-interpolation-filters:sRGB;"
       inkscape:label="Color Shift"
       id="filter4368"><feColorMatrix
         type="hueRotate"
         values="260"
         result="color1"
         id="feColorMatrix4370" /><feColorMatrix
         type="saturate"
         values="0.6"
         result="color2"
         id="feColorMatrix4372" /></filter><filter
       style="color-interpolation-filters:sRGB;"
       inkscape:label="Color Shift"
       id="filter4374"><feColorMatrix
         type="hueRotate"
         values="260"
         result="color1"
         id="feColorMatrix4376" /><feColorMatrix
         type="saturate"
         values="0.6"
         result="color2"
         id="feColorMatrix4378" /></filter><filter
       style="color-interpolation-filters:sRGB;"
       inkscape:label="Color Shift"
       id="filter4380"><feColorMatrix
         type="hueRotate"
         values="260"
         result="color1"
         id="feColorMatrix4382" /><feColorMatrix
         type="saturate"
         values="0.6"
         result="color2"
         id="feColorMatrix4384" /></filter><linearGradient
       inkscape:collect="always"
       xlink:href="#linearGradient8091"
       id="linearGradient2286"
       gradientUnits="userSpaceOnUse"
       x1="501.42935"
       y1="243.7218"
       x2="501.42935"
       y2="177.4375"
       gradientTransform="matrix(0.38049161,0,0,0.3712505,-163.04559,-65.167209)" /><linearGradient
       id="linearGradient8091"><stop
         style="stop-color:#5b5b5a;stop-opacity:1"
         offset="0"
         id="stop8093" /><stop
         style="stop-color:#9191a7;stop-opacity:1"
         offset="1"
         id="stop8095" /></linearGradient><linearGradient
       inkscape:collect="always"
       xlink:href="#linearGradient3226"
       id="linearGradient2292"
       gradientUnits="userSpaceOnUse"
       x1="459.44681"
       y1="161.51843"
       x2="442.96814"
       y2="218.45189"
       gradientTransform="matrix(0.3804916,0,0,0.3712505,-163.04558,-65.167209)" /><linearGradient
       id="linearGradient3226"><stop
         style="stop-color:#ffffff;stop-opacity:1"
         offset="0"
         id="stop3228" /><stop
         style="stop-color:#d8d8e5;stop-opacity:1"
         offset="1"
         id="stop3230" /></linearGradient><linearGradient
       inkscape:collect="always"
       xlink:href="#linearGradient9070"
       id="linearGradient2296"
       gradientUnits="userSpaceOnUse"
       x1="480.27173"
       y1="208.11548"
       x2="456.39401"
       y2="211.24593"
       gradientTransform="matrix(0.38049161,0,0,0.3712505,-163.04559,-65.167209)" /><linearGradient
       id="linearGradient9070"><stop
         style="stop-color:#dadae4;stop-opacity:1"
         offset="0"
         id="stop9072" /><stop
         style="stop-color:#a0a0b7;stop-opacity:1"
         offset="1"
         id="stop9074" /></linearGradient><linearGradient
       inkscape:collect="always"
       xlink:href="#linearGradient3234"
       id="linearGradient2301"
       gradientUnits="userSpaceOnUse"
       x1="431.2106"
       y1="243.7218"
       x2="431.2106"
       y2="177.4375"
       gradientTransform="matrix(0.38049161,0,0,0.3712505,-163.04559,-65.167209)" /><linearGradient
       id="linearGradient3234"><stop
         style="stop-color:#bdbdcb;stop-opacity:1"
         offset="0"
         id="stop3236" /><stop
         style="stop-color:#b3b3c9;stop-opacity:1"
         offset="1"
         id="stop3238" /></linearGradient><filter
       inkscape:collect="always"
       id="filter3275"><feGaussianBlur
         inkscape:collect="always"
         stdDeviation="1.0087729"
         id="feGaussianBlur3277" /></filter><linearGradient
       inkscape:collect="always"
       xlink:href="#linearGradient8091"
       id="linearGradient4452"
       gradientUnits="userSpaceOnUse"
       gradientTransform="matrix(0.38049161,0,0,0.3712505,-163.04559,-65.167209)"
       x1="501.42935"
       y1="243.7218"
       x2="501.42935"
       y2="177.4375" /><linearGradient
       inkscape:collect="always"
       xlink:href="#linearGradient8091"
       id="linearGradient4454"
       gradientUnits="userSpaceOnUse"
       gradientTransform="matrix(0.38049161,0,0,0.3712505,-163.04559,-65.167209)"
       x1="501.42935"
       y1="243.7218"
       x2="501.42935"
       y2="177.4375" /></defs><sodipodi:namedview
     id="base"
     showgrid="false"
     inkscape:zoom="5.5625733"
     inkscape:cx="-36.934825"
     inkscape:cy="33.153341"
     inkscape:window-width="1680"
     inkscape:window-height="998"
     inkscape:window-x="0"
     inkscape:window-y="0"
     inkscape:window-maximized="1"
     inkscape:current-layer="Layer_1" /><metadata
     id="metadata590"><xpacket>begin='﻿' id='W5M0MpCehiHzreSzNTczkc9d'    </xpacket><x:xmpmeta
       x:xmptk="XMP toolkit 3.0-29, framework 1.6"><metadata><rdf:RDF><rdf:Description
             rdf:about="uuid:9dfcc10e-f4e2-4cbf-91b0-8deea2f1a998"><pdf:Producer>
Adobe PDF library 5.00</pdf:Producer></rdf:Description><rdf:Description
             rdf:about="uuid:9dfcc10e-f4e2-4cbf-91b0-8deea2f1a998" /><rdf:Description
             rdf:about="uuid:9dfcc10e-f4e2-4cbf-91b0-8deea2f1a998" /><rdf:Description
             rdf:about="uuid:9dfcc10e-f4e2-4cbf-91b0-8deea2f1a998"><xap:CreateDate>
2004-02-04T02:08:51+02:00</xap:CreateDate><xap:ModifyDate>
2004-03-29T09:20:16Z</xap:ModifyDate><xap:CreatorTool>
Adobe Illustrator 10.0</xap:CreatorTool><xap:MetadataDate>
2004-02-29T14:54:28+01:00</xap:MetadataDate><xap:Thumbnails><rdf:Alt><rdf:li
                   rdf:parseType="Resource"><xapGImg:format>
JPEG</xapGImg:format><xapGImg:width>
256</xapGImg:width><xapGImg:height>
256</xapGImg:height><xapGImg:image>
/9j/4AAQSkZJRgABAgEASABIAAD/7QAsUGhvdG9zaG9wIDMuMAA4QklNA+0AAAAAABAASAAAAAEA
AQBIAAAAAQAB/+4ADkFkb2JlAGTAAAAAAf/bAIQABgQEBAUEBgUFBgkGBQYJCwgGBggLDAoKCwoK
DBAMDAwMDAwQDA4PEA8ODBMTFBQTExwbGxscHx8fHx8fHx8fHwEHBwcNDA0YEBAYGhURFRofHx8f
Hx8fHx8fHx8fHx8fHx8fHx8fHx8fHx8fHx8fHx8fHx8fHx8fHx8fHx8fHx8f/8AAEQgBAAEAAwER
AAIRAQMRAf/EAaIAAAAHAQEBAQEAAAAAAAAAAAQFAwIGAQAHCAkKCwEAAgIDAQEBAQEAAAAAAAAA
AQACAwQFBgcICQoLEAACAQMDAgQCBgcDBAIGAnMBAgMRBAAFIRIxQVEGE2EicYEUMpGhBxWxQiPB
UtHhMxZi8CRygvElQzRTkqKyY3PCNUQnk6OzNhdUZHTD0uIIJoMJChgZhJRFRqS0VtNVKBry4/PE
1OT0ZXWFlaW1xdXl9WZ2hpamtsbW5vY3R1dnd4eXp7fH1+f3OEhYaHiImKi4yNjo+Ck5SVlpeYmZ
qbnJ2en5KjpKWmp6ipqqusra6voRAAICAQIDBQUEBQYECAMDbQEAAhEDBCESMUEFURNhIgZxgZEy
obHwFMHR4SNCFVJicvEzJDRDghaSUyWiY7LCB3PSNeJEgxdUkwgJChgZJjZFGidkdFU38qOzwygp
0+PzhJSktMTU5PRldYWVpbXF1eX1RlZmdoaWprbG1ub2R1dnd4eXp7fH1+f3OEhYaHiImKi4yNjo
+DlJWWl5iZmpucnZ6fkqOkpaanqKmqq6ytrq+v/aAAwDAQACEQMRAD8A9U4q7FXYq7FXYq7FXYq7
FXYq7FXYq7FXYq7FXYq7FXYq7FXYq7FXYq7FXYq7FXYq7FXYq7FXYq7FXYq7FXYq7FXYq7FXYq7F
XYq7FXYq7FXYq7FXYq7FXYq7FXYq7FXYq7FXYq7FXYq7FXYq7FXYq7FXYq7FXYq7FXYq7FXYq7FX
Yq7FXYq7FXYq7FXYq7FXYq7FXYq7FXYq7FXYq7FXYq7FXYq7FXYq7FXYq7FXYq7FXYq7FXYq7FXY
q7FXzd+b/wDzlWum3k+h+QxFc3EJMdzrkoEkKuNiLZPsyU/nb4fAEb50vZ/YXEBPLsP5v62meXue
A3v5mfmprl080vmLVriXdjHBcTIi17rFCVRfoXOghocEBQhH5NJmepUf8Tfmj/1dtb/6SLv/AJqy
f5fD/Nj8gjxPN3+JvzR/6u2t/wDSRd/81Y/l8P8ANj8gviebv8Tfmj/1dtb/AOki7/5qx/L4f5sf
kF8Tzd/ib80f+rtrf/SRd/8ANWP5fD/Nj8gviebv8Tfmj/1dtb/6SLv/AJqx/L4f5sfkF8Tzd/ib
80f+rtrf/SRd/wDNWP5fD/Nj8gviebv8Tfmj/wBXbW/+ki7/AOasfy+H+bH5BfE83f4m/NH/AKu2
t/8ASRd/81Y/l8P82PyC+J5u/wATfmj/ANXbW/8ApIu/+asfy+H+bH5BfE83f4m/NH/q7a3/ANJF
3/zVj+Xw/wA2PyC+J5u/xN+aP/V21v8A6SLv/mrH8vh/mx+QXxPN3+JvzR/6u2t/9JF3/wA1Y/l8
P82PyC+J5u/xN+aP/V21v/pIu/8AmrH8vh/mx+QXxPN3+JvzR/6u2t/9JF3/AM1Y/l8P82PyC+J5
u/xN+aP/AFdtb/6SLv8A5qx/L4f5sfkF8Tzd/ib80f8Aq7a3/wBJF3/zVj+Xw/zY/IL4nm7/ABN+
aP8A1dtb/wCki7/5qx/L4f5sfkF8Tzd/ib80f+rtrf8A0kXf/NWP5fD/ADY/IL4nm7/E35o/9XbW
/wDpIu/+asfy+H+bH5BfE82j5t/M+Aes2ta3EI/i9U3N2vGnfly2x/LYT/DH5BePzZ15C/5yh/Mb
y7cxRaxcHzDpQIEsF2f9IC9zHc058v8AX5D9ea/VdiYcg9I4JeXL5NkchD688jeefLvnby/DrmhT
+rayEpLE4CywygAtFKtTxYV+RG4qDnH6nTTwT4JjdyIytkGY6XYq7FXYq7FXYq7FXjX/ADlH+YV1
5W8hppunymHU/MMj2qSqaMltGoNwynxPNE/2WbrsPSDLl4pfTDf49GvJKg+VPy+8lP5ivecqM9rG
4jWFaqZpTvw57cVUULGvcfMdtYFk7Ac3Ua3VHGAI/XLk+jNK/LfSLS0SK4JYqDSGCkUCV3PBVAPX
vtXwzWT7TlfoAA+11f5Xi3mTIo608meV/wBL2lnLbSSLcc/92sB8Kk70IOU5+0s4xSmCPT5NuDRY
pZBEjmyu2/KnydcFgliF4ip5TT/wY5ov5f1f877B+p2/8kaf+b9pVv8AlT3lL/lkT/kdcf1w/wAv
az+d9kf1I/kjTfzftLR/J/yl/wAsif8AI65/rj/L2s/nfZH9S/yRpv5v2lafyg8p/wDLKn/I65/r
h/l3Wfzvsj+pf5J03837S0fyh8p/8sqf8jrn+uP8u6z+d9kf1L/JOm/m/aWj+UXlP/llj/5HXP8A
XH+XdZ/O+yP6l/knTfzftLX/ACqPyn/yzR/8jrn+uH+XNb/O+yP6l/knTd32lr/lUflX/lmj/wCR
1z/XB/Lmt/nfZH9S/wAk6bu+0u/5VD5W/wCWaP8A5HXP9cf5d1n877I/qX+SdN/N+0u/5VB5Y/5Z
ov8Akdc/1x/l3Wfzvsj+pf5J03837S7/AJU/5a/5Zov+R1z/AFx/l3Wfzvsj+pf5J03837S7/lT3
lv8A5Zov+R1z/XB/L2s/nfZH9S/yRpv5v2l3/KnfLv8AyzRf8jrn+uP8vaz+d9kf1L/JGm/m/aXf
8qc8v/8ALNF/yOuf64/y9rP532R/Uv8AJGm/m/aXf8qb0H/lmh/5HXP9cf5f1n877I/qX+SNN/N+
0u/5U1oP/LND/wAjrn+uD+X9Z/O+wfqT/JGn/m/aVk/5P6BDBJM1rEVjUswE1xWg8KnH/RBq/wCd
9g/Uv8kaf+b9pYp5i8oeXLOGBoLQo0j8SRJIe3+Uxza9ldq6jNKQnLkO4Ov1/Z2HGAYj7SkreXdK
IoEZD/Mrmo+Vaj8M3I1eR1fgRee/mD+W8NxE91ZIPrhq0UygL6rbt6ctNubfssevy6XwmJjbYjo5
ml1csUhGRuB+xJP+cfvzGvfJvny1T1T+iNXdLTUbcn4SWNIpPZkduvgTmq7Z0gy4Sf4obj9L0WOV
F93xSJLGsiGqOAyn2O+cK5K7FXYq7FXYq7FXYq+R/wDnM65lbzjoFsT+6i05pEG/2pJ2VvbpGM6/
2cH7uR/pfocfNzb/ACCs7caXZzBAJPQuJS3fn9ZMXL/gNs2uvkRirvl+h0GffUm+kfx972EnNKyU
LXfzNpZ/4y/8QOOo/wAWn8PvbdN/fRei6SPjl/1R+vOWDvyjyMsQsIwoWkYVWEYULSMKFhGSVrFV
wOBVwOBVwOBK4HFVwOBK4HAq4HAlcDgVQ1I/7jrn/jE36siUh5X5uH+j23tL/DN52F9U/c6vtX6Q
x0nOidEgNZodNmBAP2aE9jzG4+jL9P8AWGrL9JfNGuSmDzPqEsICGK9maNRsF4ykgCnhmRKArhel
08iccT5B+iHk+4afQbcsalBx+8Bv+Ns8wdknWKuxV2KuxV2KuxV8hf8AOZn/ACneif8AbLH/AFES
52Hs7/dS/rfoDj5uaO/IUf7gbI/8ulx/1GnNlr/7v/O/Q6DN/jEv6v6nqxOahksshXzJpv8Az0/4
gcjqf8Xn8PvbdL/exei6SPjk/wBUfrzlw9AmBGTYrSMKrCMKFpGFVhGFC0jChYRklaxVcDgVcDgV
cDgSuBxVcDgSuBwKuBwJUdRP+4+5/wCMTfqyJSHlvmwf6Lb+0n8M3XYX1S9zq+1fpDwzzXoX1nzD
eT8a82U1/wBgBm1y6fikS6qGfhFJt5T076lomoJSnOSM/dTMzQYuCTj6rJxh4h5k/wCUi1T/AJjJ
/wDk62bM83fab+6j/VH3P0N8jf8AHBj+Y/5NpnlztGQYq7FXYq7FXYq7FXyF/wA5mf8AKd6J/wBs
sf8AURLnYezv91L+t+gOPm5ph+Q4/wCddsj/AMutx/1Gtmx1/wBH+d+h0Gb/ABiX9X9T1InNUl2n
b+Y9P/56f8QOQ1X+Lz+H3t+l/vYvRtJH7yT/AFR+vOWDv0xIySFhGSQtIwqsIwoWkYVWEYULSMKF
hGSVrFVwOBVwOBVwOBK4HFVwOBK4HAqjf/8AHPuf+MTfqyEkh5j5rH+iQ/65/Uc3XYf1y9zre1Pp
DDpbGzkcu8QZ26k50weeMQoXVvDDZyrEgQNQkD5jLMX1BhMbPmrzN/ykmrf8xlx/ydbMp6XTf3cf
6o+5+hnkb/jgx/Mf8m0zy52bIMVdirsVdirsVdir5C/5zM/5TvRP+2WP+oiXOw9nf7qX9b9AcfNz
TL8iR/zrFif+Xa4/6jWzYa76f879Doc/9/L3fqenE5rEL9KFfMNh85P+IHK9X/cT+H3uRpP72L0f
SR+8k/1f45yzv0xIwqtIwoWEZJC0jCqwjChaRhVYRhQtIwoWEZJWsVXA4FXA4FXA4ErgcVXA4EqV
9/vBc/8AGJv1ZCXJIea+ah/ocfsx/wCInNx2H9cvcHW9qfQGIE507z6HvN7dx8v1jLMfNhPk+Z/N
H/KTav8A8xtx/wAnWzJek0/93H+qPufoX5G/44MfzH/JtM8vdmyDFXYq7FXYq7FXYq+Qv+czP+U7
0T/tlj/qIlzsPZ3+6l/W/QHHzc0z/Isf86nYH/l3uP8AqNbM/W8v879Doc/9/L3fqelk5rkK2j76
/ZfN/wDiBynWf3Evx1cjSf3oej6UP3r/AOr/ABzl3fpliq0jCq0jChYRkkLSMKrCMKFpGFVhGFC0
jChYRklaxVcDgVcDgVcDgSuBxVTvP94rn/jE36shPkyDzjzUP9BX5n/iJzbdifXL4Ou7U+gfFhhO
dS86pXG8TD5frycebGXJ8z+av+Un1j/mNuf+TrZkh6TT/wB3H+qPufoV5G/44MfzH/JtM8vdmyDF
XYq7FXYq7FXYq+Qv+czP+U70T/tlj/qIlzsPZ3+6l/W/QHHzc01/I0f86fp5/wCKLj/qNbM7W8v8
79Dos/8AfH3fqejE5gMEVoe+u2fzf/iByjW/3Evx1cnR/wB4Ho+l/wB4/wAv45y7v0xxV2KrSMKr
SMKFhGSQtIwqsIwoWkYVWEYULSMKFhGSVrFVwOBVwOBVwOBKy6P+h3H/ABib9WQnySHnnmkf6APY
t/xE5texPrPwdf2n9A+LByc6t5xTfcEZIIL5p82f8pTrP/Mdc/8AJ5syRyek0/8Adx9w+5+hPkb/
AI4MfzH/ACbTPL3ZsgxV2KuxV2KuxV2KvkL/AJzM/wCU70T/ALZY/wCoiXOw9nf7qX9b9AcfNzTf
8jx/zpWnH/im4/6jHzO1n6f0Oi1H98fd+p6ETmE1o3y/vrdr82/4gcxtd/cycrR/3gej6b/eP8v4
5y7v0wxV2KuxVaRhVaRhQsIySFpGFVhGFC0jCqwjChaRhQsIyStYquBwKuBwKtuT/olx/wAYm/Vk
J8mUXn/mkf7jj/sv+InNp2L/AHh+Dr+0/oHxYGTnWvONDdgMUPmnzb/yletf8x9z/wAnmzIjyelw
f3cfcH6EeRv+ODH8x/ybTPMHZMgxV2KuxV2KuxV2KvkL/nMz/lO9E/7ZY/6iJc7D2d/upf1v0Bx8
3NOPyRH/ADo2mn/im4/6jHzN1fP4/odHqP70+5n5OYjUmHlzfWrb5t/xA5ia7+5k5Wi/vA9H07+8
f5fxzmHfo/FXYq7FXYqtIwqtIwoWEZJC0jCqwjChaRhVYRhQtIwoWEZJWsVXA4Fan/3luP8AjE36
shk5MosD80D/AHGt8m/4gc2XY394fg4Haf0fN56TnXvNLod5VHz/AFYJclD5p83/APKWa3/zH3X/
ACebMiPIPS4P7uPuD9CPI3/HBj+Y/wCTaZ5g7JkGKuxV2KuxV2KuxV8hf85mf8p3on/bLH/URLnY
ezv91L+t+gOPm5p1+SYp5B0w/wDFVx/1GPmZq/q+P6HR6n+9PuZ0TmM0pr5Y31iD5t/xA5h6/wDu
i5mi/vA9G0/7b/LOYd8jsVdirsVdirsVWkYVWkYULCMkhaRhVYRhQtIwqsIwoWkYULCMkrWKul/3
mn/4xt+rK8nJMebB/NA/3Fyf6r/8QObHsb+8Pw+9we0/o+bzgnOxeZVLXe4QfP8AUcjPkmPN81ec
f+Uu1z/toXX/ACebL4fSHpcH0R9wfoP5G/44MfzH/JtM8xdkyDFXYq7FXYq7FXYq+Qv+czP+U70T
/tlj/qIlzsPZ3+6l/W/QHHzc08/JUf8AIPNLP/Fdx/1GSZl6r6z7/wBDpNT/AHh9zNicocdOPKu+
rQ/M/wDEGzB7Q/ui5uh+sPRbEhXappt3zmXfI3mn8w+/FXeon8w+/FWvUj/mH3jFXepH/MPvGKu9
WP8AnH3jFXepF/Ov3jFVpeP+dfvGG1Wl4/51+8YbQtLJ/Mv3jDa0tJT+ZfvGHiCKWnj/ADL/AMEP
64eILS08f5l/4If1w8QRS0qP5l/4If1w8YWlpUfzL/wS/wBceMIorCn+Uv8AwS/1w8YXhKyai289
WXeNgPiB3I+eRnIEJiGFeZx/uKm/1H/4gc2PY/8AefL73B7S+j5vNCc7N5dWsN7uMfP/AIichl+k
so83zX5z/wCUw13/ALaF1/yffL8f0j3PS4foj7g/QbyN/wAcGP5j/k2meYuyZBirsVdirsVdirsV
fIX/ADmZ/wAp3on/AGyx/wBREudh7O/3Uv636A4+bmnv5Lj/AJBxpZ/yLj/qMkzK1X1n3/odJqv7
w+5mZOVOOmvly5jtrwTyAlIzuFpXdSO9Mw9bjM4cI6uVpJiMrLK/8T2H++5fuX/mrNL/ACdk7x+P
g7b85DuLX+JbD/fcv3L/AM1Y/wAnZO8fj4L+ch3Fr/Elj/vuX7l/5qx/k7J3j8fBfzkO4tf4jsf9
9y/cv/NWP8nZO8fj4L+ch3Fo+YrH/fcv3L/zVj/J2TvH4+C/nIdxW/4hsv5JPuX/AJqx/k7J3j8f
BfzkO4tfp+y/kk+5f+asf5Oyd4/HwX85DuLX6es/5JPuX/mrH+TsnePx8F/OQ7i1+nbP+ST7l/5q
x/k7J3j8fBfzkO4tfpy0/kk+5f64/wAnZO8fj4L+ch3Fr9N2n8kn3L/XH+TsnePx8F/OQ7i0datf
5JPuX+uP8nZO8fj4L+ch3Fb+mLX+R/uH9cf5Oyd4/HwX85DuLX6Xtv5H+4f1x/k7J3j8fBfzkO4t
fpa2/lf7h/XH+TsnePx8F/OQ7i0dVt/5X+4f1x/k7J3j8fBfzkO4tHVLf+V/uH9cf5Oyd4/HwX85
DuKW6/dxz6XcKgYFY5DvT+Q++bDs7TSx5Bdbkfe4etzicNvN5sTnWPOojTN7+If63/ETleb6Cyhz
fNnnX/lMte/7aN3/AMn3y/H9I9z02H6B7g/QXyN/xwY/mP8Ak2meYuxZBirsVdirsVdirsVfIX/O
Zn/Kd6J/2yx/1ES52Hs7/dS/rfoDj5uaf/kyP+QZ6Uf8m4/6jJMytT/eH8dHS6r6z7mXk5W4rSyy
JXgxWvWhIxMQVEiOTjdXH+/X/wCCOPAO5eM9603Vz/v1/wDgjh4I9y8Z71pu7n/fz/8ABHDwR7kc
Z71pu7r/AH8//BH+uHw49y8cu9aby6/39J/wR/rh8OPcEccu9ab27/3/ACf8E39cPhx7gjjl3rTe
3f8Av+T/AINv64fDj3BfEl3rTfXn+/5P+Db+uHw49wR4ku8rTfXv/LRJ/wAG39cPhR7gviS7ytN/
e/8ALRJ/wbf1w+FHuCPEl3ladQvv+WiX/g2/rh8KPcEeJLvK06hff8tMv/Bt/XD4Ue4L4ku8rTqN
/wD8tMv/AAbf1w+FDuCPEl3ladRv/wDlpl/4Nv64fBh3D5L4ku8rTqWof8tUv/Bt/XD4MO4fJHiy
7ytOp6h/y1Tf8jG/rh8GHcPkjxZd5aOp6j/y1Tf8jG/rh8GHcPkviy7ypvqN+6lWuZWVhRlLsQQe
xFcIwwHQfJByS7yhScta0Xo++pQj/W/4icq1H0Fnj+p82+d/+Uz1/wD7aN3/AMn3y7F9I9z02H6B
7g/QTyN/xwY/mP8Ak2meZOxZBirsVdirsVdirsVfIX/OZn/Kd6J/2yx/1ES52Hs7/dS/rfoDj5ub
IfybH/ILtJPtcf8AUZLmTqP70/jo6XVfWWVE5FxFpOFVpOFDCLz82fLtrdz2slteGSCRonKpFQlC
VNKyDbbLRjLLgKgfzh8tf8s17/wEX/VXD4ZXwytP5weWv+Wa9/4CL/qrjwFHhlo/m95b/wCWa8/4
CL/qrh4Cvhlo/m75b/5Zrz/gIv8Aqrh4V8Mrf+Vt+XD/AMe15/wEX/VXCIFHhF3/ACtjy6f+Pa8/
4CL/AKqZMYijwy1/ytXy8f8Aj3u/+Ai/6qZYNPJHhl3/ACtPy+f+Pe7/AOAj/wCqmTGll5I8Mtf8
rQ0A/wDHvd/8BH/1UywaKfkjwy7/AJWboR/497r/AICP/qpkx2fPvCOAtf8AKytDP+6Lr/gI/wDq
pkx2bk7x+PgjgLY/MXRT0guf+Bj/AOa8P8nZO8fj4LwFseftIPSG4/4FP+a8f5Pn3j8fBHAUTY+b
dOvbqO2iimWSQkKXVQNhXejHwyGTSSiLNIMSE4JzGYLCcKFpOFCN0PfVYB/rf8QOU6n+7LZi+oPm
7zx/ymvmD/tpXn/J98uxfQPcHpsX0D3B+gfkb/jgx/Mf8m0zzJ2LIMVdirsVdirsVdir5C/5zM/5
TvRP+2WP+oiXOw9nf7qX9b9AcfNzZF+To/5BVpB9rj/qMlzI1H98fx0dNq/qLJycXDWk4ULScKEq
/IbT7OTVvMty0S/Wm1BoRPQcxHVmKqT0BPXNL25M3EdKd52bEUS9s/RNv/O/3j+maC3Zu/RNv/O/
3j+mNq79E2/87/eP6Y2rv0Tb/wA7/eP6Y2rv0Tb/AM7/AHj+mNq79E2/87/eP6Y2rv0Tb/zv94/p
jau/RNv/ADv94/pjau/RNv8Azv8AeP6Y2rv0Tb/zv94/pjau/RNv/O/3j+mNq80/PXTbMeUJmaMP
LbyQvBKwBZC8gRqEU6qc6L2YyyjqwAdpA38nA7RiDiJ7nzykeekEvOpz5cSmsWx9z/xE5jak+gsZ
cmeE5qWhaThQtJwqj/L2+sW4/wBf/iDZRq/7s/jq2YfqD5v89f8AKb+Yf+2nef8AUQ+W4foHuD02
L6R7n6BeRv8Ajgx/Mf8AJtM8zdiyDFXYq7FXYq7FXYq+Qv8AnMz/AJTvRP8Atlj/AKiJc7D2d/up
f1v0Bx83Nkn5Pj/kEujn/mI/6jJcvz/35/HR02r+osjJyThLScKFhOSQgvyCamo+YR46o3/G2aHt
z6o+533Zv0l7pmhdk7FXYq7FXYq7FXYq7FXYq7FXYq8w/PPfytdr7wf8nRm/9m/8bj7pfc4PaP8A
cn4PntI89IJebTXQUpqlufc/8ROY+c+gsZcmZk5rWhaThVaThQmPlrfW7Yf6/wDybbMfWf3R/HVt
wfWHzh58/wCU58xf9tO8/wCoh8twfRH3B6fH9I9z9AfI3/HBj+Y/5NpnmbsGQYq7FXYq7FXYq7FX
yF/zmZ/yneif9ssf9REudh7O/wB1L+t+gOPm5sm/KEf8gh0Y+9x/1GTZdm/vz+OgdPrOZT8nLHAW
E5JC0nCqX/kO9NT8wf8AbUb/AI2zQ9ufVH3O+7N+kvdPUzQ07Jg/5n+a7ny3o9zq0CGY20cREHMx
hvUnEfUA9OVemZmh03jZRC6u/utpz5eCBl3PIv8AoY3V/wDq1j/pKf8A5ozoR7NxP8f2ftdf/KR/
m/ay/wDLf81dQ826lcW0tsbQWypJyWZpOXJuNKELmu7U7JGliJCXFZ7nJ0ur8UkVVPZvUzR05rvU
xpXepjSu9TGld6mNK71MaV3qY0rzP8625eXrlf8AjB/ydGb32c/xuPul9zg9o/3J+DwdI89FJebT
PRkpqEJ9z+o5RmPpLCXJlJOYLStJwoWE4UJp5V31+1H/ABk/5NtmNrf7o/D727T/AFh84efv+U68
x/8AbUvf+oh8swf3cfcHp8f0j3P0B8jf8cGP5j/k2meaOwZBirsVdirsVdirsVfIX/OZn/Kd6J/2
yx/1ES52Hs7/AHUv636A4+bmyf8AKMf8gc0U/wCVcf8AUZNl2b/GD+OgdPrOZTsnLnXrScKrScKE
s/I1qanr3/bTb/jbND22PVH3O/7N+kvb/UzROyeYfny9fJmoj/iu2/6i0zbdiD/CofH/AHJcTW/3
R+H3vmQDPQ4wefep/kEeOuah/wAYov8Ak5nOe1Eaxw/rH7nZdmfUfc+l/UziXcu9TFXepirvUxV3
qYq71MVd6mKvOPzhblolwPaH/k5m79nv8aj7j9zgdo/3J+DxdI89BJebTDTEpeRH3P6jlOQ7MZck
/JzFaFhOFC0nCqbeUd/MVoP+Mn/Jpsxdf/cy+H3hu031h84/mB/ynnmT/tqXv/UQ+Waf+7j/AFR9
z0+P6R7n6AeRv+ODH8x/ybTPNHYMgxV2KuxV2KuxV2KvkL/nMz/lO9E/7ZY/6iJc7D2d/upf1v0B
x83NlP5TD/kC+iH/AC7n/qMmy3L/AIzL8dA6jWcym5OZDrlpOFC0nChKfyUbjqmue+pN/wAbZpO3
h6of1Xf9m/SXtXqZz9Oyeafnm9fKOoD/AIrt/wDqKXNz2CP8Lh/nf7kuJrv7o/D73zaFz0mMHnre
nfkWeOt33/GKP/k5nMe1kaxQ/rH7nZ9l/Ufc+j/UzhKdy71MaV3qY0rvUxpXepjSu9TGld6mNK8/
/NduWlzL7Rf8nM3XYH+NR+P3OD2l/cn4PJEjzvSXmkbYpS4Q/wCfTKpnZjLkmpOUtC0nCq0nJITj
ybv5lsx/xk/5NPmH2h/cy+H3hv0394Hzl+YP/KfeZf8Atq3v/US+Waf+7j/VH3PTw+kPv/yN/wAc
GP5j/k2meaOwZBirsVdirsVdirsVfIX/ADmZ/wAp3on/AGyx/wBREudh7O/3Uv636A4+bmyv8qB/
yBPRD/xZc/8AUZNlmT/GpfjoHUa1MycynWrScKFhOFUn/JxuOqa1/wBtJv8AjbNR7QD1Q/qu+7M+
kvZfUznKdm83/Ox+XlW/H/Fdv/1Erm69nh/hkP8AO/3JcTXf3J+H3vncLnp8YvOPSvyUHDWL0+Mc
f/E85P2u/uof1j9ztOy/qPufQ3qZwVO6d6mNK71MaV3qY0rvUxpXepjSu9TGlYJ+ZjcrGUe0X/E8
3HYX+Mx+P3OB2l/cn4PNEjzuSXmkVbpSRTlZLGXJFk5FpWk5JC0nChOvJG/miyH/ABl/5MvmF2l/
cS+H3hyNL/eD8dHzn+Yf/Kf+Zv8AtrX3/US+T0391H+qPueoh9Iff3kb/jgx/Mf8m0zzVz2QYq7F
XYq7FXYq7FXyF/zmZ/yneif9ssf9REudh7O/3Uv636A4+bmyz8qv/JHaGf8Aiy5/6jJ8nk/xuXu/
QHUa1MCczHWLCcKrScKEk/KN+Gqaz/20W/42zV+0Y3x/1Xfdl/SXr31gZzVO0Yv520E+YLSSwbms
EyIHkjKhgUk9Tbl8hmXodXLTZRliATG+fmKas2IZImJ6sFH5J2Q/3ddffF/TOh/0W5/5kPt/W4P8
lw7ynvlX8v18vXbz25mkMoVX9QpQBWrtxAzV9pdsZNXERkAOHutyNPpI4iSDzei/WBmnpy3fWBjS
u+sDGld9YGNK76wMaV31gY0rvrAxpWGfmA4kt5B/kx/8Tzbdi/4wPj9zgdpf3J+DAkjztCXmldEp
vkbYy5Licm0LScKFhOFU98ib+a7H/nr/AMmXzB7T/wAXl8PvDkaT+8H46PnT8xf/ACYPmf8A7a19
/wBRL5PTf3Uf6o+56iHIPv3yN/xwY/mP+TaZ5q57IMVdirsVdirsVdir5C/5zMB/x1oh7fosf9RE
udh7O/3Uv636A4+bmyz8qv8AyRuh07S3Ffb/AEyfJz/xuXu/QHUa3kjSczXWLScKFpOFDH/ywfhq
OsH/AJf2/W2a72lG+P8AqO+7L+kvT/rXvnMU7R31r3xpXfWvfGld9a98aV31r3xpXfWvfGld9a98
aV31r3xpXfWvfGld9a98aV31r3xpWM+bpPUiYeyf8Szadj/4wPj9zg9pf3J+DFUjzsCXmVVkpGTg
id2MuSHJy9oWE4VWk4UJ95CqfNljQbD1a/8AIl8wO1P8Xl8PvDkaP+8H46PnX8xf/Jg+Z/8AtrX3
/US+T0v91H+qPuephyD798jf8cGP5j/k2meaueyDFXYq7FXYq7FXYq+b/wDnMvyrcXGj6F5ngQtH
YSSWV6QK8VuOLxMfBQ8bLXxYZ0vs7nAlLGeu4+DTmHVif/OOXm+xvdGvfImoTiO5LvdaSXbZlIDS
RINt0ZfUp1ILeGbPtDGYTGUfF12pxcQZ/fafeWUhjuIytDQPT4W+Ry3FljMWC6acDHmhCcta1hOF
Uo/KW39fzBf2/X1dQYU/4LNf7UHfH/Ud92V9Je4/4U/yPwzkuN2tO/wp/kfhjxrTv8Kf5H4Y8a07
/Cn+R+GPGtO/wp/kfhjxrTv8Kf5H4Y8a07/Cn+R+GPGtO/wp/kfhjxrTv8Kf5H4Y8a07/Cn+R+GP
GtO/wp/kfhjxrTz78wrH6lf/AFelKxI1Pmx/pm27GN5x8fucDtP+5PwYmkedcS8wuuEpbufb+OMD
6mMuSWE5ltK0nChyJJK4jjUu7bKqgkk+wGJIAsqBfJldi1p5F0G982+Yf3BjjMdlZsQsskjbqig/
tvxoB2FSds0Wu1H5iQxY9+8u20OlINl82eV7HUPNvny1WWs1zqF4bm8cDqC5lmb2rvT3zK1mUYMB
PdGh9wd/AWafoD5TtzBo6L2LEj5ABf8AjXPPHLTjFXYq7FXYq7FXYql/mDQdL8waLeaLqsIuNPv4
mhuIj3Vu4PZlO6nsd8sxZZY5CUeYQRb4V/NL8oPNv5a656pEs2kiX1NL1uDko+FqpzZf7qVdtvHd
Sc7vQ9o49TGuUusfxzDjTgQmOjf85K/mRp1klrMbLUymy3F5C5loBQAtDJCG+ZFfE4z7KxSN7j3O
OcUSj/8Aoaf8wf8Aq36T/wAibn/soyH8kYu+X2fqR4Ad/wBDT/mD/wBW/Sf+RNz/ANlGP8kYu+X2
fqXwAoN/zkl5puryK6v9OtRJACIHsXmtXUk9SzvcfgBlObsSEuUiPfv+puxejkjP+hnPMn++bz/u
JS/9U8xv9Dw/n/7H9rd4rv8AoZzzJ/vm8/7iUv8A1Tx/0PD+f/sf2r4rv+hnPMn++bz/ALiUv/VP
H/Q8P5/+x/aviu/6Gc8yf75vP+4lL/1Tx/0PD+f/ALH9q+K7/oZzzJ/vm8/7iUv/AFTx/wBDw/n/
AOx/aviu/wChnPMn++bz/uJS/wDVPH/Q8P5/+x/aviu/6Gc8yf75vP8AuJS/9U8f9Dw/n/7H9q+K
7/oZzzJ/vm8/7iUv/VPH/Q8P5/8Asf2r4rv+hnPMn++bz/uJS/8AVPH/AEPD+f8A7H9q+K7/AKGc
8yf75vP+4lL/ANU8f9Dw/n/7H9q+K7/oZzzJ/vm8/wC4lL/1Tx/0PD+f/sf2r4qEm/5yR8yi8jvr
awikvEBQyahNLdjgRSg4mBh1/mPyy7D2FCJ3kT7hX62vJLjFK3/Q0/5g/wDVv0n/AJE3P/ZRmT/J
GLvl9n6nH8AO/wChp/zB/wCrfpP/ACJuf+yjH+SMXfL7P1L4Ad/0NP8AmD/1b9J/5E3P/ZRj/JGL
vl9n6l8AO/6Gn/MH/q36T/yJuf8Asox/kjF3y+z9S+AGj/zlP+YJH/HP0ke/o3P/AGUY/wAkYu+X
2fqXwQwPXvM/nfz/AKxF9emm1O7qRa2cS0jiDHf040AVR0qx32+I5lxhi08L2iO9tjCtg+ifyJ/J
ubQF+u36q+tXajmRusEXXiD+vxNPAE8f2r2l+YlUfoH2+f6nKhCn0XBCkEKQxiiRgKv0ZqGxfirs
VdirsVdirsVdiqhfWFlf2slpewpcW0o4yQyKGVh7g4QSNwryzXP+cZ/yy1G4a4i0xIGY1McTyQrX
5RMo/wCFzYY+1tTAUJn40fvYHGEp/wChVPy+/wCWAf8ASXdf1yf8tar+f9kf1L4cXf8AQqn5ff8A
LAP+ku6/rj/LWq/n/ZH9S+HF3/Qqn5ff8sA/6S7r+uP8tar+f9kf1L4cXf8AQqn5ff8ALAP+ku6/
rj/LWq/n/ZH9S+HF3/Qqn5ff8sA/6S7r+uP8tar+f9kf1L4cXf8AQqn5ff8ALAP+ku6/rj/LWq/n
/ZH9S+HF3/Qqn5ff8sA/6S7r+uP8tar+f9kf1L4cXf8AQqn5ff8ALAP+ku6/rj/LWq/n/ZH9S+HF
3/Qqn5ff8sA/6S7r+uP8tar+f9kf1L4cXf8AQqn5ff8ALAP+ku6/rj/LWq/n/ZH9S+HF3/Qqn5ff
8sA/6S7r+uP8tar+f9kf1L4cXf8AQqn5ff8ALAP+ku6/rj/LWq/n/ZH9S+HF3/Qqn5ff8sA/6S7r
+uP8tar+f9kf1L4cXf8AQqn5ff8ALAP+ku6/rj/LWq/n/ZH9S+HF3/Qqn5ff8sA/6S7r+uP8tar+
f9kf1L4cXf8AQqn5ff8ALAP+ku6/rj/LWq/n/ZH9S+HF3/Qqn5ff8sA/6S7r+uP8tar+f9kf1L4c
Xf8AQqn5ff8ALAP+ku6/rj/LWq/n/ZH9S+HF3/Qqn5ff8sA/6S7r+uP8tar+f9kf1L4cW1/5xW/L
9WDCwWo33urkj7icT2zqv5/2R/UvhxZl5Z/KLy9oKcLG1t7RduRgT42p4sQN/c5g5tRkym5yMmQA
DNrOytrSL04E4j9o9ST7nKUq+KuxV2KuxV2KuxV2KuxV2KuxV2KuxV2KuxV2KuxV2KuxV2KuxV2K
uxV2KuxV2KuxV2KuxV2KuxV2KuxV2KuxV2KuxV2KuxV2KuxV2KuxV2KuxV2KuxV2KuxV2KuxV2Ku
xV2KuxV2KuxV2KuxV2KuxV2KuxV2KuxV2KuxV2KuxV2KuxV2KuxV2KuxV2KuxV2KuxV2KuxV2Kux
V2KuxV2KuxV2KuxV2KuxV2KuxV2KuxV2KuxV2KuxV2KuxV//2Q==</xapGImg:image></rdf:li></rdf:Alt></xap:Thumbnails></rdf:Description><rdf:Description
             rdf:about="uuid:9dfcc10e-f4e2-4cbf-91b0-8deea2f1a998"><xapMM:DocumentID>
uuid:f3c53255-be8a-4b04-817b-695bf2c54c8b</xapMM:DocumentID></rdf:Description><rdf:Description
             rdf:about="uuid:9dfcc10e-f4e2-4cbf-91b0-8deea2f1a998"><dc:format>
image/svg+xml</dc:format><dc:title><rdf:Alt><rdf:li
                   xml:lang="x-default">
filesave.ai</rdf:li></rdf:Alt></dc:title></rdf:Description><cc:Work
             rdf:about=""><dc:format>image/svg+xml</dc:format><dc:type
               rdf:resource="http://purl.org/dc/dcmitype/StillImage" /><dc:title></dc:title></cc:Work></rdf:RDF></metadata></x:xmpmeta><xpacket>end='w'    </xpacket></metadata><g
     id="Layer_1"><path
       style="opacity:0.2;"
       d="M9.416,5.208c-2.047,0-3.712,1.693-3.712,3.775V39.15c0,2.082,1.666,3.775,3.712,3.775h29.401     c2.047,0,3.712-1.693,3.712-3.775V8.983c0-2.082-1.665-3.775-3.712-3.775H9.416z"
       id="path592" /><path
       style="opacity:0.2;"
       d="M9.041,4.833c-2.047,0-3.712,1.693-3.712,3.775v30.167c0,2.082,1.666,3.775,3.712,3.775h29.401     c2.047,0,3.712-1.693,3.712-3.775V8.608c0-2.082-1.665-3.775-3.712-3.775H9.041z"
       id="path593" /><path
       style="fill:#00008D;filter:url(#filter4362)"
       d="M8.854,4.646c-2.047,0-3.712,1.693-3.712,3.775v30.167c0,2.082,1.666,3.775,3.712,3.775h29.401     c2.047,0,3.712-1.693,3.712-3.775V8.42c0-2.082-1.665-3.775-3.712-3.775H8.854z"
       id="path594" /><path
       style="fill:#00008D;filter:url(#filter4344)"
       d="M8.854,5.021c-1.84,0-3.337,1.525-3.337,3.4v30.167c0,1.875,1.497,3.4,3.337,3.4h29.401     c1.84,0,3.337-1.525,3.337-3.4V8.42c0-1.875-1.497-3.4-3.337-3.4H8.854z"
       id="path595" /><path
       id="path166_1_"
       style="fill:#FFFFFF;"
       d="M40.654,38.588c0,1.36-1.074,2.463-2.399,2.463H8.854c-1.326,0-2.4-1.103-2.4-2.463V8.42     c0-1.36,1.074-2.462,2.4-2.462h29.401c1.325,0,2.399,1.103,2.399,2.462V38.588z" /><linearGradient
       id="path166_2_"
       gradientUnits="userSpaceOnUse"
       x1="-149.0464"
       y1="251.1436"
       x2="-149.0464"
       y2="436.303"
       gradientTransform="matrix(0.1875 0 0 -0.1875 51.5 83.75)"><stop
         offset="0"
         style="stop-color:#B4E2FF"
         id="stop598" /><stop
         offset="1"
         style="stop-color:#006DFF"
         id="stop599" /><a:midPointStop
         offset="0"
         style="stop-color:#B4E2FF"
         id="midPointStop600" /><a:midPointStop
         offset="0.5"
         style="stop-color:#B4E2FF"
         id="midPointStop601" /><a:midPointStop
         offset="1"
         style="stop-color:#006DFF"
         id="midPointStop602" /></linearGradient><path
       id="path166"
       style="fill:url(#path166_2_);filter:url(#filter4350)"
       d="M40.654,38.588c0,1.36-1.074,2.463-2.399,2.463H8.854c-1.326,0-2.4-1.103-2.4-2.463V8.42     c0-1.36,1.074-2.462,2.4-2.462h29.401c1.325,0,2.399,1.103,2.399,2.462V38.588z" /><path
       style="fill:#FFFFFF;"
       d="M8.854,6.521c-1.013,0-1.837,0.852-1.837,1.9v30.167c0,1.048,0.824,1.9,1.837,1.9h29.401     c1.013,0,1.837-0.853,1.837-1.9V8.42c0-1.048-0.824-1.9-1.837-1.9H8.854z"
       id="path604" /><linearGradient
       id="XMLID_1_"
       gradientUnits="userSpaceOnUse"
       x1="7.3057"
       y1="7.2559"
       x2="50.7728"
       y2="50.7231"><stop
         offset="0"
         style="stop-color:#94CAFF"
         id="stop606" /><stop
         offset="1"
         style="stop-color:#006DFF"
         id="stop607" /><a:midPointStop
         offset="0"
         style="stop-color:#94CAFF"
         id="midPointStop608" /><a:midPointStop
         offset="0.5"
         style="stop-color:#94CAFF"
         id="midPointStop609" /><a:midPointStop
         offset="1"
         style="stop-color:#006DFF"
         id="midPointStop610" /></linearGradient><path
       style="fill:url(#XMLID_1_);filter:url(#filter4338)"
       d="M8.854,6.521c-1.013,0-1.837,0.852-1.837,1.9v30.167c0,1.048,0.824,1.9,1.837,1.9h29.401     c1.013,0,1.837-0.853,1.837-1.9V8.42c0-1.048-0.824-1.9-1.837-1.9H8.854z"
       id="path611" /><linearGradient
       id="XMLID_2_"
       gradientUnits="userSpaceOnUse"
       x1="23.5039"
       y1="2.187"
       x2="23.5039"
       y2="34.4368"><stop
         offset="0"
         style="stop-color:#428AFF"
         id="stop613" /><stop
         offset="1"
         style="stop-color:#C9E6FF"
         id="stop614" /><a:midPointStop
         offset="0"
         style="stop-color:#428AFF"
         id="midPointStop615" /><a:midPointStop
         offset="0.5"
         style="stop-color:#428AFF"
         id="midPointStop616" /><a:midPointStop
         offset="1"
         style="stop-color:#C9E6FF"
         id="midPointStop617" /></linearGradient><path
       style="fill:url(#XMLID_2_);filter:url(#filter4380)"
       d="M36.626,6.861c0,0-26.184,0-26.914,0c0,0.704,0,16.59,0,17.294c0.721,0,26.864,0,27.583,0     c0-0.704,0-16.59,0-17.294C36.988,6.861,36.626,6.861,36.626,6.861z"
       id="path618" /><polygon
       id="path186_1_"
       style="fill:#FFFFFF;"
       points="35.809,6.486 10.221,6.486 10.221,23.405 36.788,23.405 36.788,6.486 " /><linearGradient
       id="path186_2_"
       gradientUnits="userSpaceOnUse"
       x1="-104.5933"
       y1="411.6699"
       x2="-206.815"
       y2="309.4482"
       gradientTransform="matrix(0.1875 0 0 -0.1875 51.5 83.75)"><stop
         offset="0"
         style="stop-color:#CCCCCC"
         id="stop621" /><stop
         offset="1"
         style="stop-color:#F0F0F0"
         id="stop622" /><a:midPointStop
         offset="0"
         style="stop-color:#CCCCCC"
         id="midPointStop623" /><a:midPointStop
         offset="0.5"
         style="stop-color:#CCCCCC"
         id="midPointStop624" /><a:midPointStop
         offset="1"
         style="stop-color:#F0F0F0"
         id="midPointStop625" /></linearGradient><polygon
       id="path186"
       style="fill:url(#path186_2_);"
       points="35.809,6.486 10.221,6.486 10.221,23.405 36.788,23.405 36.788,6.486 " /><path
       style="fill:#FFFFFF;stroke:#FFFFFF;stroke-width:0.1875;"
       d="M11.488,7.019c0,0.698,0,14.542,0,15.239c0.716,0,23.417,0,24.133,0c0-0.698,0-14.541,0-15.239     C34.904,7.019,12.204,7.019,11.488,7.019z"
       id="path627" /><linearGradient
       id="XMLID_3_"
       gradientUnits="userSpaceOnUse"
       x1="34.5967"
       y1="3.5967"
       x2="18.4087"
       y2="19.7847"><stop
         offset="0"
         style="stop-color:#FFFFFF"
         id="stop629" /><stop
         offset="0.5506"
         style="stop-color:#E6EDFF"
         id="stop630" /><stop
         offset="1"
         style="stop-color:#FFFFFF"
         id="stop631" /><a:midPointStop
         offset="0"
         style="stop-color:#FFFFFF"
         id="midPointStop632" /><a:midPointStop
         offset="0.5"
         style="stop-color:#FFFFFF"
         id="midPointStop633" /><a:midPointStop
         offset="0.5506"
         style="stop-color:#E6EDFF"
         id="midPointStop634" /><a:midPointStop
         offset="0.5"
         style="stop-color:#E6EDFF"
         id="midPointStop635" /><a:midPointStop
         offset="1"
         style="stop-color:#FFFFFF"
         id="midPointStop636" /></linearGradient><path
       style="fill:url(#XMLID_3_);stroke:#FFFFFF;stroke-width:0.1875;"
       d="M11.488,7.019c0,0.698,0,14.542,0,15.239c0.716,0,23.417,0,24.133,0c0-0.698,0-14.541,0-15.239     C34.904,7.019,12.204,7.019,11.488,7.019z"
       id="path637" /><linearGradient
       id="path205_1_"
       gradientUnits="userSpaceOnUse"
       x1="-174.4409"
       y1="300.0908"
       x2="-108.8787"
       y2="210.2074"
       gradientTransform="matrix(0.1875 0 0 -0.1875 51.5 83.75)"><stop
         offset="0"
         style="stop-color:#003399"
         id="stop639" /><stop
         offset="0.2697"
         style="stop-color:#0035ED"
         id="stop640" /><stop
         offset="1"
         style="stop-color:#57ADFF"
         id="stop641" /><a:midPointStop
         offset="0"
         style="stop-color:#003399"
         id="midPointStop642" /><a:midPointStop
         offset="0.5"
         style="stop-color:#003399"
         id="midPointStop643" /><a:midPointStop
         offset="0.2697"
         style="stop-color:#0035ED"
         id="midPointStop644" /><a:midPointStop
         offset="0.5"
         style="stop-color:#0035ED"
         id="midPointStop645" /><a:midPointStop
         offset="1"
         style="stop-color:#57ADFF"
         id="midPointStop646" /></linearGradient><rect
       id="path205"
       x="12.154"
       y="26.479"
       style="fill:url(#path205_1_);filter:url(#filter4374)"
       width="22.007"
       height="13.978" /><linearGradient
       id="XMLID_4_"
       gradientUnits="userSpaceOnUse"
       x1="21.8687"
       y1="25.1875"
       x2="21.8687"
       y2="44.6251"><stop
         offset="0"
         style="stop-color:#DFDFDF"
         id="stop649" /><stop
         offset="1"
         style="stop-color:#7D7D99"
         id="stop650" /><a:midPointStop
         offset="0"
         style="stop-color:#DFDFDF"
         id="midPointStop651" /><a:midPointStop
         offset="0.5"
         style="stop-color:#DFDFDF"
         id="midPointStop652" /><a:midPointStop
         offset="1"
         style="stop-color:#7D7D99"
         id="midPointStop653" /></linearGradient><path
       style="fill:url(#XMLID_4_);"
       d="M13.244,27.021c-0.311,0-0.563,0.252-0.563,0.563v13.104c0,0.312,0.252,0.563,0.563,0.563h17.249     c0.311,0,0.563-0.251,0.563-0.563V27.583c0-0.311-0.252-0.563-0.563-0.563H13.244z M18.85,30.697c0,0.871,0,5.078,0,5.949     c-0.683,0-2.075,0-2.759,0c0-0.871,0-5.078,0-5.949C16.775,30.697,18.167,30.697,18.85,30.697z"
       id="path654" /><linearGradient
       id="XMLID_5_"
       gradientUnits="userSpaceOnUse"
       x1="-158.0337"
       y1="288.0684"
       x2="-158.0337"
       y2="231.3219"
       gradientTransform="matrix(0.1875 0 0 -0.1875 51.5 83.75)"><stop
         offset="0"
         style="stop-color:#F0F0F0"
         id="stop656" /><stop
         offset="0.6348"
         style="stop-color:#CECEDB"
         id="stop657" /><stop
         offset="0.8595"
         style="stop-color:#B1B1C5"
         id="stop658" /><stop
         offset="1"
         style="stop-color:#FFFFFF"
         id="stop659" /><a:midPointStop
         offset="0"
         style="stop-color:#F0F0F0"
         id="midPointStop660" /><a:midPointStop
         offset="0.5"
         style="stop-color:#F0F0F0"
         id="midPointStop661" /><a:midPointStop
         offset="0.6348"
         style="stop-color:#CECEDB"
         id="midPointStop662" /><a:midPointStop
         offset="0.5"
         style="stop-color:#CECEDB"
         id="midPointStop663" /><a:midPointStop
         offset="0.8595"
         style="stop-color:#B1B1C5"
         id="midPointStop664" /><a:midPointStop
         offset="0.5"
         style="stop-color:#B1B1C5"
         id="midPointStop665" /><a:midPointStop
         offset="1"
         style="stop-color:#FFFFFF"
         id="midPointStop666" /></linearGradient><path
       style="fill:url(#XMLID_5_);"
       d="M13.244,27.583v13.104h17.249V27.583H13.244z M19.413,37.209h-3.884v-7.074h3.884V37.209z"
       id="path667" /><linearGradient
       id="path228_1_"
       gradientUnits="userSpaceOnUse"
       x1="-68.1494"
       y1="388.4561"
       x2="-68.1494"
       y2="404.6693"
       gradientTransform="matrix(0.1875 0 0 -0.1875 51.5 83.75)"><stop
         offset="0"
         style="stop-color:#3399FF"
         id="stop669" /><stop
         offset="1"
         style="stop-color:#000000"
         id="stop670" /><a:midPointStop
         offset="0"
         style="stop-color:#3399FF"
         id="midPointStop671" /><a:midPointStop
         offset="0.5"
         style="stop-color:#3399FF"
         id="midPointStop672" /><a:midPointStop
         offset="1"
         style="stop-color:#000000"
         id="midPointStop673" /></linearGradient><rect
       id="path228"
       x="37.83"
       y="9.031"
       style="fill:url(#path228_1_);filter:url(#filter4368)"
       width="1.784"
       height="1.785" /><polyline
       id="_x3C_Slice_x3E_"
       style="fill:none;"
       points="0,48 0,0 48,0 48,48 " /><path
       inkscape:connector-curvature="0"
       d="m 464.30872,180.21438 -3.8125,6.96875 -3.53125,1.375 -6.4375,-5.9375 c -3.92801,1.50079 -9.09376,6.3125 -9.09375,6.3125 -2.90418,2.52538 -3.65625,4.9375 -3.65625,4.9375 l 3.28125,5.40625 -6.4375,-0.125 c 0,0 -1.13593,0.27696 -3.15625,3.8125 -2.0203,3.53553 -2.03124,11.59375 -2.03125,11.59375 l 7.84375,3.03125 c 0.25254,1.38896 0.62499,2.53125 0.625,2.53125 l -4.65625,7.46875 8.4375,9.09375 6.1875,-3.15625 4.4375,3 0.625,7.46875 c 5.05076,1.6415 11.50001,1.49999 11.5,1.5 2.52538,-2.52538 4.90626,-6.31249 4.90625,-6.3125 1.51522,-0.25254 3.03125,-0.75 3.03125,-0.75 l 6.1875,5.5625 c 8.33376,-4.79822 12.00001,-11.37501 12,-11.375 l -3.53125,-5.9375 6.9375,0.125 3.78125,-6.6875 0.90625,-8.59375 -7.34375,-3.15625 -0.875,-4.15625 4.8125,-5.5625 -7.34375,-8.71875 -7.4375,3.03125 -4.1875,-2.75 -0.125,-7.46875 -11.84375,-2.53125 z m -3.375,23.875 c 2.51246,-0.19057 5.47558,0.68036 8.09375,2.59375 4.6545,3.40157 6.49145,8.84413 4.09375,12.125 -2.39771,3.28088 -8.12673,3.18283 -12.78125,-0.21875 -4.65451,-3.40158 -6.49145,-8.84413 -4.09375,-12.125 1.049,-1.43538 2.73336,-2.22678 4.6875,-2.375 z"
       style="color:#000000;display:inline;overflow:visible;visibility:visible;opacity:0.6;fill:#000000;fill-opacity:1;fill-rule:evenodd;stroke:none;stroke-width:1.5;stroke-linecap:butt;stroke-linejoin:miter;stroke-miterlimit:4;stroke-dasharray:none;stroke-dashoffset:0;stroke-opacity:1;marker:none;marker-start:none;marker-mid:none;marker-end:none;filter:url(#filter3275);enable-background:accumulate"
       id="path4365"
       transform="matrix(0.3804916,0,0,0.3712505,-163.04558,-65.167209)" /><path
       inkscape:connector-curvature="0"
       d="M 14.486323,0.8921743 13.035699,3.4793259 11.692088,3.9897952 9.242674,1.7854958 C 7.748099,2.3426648 5.782575,4.1290144 5.782578,4.1290144 4.677562,5.0665626 4.391405,5.9620637 4.391405,5.9620637 L 5.639893,7.9691366 3.190478,7.9227336 c 0,0 -0.432211,0.1028208 -1.200926,1.4153918 C 1.220844,10.650692 1.216682,13.64231 1.216678,13.64231 l 2.984481,1.125353 c 0.09609,0.515653 0.237804,0.939729 0.237808,0.939729 l -1.771664,2.772777 3.210397,3.376058 2.354293,-1.171757 1.688431,1.11375 0.237807,2.772778 c 1.921772,0.609408 4.375658,0.556873 4.375654,0.556876 0.960886,-0.937549 1.866791,-2.343517 1.866787,-2.34352 0.576528,-0.09375 1.153365,-0.278439 1.153365,-0.278439 l 2.354292,2.065083 c 3.170926,-1.781344 4.565903,-4.222983 4.565899,-4.22298 l -1.34361,-2.204298 2.63966,0.0464 1.438734,-2.482737 0.34482,-3.190435 L 24.759597,11.345189 24.426667,9.8021794 26.257783,7.7371019 23.463548,4.5002621 20.633641,5.6256145 19.040332,4.604676 18.992775,1.8318989 14.486327,0.8921712 Z m -1.284159,8.8636051 c 0.95597,-0.07075 2.083413,0.2525826 3.079604,0.9629296 1.770999,1.262836 2.469943,3.283389 1.557638,4.501413 -0.912309,1.218029 -3.092152,1.181628 -4.863159,-0.08121 -1.771002,-1.262839 -2.469942,-3.283388 -1.557638,-4.501412 0.399136,-0.532885 1.040021,-0.8266926 1.783555,-0.8817196 z"
       style="color:#000000;display:inline;overflow:visible;visibility:visible;fill:url(#linearGradient2301);fill-opacity:1;fill-rule:evenodd;stroke:url(#linearGradient4452);stroke-width:1.35078168;stroke-linecap:butt;stroke-linejoin:miter;stroke-miterlimit:4;stroke-dasharray:none;stroke-dashoffset:0;stroke-opacity:1;marker:none;marker-start:none;marker-mid:none;marker-end:none;enable-background:accumulate"
       id="path4367" /><path
       inkscape:connector-curvature="0"
       d="m 8.427923,7.188801 -0.190242,7.256031 c 0.09609,0.515653 0.237803,0.939728 0.237807,0.939728 l 3.793026,2.537286 9.928453,-0.751073 -1.01068,-4.40514 -2.145955,-6.6113875 c 0,0 -10.612409,1.0345555 -10.612409,1.0345555 z m 4.774241,2.5669784 c 0.95597,-0.07075 2.083413,0.2525826 3.079604,0.9629296 1.770999,1.262836 2.469943,3.283389 1.557638,4.501413 -0.912309,1.218029 -3.092152,1.181628 -4.863159,-0.08121 -1.771002,-1.262839 -2.469942,-3.283388 -1.557638,-4.501412 0.399136,-0.532885 1.040021,-0.8266926 1.783555,-0.8817196 z"
       style="color:#000000;display:inline;overflow:visible;visibility:visible;fill:url(#linearGradient2296);fill-opacity:1;fill-rule:evenodd;stroke:url(#linearGradient4454);stroke-width:0.90052104px;stroke-linecap:butt;stroke-linejoin:miter;stroke-miterlimit:4;stroke-dasharray:none;stroke-dashoffset:0;stroke-opacity:1;marker:none;marker-start:none;marker-mid:none;marker-end:none;enable-background:accumulate"
       id="path4369" /><path
       inkscape:connector-curvature="0"
       d="m 12.41638,18.436655 c 0,0 -2.429903,3.518093 -2.429903,3.518093 0,0 0.381526,2.575858 0.381526,2.575858 0.732965,0.581316 2.990844,0.492808 2.990844,0.492808 0,0 0.9162,0.109454 0.9162,0.109454 l 0.829576,-2.719767 -2.688243,-3.976446 z"
       style="color:#000000;display:inline;overflow:visible;visibility:visible;fill:#c5c5d5;fill-opacity:1;fill-rule:evenodd;stroke:none;stroke-width:1px;stroke-linecap:butt;stroke-linejoin:miter;stroke-miterlimit:4;stroke-dasharray:none;stroke-dashoffset:0;stroke-opacity:1;marker:none;marker-start:none;marker-mid:none;marker-end:none;enable-background:accumulate"
       id="path4371" /><path
       inkscape:connector-curvature="0"
       d="m 14.671417,1.4819243 c 0,0 -1.077163,1.9459542 -1.192601,2.371749 -1.008931,0.1611298 -2.000758,0.5769857 -2.000755,0.5769819 L 9.076208,2.2379574 C 8.180466,2.7260773 7.284728,3.3294114 6.388986,4.1754206 L 7.732598,6.7973773 C 6.915842,7.2895882 6.579232,8.4215984 6.579232,8.4215984 l -3.055823,-0.06961 -0.546957,3.3064496 3.043933,0.835314 c 0.02402,0.89067 0.749097,2.157889 0.749093,2.157893 l -2.092704,1.949065 2.235388,2.459534 2.473196,-1.009337 c 0.720666,0.656286 2.378072,1.380585 2.378072,1.380589 l -0.07134,2.563947 3.412534,0.417658 1.129584,-2.389925 c 1.081,0.07032 2.259169,-0.208829 2.259169,-0.208829 l 1.819226,2.007075 3.317411,-2.123088 -1.224708,-2.111487 c 0.576532,-0.750037 1.105801,-1.809846 1.105804,-1.809846 l 3.055823,0.09281 0.30915,-3.132426 -2.592099,-0.870119 C 24.235941,10.835962 23.67758,9.6397634 23.677576,9.6397634 L 25.627595,7.6906989 23.439768,4.9759298 20.609862,6.01219 C 20.132186,5.5138685 19.326959,5.0955317 18.469597,4.7206952 l -0.07134,-2.5059409 -3.726836,-0.73283 z m -0.614699,6.3706916 c 1.797933,-0.1076774 3.681165,0.6964995 4.670329,2.4746661 1.318886,2.370887 0.701383,4.976836 -1.50594,6.145811 -2.207323,1.168975 -5.066242,0.201392 -6.385125,-2.169495 C 9.517103,11.93271 10.233858,9.4442924 12.441181,8.2753184 12.993012,7.9830737 13.457406,7.8885083 14.056718,7.8526159 Z"
       style="color:#000000;display:inline;overflow:visible;visibility:visible;fill:url(#linearGradient2292);fill-opacity:1;fill-rule:evenodd;stroke:none;stroke-width:1px;stroke-linecap:butt;stroke-linejoin:miter;stroke-miterlimit:4;stroke-dasharray:none;stroke-dashoffset:0;stroke-opacity:1;marker:none;marker-start:none;marker-mid:none;marker-end:none;enable-background:accumulate"
       id="path4373" /><path
       inkscape:connector-curvature="0"
       d="M 3.523409,8.3519884 2.976452,11.658438 c -0.940465,1.033228 -1.471387,1.796307 -1.471387,1.796307 0,0 -0.499593,-3.09784 1.528092,-5.3715636 0,0 0.490252,0.268807 0.490252,0.268807 z"
       style="color:#000000;display:inline;overflow:visible;visibility:visible;fill:#a9a9bc;fill-opacity:1;fill-rule:evenodd;stroke:none;stroke-width:1px;stroke-linecap:butt;stroke-linejoin:miter;stroke-miterlimit:4;stroke-dasharray:none;stroke-dashoffset:0;stroke-opacity:1;marker:none;marker-start:none;marker-mid:none;marker-end:none;enable-background:accumulate"
       id="path4375" /><path
       inkscape:connector-curvature="0"
       d="m 18.493376,19.814347 1.819226,2.007072 c 0,0 -0.425805,2.797164 -0.425805,2.797164 0,0 -2.358033,-2.21692 -2.358033,-2.21692 0,0 0.964612,-2.587316 0.964612,-2.587316 z"
       style="color:#000000;display:inline;overflow:visible;visibility:visible;fill:#b5b5c5;fill-opacity:1;fill-rule:evenodd;stroke:none;stroke-width:1px;stroke-linecap:butt;stroke-linejoin:miter;stroke-miterlimit:4;stroke-dasharray:none;stroke-dashoffset:0;stroke-opacity:1;marker:none;marker-start:none;marker-mid:none;marker-end:none;enable-background:accumulate"
       id="path4377" /><path
       inkscape:connector-curvature="0"
       d="m 6.912162,19.060244 c 0,0 -1.063089,2.658908 -1.063089,2.658908 0,0 2.320896,-1.128397 2.320896,-1.128397 0,0 1.215389,-2.539848 1.215389,-2.539848 l -2.473196,1.009337 z"
       style="color:#000000;display:inline;overflow:visible;visibility:visible;fill:#c5c5d5;fill-opacity:1;fill-rule:evenodd;stroke:none;stroke-width:1px;stroke-linecap:butt;stroke-linejoin:miter;stroke-miterlimit:4;stroke-dasharray:none;stroke-dashoffset:0;stroke-opacity:1;marker:none;marker-start:none;marker-mid:none;marker-end:none;enable-background:accumulate"
       id="path4379" /><path
       inkscape:connector-curvature="0"
       d="M 14.486323,0.8921743 13.035699,3.4793259 11.692088,3.9897952 9.242674,1.7854958 C 7.748099,2.3426648 5.782575,4.1290144 5.782578,4.1290144 4.677562,5.0665626 4.391405,5.9620637 4.391405,5.9620637 L 5.639893,7.9691366 3.190478,7.9227336 c 0,0 -0.432211,0.1028208 -1.200926,1.4153918 C 1.220844,10.650692 1.216682,13.64231 1.216678,13.64231 l 2.984481,1.125353 c 0.09609,0.515653 0.237804,0.939729 0.237808,0.939729 l -1.771664,2.772777 3.210397,3.376058 2.354293,-1.171757 1.688431,1.11375 0.237807,2.772778 c 1.921772,0.609408 4.375658,0.556873 4.375654,0.556876 0.960886,-0.937549 1.866791,-2.343517 1.866787,-2.34352 0.576528,-0.09375 1.153365,-0.278439 1.153365,-0.278439 l 2.354292,2.065083 c 3.170926,-1.781344 4.565903,-4.222983 4.565899,-4.22298 l -1.34361,-2.204298 2.63966,0.0464 1.438734,-2.482737 0.34482,-3.190435 L 24.759597,11.345189 24.426667,9.8021794 26.257783,7.7371019 23.463548,4.5002621 20.633641,5.6256145 19.040332,4.604676 18.992775,1.8318989 14.486327,0.8921712 Z m -1.284159,8.8636051 c 0.95597,-0.07075 2.083413,0.2525826 3.079604,0.9629296 1.770999,1.262836 2.469943,3.283389 1.557638,4.501413 -0.912309,1.218029 -3.092152,1.181628 -4.863159,-0.08121 -1.771002,-1.262839 -2.469942,-3.283388 -1.557638,-4.501412 0.399136,-0.532885 1.040021,-0.8266926 1.783555,-0.8817196 z"
       style="color:#000000;display:inline;overflow:visible;visibility:visible;fill:none;fill-opacity:1;fill-rule:evenodd;stroke:url(#linearGradient2286);stroke-width:1.35078168;stroke-linecap:butt;stroke-linejoin:miter;stroke-miterlimit:4;stroke-dasharray:none;stroke-dashoffset:0;stroke-opacity:1;marker:none;marker-start:none;marker-mid:none;marker-end:none;enable-background:accumulate"
       id="path4381" /></g></svg>