<?xml version="1.0" encoding="UTF-8" standalone="no"?>
<svg
   xmlns:dc="http://purl.org/dc/elements/1.1/"
   xmlns:cc="http://creativecommons.org/ns#"
   xmlns:rdf="http://www.w3.org/1999/02/22-rdf-syntax-ns#"
   xmlns:svg="http://www.w3.org/2000/svg"
   xmlns="http://www.w3.org/2000/svg"
   xmlns:xlink="http://www.w3.org/1999/xlink"
   xmlns:sodipodi="http://sodipodi.sourceforge.net/DTD/sodipodi-0.dtd"
   xmlns:inkscape="http://www.inkscape.org/namespaces/inkscape"
   version="1.0"
   width="587.38898"
   height="487.65182"
   id="svg2"
   sodipodi:version="0.32"
   inkscape:version="0.91 r"
   sodipodi:docname="reliability.svg"
   inkscape:output_extension="org.inkscape.output.svg.inkscape"
   sodipodi:modified="true">
  <metadata
     id="metadata48">
    <rdf:RDF>
      <cc:Work
         rdf:about="">
        <dc:format>image/svg+xml</dc:format>
        <dc:type
           rdf:resource="http://purl.org/dc/dcmitype/StillImage" />
        <dc:title></dc:title>
      </cc:Work>
    </rdf:RDF>
  </metadata>
  <sodipodi:namedview
     inkscape:cy="243.07966"
     inkscape:cx="335.00971"
     inkscape:zoom="0.61399264"
     inkscape:window-height="732"
     inkscape:window-width="1267"
     inkscape:pageshadow="2"
     inkscape:pageopacity="0.0"
     guidetolerance="10.0"
     gridtolerance="10.0"
     objecttolerance="10.0"
     borderopacity="1.0"
     bordercolor="#666666"
     pagecolor="#ffffff"
     id="base"
     inkscape:window-x="0"
     inkscape:window-y="0"
     inkscape:current-layer="svg2"
     showgrid="false"
     inkscape:window-maximized="0" />
  <defs
     id="defs4">
    <linearGradient
       id="Grad1"
       x1="41.194874"
       y1="616.47717"
       x2="118.93135"
       y2="527.55511"
       gradientUnits="userSpaceOnUse"
       gradientTransform="matrix(4.556763,0,0,-4.315033,25.816852,2748.7314)">
      <stop
         offset="0"
         stop-color="#bb0000"
         id="stop7" />
      <stop
         offset="1"
         stop-color="#5f0000"
         id="stop9" />
    </linearGradient>
    <linearGradient
       id="Grad2"
       x1="530.80951"
       y1="486.63101"
       x2="174.80548"
       y2="211.22995"
       gradientUnits="userSpaceOnUse"
       gradientTransform="matrix(0.960006,0,0,0.960006,2.4684814e-6,-3e-6)">
      <stop
         offset="0"
         stop-color="#9a0000"
         id="stop12" />
      <stop
         offset="1"
         stop-color="#f22803"
         id="stop14" />
    </linearGradient>
    <linearGradient
       id="Grad3"
       x1="187.87357"
       y1="224.59892"
       x2="581.83746"
       y2="483.10001"
       gradientUnits="userSpaceOnUse"
       gradientTransform="matrix(0.960006,0,0,0.960006,2.4684814e-6,-1e-5)">
      <stop
         offset="0"
         stop-color="#ec6c60"
         id="stop17" />
      <stop
         offset="1"
         stop-color="#d11412"
         id="stop19" />
    </linearGradient>
    <linearGradient
       id="Grad4"
       x1="250.39845"
       y1="101.53633"
       x2="412.0943"
       y2="264.54187"
       gradientUnits="userSpaceOnUse"
       gradientTransform="matrix(0.960006,0,0,0.960006,2.4684814e-6,-3e-6)">
      <stop
         offset="0"
         stop-color="#ffd9d9"
         id="stop22" />
      <stop
         offset="1"
         stop-color="#ff2727"
         id="stop24" />
    </linearGradient>
    <radialGradient
       id="Grad5"
       cx="295.47125"
       cy="186.09634"
       r="179.55"
       gradientUnits="userSpaceOnUse"
       gradientTransform="matrix(1.14292e-8,1.531256,-0.876504,-2.165967e-5,451.06789,-254.78987)">
      <stop
         offset="0"
         stop-color="#ffffff"
         id="stop27" />
      <stop
         offset="0.5"
         stop-color="#ffffff"
         id="stop29" />
      <stop
         offset="1"
         stop-color="#d5d5d5"
         id="stop31" />
    </radialGradient>
    <radialGradient
       id="XMLID_1_"
       cx="116.8169"
       cy="47.079601"
       r="182.3371"
       fx="116.8169"
       fy="47.079601"
       gradientUnits="userSpaceOnUse">
      <stop
         offset="0"
         style="stop-color:#FFF"
         id="stop17-1" />
      <stop
         offset="0.5955"
         style="stop-color:#99CCFF"
         id="stop19-8" />
      <stop
         offset="0.9944"
         style="stop-color:#3399FF"
         id="stop21" />
    </radialGradient>
    <linearGradient
       id="XMLID_2_"
       gradientUnits="userSpaceOnUse"
       x1="125.8564"
       y1="56.8018"
       x2="125.8564"
       y2="245.86279"
       xlink:href="#linearGradient860" />
    <linearGradient
       id="linearGradient860">
      <stop
         offset="0.000000"
         style="stop-color:#0066cc;stop-opacity:1;"
         id="stop7-7" />
      <stop
         offset="0.994400"
         style="stop-color:#003366;stop-opacity:1;"
         id="stop9-1" />
    </linearGradient>
  </defs>
  <path
     d="M 275.36319,20.897042 C 275.36319,20.897042 15.201672,448.09953 15.201672,448.09953 C 10.209632,456.25963 10.209632,466.33963 15.201672,474.49973 C 20.097702,482.56373 29.313752,487.65183 39.297812,487.65183 L 559.62089,487.65183 C 569.50889,487.65183 578.72499,482.56373 583.71699,474.49973 C 588.61299,466.33963 588.61299,456.25963 583.71699,448.09953 L 323.55549,20.897042 C 318.56349,12.737002 309.34739,7.648972 299.45929,7.648972 C 289.57129,7.648972 280.35519,12.737002 275.36319,20.897042 z "
     style="fill-opacity:0.17857098"
     id="path33" />
  <path
     d="M 263.90559,13.248082 C 263.90559,13.248082 3.7440225,440.45053 3.7440225,440.45053 C -1.2480075,448.61063 -1.2480075,458.69073 3.7440225,466.85073 C 8.6400525,474.91483 17.856102,480.00283 27.840162,480.00283 L 548.16319,480.00283 C 558.05129,480.00283 567.26729,474.91483 572.25939,466.85073 C 577.15539,458.69073 577.15539,448.61063 572.25939,440.45053 L 312.09779,13.248082 C 307.10579,5.088032 297.88979,3.5527137e-14 288.00169,3.5527137e-14 C 278.11359,3.5527137e-14 268.89759,5.088032 263.90559,13.248082 z "
     style="fill:url(#Grad1)"
     id="path35" />
  <path
     d="M 288.00169,21.984132 C 286.36969,21.984132 284.83369,22.848132 283.96969,24.192142 L 153.88889,237.79343 L 23.808142,451.39463 C 22.944132,452.73863 22.944132,454.46663 23.808142,455.81063 C 24.672142,457.15463 26.208152,458.01863 27.840162,458.01863 L 548.16319,458.01863 C 549.79519,458.01863 551.33119,457.15463 552.19529,455.81063 C 553.05929,454.46663 553.05929,452.73863 552.19529,451.39463 L 292.03369,24.192142 C 291.16969,22.848132 289.63369,21.984132 288.00169,21.984132 z "
     style="fill:url(#Grad2)"
     id="path37" />
  <path
     d="M 287.96569,21.984132 C 286.33369,21.984132 284.79759,22.848132 283.93359,24.192142 L 153.85289,237.79343 L 23.772122,451.39463 C 22.908112,452.73863 22.908112,454.46663 23.772122,455.81063 C 24.636122,457.15463 26.172132,458.01863 27.804142,458.01863 L 548.12719,458.01863 C 549.75919,458.01863 551.29519,457.15463 552.15919,455.81063 C 553.02319,454.46663 553.02319,452.73863 552.15919,451.39463 L 291.99769,24.192142 C 291.13369,22.848132 289.59769,21.984132 287.96569,21.984132 z "
     style="fill:none;stroke:url(#Grad3);stroke-width:11.52000046;stroke-linejoin:round"
     id="path39" />
  <path
     d="M 288.07069,29.677552 C 286.52499,29.753952 285.08419,30.616562 284.26069,31.897572 L 154.17989,245.49883 L 136.05979,275.25903 C 180.19399,301.75203 231.83259,317.01923 287.02069,317.01923 C 342.99249,317.01923 395.32789,301.34173 439.87159,274.14903 L 292.33069,31.897572 C 291.46669,30.553552 289.94269,29.677552 288.31069,29.677552 C 288.23419,29.677552 288.14669,29.673792 288.07069,29.677552 z "
     style="fill:url(#Grad4);stroke-width:10;stroke-linejoin:round"
     id="path41" />
  <path
     d="M 274.75369,135.93683 L 117.60069,393.89043 C 114.91269,398.40253 114.91269,403.97053 117.60069,408.38653 C 120.28879,412.89853 125.37679,415.68263 130.84879,415.68263 L 445.05879,415.68263 C 450.53079,415.68263 455.61889,412.89853 458.30689,408.38653 C 460.99489,403.87453 460.99489,398.40253 458.30689,393.89043 L 301.24989,135.93683 C 298.56189,131.42483 293.47379,128.64083 288.00179,128.64083 C 282.52979,128.64083 277.44169,131.42483 274.75369,135.93683 z "
     style="fill:url(#Grad5)"
     id="path43" />
  <g
     id="Layer_1"
     transform="matrix(0.79933906,0,0,0.75386867,184.73101,224.21653)"
     style="stroke:#000000;stroke-width:0.29602149">
    <path
       d="M 256,256 0,256 0,0 l 256,0 0,256 z"
       id="path38"
       inkscape:connector-curvature="0"
       style="opacity:0.2;fill:none;stroke:none" />
    <path
       d="m 126.148,237.98 c 61.959,0 112.223,-50.473 112.223,-112.395 0,-61.528 -50.262,-112.01 -112.223,-112.01 -61.52,0.003 -112.213,50.482 -112.213,112.01 10e-4,61.923 50.694,112.395 112.213,112.395 z"
       id="path40"
       inkscape:connector-curvature="0"
       style="fill:url(#XMLID_1_);stroke:none" />
    <path
       d="m 212.02,53.625 c 16.439,19.511 26.352,44.645 26.352,71.961 0,61.922 -50.264,112.395 -112.223,112.395 -27.129,0 -52.15,-9.819 -71.649,-26.104 20.659,24.496 51.51,40.104 85.714,40.104 61.959,0 112.223,-50.473 112.223,-112.395 -0.001,-34.409 -15.724,-65.359 -40.417,-85.961 z"
       id="path42"
       inkscape:connector-curvature="0"
       style="opacity:0.2;stroke:none" />
    <path
       d="M 126.148,7 C 60.647,7.003 7.359,60.201 7.359,125.586 c 0,65.6 53.288,118.971 118.789,118.971 65.506,0 118.799,-53.371 118.799,-118.971 C 244.947,60.197 191.654,7 126.148,7 Z m 0,230.98 c -61.52,0 -112.213,-50.473 -112.213,-112.395 0,-61.528 50.693,-112.007 112.213,-112.01 61.961,0 112.223,50.482 112.223,112.01 0,61.923 -50.264,112.395 -112.223,112.395 z"
       id="path44"
       inkscape:connector-curvature="0"
       style="fill:#003366;stroke:none" />
    <path
       d="m 88.875,25.919 c -0.555,0 -1.162,0.229 -1.785,0.581 1.46,-0.429 2.147,-0.581 1.785,-0.581 z m 36.13,7.05 0.364,-5.285 -5.579,0.351 0.738,4.935 4.477,0 z m -62.949,91.345 c -1.121,-1.06 -0.371,-5.646 -0.371,-5.646 0,0 -16.764,-8.811 -35.015,-14.105 -2.251,-0.653 -1.114,-5.287 1.112,-7.045 l -0.743,-4.953 c -0.369,-2.459 3.728,-14.449 7.825,-15.502 4.099,-1.064 -0.372,7.048 -0.372,7.048 l -4.097,2.469 c 0,0 4.839,5.638 5.962,5.638 1.114,0 2.977,-2.822 2.977,-2.822 l -5.213,-3.516 4.844,-2.123 0.303,-1.859 0.813,-0.257 8.016,-12.143 c 5.541,-2.267 12.349,-5.076 13.216,-5.491 1.49,-0.701 11.919,-6.69 13.781,-8.104 1.867,-1.416 5.957,-1.057 7.443,-1.057 1.497,0 3.731,-0.708 4.101,-4.593 0.372,-3.878 1.865,-4.584 2.984,-3.523 1.116,1.053 -1.122,2.818 1.488,3.523 2.607,0.709 4.837,2.472 6.704,0.709 1.362,-1.293 -0.46,-2.763 -1.688,-3.874 l 20.681,0 2.24,-6.358 -4.842,-0.704 -17.886,-1.762 0,-2.117 -1.426,0.241 c 1.937,-10.639 13.438,-8.886 4.781,-15.045 -0.526,-0.378 -8.101,11.936 -10.028,11.696 -3.492,-0.46 -8.004,-0.496 -8.968,0.638 -1.269,1.499 2.857,-5.158 6.412,-7.177 -5.672,1.672 -23.594,7.803 -42.542,27.986 -18.112,19.294 -25.334,45.287 -25.334,46.197 0,1.761 3.728,2.469 4.101,4.587 0.373,2.106 -7.074,9.167 -7.074,12.693 0,1.625 -1.758,23.361 4.463,41.267 7.269,20.896 22.783,38.348 24.587,39.496 l 3.721,-1.77 c 0,0 -8.566,-15.16 -8.938,-16.576 -0.369,-1.404 9.684,-21.861 14.529,-21.15 4.839,0.693 3.725,2.115 6.705,0.35 2.978,-1.76 4.84,-16.229 8.192,-17.629 3.355,-1.418 7.077,-3.178 6.711,-6.703 -0.379,-3.535 -13.041,-9.877 -14.159,-10.934 l 0.004,0 z m 80.828,-103.685 -10.056,-3.53 1.863,5.648 8.193,-2.118 z m -37.623,13.049 c 1.121,0 23.469,-14.806 21.232,-15.164 -2.23,-0.35 -2.606,0 -8.573,-0.705 -5.955,-0.707 -12.294,8.465 -13.778,9.877 -1.486,1.415 -0.985,5.992 1.119,5.992 z m 102.555,106.334 2.885,-3.742 -2.885,-1.016 -2.163,2.721 -2.521,3.73 2.162,1.023 2.522,-2.716 z m 12.614,12.244 -0.722,-5.441 -4.677,0 -0.363,4.074 -4.333,-0.672 -1.075,-4.424 -2.161,-1.357 -2.53,3.055 -2.516,-0.676 -0.726,2.371 2.887,0.691 0,22.088 10.202,2.455 c -0.234,0.408 -0.411,0.752 -0.471,0.938 -0.727,2.383 2.881,3.41 5.399,2.383 0.942,-0.375 3.908,-3.375 5.771,-7.809 2.598,-6.178 4.866,-14.334 5.322,-17.217 l 1.169,-2.496 -7.212,2.715 -3.967,-0.674 0.003,-0.004 z m 15.144,-41.132 -1.882,-3.645 c -2.229,-12.572 -7.343,-28.67 -18.3,-45.3 -16.493,-25.001 -62.38,-39.422 -62.38,-39.422 l -2.518,3.052 -1.445,-2.372 -3.607,-1.365 0,3.059 3.25,2.725 -2.164,1.018 -8.294,0.676 -18.746,10.201 1.797,8.155 -2.166,0.686 -1.072,1.695 6.126,9.172 0.361,3.065 -5.046,1.018 0,6.114 -2.882,0.679 0.363,4.761 -24.521,17 0.723,9.507 c 1.798,2.383 15.865,16.662 15.865,16.662 0,0 16.218,0.671 19.826,-1.361 3.605,-2.039 1.08,2.036 2.164,3.057 1.08,1.027 1.441,8.156 2.52,8.839 1.08,0.678 0,4.753 1.443,6.12 1.441,1.35 1.441,17.676 1.441,17.676 0,0 8.653,14.607 8.653,18.352 0,3.736 -0.361,3.396 6.492,3.059 6.85,-0.34 8.289,-3.059 9.728,-4.074 1.448,-1.023 1.448,-3.404 2.892,-5.445 1.445,-2.043 3.959,-9.855 7.21,-12.57 3.241,-2.727 11.895,-4.768 12.612,-9.52 0.721,-4.76 3.966,-8.502 3.966,-8.502 l 15.587,-16.487 -0.438,2.217 -0.363,8.488 4.688,-1.695 -0.357,-9.183 -1.686,-1.779 0.24,-0.259 c 0,0 -1.085,-2.036 -2.521,-2.036 -1.442,0 -10.101,2.036 -11.537,1.699 -1.445,-0.342 -7.578,-16.658 -8.658,-17.331 -1.082,-0.681 -7.928,-11.899 -7.928,-11.899 0,0 15.86,19.036 18.384,26.509 1.464,4.354 6.966,0.302 11.443,-4.243 l 1.184,2.888 2.88,-0.687 -0.361,-3.397 3.243,0 0,5.099 -1.08,2.72 -0.371,4.415 2.889,2.726 1.446,-2.376 4.677,-4.423 5.413,-2.721 1.443,2.721 0.723,3.741 -1.448,4.076 -2.88,2.379 -1.443,6.12 0,3.051 -3.24,-2.035 -0.361,-6.455 -4.686,0.344 -2.161,5.77 3.244,4.769 7.568,1.018 6.133,-5.786 0.718,-11.206 2.726,-3.601 c 1.777,4.566 3.046,9.345 3.046,13.795 0,4.88 2.23,-3.381 0.332,-18.264 l 1.106,-1.453 0,-0.001 z m -90.852,-34.668 -19.466,-0.69 8.285,-6.793 4.33,0 6.85,4.754 0,2.728 0.001,0.001 z m 23.799,-2.378 0,3.059 -8.291,0 0.72,2.042 -5.051,0.684 -0.358,1.693 -3.604,-0.674 -6.492,-1.368 1.084,-1.694 1.083,-2.048 3.603,-3.734 1.445,2.721 5.41,-0.342 2.881,-3.061 11.172,2.04 -3.601,0.686 0,-0.004 z m 0.714,-4.424 -4.321,0.679 -0.72,-3.063 5.4,-0.677 0.726,-3.057 3.973,4.084 -5.058,2.029 0,0.005 z m 20.914,105.701 -2.526,2.039 0.359,5.105 3.246,0 0,-4.412 2.889,-3.748 0,-7.814 -1.805,-0.35 -2.159,9.18 -0.004,0 z M 166,165.17 c 0,0 -2.525,0.664 0.355,1.691 2.88,1.025 14.42,-16.645 14.42,-16.645 l -9.735,6.109 -5.044,8.844 0.004,0 z m -19.626,65.143 -2.156,-2.055 -4.328,-0.689 -0.718,2.057 -5.766,-0.678 -0.362,-2.738 -4.324,0 -4.685,2.738 -8.286,0 -0.719,-2.057 -13.33,-1.375 -2.166,2.053 -5.401,-1.359 -0.721,-4.801 -2.522,-0.35 -2.883,5.15 -9.726,-0.346 c 1.737,0.824 16.267,9.488 38.545,11.301 29.547,2.389 43.601,-4.793 43.601,-4.793 l -1.082,-1.031 -12.972,-1.023 0,-0.004 z"
       id="path46"
       inkscape:connector-curvature="0"
       style="fill:url(#XMLID_2_);stroke:none" />
    <path
       d="m 125.77,103.102 c 38.438,0 71.876,-13.245 89.079,-32.765 -17.323,-33.064 -50.796,-55.63 -89.243,-55.63 -38.111,0.002 -71.629,22.492 -89.064,55.463 17.159,19.612 50.68,32.932 89.228,32.932 z"
       id="path48"
       inkscape:connector-curvature="0"
       style="opacity:0.5;fill:#ffffff;stroke:none" />
  </g>
</svg>
