<?xml version="1.0" encoding="UTF-8" standalone="no"?>
<!-- Created with Sodipodi ("http://www.sodipodi.com/") -->

<svg
   xmlns:a="http://ns.adobe.com/AdobeSVGViewerExtensions/3.0/"
   xmlns:ns="&amp;#38;ns_vars;"
   xmlns:i="&amp;#38;ns_ai;"
   xmlns:dc="http://purl.org/dc/elements/1.1/"
   xmlns:cc="http://creativecommons.org/ns#"
   xmlns:rdf="http://www.w3.org/1999/02/22-rdf-syntax-ns#"
   xmlns:svg="http://www.w3.org/2000/svg"
   xmlns="http://www.w3.org/2000/svg"
   xmlns:sodipodi="http://sodipodi.sourceforge.net/DTD/sodipodi-0.dtd"
   xmlns:inkscape="http://www.inkscape.org/namespaces/inkscape"
   i:viewOrigin="178 524"
   i:rulerOrigin="-178 -268"
   i:pageBounds="178 524 434 268"
   width="48pt"
   height="48pt"
   viewBox="0 0 256 256"
   style="overflow:visible;enable-background:new 0 0 256 256"
   xml:space="preserve"
   id="svg153"
   sodipodi:version="0.32pre"
   sodipodi:docname="resend.svg"
   version="1.1"
   inkscape:version="0.91 r"><defs
     id="defs209"><linearGradient
       id="XMLID_7_"
       gradientUnits="userSpaceOnUse"
       x1="73.986801"
       y1="101.1206"
       x2="197.8929"
       y2="225.0262"><stop
         offset="0"
         style="stop-color:#006A00"
         id="stop737" /><stop
         offset="1"
         style="stop-color:#003333"
         id="stop738" /><a:midPointStop
         offset="0"
         style="stop-color:#006A00"
         id="midPointStop739" /><a:midPointStop
         offset="0.5"
         style="stop-color:#006A00"
         id="midPointStop740" /><a:midPointStop
         offset="1"
         style="stop-color:#003333"
         id="midPointStop741" /></linearGradient><linearGradient
       id="XMLID_8_"
       gradientUnits="userSpaceOnUse"
       x1="136.79201"
       y1="167.5313"
       x2="136.79201"
       y2="222.1328"><stop
         offset="0"
         style="stop-color:#FFFFFF"
         id="stop744" /><stop
         offset="1"
         style="stop-color:#DADADA"
         id="stop745" /><a:midPointStop
         offset="0"
         style="stop-color:#FFFFFF"
         id="midPointStop746" /><a:midPointStop
         offset="0.5"
         style="stop-color:#FFFFFF"
         id="midPointStop747" /><a:midPointStop
         offset="1"
         style="stop-color:#DADADA"
         id="midPointStop748" /></linearGradient><linearGradient
       id="XMLID_9_"
       gradientUnits="userSpaceOnUse"
       x1="137.06641"
       y1="129.81931"
       x2="137.06641"
       y2="235.1606"><stop
         offset="0"
         style="stop-color:#99FF66"
         id="stop751" /><stop
         offset="1"
         style="stop-color:#009900"
         id="stop752" /><a:midPointStop
         offset="0"
         style="stop-color:#99FF66"
         id="midPointStop753" /><a:midPointStop
         offset="0.5"
         style="stop-color:#99FF66"
         id="midPointStop754" /><a:midPointStop
         offset="1"
         style="stop-color:#009900"
         id="midPointStop755" /></linearGradient><linearGradient
       id="XMLID_10_"
       gradientUnits="userSpaceOnUse"
       x1="68.017097"
       y1="40.880901"
       x2="208.5629"
       y2="181.4267"><stop
         offset="0"
         style="stop-color:#006A00"
         id="stop758" /><stop
         offset="1"
         style="stop-color:#003333"
         id="stop759" /><a:midPointStop
         offset="0"
         style="stop-color:#006A00"
         id="midPointStop760" /><a:midPointStop
         offset="0.5"
         style="stop-color:#006A00"
         id="midPointStop761" /><a:midPointStop
         offset="1"
         style="stop-color:#003333"
         id="midPointStop762" /></linearGradient><linearGradient
       id="XMLID_11_"
       gradientUnits="userSpaceOnUse"
       x1="119.2085"
       y1="45.605999"
       x2="119.2085"
       y2="121.903"><stop
         offset="0"
         style="stop-color:#FFFFFF"
         id="stop765" /><stop
         offset="1"
         style="stop-color:#DADADA"
         id="stop766" /><a:midPointStop
         offset="0"
         style="stop-color:#FFFFFF"
         id="midPointStop767" /><a:midPointStop
         offset="0.5"
         style="stop-color:#FFFFFF"
         id="midPointStop768" /><a:midPointStop
         offset="1"
         style="stop-color:#DADADA"
         id="midPointStop769" /></linearGradient><linearGradient
       id="XMLID_12_"
       gradientUnits="userSpaceOnUse"
       x1="118.9331"
       y1="41.182598"
       x2="118.9331"
       y2="114.0049"><stop
         offset="0"
         style="stop-color:#99FF66"
         id="stop772" /><stop
         offset="1"
         style="stop-color:#009900"
         id="stop773" /><a:midPointStop
         offset="0"
         style="stop-color:#99FF66"
         id="midPointStop774" /><a:midPointStop
         offset="0.5"
         style="stop-color:#99FF66"
         id="midPointStop775" /><a:midPointStop
         offset="1"
         style="stop-color:#009900"
         id="midPointStop776" /></linearGradient></defs><sodipodi:namedview
     id="base"
     showgrid="false"
     inkscape:zoom="3.9333333"
     inkscape:cx="-13.474576"
     inkscape:cy="29.491525"
     inkscape:window-width="1680"
     inkscape:window-height="998"
     inkscape:window-x="0"
     inkscape:window-y="0"
     inkscape:window-maximized="1"
     inkscape:current-layer="svg153" /><metadata
     id="metadata154"><ns:variableSets><ns:variableSet
         varSetName="binding1"
         locked="none"><ns:variables /><ns:sampleDataSets /></ns:variableSet></ns:variableSets><rdf:RDF><cc:Work
         rdf:about=""><dc:format>image/svg+xml</dc:format><dc:type
           rdf:resource="http://purl.org/dc/dcmitype/StillImage" /><dc:title></dc:title></cc:Work></rdf:RDF></metadata><g
     id="Layer_2"
     i:layer="yes"
     i:editable="no"
     i:dimmedPercent="50"
     i:rgbTrio="#FFFF4F004F00"
     style="stroke:#000000;"><path
       i:knockout="Off"
       style="opacity:0.36;fill:none;stroke:none;"
       d="M256,256H0V0h256V256z"
       id="path156" /></g><g
     id="Layer_1"
     i:layer="yes"
     i:dimmedPercent="50"
     i:rgbTrio="#4F008000FFFF"
     style="stroke:#000000;"><path
       i:knockout="Off"
       style="fill:#3A55A5;stroke:none;"
       d="M236.071,3.411l-5.095,7.214L22.298,48.94L1.743,234.753l4.676,5.419l218.449-40.111    L240.747,8.83L236.071,3.411z"
       id="path158" /><path
       i:knockout="Off"
       style="fill:#3A55A5;stroke:none;"
       d="M216.889,191.803L16.04,228.68L30.245,57.613l200.85-36.878L216.889,191.803z"
       id="path159" /><path
       i:knockout="Off"
       style="fill:#3A55A5;stroke:none;"
       d="M230.718,21.166L122.726,152.67L30.709,58.563L230.718,21.166z"
       id="path160" /><path
       i:knockout="Off"
       style="fill:#3A55A5;stroke:none;"
       d="M230.786,20.368L122.572,132.621L30.588,57.55L230.786,20.368z"
       id="path161" /><path
       i:knockout="Off"
       style="opacity:0.2;stroke:none;"
       d="M29.79,58.581L13.911,249.813l218.45-40.111L248.24,18.471L29.79,58.581z"
       id="path162" /><linearGradient
       id="XMLID_1_"
       gradientUnits="userSpaceOnUse"
       x1="168.0361"
       y1="168.21"
       x2="83.1499"
       y2="83.3243"><stop
         offset="0"
         style="stop-color:#6D7BB0"
         id="stop164" /><stop
         offset="1"
         style="stop-color:#99ACD2"
         id="stop165" /></linearGradient><path
       i:knockout="Off"
       style="fill:url(#XMLID_1_);stroke:none;"
       d="M231.39,4.271l-5.089,0.935L17.622,43.521L1.743,234.753l218.449-40.111L236.071,3.411    L231.39,4.271z"
       id="path169" /><linearGradient
       id="XMLID_2_"
       gradientUnits="userSpaceOnUse"
       x1="168.7178"
       y1="174.6357"
       x2="83.8317"
       y2="89.7503"><stop
         offset="0"
         style="stop-color:#6D7BB0"
         id="stop171" /><stop
         offset="1"
         style="stop-color:#99ACD2"
         id="stop172" /></linearGradient><path
       i:knockout="Off"
       style="fill:url(#XMLID_2_);stroke:none;"
       d="M228.074,17.594c0,0-195.372,35.872-204.112,37.477    C23.261,63.511,10.3,219.608,9.124,233.77c14.192-2.605,197.644-36.29,206.083-37.84c0.7-8.44,13.663-164.535,14.836-178.697    C229.11,17.405,228.074,17.594,228.074,17.594z"
       id="path176" /><linearGradient
       id="XMLID_3_"
       gradientUnits="userSpaceOnUse"
       x1="126.9795"
       y1="130.9922"
       x2="233.5622"
       y2="237.576"
       gradientTransform="matrix(0.9929 -0.1191 -0.056 1.0138 7.7556 8.876)"><stop
         offset="0"
         style="stop-color:#D8E1ED"
         id="stop178" /><stop
         offset="1"
         style="stop-color:#5E76AA"
         id="stop179" /></linearGradient><path
       i:knockout="Off"
       style="fill:url(#XMLID_3_);stroke:none;"
       d="M212.213,186.384L11.364,223.261L25.569,52.194l200.85-36.878L212.213,186.384z"
       id="path183" /><linearGradient
       id="XMLID_4_"
       gradientUnits="userSpaceOnUse"
       x1="126.0381"
       y1="144.8184"
       x2="126.0381"
       y2="77.5673"><stop
         offset="0"
         style="stop-color:#808DC2"
         id="stop185" /><stop
         offset="1"
         style="stop-color:#5E76AA"
         id="stop186" /></linearGradient><path
       i:knockout="Off"
       style="fill:url(#XMLID_4_);stroke:none;"
       d="M226.042,15.747L118.05,147.251L26.034,53.145L226.042,15.747z"
       id="path190" /><linearGradient
       id="XMLID_5_"
       gradientUnits="userSpaceOnUse"
       x1="121.2769"
       y1="91.9717"
       x2="121.2769"
       y2="13.3879"
       gradientTransform="matrix(0.9929 -0.1191 -0.056 1.0138 7.7556 8.876)"><stop
         offset="0"
         style="stop-color:#DBE8F2"
         id="stop192" /><stop
         offset="0.2847"
         style="stop-color:#D9E6F1"
         id="stop193" /><stop
         offset="0.4359"
         style="stop-color:#D1DFED"
         id="stop194" /><stop
         offset="0.5557"
         style="stop-color:#C3D3E7"
         id="stop195" /><stop
         offset="0.659"
         style="stop-color:#B0C3DF"
         id="stop196" /><stop
         offset="0.7518"
         style="stop-color:#97ADD3"
         id="stop197" /><stop
         offset="0.837"
         style="stop-color:#7893C5"
         id="stop198" /><stop
         offset="0.9163"
         style="stop-color:#5473B5"
         id="stop199" /><stop
         offset="0.9891"
         style="stop-color:#2B50A2"
         id="stop200" /><stop
         offset="1"
         style="stop-color:#244A9F"
         id="stop201" /></linearGradient><path
       i:knockout="Off"
       style="fill:url(#XMLID_5_);stroke:none;"
       d="M226.11,14.949L117.896,127.202L25.913,52.131L226.11,14.949z"
       id="path205" /><path
       i:knockout="Off"
       style="opacity:0.3;fill:#FFFFFF;stroke:none;"
       d="M161.286,188.736c23.618-4.43,44.142-8.28,46.437-8.708    c0.28-2.759,2.399-23.476,4.826-47.208C197.562,172.96,181.013,182.146,161.286,188.736z"
       id="path206" /><path
       i:knockout="Off"
       style="opacity:0.4;fill:#FFFFFF;stroke:none;"
       d="M62.959,51.423c-10.43,1.937-18.476,3.431-22.699,4.216    c-0.077,0.061-0.154,0.123-0.228,0.182c15.398,12.567,70.439,57.488,77.371,63.146c1.525-1.581,6.515-6.759,13.474-13.976    c-7.203,0.413-14.751,0.125-19.948-1.175c-11.482-2.871-42.648-29.525-49.62-41.008C57.76,56.962,59.953,53.458,62.959,51.423z"
       id="path207" /></g><g
     style="overflow:visible"
     id="Layer_1-2"
     transform="matrix(0.73728814,0,0,0.88135593,21.694915,8.6779658)"><rect
       y="0"
       x="0"
       id="_x3C_Slice_x3E_"
       style="fill:none"
       width="256"
       height="256" /><linearGradient
       id="linearGradient4186"
       gradientUnits="userSpaceOnUse"
       x1="73.986801"
       y1="101.1206"
       x2="197.8929"
       y2="225.0262"><stop
         offset="0"
         style="stop-color:#006A00"
         id="stop4188" /><stop
         offset="1"
         style="stop-color:#003333"
         id="stop4190" /><a:midPointStop
         offset="0"
         style="stop-color:#006A00"
         id="midPointStop739" /><a:midPointStop
         offset="0.5"
         style="stop-color:#006A00"
         id="midPointStop740" /><a:midPointStop
         offset="1"
         style="stop-color:#003333"
         id="midPointStop741" /></linearGradient><path
       inkscape:connector-curvature="0"
       style="fill:url(#XMLID_7_)"
       d="m 105.661,127.22 c 0.001,0 0.001,-0.001 0,0 l -9.978,6.887 c -6.869,4.742 -13.254,9.359 -18.977,13.729 -29.04,22.168 -36.41,34.184 -38.219,39.371 l -0.729,2.096 c -0.232,0.666 -0.232,1.402 0,2.07 l 0.729,2.094 c 1.807,5.188 9.173,17.203 38.217,39.377 5.696,4.35 12.082,8.969 18.979,13.73 l 9.978,6.889 c 0.967,0.668 2.213,0.744 3.254,0.197 1.04,-0.545 1.686,-1.615 1.686,-2.789 0,0 0,-30.197 0,-32.166 2.004,0 44.197,0 44.197,0 44.568,0 80.827,-36.262 80.827,-80.83 l 0,-6.361 c 0,-1.738 -1.413,-3.15 -3.15,-3.15 l -50.424,0 c -1.737,0 -3.15,1.412 -3.15,3.15 l 0,6.361 c 0,13.291 -10.812,24.104 -24.101,24.104 0,0 -37.438,-0.002 -44.199,-0.004 0,-1.969 0,-32.164 0,-32.164 0,-1.174 -0.646,-2.245 -1.687,-2.789 -1.039,-0.547 -2.286,-0.471 -3.253,0.198 z"
       id="path742" /><linearGradient
       id="linearGradient4193"
       gradientUnits="userSpaceOnUse"
       x1="136.79201"
       y1="167.5313"
       x2="136.79201"
       y2="222.1328"><stop
         offset="0"
         style="stop-color:#FFFFFF"
         id="stop4195" /><stop
         offset="1"
         style="stop-color:#DADADA"
         id="stop4197" /><a:midPointStop
         offset="0"
         style="stop-color:#FFFFFF"
         id="midPointStop746" /><a:midPointStop
         offset="0.5"
         style="stop-color:#FFFFFF"
         id="midPointStop747" /><a:midPointStop
         offset="1"
         style="stop-color:#DADADA"
         id="midPointStop748" /></linearGradient><path
       inkscape:connector-curvature="0"
       style="fill:url(#XMLID_8_)"
       d="m 188.414,137.875 c 0,18.537 -15.079,33.617 -33.613,33.617 -10e-4,0 -0.002,0 -0.002,0 0,-0.002 0,-0.002 0,-0.004 -5.938,0 -53.71,0 -53.71,0 0,0 0,-21.33 0,-29.553 -6.684,4.613 -12.938,9.131 -18.61,13.463 -29.464,22.492 -34.301,32.914 -35.007,34.939 0.705,2.025 5.534,12.443 35.007,34.945 5.676,4.334 11.93,8.85 18.61,13.463 0,-8.225 0,-29.555 0,-29.555 0,0 47.772,0 53.71,0 l 0,0 c 0,0 0.001,0 0.002,0 39.384,0 71.312,-31.93 71.312,-71.316 l -37.699,0 z"
       id="path749" /><linearGradient
       id="linearGradient4200"
       gradientUnits="userSpaceOnUse"
       x1="137.06641"
       y1="129.81931"
       x2="137.06641"
       y2="235.1606"><stop
         offset="0"
         style="stop-color:#99FF66"
         id="stop4202" /><stop
         offset="1"
         style="stop-color:#009900"
         id="stop4204" /><a:midPointStop
         offset="0"
         style="stop-color:#99FF66"
         id="midPointStop753" /><a:midPointStop
         offset="0.5"
         style="stop-color:#99FF66"
         id="midPointStop754" /><a:midPointStop
         offset="1"
         style="stop-color:#009900"
         id="midPointStop755" /></linearGradient><path
       inkscape:connector-curvature="0"
       style="fill:url(#XMLID_9_)"
       d="m 195.98,146.318 c -3.945,19.406 -21.023,33.615 -41.18,33.615 l -62.154,-0.004 c 0,0 0,-14.01 0,-21.598 -1.759,1.297 -3.462,2.568 -5.045,3.777 -19.559,14.932 -27.438,24.043 -30.432,28.23 2.993,4.188 10.873,13.299 30.432,28.232 1.581,1.207 3.283,2.477 5.045,3.777 0,-7.588 0,-21.6 0,-21.6 l 62.152,0 c 31.547,0 57.999,-23.578 62.165,-54.432 -5.651,0.003 -16.477,0.003 -20.983,0.003 z"
       id="path756" /><linearGradient
       id="linearGradient4207"
       gradientUnits="userSpaceOnUse"
       x1="68.017097"
       y1="40.880901"
       x2="208.5629"
       y2="181.4267"><stop
         offset="0"
         style="stop-color:#006A00"
         id="stop4209" /><stop
         offset="1"
         style="stop-color:#003333"
         id="stop4211" /><a:midPointStop
         offset="0"
         style="stop-color:#006A00"
         id="midPointStop760" /><a:midPointStop
         offset="0.5"
         style="stop-color:#006A00"
         id="midPointStop761" /><a:midPointStop
         offset="1"
         style="stop-color:#003333"
         id="midPointStop762" /></linearGradient><path
       inkscape:connector-curvature="0"
       style="fill:url(#XMLID_10_)"
       d="m 147.085,2.339 c 0,10e-4 0,10e-4 0,0 -1.04,0.546 -1.687,1.615 -1.687,2.79 0,0 0,30.194 0,32.164 -2.003,0 -44.197,0 -44.197,0 -44.568,0 -80.827,36.259 -80.827,80.827 l 0,6.363 c 0,1.737 1.413,3.15 3.15,3.15 l 50.425,0.001 c 0.842,0 1.633,-0.328 2.228,-0.923 0.595,-0.594 0.922,-1.385 0.922,-2.227 l 0,-6.363 c 0,-6.424 2.511,-12.473 7.071,-17.033 4.56,-4.559 10.608,-7.069 17.03,-7.069 0,0 37.439,0.002 44.198,0.002 0,1.969 0,32.165 0,32.165 0,1.174 0.646,2.243 1.687,2.789 1.041,0.546 2.287,0.471 3.253,-0.196 l 9.979,-6.888 c 6.857,-4.733 13.244,-9.353 18.979,-13.731 29.043,-22.172 36.412,-34.186 38.22,-39.373 l 0.729,-2.095 c 0.233,-0.668 0.233,-1.404 0,-2.072 l -0.729,-2.094 C 215.706,57.337 208.333,45.322 179.297,23.152 173.586,18.792 167.2,14.173 160.319,9.423 L 150.34,2.536 c -0.968,-0.667 -2.215,-0.742 -3.255,-0.197 z"
       id="path763" /><linearGradient
       id="linearGradient4214"
       gradientUnits="userSpaceOnUse"
       x1="119.2085"
       y1="45.605999"
       x2="119.2085"
       y2="121.903"><stop
         offset="0"
         style="stop-color:#FFFFFF"
         id="stop4216" /><stop
         offset="1"
         style="stop-color:#DADADA"
         id="stop4218" /><a:midPointStop
         offset="0"
         style="stop-color:#FFFFFF"
         id="midPointStop767" /><a:midPointStop
         offset="0.5"
         style="stop-color:#FFFFFF"
         id="midPointStop768" /><a:midPointStop
         offset="1"
         style="stop-color:#DADADA"
         id="midPointStop769" /></linearGradient><path
       inkscape:connector-curvature="0"
       style="fill:url(#XMLID_11_)"
       d="m 67.585,118.121 c 0,-18.536 15.081,-33.616 33.615,-33.615 0,-0.001 10e-4,-0.001 10e-4,-0.001 0,0.001 0,0.003 0,0.004 5.939,0 53.71,0 53.71,0 0,0 0,21.331 0,29.554 6.685,-4.615 12.938,-9.134 18.611,-13.463 29.463,-22.495 34.301,-32.913 35.008,-34.941 -0.707,-2.026 -5.536,-12.442 -35.008,-34.945 -5.676,-4.332 -11.931,-8.851 -18.61,-13.461 0,8.224 0,29.553 0,29.553 0,0 -47.772,0 -53.711,0 l 0,0 c 0,0 0,0 -10e-4,0 -39.384,0 -71.313,31.929 -71.313,71.314 l 37.698,10e-4 z"
       id="path770" /><linearGradient
       id="linearGradient4221"
       gradientUnits="userSpaceOnUse"
       x1="118.9331"
       y1="41.182598"
       x2="118.9331"
       y2="114.0049"><stop
         offset="0"
         style="stop-color:#99FF66"
         id="stop4223" /><stop
         offset="1"
         style="stop-color:#009900"
         id="stop4225" /><a:midPointStop
         offset="0"
         style="stop-color:#99FF66"
         id="midPointStop774" /><a:midPointStop
         offset="0.5"
         style="stop-color:#99FF66"
         id="midPointStop775" /><a:midPointStop
         offset="1"
         style="stop-color:#009900"
         id="midPointStop776" /></linearGradient><path
       inkscape:connector-curvature="0"
       style="fill:url(#XMLID_12_)"
       d="m 163.354,46.805 0,8.442 -62.153,0 c -31.547,0 -58,23.577 -62.166,54.43 5.649,0 16.47,0 20.98,10e-4 1.628,-8.068 5.541,-15.37 11.458,-21.287 7.95,-7.95 18.506,-12.328 29.724,-12.328 l 62.155,0.003 c 0,0 0,14.011 0,21.598 1.754,-1.294 3.456,-2.563 5.047,-3.777 19.557,-14.93 27.436,-24.042 30.431,-28.229 -2.995,-4.188 -10.878,-13.305 -30.433,-28.236 -1.584,-1.209 -3.285,-2.478 -5.044,-3.775 0.001,6.231 0.001,13.158 0.001,13.158 z"
       id="path777" /></g></svg>