<?xml version="1.0" encoding="UTF-8" standalone="no"?>
<!-- Created with Inkscape (http://www.inkscape.org/) -->

<svg
   xmlns:dc="http://purl.org/dc/elements/1.1/"
   xmlns:cc="http://creativecommons.org/ns#"
   xmlns:rdf="http://www.w3.org/1999/02/22-rdf-syntax-ns#"
   xmlns:svg="http://www.w3.org/2000/svg"
   xmlns="http://www.w3.org/2000/svg"
   xmlns:xlink="http://www.w3.org/1999/xlink"
   xmlns:sodipodi="http://sodipodi.sourceforge.net/DTD/sodipodi-0.dtd"
   xmlns:inkscape="http://www.inkscape.org/namespaces/inkscape"
   id="svg2"
   sodipodi:version="0.32"
   inkscape:version="0.91 r"
   width="265.25256"
   height="229.66632"
   version="1.0"
   sodipodi:docname="scheduler.svg"
   inkscape:output_extension="org.inkscape.output.svg.inkscape">
  <metadata
     id="metadata7">
    <rdf:RDF>
      <cc:Work
         rdf:about="">
        <dc:format>image/svg+xml</dc:format>
        <dc:type
           rdf:resource="http://purl.org/dc/dcmitype/StillImage" />
        <dc:title></dc:title>
      </cc:Work>
    </rdf:RDF>
  </metadata>
  <defs
     id="defs5">
    <inkscape:perspective
       sodipodi:type="inkscape:persp3d"
       inkscape:vp_x="0 : 177 : 1"
       inkscape:vp_y="0 : 1000 : 0"
       inkscape:vp_z="400 : 177 : 1"
       inkscape:persp3d-origin="200 : 118 : 1"
       id="perspective16" />
    <inkscape:perspective
       id="perspective2777"
       inkscape:persp3d-origin="300 : 200 : 1"
       inkscape:vp_z="600 : 300 : 1"
       inkscape:vp_y="0 : 1000 : 0"
       inkscape:vp_x="0 : 300 : 1"
       sodipodi:type="inkscape:persp3d" />
    <linearGradient
       inkscape:collect="always"
       xlink:href="#SVGID_10_"
       id="linearGradient2885"
       gradientUnits="userSpaceOnUse"
       gradientTransform="matrix(1.2524,0,0,-1.2524,45.2803,433.292)"
       x1="387.8494"
       y1="112.3482"
       x2="387.8494"
       y2="345.2023" />
    <linearGradient
       inkscape:collect="always"
       xlink:href="#SVGID_11_"
       id="linearGradient2887"
       gradientUnits="userSpaceOnUse"
       gradientTransform="matrix(1.2524,0,0,-1.2524,45.2803,433.292)"
       x1="387.8494"
       y1="112.366"
       x2="387.8494"
       y2="345.2269" />
    <linearGradient
       inkscape:collect="always"
       xlink:href="#SVGID_12_"
       id="linearGradient2889"
       gradientUnits="userSpaceOnUse"
       gradientTransform="matrix(1.2524,0,0,-1.2524,45.2803,433.292)"
       x1="387.85199"
       y1="116.5533"
       x2="387.85199"
       y2="339.98059" />
    <radialGradient
       inkscape:collect="always"
       xlink:href="#SVGID_13_"
       id="radialGradient2891"
       gradientUnits="userSpaceOnUse"
       gradientTransform="matrix(1.7767,0,0,-1.7767,-50.6327,423.7937)"
       cx="327.36911"
       cy="147.0332"
       r="69.963402" />
    <linearGradient
       inkscape:collect="always"
       xlink:href="#SVGID_10_"
       id="linearGradient2997"
       gradientUnits="userSpaceOnUse"
       gradientTransform="matrix(1.2524,0,0,-1.2524,45.2803,433.292)"
       x1="387.8494"
       y1="112.3482"
       x2="387.8494"
       y2="345.2023" />
    <linearGradient
       inkscape:collect="always"
       xlink:href="#SVGID_11_"
       id="linearGradient2999"
       gradientUnits="userSpaceOnUse"
       gradientTransform="matrix(1.2524,0,0,-1.2524,45.2803,433.292)"
       x1="387.8494"
       y1="112.366"
       x2="387.8494"
       y2="345.2269" />
    <linearGradient
       inkscape:collect="always"
       xlink:href="#SVGID_12_"
       id="linearGradient3001"
       gradientUnits="userSpaceOnUse"
       gradientTransform="matrix(1.2524,0,0,-1.2524,45.2803,433.292)"
       x1="387.85199"
       y1="116.5533"
       x2="387.85199"
       y2="339.98059" />
    <radialGradient
       inkscape:collect="always"
       xlink:href="#SVGID_13_"
       id="radialGradient3003"
       gradientUnits="userSpaceOnUse"
       gradientTransform="matrix(1.7767,0,0,-1.7767,-50.6327,423.7937)"
       cx="327.36911"
       cy="147.0332"
       r="69.963402" />
  </defs>
  <sodipodi:namedview
     inkscape:window-height="750"
     inkscape:window-width="1280"
     inkscape:pageshadow="2"
     inkscape:pageopacity="0.0"
     guidetolerance="10.0"
     gridtolerance="10.0"
     objecttolerance="10.0"
     borderopacity="1.0"
     bordercolor="#666666"
     pagecolor="#ffffff"
     id="base"
     borderlayer="true"
     inkscape:showpageshadow="false"
     width="400px"
     height="354px"
     inkscape:zoom="0.81818364"
     inkscape:cx="-38.59465"
     inkscape:cy="155.46732"
     inkscape:window-x="0"
     inkscape:window-y="0"
     inkscape:current-layer="svg2"
     showguides="true"
     inkscape:guide-bbox="true"
     showgrid="false"
     inkscape:window-maximized="0" />
  <g
     transform="matrix(0.81360495,0,0,0.81360495,-299.93733,-18.268428)"
     id="g2712">
    <linearGradient
       id="SVGID_10_"
       gradientUnits="userSpaceOnUse"
       x1="387.8494"
       y1="112.3482"
       x2="387.8494"
       y2="345.2023"
       gradientTransform="matrix(1.2524,0,0,-1.2524,45.2803,433.292)">
      <stop
         offset="0.0056"
         style="stop-color:#ED0000"
         id="stop2715" />
      <stop
         offset="0.5449"
         style="stop-color:#8D0000"
         id="stop2717" />
      <stop
         offset="1"
         style="stop-color:#BD0000"
         id="stop2719" />
    </linearGradient>
    <path
       style="fill:url(#linearGradient2997)"
       d="m 393.612,162.559 c 0,75.759 61.636,137.397 137.397,137.397 75.757,0 137.393,-61.638 137.393,-137.397 0,-75.76 -61.636,-137.397 -137.393,-137.397 -75.761,0 -137.397,61.637 -137.397,137.397 z"
       id="path2721"
       inkscape:connector-curvature="0" />
    <linearGradient
       id="SVGID_11_"
       gradientUnits="userSpaceOnUse"
       x1="387.8494"
       y1="112.366"
       x2="387.8494"
       y2="345.2269"
       gradientTransform="matrix(1.2524,0,0,-1.2524,45.2803,433.292)">
      <stop
         offset="0.0056"
         style="stop-color:#FF4242"
         id="stop2724" />
      <stop
         offset="0.573"
         style="stop-color:#FF9494"
         id="stop2726" />
      <stop
         offset="1"
         style="stop-color:#FFDCDC"
         id="stop2728" />
    </linearGradient>
    <path
       style="fill:url(#linearGradient2999)"
       d="m 401.876,162.559 c 0,71.204 57.929,129.132 129.133,129.132 71.202,0 129.127,-57.928 129.127,-129.132 0,-71.204 -57.925,-129.133 -129.127,-129.133 -71.204,0 -129.133,57.929 -129.133,129.133 z"
       id="path2730"
       inkscape:connector-curvature="0" />
    <linearGradient
       id="SVGID_12_"
       gradientUnits="userSpaceOnUse"
       x1="387.85199"
       y1="116.5533"
       x2="387.85199"
       y2="339.98059"
       gradientTransform="matrix(1.2524,0,0,-1.2524,45.2803,433.292)">
      <stop
         offset="0"
         style="stop-color:#FFFFFF"
         id="stop2733" />
      <stop
         offset="0.5"
         style="stop-color:#FF0000"
         id="stop2735" />
      <stop
         offset="1"
         style="stop-color:#FFC9C9"
         id="stop2737" />
    </linearGradient>
    <path
       style="fill:url(#linearGradient3001)"
       d="m 406.237,162.559 c 0,68.802 55.976,124.766 124.772,124.766 68.8,0 124.772,-55.964 124.772,-124.766 0,-68.796 -55.972,-124.77 -124.772,-124.77 -68.796,0 -124.772,55.975 -124.772,124.77 z"
       id="path2739"
       inkscape:connector-curvature="0" />
    <path
       style="opacity:0.8;fill:#ffffff"
       enable-background="new    "
       d="m 531.009,53.377 c -62.659,0 -113.642,50.971 -113.642,113.638 0,62.658 50.983,113.628 113.642,113.628 62.661,0 113.638,-50.97 113.638,-113.628 0,-62.667 -50.977,-113.638 -113.638,-113.638 z"
       id="path2741"
       inkscape:connector-curvature="0" />
    <path
       style="fill:#8d0000"
       d="m 417.367,162.559 c 0,62.663 50.983,113.628 113.642,113.628 62.661,0 113.638,-50.965 113.638,-113.628 C 644.647,99.9 593.67,48.922 531.009,48.922 468.35,48.922 417.367,99.9 417.367,162.559 Z"
       id="path2743"
       inkscape:connector-curvature="0" />
    <radialGradient
       id="SVGID_13_"
       cx="327.36911"
       cy="147.0332"
       r="69.963402"
       gradientTransform="matrix(1.7767,0,0,-1.7767,-50.6327,423.7937)"
       gradientUnits="userSpaceOnUse">
      <stop
         offset="0.6011"
         style="stop-color:#FFFFFF"
         id="stop2746" />
      <stop
         offset="0.8764"
         style="stop-color:#EAEAF0"
         id="stop2748" />
      <stop
         offset="0.9142"
         style="stop-color:#E6E6ED"
         id="stop2750" />
      <stop
         offset="0.95"
         style="stop-color:#DBDBE5"
         id="stop2752" />
      <stop
         offset="0.9849"
         style="stop-color:#C8C8D7"
         id="stop2754" />
      <stop
         offset="1"
         style="stop-color:#BDBDCF"
         id="stop2756" />
    </radialGradient>
    <path
       style="fill:url(#radialGradient3003)"
       d="m 420.151,162.559 c 0,61.124 49.729,110.851 110.858,110.851 61.127,0 110.859,-49.727 110.859,-110.851 0,-61.124 -49.732,-110.856 -110.859,-110.856 -61.129,10e-4 -110.858,49.732 -110.858,110.856 z"
       id="path2758"
       inkscape:connector-curvature="0" />
    <path
       style="fill:#771111"
       d="m 448.804,158.935 -19.479,0 c -1.233,0 -2.233,1 -2.233,2.234 l 0,2.777 c 0,1.234 1,2.234 2.233,2.234 l 19.479,0 c 1.234,0 2.234,-1 2.234,-2.234 l 0,-2.777 c -0.001,-1.234 -1,-2.234 -2.234,-2.234 z m 183.288,0 -19.487,0 c -1.233,0 -2.234,1 -2.234,2.234 l 0,2.777 c 0,1.234 1.001,2.234 2.234,2.234 l 19.487,0 c 1.233,0 2.234,-1 2.234,-2.234 l 0,-2.777 c 0,-1.234 -1.001,-2.234 -2.234,-2.234 z m -99.691,82.989 -2.783,0 c -1.233,0 -2.234,1 -2.234,2.234 l 0,19.48 c 0,1.234 1.001,2.234 2.234,2.234 l 2.783,0 c 1.234,0 2.234,-1 2.234,-2.234 l 0,-19.48 c 0,-1.234 -1,-2.234 -2.234,-2.234 z m 0,-183.284 -2.783,0 c -1.233,0 -2.234,1 -2.234,2.234 l 0,19.479 c 0,1.234 1.001,2.234 2.234,2.234 l 2.783,0 c 1.234,0 2.234,-1 2.234,-2.234 l 0,-19.479 c 0,-1.233 -1,-2.234 -2.234,-2.234 z"
       id="path2760"
       inkscape:connector-curvature="0" />
    <path
       style="fill:#a00000"
       d="m 429.324,163.946 19.479,0 0,-2.777 -19.479,0 0,2.777 z m 183.281,-2.778 0,2.777 19.487,0 0,-2.777 -19.487,0 z m -82.988,102.469 2.783,0 0,-19.48 -2.783,0 0,19.48 z m 0,-183.283 2.783,0 0,-19.48 -2.783,0 0,19.48 z"
       id="path2762"
       inkscape:connector-curvature="0" />
    <path
       style="fill:none;stroke:#e0e0e0;stroke-width:10.95456982;stroke-linecap:round;stroke-linejoin:round"
       d="m 466.582,91.186 63.682,74.552"
       id="path2764"
       inkscape:connector-curvature="0" />
    <path
       style="fill:none;stroke:#bfbfbf;stroke-width:10.95456982;stroke-linecap:round;stroke-linejoin:round"
       d="m 512.388,69.333 17.874,96.405"
       id="path2766"
       inkscape:connector-curvature="0" />
    <path
       style="fill:none;stroke:#808080;stroke-width:10.95456982;stroke-linecap:round;stroke-linejoin:round"
       d="m 562.986,73.311 -32.723,92.427"
       id="path2768"
       inkscape:connector-curvature="0" />
    <path
       style="fill:none;stroke:#000000;stroke-width:10.95456982;stroke-linecap:round;stroke-linejoin:round"
       d="m 459.748,140.771 70.516,24.967 74.55,-63.682"
       id="path2770"
       inkscape:connector-curvature="0" />
  </g>
</svg>
