<?xml version="1.0" encoding="UTF-8" standalone="no"?>
<svg
   xmlns:dc="http://purl.org/dc/elements/1.1/"
   xmlns:cc="http://creativecommons.org/ns#"
   xmlns:rdf="http://www.w3.org/1999/02/22-rdf-syntax-ns#"
   xmlns:svg="http://www.w3.org/2000/svg"
   xmlns="http://www.w3.org/2000/svg"
   xmlns:xlink="http://www.w3.org/1999/xlink"
   xmlns:sodipodi="http://sodipodi.sourceforge.net/DTD/sodipodi-0.dtd"
   xmlns:inkscape="http://www.inkscape.org/namespaces/inkscape"
   width="48pt"
   height="48pt"
   viewBox="0 0 256 256"
   enable-background="new 0 0 256 256"
   id="svg2"
   version="1.1"
   inkscape:version="0.91 r"
   sodipodi:docname="security.svg">
  <metadata
     id="metadata52">
    <rdf:RDF>
      <cc:Work
         rdf:about="">
        <dc:format>image/svg+xml</dc:format>
        <dc:type
           rdf:resource="http://purl.org/dc/dcmitype/StillImage" />
        <dc:title></dc:title>
      </cc:Work>
    </rdf:RDF>
  </metadata>
  <sodipodi:namedview
     pagecolor="#ffffff"
     bordercolor="#666666"
     borderopacity="1"
     objecttolerance="10"
     gridtolerance="10"
     guidetolerance="10"
     inkscape:pageopacity="0"
     inkscape:pageshadow="2"
     inkscape:window-width="767"
     inkscape:window-height="480"
     id="namedview50"
     showgrid="false"
     inkscape:zoom="1.9666667"
     inkscape:cx="19.491379"
     inkscape:cy="32.512437"
     inkscape:window-x="0"
     inkscape:window-y="0"
     inkscape:window-maximized="0"
     inkscape:current-layer="svg2" />
  <defs
     id="defs4">
    <linearGradient
       id="linearGradient860">
      <stop
         offset="0.000000"
         style="stop-color:#0066cc;stop-opacity:1;"
         id="stop7" />
      <stop
         offset="0.994400"
         style="stop-color:#003366;stop-opacity:1;"
         id="stop9" />
    </linearGradient>
    <linearGradient
       id="XMLID_9_"
       gradientUnits="userSpaceOnUse"
       x1="68.9434"
       y1="503.6328"
       x2="68.9434"
       y2="490.7197"
       gradientTransform="matrix(1 0 0 -1 123.1533 547.5)">
      <stop
         offset="0"
         style="stop-color:#FFF"
         id="stop12" />
      <stop
         offset="1"
         style="stop-color:#999999"
         id="stop14" />
    </linearGradient>
    <radialGradient
       id="XMLID_1_"
       cx="116.8169"
       cy="47.0796"
       r="182.3371"
       fx="116.8169"
       fy="47.0796"
       gradientUnits="userSpaceOnUse">
      <stop
         offset="0"
         style="stop-color:#FFF"
         id="stop17" />
      <stop
         offset="0.5955"
         style="stop-color:#99CCFF"
         id="stop19" />
      <stop
         offset="0.9944"
         style="stop-color:#3399FF"
         id="stop21" />
    </radialGradient>
    <linearGradient
       id="XMLID_2_"
       gradientUnits="userSpaceOnUse"
       x1="125.856400"
       y1="56.801800"
       x2="125.856400"
       y2="245.862793"
       xlink:href="#linearGradient860" />
    <radialGradient
       id="aigrd1"
       cx="28.789101"
       cy="20.971201"
       r="13.2807"
       fx="28.789101"
       fy="20.971201"
       gradientUnits="userSpaceOnUse">
      <stop
         offset="0"
         style="stop-color:#E41E08"
         id="stop12-5" />
      <stop
         offset="1"
         style="stop-color:#901505"
         id="stop14-0" />
    </radialGradient>
    <radialGradient
       id="aigrd2"
       cx="19.292"
       cy="13.5444"
       r="14.6944"
       fx="19.292"
       fy="13.5444"
       gradientUnits="userSpaceOnUse">
      <stop
         offset="0"
         style="stop-color:#E41E08"
         id="stop19-1" />
      <stop
         offset="1"
         style="stop-color:#901505"
         id="stop21-4" />
    </radialGradient>
    <linearGradient
       id="aigrd3"
       gradientUnits="userSpaceOnUse"
       x1="18.229"
       y1="11.5991"
       x2="23.412001"
       y2="16.723101">
      <stop
         offset="0"
         style="stop-color:#FFFFFF"
         id="stop34" />
      <stop
         offset="1"
         style="stop-color:#901505"
         id="stop36" />
    </linearGradient>
  </defs>
  <g
     transform="translate(-5.762054,51.85851)"
     style="stroke:#000"
     id="g24">
    <path
       opacity="0.2"
       fill="none"
       stroke="none"
       d="M256,256H0V0h256V256z"
       id="path26" />
  </g>
  <path
     fill="#FFF"
     stroke="none"
     d="M218.866,138.077H28.255c-1.847,0-3.471-0.368-4.499-0.933l-1.134,2.851 c0,1.524,2.522,2.764,5.633,2.764h190.611c3.111,0,5.634-1.237,5.634-2.764l-1.089-2.871 C222.388,137.699,220.739,138.077,218.866,138.077z"
     transform="translate(-5.762054,51.85851)"
     id="path28" />
  <path
     opacity="0.3"
     fill="#FFF"
     stroke="none"
     d="M224.5,139.995L186.942,40.95c0-1.527-2.522-2.765-5.635-2.765 c3.111,0,5.635,1.894,5.635,4.23l24.871,100.343h7.053C221.979,142.759,224.5,141.521,224.5,139.995z"
     id="path220"
     transform="translate(-5.762054,51.85851)"
     style="opacity:0.3" />
  <path
     opacity="0.3"
     fill="#FFF"
     stroke="none"
     d="M67.693,38.186c-3.112,0-5.635,1.238-5.635,2.765l-39.436,99.045 c0,1.525,2.522,2.764,5.633,2.764h7.687L62.058,42.416C62.058,40.079,64.581,38.186,67.693,38.186z"
     id="path221"
     transform="translate(-5.762054,51.85851)"
     style="opacity:0.3" />
  <path
     opacity="0.3"
     fill="#FFF"
     stroke="none"
     d="M67.693,38.186c-3.112,0-5.635,1.238-5.635,2.765l-39.436,99.045 c0,1.525,2.522,2.764,5.633,2.764h2.083l31.72-101.065C62.058,39.756,64.581,38.186,67.693,38.186z"
     id="path222"
     transform="translate(-5.762054,51.85851)"
     style="opacity:0.3" />
  <path
     opacity="0.3"
     fill="#FFF"
     stroke="none"
     d="M224.5,139.995L186.942,40.95c0-1.527-2.522-2.765-5.635-2.765 c3.111,0,5.635,1.571,5.635,3.508l30.209,101.065h1.715C221.979,142.759,224.5,141.521,224.5,139.995z"
     id="path223"
     transform="translate(-5.762054,51.85851)"
     style="opacity:0.3" />
  <path
     opacity="0.4"
     fill="url(#XMLID_9_)"
     stroke="none"
     d="M186.942,40.95l10.308,27.186c0.001,0,0.001,0,0.001,0L186.942,40.95z "
     transform="translate(-5.762054,51.85851)"
     style="opacity:0.4;fill:url(#XMLID_9_);"
     id="path34" />
  <path
     opacity="0.5"
     fill="#FFF"
     stroke="none"
     d="M115.857,82.485h86.835l-15.75-41.535c0-1.527-2.522-2.765-5.635-2.765 H67.693c-3.112,0-5.635,1.238-5.635,2.765l-28.62,71.879L115.857,82.485z"
     id="path231"
     transform="translate(-5.762054,51.85851)"
     style="opacity:0.5" />
  <g
     id="Layer_1"
     transform="matrix(0.79135159,0,0,0.74633559,-2.469463,5.762037)"
     style="stroke:#000000;stroke-width:1.27577329">
    <path
       d="M 256,256 0,256 0,0 l 256,0 0,256 z"
       id="path38"
       inkscape:connector-curvature="0"
       style="opacity:0.2;fill:none;stroke:none" />
    <path
       d="m 126.148,237.98 c 61.959,0 112.223,-50.473 112.223,-112.395 0,-61.528 -50.262,-112.01 -112.223,-112.01 -61.52,0.003 -112.213,50.482 -112.213,112.01 10e-4,61.923 50.694,112.395 112.213,112.395 z"
       id="path40"
       inkscape:connector-curvature="0"
       style="fill:url(#XMLID_1_);stroke:none" />
    <path
       d="m 212.02,53.625 c 16.439,19.511 26.352,44.645 26.352,71.961 0,61.922 -50.264,112.395 -112.223,112.395 -27.129,0 -52.15,-9.819 -71.649,-26.104 20.659,24.496 51.51,40.104 85.714,40.104 61.959,0 112.223,-50.473 112.223,-112.395 -0.001,-34.409 -15.724,-65.359 -40.417,-85.961 z"
       id="path42"
       inkscape:connector-curvature="0"
       style="opacity:0.2;stroke:none" />
    <path
       d="M 126.148,7 C 60.647,7.003 7.359,60.201 7.359,125.586 c 0,65.6 53.288,118.971 118.789,118.971 65.506,0 118.799,-53.371 118.799,-118.971 C 244.947,60.197 191.654,7 126.148,7 Z m 0,230.98 c -61.52,0 -112.213,-50.473 -112.213,-112.395 0,-61.528 50.693,-112.007 112.213,-112.01 61.961,0 112.223,50.482 112.223,112.01 0,61.923 -50.264,112.395 -112.223,112.395 z"
       id="path44"
       inkscape:connector-curvature="0"
       style="fill:#003366;stroke:none" />
    <path
       d="m 88.875,25.919 c -0.555,0 -1.162,0.229 -1.785,0.581 1.46,-0.429 2.147,-0.581 1.785,-0.581 z m 36.13,7.05 0.364,-5.285 -5.579,0.351 0.738,4.935 4.477,0 z m -62.949,91.345 c -1.121,-1.06 -0.371,-5.646 -0.371,-5.646 0,0 -16.764,-8.811 -35.015,-14.105 -2.251,-0.653 -1.114,-5.287 1.112,-7.045 l -0.743,-4.953 c -0.369,-2.459 3.728,-14.449 7.825,-15.502 4.099,-1.064 -0.372,7.048 -0.372,7.048 l -4.097,2.469 c 0,0 4.839,5.638 5.962,5.638 1.114,0 2.977,-2.822 2.977,-2.822 l -5.213,-3.516 4.844,-2.123 0.303,-1.859 0.813,-0.257 8.016,-12.143 c 5.541,-2.267 12.349,-5.076 13.216,-5.491 1.49,-0.701 11.919,-6.69 13.781,-8.104 1.867,-1.416 5.957,-1.057 7.443,-1.057 1.497,0 3.731,-0.708 4.101,-4.593 0.372,-3.878 1.865,-4.584 2.984,-3.523 1.116,1.053 -1.122,2.818 1.488,3.523 2.607,0.709 4.837,2.472 6.704,0.709 1.362,-1.293 -0.46,-2.763 -1.688,-3.874 l 20.681,0 2.24,-6.358 -4.842,-0.704 -17.886,-1.762 0,-2.117 -1.426,0.241 c 1.937,-10.639 13.438,-8.886 4.781,-15.045 -0.526,-0.378 -8.101,11.936 -10.028,11.696 -3.492,-0.46 -8.004,-0.496 -8.968,0.638 -1.269,1.499 2.857,-5.158 6.412,-7.177 -5.672,1.672 -23.594,7.803 -42.542,27.986 -18.112,19.294 -25.334,45.287 -25.334,46.197 0,1.761 3.728,2.469 4.101,4.587 0.373,2.106 -7.074,9.167 -7.074,12.693 0,1.625 -1.758,23.361 4.463,41.267 7.269,20.896 22.783,38.348 24.587,39.496 l 3.721,-1.77 c 0,0 -8.566,-15.16 -8.938,-16.576 -0.369,-1.404 9.684,-21.861 14.529,-21.15 4.839,0.693 3.725,2.115 6.705,0.35 2.978,-1.76 4.84,-16.229 8.192,-17.629 3.355,-1.418 7.077,-3.178 6.711,-6.703 -0.379,-3.535 -13.041,-9.877 -14.159,-10.934 l 0.004,0 z m 80.828,-103.685 -10.056,-3.53 1.863,5.648 8.193,-2.118 z m -37.623,13.049 c 1.121,0 23.469,-14.806 21.232,-15.164 -2.23,-0.35 -2.606,0 -8.573,-0.705 -5.955,-0.707 -12.294,8.465 -13.778,9.877 -1.486,1.415 -0.985,5.992 1.119,5.992 z m 102.555,106.334 2.885,-3.742 -2.885,-1.016 -2.163,2.721 -2.521,3.73 2.162,1.023 2.522,-2.716 z m 12.614,12.244 -0.722,-5.441 -4.677,0 -0.363,4.074 -4.333,-0.672 -1.075,-4.424 -2.161,-1.357 -2.53,3.055 -2.516,-0.676 -0.726,2.371 2.887,0.691 0,22.088 10.202,2.455 c -0.234,0.408 -0.411,0.752 -0.471,0.938 -0.727,2.383 2.881,3.41 5.399,2.383 0.942,-0.375 3.908,-3.375 5.771,-7.809 2.598,-6.178 4.866,-14.334 5.322,-17.217 l 1.169,-2.496 -7.212,2.715 -3.967,-0.674 0.003,-0.004 z m 15.144,-41.132 -1.882,-3.645 c -2.229,-12.572 -7.343,-28.67 -18.3,-45.3 -16.493,-25.001 -62.38,-39.422 -62.38,-39.422 l -2.518,3.052 -1.445,-2.372 -3.607,-1.365 0,3.059 3.25,2.725 -2.164,1.018 -8.294,0.676 -18.746,10.201 1.797,8.155 -2.166,0.686 -1.072,1.695 6.126,9.172 0.361,3.065 -5.046,1.018 0,6.114 -2.882,0.679 0.363,4.761 -24.521,17 0.723,9.507 c 1.798,2.383 15.865,16.662 15.865,16.662 0,0 16.218,0.671 19.826,-1.361 3.605,-2.039 1.08,2.036 2.164,3.057 1.08,1.027 1.441,8.156 2.52,8.839 1.08,0.678 0,4.753 1.443,6.12 1.441,1.35 1.441,17.676 1.441,17.676 0,0 8.653,14.607 8.653,18.352 0,3.736 -0.361,3.396 6.492,3.059 6.85,-0.34 8.289,-3.059 9.728,-4.074 1.448,-1.023 1.448,-3.404 2.892,-5.445 1.445,-2.043 3.959,-9.855 7.21,-12.57 3.241,-2.727 11.895,-4.768 12.612,-9.52 0.721,-4.76 3.966,-8.502 3.966,-8.502 l 15.587,-16.487 -0.438,2.217 -0.363,8.488 4.688,-1.695 -0.357,-9.183 -1.686,-1.779 0.24,-0.259 c 0,0 -1.085,-2.036 -2.521,-2.036 -1.442,0 -10.101,2.036 -11.537,1.699 -1.445,-0.342 -7.578,-16.658 -8.658,-17.331 -1.082,-0.681 -7.928,-11.899 -7.928,-11.899 0,0 15.86,19.036 18.384,26.509 1.464,4.354 6.966,0.302 11.443,-4.243 l 1.184,2.888 2.88,-0.687 -0.361,-3.397 3.243,0 0,5.099 -1.08,2.72 -0.371,4.415 2.889,2.726 1.446,-2.376 4.677,-4.423 5.413,-2.721 1.443,2.721 0.723,3.741 -1.448,4.076 -2.88,2.379 -1.443,6.12 0,3.051 -3.24,-2.035 -0.361,-6.455 -4.686,0.344 -2.161,5.77 3.244,4.769 7.568,1.018 6.133,-5.786 0.718,-11.206 2.726,-3.601 c 1.777,4.566 3.046,9.345 3.046,13.795 0,4.88 2.23,-3.381 0.332,-18.264 l 1.106,-1.453 0,-0.001 z m -90.852,-34.668 -19.466,-0.69 8.285,-6.793 4.33,0 6.85,4.754 0,2.728 0.001,0.001 z m 23.799,-2.378 0,3.059 -8.291,0 0.72,2.042 -5.051,0.684 -0.358,1.693 -3.604,-0.674 -6.492,-1.368 1.084,-1.694 1.083,-2.048 3.603,-3.734 1.445,2.721 5.41,-0.342 2.881,-3.061 11.172,2.04 -3.601,0.686 0,-0.004 z m 0.714,-4.424 -4.321,0.679 -0.72,-3.063 5.4,-0.677 0.726,-3.057 3.973,4.084 -5.058,2.029 0,0.005 z m 20.914,105.701 -2.526,2.039 0.359,5.105 3.246,0 0,-4.412 2.889,-3.748 0,-7.814 -1.805,-0.35 -2.159,9.18 -0.004,0 z M 166,165.17 c 0,0 -2.525,0.664 0.355,1.691 2.88,1.025 14.42,-16.645 14.42,-16.645 l -9.735,6.109 -5.044,8.844 0.004,0 z m -19.626,65.143 -2.156,-2.055 -4.328,-0.689 -0.718,2.057 -5.766,-0.678 -0.362,-2.738 -4.324,0 -4.685,2.738 -8.286,0 -0.719,-2.057 -13.33,-1.375 -2.166,2.053 -5.401,-1.359 -0.721,-4.801 -2.522,-0.35 -2.883,5.15 -9.726,-0.346 c 1.737,0.824 16.267,9.488 38.545,11.301 29.547,2.389 43.601,-4.793 43.601,-4.793 l -1.082,-1.031 -12.972,-1.023 0,-0.004 z"
       id="path46"
       inkscape:connector-curvature="0"
       style="fill:url(#XMLID_2_);stroke:none" />
    <path
       d="m 125.77,103.102 c 38.438,0 71.876,-13.245 89.079,-32.765 -17.323,-33.064 -50.796,-55.63 -89.243,-55.63 -38.111,0.002 -71.629,22.492 -89.064,55.463 17.159,19.612 50.68,32.932 89.228,32.932 z"
       id="path48"
       inkscape:connector-curvature="0"
       style="opacity:0.5;fill:#ffffff;stroke:none" />
  </g>
  <g
     transform="matrix(5.844778,0,0,6.3522098,25.295167,-33.060163)"
     id="Layer_x0020_1"
     style="clip-rule:nonzero;fill:#ffffff;fill-rule:nonzero;stroke:#000000;stroke-width:0.87529069;stroke-miterlimit:4">
    <g
       style="stroke:none"
       id="g5"
       transform="matrix(0.98648573,0,0,0.7235478,0.52840813,12.357413)">
      <path
         inkscape:connector-curvature="0"
         style="fill:#000000"
         d="M 24.1,4.1 C 23.5,4 21.9,3.6 19.8,3.6 c -2.3,0 -3.2,2 -4,3.6 -0.5,1 -0.9,2 -1.7,2.8 -2.4,2.4 -5.1,5.1 -5.1,8.2 0,2.4 2.1,3.7 3.6,4.6 0.6,0.4 1.2,0.7 1.5,1 0.4,0.4 0.7,1.8 1,2.8 0.4,1.7 0.8,3.4 1.8,4.4 1.3,1.3 3,0.5 4.1,0 0.8,0.3 1.6,0.4 2.6,0.5 1.5,0.2 3,0.4 3.7,1.2 0,0 0.1,0.1 0.1,0.2 0,0 0,0 0,0 -0.1,1.5 -5.3,6.7 -7.5,8.4 l 1,0.3 c 0,0 8.1,-1.7 9.3,-2 0.8,0.8 4.9,5.1 4.9,5.1 l 0,-3.2 c 0,-1.5 0.8,-2.9 1.5,-4.3 0.7,-1.2 1.4,-2.6 1.4,-4 0,-0.9 -0.3,-1.7 -1.1,-2.5 -1.1,-1.1 -2.8,-1.7 -4.6,-2.3 1.2,-0.6 1.6,-1.3 1.9,-2.1 0.1,-0.3 0.1,-0.4 0.2,-0.5 0.2,-0.2 0.7,-0.6 1.2,-0.9 1.5,-1.1 3.5,-2.4 3.5,-4.3 0,-1.9 -1,-3.4 -1.8,-4.8 0,0 -0.4,-0.6 -0.4,-0.6 0,0 0,0 0,-0.1 0,-0.3 0.2,-0.8 0.3,-1.2 0.2,-0.7 0.5,-1.5 0.5,-2.3 0,-0.8 -0.2,-1.7 -1,-2.4 C 36.2,8.7 35.8,8.1 35.4,7.3 34.4,5.6 33.2,3.5 30.5,3.5 27.9,3.5 24.9,3.9 24.1,4 Z"
         id="path7" />
      <path
         inkscape:connector-curvature="0"
         style="fill:#0f1226"
         d="m 24.8,17.3 c 0,0 -5.2,7.2 -5.2,10.5 0,3.3 6,1.5 8.4,3.9 2.4,2.4 -5.6,8.6 -5.6,8.6 l 8,-2.2 3.2,3.4 c 0,-4.1 4.7,-7.4 2.3,-9.9 -2.5,-2.5 -9.6,-2.2 -10,-5.5 -0.4,-3.3 -1,-8.7 -1,-8.7 z"
         id="path9" />
      <radialGradient
         id="radialGradient4304"
         cx="28.789101"
         cy="20.971201"
         r="13.2807"
         fx="28.789101"
         fy="20.971201"
         gradientUnits="userSpaceOnUse">
        <stop
           offset="0"
           style="stop-color:#E41E08"
           id="stop4306" />
        <stop
           offset="1"
           style="stop-color:#901505"
           id="stop4308" />
      </radialGradient>
      <path
         inkscape:connector-curvature="0"
         style="fill:url(#aigrd1)"
         d="m 30.3,4.8 c 3,0 3.5,3.5 5.2,5.2 1.7,1.7 -0.9,4.3 0,5.7 0.9,1.4 2,3 2,4.7 0,1.7 -3.2,3.2 -4.2,4.2 -1,1 0,2 -2.7,2.8 -2.7,0.7 -4,-0.3 -5.7,-0.3 -1.7,0 -5.9,4.4 -7.4,2.9 C 16,28.5 16.1,24.1 14.8,22.8 13.4,21.4 10,20.5 10,18 c 0,-2.5 2.5,-5 4.7,-7.2 2.2,-2.2 2.2,-6 4.7,-6 2.5,0 4.2,0.5 4.2,0.5 0,0 3.5,-0.5 6.5,-0.5 z"
         id="path16" />
      <radialGradient
         id="radialGradient4311"
         cx="19.292"
         cy="13.5444"
         r="14.6944"
         fx="19.292"
         fy="13.5444"
         gradientUnits="userSpaceOnUse">
        <stop
           offset="0"
           style="stop-color:#E41E08"
           id="stop4313" />
        <stop
           offset="1"
           style="stop-color:#901505"
           id="stop4315" />
      </radialGradient>
      <path
         inkscape:connector-curvature="0"
         style="fill:url(#aigrd2)"
         d="m 34.8,17.3 c 0,5.5 -4.5,10 -10,10 -5.5,0 -10,-4.5 -10,-10 0,-5.5 4.5,-10 10,-10 5.5,0 10,4.5 10,10 z"
         id="path23" />
      <path
         inkscape:connector-curvature="0"
         style="opacity:0.51999996"
         d="m 14.8,12.2 c 0,0 -3.4,3.4 -3.9,4.8 -0.4,1.4 1.1,2.5 1.1,2.5 0,0 -1.2,-3.5 2.7,-7.4 z"
         id="path25" />
      <path
         inkscape:connector-curvature="0"
         style="opacity:0.51999996"
         d="m 16.6,25.2 c 0,0 0.7,5.3 2.4,4.3 -1.2,-0.4 -2.4,-4.3 -2.4,-4.3 z"
         id="path27" />
      <path
         inkscape:connector-curvature="0"
         style="opacity:0.51999996"
         d="m 17.2,8.2 c 0,0 0.7,-3.7 4.1,-2.9 -2.2,0 -4.1,2.9 -4.1,2.9 z"
         id="path29" />
      <path
         inkscape:connector-curvature="0"
         style="opacity:0.51999996"
         d="m 32.3,6 c 0,0 -0.6,-1.6 -5.8,-0.7 3.4,0 5.8,0.7 5.8,0.7 z"
         id="path31" />
      <linearGradient
         id="linearGradient4322"
         gradientUnits="userSpaceOnUse"
         x1="18.229"
         y1="11.5991"
         x2="23.412001"
         y2="16.723101">
        <stop
           offset="0"
           style="stop-color:#FFFFFF"
           id="stop4324" />
        <stop
           offset="1"
           style="stop-color:#901505"
           id="stop4326" />
      </linearGradient>
      <path
         inkscape:connector-curvature="0"
         style="opacity:0.51999996;fill:url(#aigrd3)"
         d="M 25.4,8.2 C 18.2,8 14.7,14.8 16.1,20 20.4,17.7 25.4,13.6 25.4,8.2 Z"
         id="path38-9" />
      <path
         inkscape:connector-curvature="0"
         style="opacity:0.26000001"
         d="m 28.7,31.6 c 0.8,1.1 0,2.5 0,2.5 1.3,0.7 4.5,-1.5 7.1,0 0.7,-1.5 -0.2,-2.4 -1.3,-2.9 l -5.7,0.4 z"
         id="path78" />
    </g>
  </g>
</svg>
