<?xml version="1.0" encoding="UTF-8" standalone="no"?>
<!-- Created with Inkscape (http://www.inkscape.org/) -->

<svg
   xmlns:dc="http://purl.org/dc/elements/1.1/"
   xmlns:cc="http://creativecommons.org/ns#"
   xmlns:rdf="http://www.w3.org/1999/02/22-rdf-syntax-ns#"
   xmlns:svg="http://www.w3.org/2000/svg"
   xmlns="http://www.w3.org/2000/svg"
   xmlns:xlink="http://www.w3.org/1999/xlink"
   xmlns:sodipodi="http://sodipodi.sourceforge.net/DTD/sodipodi-0.dtd"
   xmlns:inkscape="http://www.inkscape.org/namespaces/inkscape"
   width="232.33508"
   height="232.33508"
   id="svg2"
   sodipodi:version="0.32"
   inkscape:version="0.91 r"
   sodipodi:docname="status_menu.svg"
   inkscape:output_extension="org.inkscape.output.svg.inkscape"
   version="1.0">
  <defs
     id="defs4">
    <linearGradient
       id="linearGradient3199">
      <stop
         id="stop3201"
         offset="0"
         style="stop-color:#ffffff;stop-opacity:1;" />
      <stop
         id="stop3203"
         offset="1"
         style="stop-color:#ffffff;stop-opacity:0;" />
    </linearGradient>
    <linearGradient
       id="linearGradient3157">
      <stop
         style="stop-color:#202020;stop-opacity:1;"
         offset="0"
         id="stop3159" />
      <stop
         style="stop-color:#7f7f7f;stop-opacity:1;"
         offset="1"
         id="stop3161" />
    </linearGradient>
    <inkscape:perspective
       sodipodi:type="inkscape:persp3d"
       inkscape:vp_x="0 : 526.18109 : 1"
       inkscape:vp_y="0 : 1000 : 0"
       inkscape:vp_z="744.09448 : 526.18109 : 1"
       inkscape:persp3d-origin="372.04724 : 350.78739 : 1"
       id="perspective10" />
    <linearGradient
       inkscape:collect="always"
       xlink:href="#linearGradient3157"
       id="linearGradient3163"
       x1="438.05487"
       y1="506.72171"
       x2="314.95682"
       y2="356.07721"
       gradientUnits="userSpaceOnUse" />
    <linearGradient
       inkscape:collect="always"
       xlink:href="#linearGradient3157"
       id="linearGradient3167"
       gradientUnits="userSpaceOnUse"
       x1="316.4325"
       y1="353.98666"
       x2="437.522"
       y2="508.81226" />
    <linearGradient
       inkscape:collect="always"
       xlink:href="#linearGradient3199"
       id="linearGradient3197"
       x1="347.49249"
       y1="366.4686"
       x2="377.79706"
       y2="465.46356"
       gradientUnits="userSpaceOnUse" />
    <linearGradient
       inkscape:collect="always"
       xlink:href="#linearGradient3199"
       id="linearGradient3206"
       gradientUnits="userSpaceOnUse"
       x1="348.50266"
       y1="337.67926"
       x2="372.09805"
       y2="443.2402" />
    <linearGradient
       id="lg11"
       xlink:href="#lg1"
       x1="13.5"
       y1="5.8000002"
       x2="36.799999"
       y2="24"
       gradientUnits="userSpaceOnUse" />
    <linearGradient
       id="lg1">
      <stop
         stop-color="#039"
         offset="0"
         id="stop7" />
      <stop
         stop-color="#0065F5"
         offset="1"
         id="stop9" />
    </linearGradient>
    <linearGradient
       id="lg44"
       xlink:href="#lg4"
       x1="24.4"
       y1="31.9"
       x2="9.1000004"
       y2="12.8"
       gradientUnits="userSpaceOnUse" />
    <linearGradient
       id="lg4">
      <stop
         stop-color="#2F8FFE"
         offset="0"
         id="stop24" />
      <stop
         stop-color="#06F"
         offset=".13"
         id="stop26" />
      <stop
         stop-color="#B4E0FB"
         offset="1"
         id="stop28" />
    </linearGradient>
    <radialGradient
       id="rg2"
       xlink:href="#lg2"
       cx="18.299999"
       cy="30.299999"
       r="6.3000002"
       fx="18.299999"
       fy="30.299999"
       gradientUnits="userSpaceOnUse"
       gradientTransform="matrix(1.0037,-0.7988,0.09911,0.1245,-3.0722,41.1898)" />
    <linearGradient
       id="lg2">
      <stop
         stop-color="#fff"
         offset="0"
         id="stop12" />
      <stop
         stop-color="#fff"
         offset=".5"
         id="stop14" />
      <stop
         stop-color="#fff"
         offset="1"
         stop-opacity="0"
         id="stop16" />
    </linearGradient>
    <linearGradient
       id="lg33"
       xlink:href="#lg3"
       x1="14.9"
       y1="7.3000002"
       x2="13.4"
       y2="9.1999998"
       gradientUnits="userSpaceOnUse" />
    <linearGradient
       id="lg3">
      <stop
         stop-color="#fff"
         offset="0"
         id="stop19" />
      <stop
         stop-color="#B3DFFB"
         offset="1"
         id="stop21" />
    </linearGradient>
  </defs>
  <sodipodi:namedview
     id="base"
     pagecolor="#ffffff"
     bordercolor="#666666"
     borderopacity="1.0"
     gridtolerance="10000"
     guidetolerance="10"
     objecttolerance="10"
     inkscape:pageopacity="0.0"
     inkscape:pageshadow="2"
     inkscape:zoom="0.98994949"
     inkscape:cx="93.439114"
     inkscape:cy="123.88915"
     inkscape:document-units="px"
     inkscape:current-layer="layer1"
     showgrid="false"
     inkscape:window-width="1280"
     inkscape:window-height="935"
     inkscape:window-x="0"
     inkscape:window-y="0"
     showguides="true"
     inkscape:guide-bbox="true"
     inkscape:window-maximized="0" />
  <metadata
     id="metadata7">
    <rdf:RDF>
      <cc:Work
         rdf:about="">
        <dc:format>image/svg+xml</dc:format>
        <dc:type
           rdf:resource="http://purl.org/dc/dcmitype/StillImage" />
      </cc:Work>
    </rdf:RDF>
  </metadata>
  <g
     inkscape:label="Layer 1"
     inkscape:groupmode="layer"
     id="layer1"
     transform="translate(-261.62952,-313.94068)">
    <path
       sodipodi:type="arc"
       style="opacity:1;fill:url(#linearGradient3163);fill-opacity:1;stroke:none;stroke-width:0.2;stroke-linecap:round;stroke-linejoin:round;stroke-miterlimit:4;stroke-dasharray:none;stroke-dashoffset:0;stroke-opacity:1"
       id="path3155"
       sodipodi:cx="377.79706"
       sodipodi:cy="430.10822"
       sodipodi:rx="98.994949"
       sodipodi:ry="98.994949"
       d="m 476.79201,430.10822 a 98.994949,98.994949 0 0 1 -98.99495,98.99494 98.994949,98.994949 0 0 1 -98.99495,-98.99494 98.994949,98.994949 0 0 1 98.99495,-98.99495 98.994949,98.994949 0 0 1 98.99495,98.99495 z"
       transform="matrix(1.1734694,0,0,1.1734694,-65.536224,-74.610609)" />
    <path
       sodipodi:type="arc"
       style="opacity:1;fill:url(#linearGradient3167);fill-opacity:1;stroke:none;stroke-width:0.2;stroke-linecap:round;stroke-linejoin:round;stroke-miterlimit:4;stroke-dasharray:none;stroke-dashoffset:0;stroke-opacity:1"
       id="path3165"
       sodipodi:cx="377.79706"
       sodipodi:cy="430.10822"
       sodipodi:rx="98.994949"
       sodipodi:ry="98.994949"
       d="m 476.79201,430.10822 a 98.994949,98.994949 0 0 1 -98.99495,98.99494 98.994949,98.994949 0 0 1 -98.99495,-98.99494 98.994949,98.994949 0 0 1 98.99495,-98.99495 98.994949,98.994949 0 0 1 98.99495,98.99495 z"
       transform="matrix(1.0306123,0,0,1.0306123,-11.565216,-13.166579)" />
    <path
       sodipodi:type="arc"
       style="opacity:1;fill:#bfbfbf;fill-opacity:1;stroke:none;stroke-width:0.20000000000000001;stroke-linecap:round;stroke-linejoin:round;stroke-miterlimit:4;stroke-dasharray:none;stroke-dashoffset:0;stroke-opacity:1"
       id="path2383"
       sodipodi:cx="377.79706"
       sodipodi:cy="430.10822"
       sodipodi:rx="98.994949"
       sodipodi:ry="98.994949"
       d="m 476.79201,430.10822 a 98.994949,98.994949 0 0 1 -98.99495,98.99494 98.994949,98.994949 0 0 1 -98.99495,-98.99494 98.994949,98.994949 0 0 1 98.99495,-98.99495 98.994949,98.994949 0 0 1 98.99495,98.99495 z" />
    <path
       style="fill:url(#linearGradient3206);fill-opacity:1;stroke:none;stroke-width:0.2;stroke-linecap:round;stroke-linejoin:round;stroke-miterlimit:4;stroke-dashoffset:0;stroke-opacity:1"
       d="M 455.07373,398.79349 C 449.25572,429.61309 413.22739,440.72053 376.78691,445.76557 C 340.28119,450.81965 297.92938,446.63812 289.71509,411.1858 C 281.51863,375.81039 323.15185,331.11327 377.79706,331.11327 C 432.44227,331.11327 460.87363,368.06982 455.07373,398.79349 z"
       id="path3189"
       sodipodi:nodetypes="czzzz" />
    <g
       transform="matrix(0,4.1895477,4.3320634,0,271.12274,340.06093)"
       id="g34">
      <path
         d="m 13.25,4.91 c -1.94,0.12 -3.22,1.92 -3.22,5.16 l 0,2.47 c 0,1.35 0.86,3.1 1.9,3.94 l 9.53,7.66 -9.53,7.69 c -1.05,0.84 -1.9,2.6 -1.9,3.94 l 0,2.47 c 0,3.24 1.28,5.04 3.22,5.16 1.16,0.07 2.55,-0.47 4.06,-1.69 l 19.9,-16 c 1.08,-0.86 1.08,-2.26 0,-3.13 L 17.3,6.61 C 15.78,5.39 14.4,4.85 13.24,4.92 Z"
         id="path36"
         style="fill:url(#lg11)"
         inkscape:connector-curvature="0" />
      <path
         d="m 13.38,6.9 c 0.45,-0.03 1.4,0.22 2.7,1.25 l 19.9,15.97 -19.91,16 c -1.28,1.03 -2.24,1.28 -2.7,1.25 -0.38,-0.02 -0.5,-0.08 -0.78,-0.5 -0.27,-0.42 -0.56,-1.3 -0.56,-2.66 l 0,-2.47 c 0,-0.5 0.75,-2.05 1.16,-2.38 l 9.53,-7.69 1.94,-1.56 -1.94,-1.56 -9.53,-7.66 c -0.4,-0.33 -1.16,-1.88 -1.16,-2.38 l 0,-2.47 c 0,-1.36 0.29,-2.24 0.56,-2.66 0.27,-0.4 0.4,-0.48 0.78,-0.5 z"
         id="path38"
         style="fill:url(#lg44)"
         inkscape:connector-curvature="0" />
      <path
         d="m 24.66,24.13 -11.47,9.25 c -0.4,0.33 -1.16,1.88 -1.16,2.38 l 0,0.75 12.63,-10.16 0,-2.22 z"
         id="path40"
         style="opacity:0.6;fill:url(#rg2)"
         inkscape:connector-curvature="0" />
      <path
         d="M 13.38,6.9 C 13,6.9 12.88,6.98 12.6,7.4 12.42,7.68 12.24,8.19 12.13,8.9 L 33.57,26.06 35.97,24.12 16.06,8.15 c -1.28,-1 -2.24,-1.28 -2.6,-1.25 z"
         id="path42"
         style="opacity:0.8;fill:url(#lg33)"
         inkscape:connector-curvature="0" />
    </g>
  </g>
</svg>
