<?xml version="1.0" encoding="UTF-8" standalone="no"?>
<!-- Created with Inkscape (http://www.inkscape.org/) -->
<svg xmlns:rdf="http://www.w3.org/1999/02/22-rdf-syntax-ns#" xmlns="http://www.w3.org/2000/svg" height="128" width="128" version="1.1" xmlns:cc="http://creativecommons.org/ns#" xmlns:xlink="http://www.w3.org/1999/xlink" xmlns:dc="http://purl.org/dc/elements/1.1/">
 <defs>
  <linearGradient id="e">
   <stop stop-color="#010101" offset="0"/>
   <stop stop-color="#4e4e4e" offset="1"/>
  </linearGradient>
  <linearGradient id="a">
   <stop stop-color="#868aa8" stop-opacity=".68627" offset="0"/>
   <stop stop-color="#a0a4bb" stop-opacity=".56078" offset="1"/>
  </linearGradient>
  <linearGradient id="b">
   <stop stop-color="#ffe2ba" stop-opacity=".547" offset="0"/>
   <stop stop-color="#ffc684" offset="1"/>
  </linearGradient>
  <linearGradient id="c">
   <stop stop-color="#ffedd2" offset="0"/>
   <stop stop-color="#ffd5a5" offset="1"/>
  </linearGradient>
  <linearGradient id="d">
   <stop stop-color="#b3b3b3" offset="0"/>
   <stop stop-color="#ce964d" offset="1"/>
  </linearGradient>
  <filter id="f">
   <feGaussianBlur stdDeviation="0.31388603"/>
  </filter>
  <linearGradient id="y" y2="56.036" xlink:href="#c" gradientUnits="userSpaceOnUse" x2="4.8214" gradientTransform="translate(41.286 2.5714)" y1="38.893" x1="3.5714"/>
  <linearGradient id="x" y2="58.036" xlink:href="#d" gradientUnits="userSpaceOnUse" x2="8.2344" gradientTransform="translate(41.286 2.5714)" y1="34.993" x1="9.6809"/>
  <linearGradient id="w" y2="55.411" xlink:href="#b" gradientUnits="userSpaceOnUse" x2="6.1607" gradientTransform="translate(41.286 2.5714)" y1="38.536" x1="1.7857"/>
  <radialGradient id="j" gradientUnits="userSpaceOnUse" cy="20.53" cx="3.4889" gradientTransform="matrix(1 0 0 .73258 61.286 8.1921)" r="19.097">
   <stop stop-color="#be984f" offset="0"/>
   <stop stop-color="#754c0a" offset="1"/>
  </radialGradient>
  <linearGradient id="v" y2="29.25" gradientUnits="userSpaceOnUse" x2="-7.3214" gradientTransform="translate(61.286 2.5714)" y1="7.2857" x1="-6.7857">
   <stop stop-color="#b47a06" offset="0"/>
   <stop stop-color="#6a410c" offset="1"/>
  </linearGradient>
  <radialGradient id="i" gradientUnits="userSpaceOnUse" cy="26.852" cx="12.304" gradientTransform="matrix(-1.3742 -1.1543 1.6293 -1.9396 7.0338 90.784)" r="4.8731">
   <stop stop-color="#b37a07" offset="0"/>
   <stop stop-color="#7c4f0b" offset="1"/>
  </radialGradient>
  <linearGradient id="u" y2="38.714" gradientUnits="userSpaceOnUse" x2="10.893" gradientTransform="translate(21.286 2.5714)" y1="16.214" x1="10">
   <stop stop-color="#af7606" offset="0"/>
   <stop stop-color="#6a410b" stop-opacity=".96863" offset="1"/>
  </linearGradient>
  <linearGradient id="t" y2="100.86" gradientUnits="userSpaceOnUse" x2="15" gradientTransform="translate(81.286 2.5714)" y1="79.429" x1="-52.143">
   <stop stop-color="#a0a3bb" stop-opacity=".95686" offset="0"/>
   <stop stop-color="#d0d1e2" offset="1"/>
  </linearGradient>
  <linearGradient id="s" y2="56.929" xlink:href="#a" gradientUnits="userSpaceOnUse" x2="-58.571" gradientTransform="translate(81.286 2.5714)" y1="101.57" x1="-16.25"/>
  <linearGradient id="r" y2="90.5" gradientUnits="userSpaceOnUse" x2="-21.071" gradientTransform="translate(81.286 2.5714)" y1="72.464" x1="-58.214">
   <stop stop-color="#79819d" stop-opacity=".82883" offset="0"/>
   <stop stop-color="#e2e2ed" stop-opacity=".424" offset="1"/>
  </linearGradient>
  <radialGradient id="h" gradientUnits="userSpaceOnUse" cy="93.388" cx="150.89" gradientTransform="matrix(-0.662 .80825 -.80978 -.65231 267.69 34.405)" r="14.984">
   <stop stop-color="#ffe3b8" offset="0"/>
   <stop stop-color="#ffcc8a" offset="1"/>
  </radialGradient>
  <linearGradient id="q" y2="56.036" xlink:href="#c" gradientUnits="userSpaceOnUse" x2="4.8214" gradientTransform="translate(81.286 32.571)" y1="38.893" x1="3.5714"/>
  <linearGradient id="p" y2="55.179" xlink:href="#d" gradientUnits="userSpaceOnUse" x2="7.6987" gradientTransform="translate(81.286 32.571)" y1="34.993" x1="9.6809"/>
  <linearGradient id="o" y2="55.411" xlink:href="#b" gradientUnits="userSpaceOnUse" x2="6.1607" gradientTransform="translate(83.286 32.571)" y1="38.536" x1="1.7857"/>
  <linearGradient id="n" y2="96.117" xlink:href="#e" gradientUnits="userSpaceOnUse" x2="69.827" gradientTransform="translate(1.2857 2.5714)" y1="105.18" x1="68.16"/>
  <radialGradient id="g" gradientUnits="userSpaceOnUse" cy="41.346" cx="141.71" gradientTransform="matrix(-1.0275 .58941 -.64296 -1.1208 268.12 14.284)" r="28.364">
   <stop stop-color="#b37906" offset="0"/>
   <stop stop-color="#976408" offset=".68350"/>
   <stop stop-color="#74490b" offset="1"/>
  </radialGradient>
  <linearGradient id="m" y2="82.286" gradientUnits="userSpaceOnUse" x2="122.14" gradientTransform="translate(-58.714 2.5714)" y1="45.5" x1="144.11">
   <stop stop-color="#b77c06" offset="0"/>
   <stop stop-color="#69410c" offset="1"/>
  </linearGradient>
  <linearGradient id="l" y2="97.188" xlink:href="#e" gradientUnits="userSpaceOnUse" x2="66.077" gradientTransform="matrix(-1 0 0 1 172.39 2.5714)" y1="106.26" x1="66.731"/>
  <linearGradient id="k" y2="56.929" xlink:href="#a" gradientUnits="userSpaceOnUse" x2="-58.571" gradientTransform="translate(380,2)" y1="101.57" x1="-16.25"/>
  <filter id="z">
   <feGaussianBlur stdDeviation="1.0549209"/>
  </filter>
 </defs>
 <metadata>
  <rdf:RDF>
   <cc:Work rdf:about="">
    <dc:format>image/svg+xml</dc:format>
    <dc:type rdf:resource="http://purl.org/dc/dcmitype/StillImage"/>
    <dc:title/>
   </cc:Work>
  </rdf:RDF>
 </metadata>
 <g opacity=".572" transform="translate(-298.71 2.5714)" filter="url(#z)">
  <path d="m380.01 101.43-67.87-0.18c-2.1642-0.006-5.1513-1.263-5.5357-3.3929-0.80984-4.487 1.9643-19.286 3.0357-21.786s3.0357-5.8929 9.1071-7.3214c6.0714-1.4286 17.321-4.8214 17.321-4.8214l6.25 5 4.2857-4.4643 5 4.2857 5.9018-5.1786s17.306 5.5122 18.02 5.6908c0.71428 0.17857 7.1385 2.9685 8.3202 7.1204 0.88297 3.1023 2.6567 20.455 1.9424 21.348-0.71 0.893-3.49 3.699-5.78 3.699z" stroke="url(#k)" stroke-width="1px"/>
  <path d="m395.19 79.812-17.875 1.7812 0.1875 9.9062-2.25 1.5625c-0.0214-0.007-0.0412-0.028-0.0625-0.0312-2.33-0.357-19.08 5.969-19.08 5.969-1.2819 0.56575-6.2953 10.673-5.7812 12.25 0.43236 1.326 3.1295 3.25 3.8438 3.25 0.71428 0 26.531-0.0312 26.531-0.0312s0.00014-0.0616 0-0.0625l19.812 0.125v-0.0625c7.5998 0.009 15.965 0.0312 16.406 0.0312 0.71429 0 3.3801-1.924 3.8125-3.25 0.51405-1.5765-4.4681-11.684-5.75-12.25 0 0-15.834-5.9823-18.812-5.9688l-1.7188-0.625 0.73-12.595z"/>
  <path d="m331.06 31.005s-0.91842 18.571 0.25254 21.213c1.1371 2.5654 10.228 7.7024 11.49 7.7024 1.2627 0 3.8508 0.61166 5.6821 0.12627 4.2702-1.1318 9.849-5.8084 11.364-6.8185 1.5152-1.0102 2.7779-20.203 2.7779-20.203l-27.27-15.151z"/>
  <path d="m379.11 61.429 0.35715 4.6429 9.4643-13.929s9.6429 6.0714 9.8214 10.714c0.17857 4.6429 0.17857 16.964 0 17.679-0.18 0.714-2.68 4.464-3.93 5.178-1.25 0.71428-4.6429 0.35714-4.6429 0.35714l5.1786 1.7857 0.17857 3.2143s5-0.17857 6.7857-1.4286 7.3214-4.2857 6.25-13.929c-1.08-9.642-3.58-22.856-8.94-27.32-5.35-4.464-10.89-5.357-13.57-5.536-2.6786-0.17857-8.2143-1.0714-12.679 4.2857-4.4643 5.3571-6.0714 13.393-6.0714 15 0 1.6071-1.6071 12.679-1.6071 12.679s-0.35715 1.9643-2.8572 3.0357-10.179 1.25-10.179 1.25c2.8992 1.2652 5.9753 1.6709 9.1071 1.4286 0.71429-0.17857 3.3036-0.44643 2.0536 0.625s-6.5179 1.6964-6.5179 1.6964 0.26785 4.4643 3.4821 4.8214c3.2143 0.35714 4.0179 0.53571 4.0179 0.53571s1.1607-0.17857 0.44643 1.6071c-0.71428 1.7857-3.4822 2.1429-3.4822 2.1429s11.607 1.9643 12.857 1.25c1.25-0.71429 1.8717-0.78041 2.3214-1.6071 0.9107-1.674 0.17857-5.7143 0.17857-5.7143s-3.5714-3.2143-4.2857-5.8929c-0.71429-2.6786-1.9643-14.821-1.4286-16.071 0.53572-1.25 5.1786 0 5.8929-0.35714 0.72-0.359 1.79-2.144 1.79-2.144z"/>
 </g>
 <g>
  <g stroke-width="1px">
   <path d="m38.25 64.214-0.357 13.215 19.643-0.179 0.357-13.393z" stroke="#dfdfe1" fill="#fff"/>
   <path d="m37.893 52.893v10.536l19.643-0.17857 0.357-13.393z" stroke="#debe8e" fill="#ffd593"/>
   <path d="m32.348 31.576s-0.91842 18.571 0.25254 21.213c1.1371 2.5654 10.228 7.7024 11.49 7.7024 1.2627 0 3.8508 0.61166 5.6821 0.12627 4.2702-1.1318 9.849-5.8084 11.364-6.8185 1.5152-1.0102 2.7779-20.203 2.7779-20.203l-27.274-15.151z" stroke="url(#x)" fill="url(#y)"/>
  </g>
  <path d="m58.071 50.571c-2.7223 3.1712-8.5674 5.2139-10 5.3571-3.5714 0.35714-10.488-2.8013-12.679-7.3214-1.8706-3.86-0.53571-15.179-0.53571-15.179s4.5247 2.5207 7.7577 6.8598c2.5893 3.4752 2.1219 8.7679 4.3852 9.033 2.2632 0.26515 14.732-12.321 14.911-13.036 0.179-0.714-0.871 10.83-3.839 14.286z" filter="url(#f)" fill="url(#w)"/>
  <path d="m62.536 25.393 0.35714 17.679s6.25-5.7143 6.25-6.7857 0-7.3214-0.71428-8.3929c-0.715-1.072-5.893-2.5-5.893-2.5z" stroke="#84550a" fill="#7c500a"/>
  <g stroke-width="1px">
   <path d="m31.286 19.321c1.1098-8.2526 15.895-9.6449 23.887-7.3087 7.2879 2.1303 11.648 9.8087 12.72 13.737 1.0714 3.9286 0 11.25 0 11.25s-7.3214 0.17857-8.5714 0-7.6786-3.75-13.929-8.75c-6.25-4.999-14.849-3.412-14.107-8.928z" stroke-opacity=".68235" stroke="url(#v)" fill="url(#j)"/>
   <path d="m32.037 20.036c-1.6949 0.5221-3.4769 1.6912-3.982 3.964-0.50507 2.2728-1.5152 6.3135 3.0305 19.951 1.3368-7.4307 4.8455-19.945 5.2293-21.657 0.352-1.573-2.747-2.729-4.278-2.258z" stroke="url(#u)" fill="url(#i)"/>
   <path d="m81.298 102-67.87-0.17857c-2.1642-0.006-5.1513-1.263-5.5357-3.3929-0.80984-4.487 1.9643-19.286 3.0357-21.786s3.0357-5.8929 9.1071-7.3214c6.0714-1.4286 17.321-4.8214 17.321-4.8214l6.25 5 4.2857-4.4643 5 4.2857 5.9018-5.1786s17.306 5.5122 18.02 5.6908c0.71428 0.17857 7.1385 2.9685 8.3202 7.1204 0.88297 3.1023 2.6567 20.455 1.9424 21.348-0.713 0.894-3.491 3.709-5.778 3.699z" stroke="url(#s)" fill="url(#t)"/>
  </g>
  <path d="m36.286 65.75s-13.75 3.2143-15.179 4.2857c-1.4286 1.0714-5.3571 1.7857-6.7857 6.0714s-2.6786 19.464-2.5 20.179c0.17858 0.71428 1.7857 3.3928 3.9286 3.75 2.1428 0.35714 29.696-0.71495 43.929-4.4643 6.7269-1.7721 23.75-18.75 23.75-18.75-9.4768-3.8858-16.86-6.7499-25.714-10.357l-4.8214 3.2143-5-5-3.93 4.821z" fill="url(#r)"/>
  <path d="m78.606 82.162 0.17859 9.9186-5.8937 4.0737 0.53579 18.774 28.397 0.17711-1.2502-20.368-4.8221-1.7712l0.718-12.581z" stroke="#ce954d" stroke-width=".99599px" fill="url(#h)"/>
  <path d="m71.843 69.91s1.8595 9.7325 3.0305 12.374c1.1371 2.5654 7.955 8.2075 9.2176 8.2075 1.2627 0 3.149 0.72097 4.8785-0.0523 2.9309-1.3104 9.4341-6.8639 10.4-8.4077 2.1402-3.4209 1.6885-18.614 1.6885-18.614l-10.865-14.287-17.847 10.425z" stroke="url(#p)" stroke-width="1px" fill="url(#q)"/>
  <path d="m98.107 80.571c-2.7223 3.1712-6.6032 5.2139-8.0357 5.3571-3.5714 0.35715-10.488-2.8013-12.679-7.3214-1.8706-3.86-0.53571-15.179-0.53571-15.179s4.5247 2.5207 7.7577 6.8598c2.5893 3.4752 3.9658 8.9492 4.3852 9.033 2.2321 0.44643 8.8393-6.0714 9.0178-6.7857 0.179-0.714 3.053 4.58 0.09 8.036z" filter="url(#f)" fill="url(#o)"/>
  <g stroke-width="1px">
   <path d="m82 115.04s-3.2143-21.071-5.5357-21.429c-2.3214-0.35714-17.09 4.6146-19.066 5.9777-2.8575 1.9715-6.2698 10.66-5.7558 12.237 0.43236 1.326 3.1097 3.2449 3.824 3.2449 0.715 0 26.534-0.03 26.534-0.03z" stroke="#1f1f1f" fill="url(#n)"/>
   <path d="m80.393 62 0.35715 4.6429 9.4643-13.929s7.9098 4.9167 9.632 10.841c1.6898 5.8124 0.36797 16.838 0.1894 17.552-0.17857 0.71429-2.6786 4.4643-3.9286 5.1786-1.25 0.71428-4.6429 0.35714-4.6429 0.35714l5.1786 1.7857 0.17857 3.2143s5-0.17857 6.7857-1.4286 7.3214-4.2857 6.25-13.929c-1.0714-9.6429-2.4-20.309-8.9286-27.321-3.3291-3.5759-8.6881-5.3859-13.571-5.5357-4.459-0.13676-9.433 1.2251-12.679 4.2857-3.9243 3.7007-6.0714 13.393-6.0714 15 0 1.6071-1.6071 12.679-1.6071 12.679s-0.35715 1.9643-2.8572 3.0357-10.179 1.25-10.179 1.25c2.8992 1.2652 5.9753 1.6709 9.1071 1.4286 0.71429-0.17857 3.3036-0.44643 2.0536 0.625s-6.5179 1.6964-6.5179 1.6964 0.26785 4.4643 3.4821 4.8214c3.2143 0.35714 4.0179 0.53572 4.0179 0.53572s1.1607-0.17858 0.44643 1.6071c-0.71428 1.7857-3.4822 2.1429-3.4822 2.1429s11.607 1.9643 12.857 1.25c1.25-0.71429 1.8717-0.78042 2.3214-1.6072 0.9107-1.674 0.17857-5.7143 0.17857-5.7143s-3.5714-3.2143-4.2857-5.8929c-0.71429-2.6786-1.9643-14.821-1.4286-16.071 0.53572-1.25 5.1786 0 5.8929-0.35714 0.715-0.358 1.787-2.144 1.787-2.144z" stroke="url(#m)" fill="url(#g)"/>
   <path d="m91.679 115.04s3.2143-21.071 5.5357-21.429c2.3214-0.35714 15.693 4.1593 19.066 5.9777 3.3729 1.8184 6.2698 10.66 5.7558 12.237-0.43236 1.326-3.1097 3.2449-3.824 3.2449-0.71 0-26.531-0.03-26.531-0.03z" stroke="#1f1f1f" fill="url(#l)"/>
  </g>
 </g>
</svg>