<?xml version="1.0" encoding="UTF-8" standalone="no"?>
<svg
   xmlns:osb="http://www.openswatchbook.org/uri/2009/osb"
   xmlns:dc="http://purl.org/dc/elements/1.1/"
   xmlns:cc="http://creativecommons.org/ns#"
   xmlns:rdf="http://www.w3.org/1999/02/22-rdf-syntax-ns#"
   xmlns:svg="http://www.w3.org/2000/svg"
   xmlns="http://www.w3.org/2000/svg"
   xmlns:xlink="http://www.w3.org/1999/xlink"
   xmlns:sodipodi="http://sodipodi.sourceforge.net/DTD/sodipodi-0.dtd"
   xmlns:inkscape="http://www.inkscape.org/namespaces/inkscape"
   width="1000"
   height="200"
   viewBox="0 0 850 833.33333"
   id="svg2"
   version="1.1"
   inkscape:version="0.91 r13725"
   sodipodi:docname="first-page.svg">
  <defs
     id="defs4">
    <linearGradient
       inkscape:collect="always"
       id="linearGradient4181">
      <stop
         style="stop-color:#5a5a5a;stop-opacity:1"
         offset="0"
         id="stop4183" />
      <stop
         style="stop-color:#0000ff;stop-opacity:0;"
         offset="1"
         id="stop4185" />
    </linearGradient>
    <linearGradient
       inkscape:collect="always"
       id="linearGradient4178">
      <stop
         style="stop-color:#5a5a5a;stop-opacity:1"
         offset="0"
         id="stop4180" />
      <stop
         id="stop4189"
         offset="0.10776486"
         style="stop-color:#5a5a5a;stop-opacity:0.95294118" />
      <stop
         id="stop4194"
         offset="0.10869349"
         style="stop-color:#828282;stop-opacity:0.95294118" />
      <stop
         style="stop-color:#e8e8e8;stop-opacity:0.48235294"
         offset="1"
         id="stop4196" />
    </linearGradient>
    <linearGradient
       id="linearGradient4299"
       osb:paint="solid">
      <stop
         style="stop-color:#c38300;stop-opacity:1;"
         offset="0"
         id="stop4301" />
    </linearGradient>
    <marker
       inkscape:stockid="Arrow1Lstart"
       orient="auto"
       refY="0"
       refX="0"
       id="Arrow1Lstart"
       style="overflow:visible"
       inkscape:isstock="true">
      <path
         id="path4178"
         d="M 0,0 5,-5 -12.5,0 5,5 0,0 Z"
         style="fill:#000000;fill-opacity:1;fill-rule:evenodd;stroke:#000000;stroke-width:1pt;stroke-opacity:1"
         transform="matrix(0.8,0,0,0.8,10,0)"
         inkscape:connector-curvature="0" />
    </marker>
    <filter
       style="color-interpolation-filters:sRGB"
       inkscape:label="Inner Shadow"
       inkscape:menu="Shadows and Glows"
       inkscape:menu-tooltip="Adds a colorizable drop shadow inside"
       id="filter3209">
      <feGaussianBlur
         stdDeviation="4"
         result="result8"
         id="feGaussianBlur3211" />
      <feOffset
         dx="4"
         dy="4"
         result="result11"
         id="feOffset3213" />
      <feComposite
         result="result6"
         in="SourceGraphic"
         operator="in"
         in2="result11"
         id="feComposite3215" />
      <feFlood
         result="result10"
         in="result6"
         flood-opacity="1"
         flood-color="rgb(0,0,0)"
         id="feFlood3217" />
      <feBlend
         mode="normal"
         in="result6"
         in2="result10"
         id="feBlend3219" />
      <feComposite
         result="result2"
         operator="in"
         in2="SourceGraphic"
         id="feComposite3221" />
    </filter>
    <filter
       style="color-interpolation-filters:sRGB"
       inkscape:label="Drop Shadow"
       id="filter8612">
      <feFlood
         flood-opacity="0.301"
         flood-color="rgb(0,0,0)"
         result="flood"
         id="feFlood8614" />
      <feComposite
         in="flood"
         in2="SourceGraphic"
         operator="in"
         result="composite1"
         id="feComposite8616" />
      <feGaussianBlur
         stdDeviation="2"
         result="blur"
         id="feGaussianBlur8618" />
      <feOffset
         dx="5.4"
         dy="-0.4"
         result="offset"
         id="feOffset8620" />
      <feComposite
         in="SourceGraphic"
         in2="offset"
         operator="over"
         result="composite2"
         id="feComposite8622" />
    </filter>
    <clipPath
       clipPathUnits="userSpaceOnUse"
       id="clipPath4503">
      <path
         d="m 300,300 4499.41,0 0,3181.4 -4499.41,0 z"
         id="path4501"
         inkscape:connector-curvature="0" />
    </clipPath>
    <linearGradient
       inkscape:collect="always"
       xlink:href="#linearGradient4178"
       id="linearGradient4184"
       x1="-1647.8154"
       y1="-217.88007"
       x2="500.45523"
       y2="-217.88007"
       gradientUnits="userSpaceOnUse" />
    <linearGradient
       inkscape:collect="always"
       xlink:href="#linearGradient4181"
       id="linearGradient4187"
       x1="-1647.8154"
       y1="-217.88007"
       x2="2506.5809"
       y2="-217.88007"
       gradientUnits="userSpaceOnUse" />
  </defs>
  <sodipodi:namedview
     id="base"
     pagecolor="#ffffff"
     bordercolor="#666666"
     borderopacity="1.0"
     inkscape:pageopacity="0.0"
     inkscape:pageshadow="2"
     inkscape:zoom="1.979899"
     inkscape:cx="121.09992"
     inkscape:cy="56.95468"
     inkscape:document-units="px"
     inkscape:current-layer="g4499"
     showgrid="false"
     inkscape:window-width="2560"
     inkscape:window-height="1378"
     inkscape:window-x="0"
     inkscape:window-y="0"
     inkscape:window-maximized="1" />
  <metadata
     id="metadata7">
    <rdf:RDF>
      <cc:Work
         rdf:about="">
        <dc:format>image/svg+xml</dc:format>
        <dc:type
           rdf:resource="http://purl.org/dc/dcmitype/StillImage" />
        <dc:title />
      </cc:Work>
    </rdf:RDF>
  </metadata>
  <g
     inkscape:label="Layer 1"
     inkscape:groupmode="layer"
     id="layer1"
     transform="translate(0,633.33331)">
    <path
       style="opacity:0.60199998;fill:url(#linearGradient4184);fill-opacity:1;stroke:url(#linearGradient4187);stroke-width:0;stroke-miterlimit:4.0999999;stroke-dasharray:none;stroke-opacity:0"
       d="m -1650.7916,-377.51875 234.4739,-30.51503 3922.8986,0 0,380.307431 -3923.4247,0 -233.9478,-23.412389 z"
       id="rect4136"
       inkscape:connector-curvature="0"
       sodipodi:nodetypes="ccccccc" />
    <g
       id="g4495"
       transform="matrix(0.59724688,0,0,-0.59724681,-2781.707,1085.0633)"
       inkscape:export-xdpi="119.81396"
       inkscape:export-ydpi="119.81396">
      <g
         id="g4497">
        <g
           id="g4499"
           clip-path="url(#clipPath4503)">
          <path
             d="m 2519.0678,2012.67 0,7.19 c 0,16.78 12.65,31.37 28.79,33.71 l 0,33.22 c -16.14,2.34 -28.6,16.08 -28.6,32.88 l 0,9.53 c 0,16.79 12.46,30.53 28.6,32.86 l 0,14.78 0,14.79 c -16.14,2.33 -28.6,16.07 -28.6,32.86 l 0,9.53 c 0,16.79 12.46,30.54 28.6,32.88 l 0,33.22 c -16.14,2.33 -28.79,16.93 -28.79,33.71 l 0,7.19 c 0,16.79 12.65,33.27 28.79,35.6 l 0,32.08 c -8.99,1.09 -17.25,5.76 -22.64,12.33 -6.57,5.38 -11.23,13.64 -12.33,22.63 l -27.45,0 c -2.32,-16.13 -16.08,-28.59 -32.86,-28.59 l -9.54,0 c -16.78,0 -30.54,12.46 -32.87,28.59 l -29.54,0 c -2.33,-16.13 -16.09,-28.59 -32.87,-28.59 l -9.53,0 c -16.79,0 -30.54,12.46 -32.88,28.59 l -15.55,0 0,-65.86 0,-10.38 0,-190.58 0,-190.58 0,-10.38 0,-65.85 15.55,0 c 2.34,16.13 16.09,28.58 32.88,28.58 l 9.53,0 c 16.78,0 30.54,-12.45 32.87,-28.58 l 29.54,0 c 2.33,16.13 16.09,28.58 32.87,28.58 l 9.54,0 c 16.78,0 30.54,-12.45 32.86,-28.58 l 27.45,0 c 1.1,8.99 5.76,17.24 12.33,22.63 5.39,6.56 13.65,11.23 22.64,12.33 l 0,32.07 c -16.14,2.34 -28.79,18.82 -28.79,35.61"
             style="fill:#399ca1;fill-opacity:1;fill-rule:nonzero;stroke:none"
             id="path4505"
             inkscape:connector-curvature="0" />
          <path
             d="m 2289.7978,1910.03 0,533.35 -15.56,0 c -2.34,-16.13 -16.09,-28.58 -32.88,-28.58 l -9.53,0 c -16.78,0 -30.53,12.45 -32.87,28.58 l -29.54,0 c -2.33,-16.13 -16.08,-28.58 -32.86,-28.58 l -9.55,0 c -16.78,0 -30.53,12.45 -32.86,28.58 l -27.45,0 c -1.1,-8.99 -5.76,-17.24 -12.33,-22.63 -5.39,-6.57 -13.64,-11.23 -22.63,-12.33 l 0,-32.08 c 16.13,-2.33 28.78,-18.8 28.78,-35.59 l 0,-7.2 c 0,-16.78 -12.65,-31.38 -28.78,-33.71 l 0,-33.22 c 16.13,-2.34 28.59,-16.08 28.59,-32.88 l 0,-9.53 c 0,-16.79 -12.46,-30.53 -28.59,-32.86 l 0,-14.51 0,-0.28 0,-14.5 c 16.13,-2.33 28.59,-16.07 28.59,-32.86 l 0,-9.53 c 0,-16.8 -12.46,-30.54 -28.59,-32.88 l 0,-33.22 c 16.13,-2.34 28.78,-16.93 28.78,-33.71 l 0,-7.19 c 0,-16.79 -12.65,-33.27 -28.78,-35.61 l 0,-32.07 c 8.99,-1.1 17.24,-5.77 22.63,-12.33 6.57,-5.39 11.23,-13.64 12.33,-22.63 l 27.45,0 c 2.33,16.13 16.08,28.58 32.86,28.58 l 9.55,0 c 16.78,0 30.53,-12.45 32.86,-28.58 l 29.54,0 c 2.34,16.13 16.09,28.58 32.87,28.58 l 9.53,0 c 16.79,0 30.54,-12.45 32.88,-28.58 l 15.56,0"
             style="fill:#348e93;fill-opacity:1;fill-rule:nonzero;stroke:none"
             id="path4507"
             inkscape:connector-curvature="0" />
          <g
             id="g4180"
             transform="translate(0,-110.73166)">
            <path
               inkscape:connector-curvature="0"
               id="path4509"
               style="fill:#231f20;fill-opacity:1;fill-rule:nonzero;stroke:none"
               d="m 4037.5373,2122.0626 -20.028,0.5252 -19.5255,1.5755 0,136.3197 c 0,15.4274 -1.9495,26.3087 -5.8637,32.6274 -4.889,8.0584 -14.1645,12.0958 -27.8414,12.0958 -5.5439,0 -13.3571,-1.7561 -23.4397,-5.2683 -10.7375,-3.1511 -16.1139,-7.5496 -16.1139,-13.1462 l 0,-165.7795 -47.382,0 0,167.8803 c 0,7.008 -4.5692,13.3267 -13.6771,18.9561 -1.6296,1.0504 -4.2187,2.3633 -7.8131,3.9389 -3.5792,1.5756 -8.1331,3.5943 -13.6618,6.0561 l 0,6.3187 42.4779,34.203 c 15.6264,-7.7301 26.8665,-16.3137 33.705,-25.7836 l 9.7628,-14.7381 58.6069,42.6225 c 22.7848,-7.0245 37.9239,-14.0489 45.4325,-21.0405 11.3924,-10.5366 17.0886,-26.5057 17.0886,-47.8907 l 0,-167.3716 c -3.2593,-2.1007 -7.1583,-2.8065 -11.7275,-2.1007 z m 120.6255,199.4573 0,-125.2414 c 0,-24.5855 14.6517,-36.8454 43.9552,-36.8454 l 0,-7.8942 c -26.699,-21.4179 -41.8381,-32.1023 -45.4173,-32.1023 -10.0979,-0.3446 -20.6831,5.5966 -31.7556,17.8893 -10.4177,12.9656 -15.6112,25.0778 -15.6112,36.3202 l 0,143.1471 c -2.6197,2.1008 -6.3664,3.6763 -11.2401,4.7267 l -11.2401,0.5252 -12.1997,-0.5252 0,21.5821 69.3444,65.78 12.7023,0 0.9747,-26.3087 0,-20.5317 c -0.3198,-1.7561 -0.5635,-3.0691 -0.731,-3.9389 -0.1675,-0.8863 -0.2437,-1.5099 -0.2437,-1.8382 l 49.3163,0 0,-34.7446 z m 155.3053,131.0514 0.4874,-16.8389 c 0.6397,-6.3187 -3.2593,-11.4065 -11.7275,-15.2634 -1.2946,-0.361 -3.5792,-0.9847 -6.8385,-1.8381 -3.2593,-0.8863 -7.6457,-2.2157 -13.1896,-3.9554 l -31.253,-9.4698 -0.9747,4.7267 0.9747,9.4862 c 0.9748,10.1592 3.2594,16.839 6.8385,19.9901 l 19.5408,9.4698 30.2782,18.4309 5.8637,0 0.9748,-8.4194 c 0,-0.7222 -0.3351,-2.8229 -0.9748,-6.3187 z m 4.8738,-324.19 c -12.0474,-7.3691 -20.0129,-11.4065 -23.9272,-12.1122 -23.7747,18.956 -35.6545,32.4469 -35.6545,40.5381 l 0,127.3586 c 0,8.0584 -2.6044,14.3771 -7.8133,18.9396 l -15.1391,9.4699 c -5.2087,3.1675 -7.8132,6.1381 -7.8132,8.9446 l 18.5507,19.4813 c 8.1483,8.7641 14.4994,13.6878 19.0534,14.7381 15.6265,-10.5366 26.7752,-21.9431 33.4614,-34.2194 6.6709,-12.2927 9.854,-27.8843 9.519,-46.8404 l -0.9747,-50.5167 c -0.6549,-22.8129 0.3198,-38.2568 2.9242,-46.3152 4.2341,-15.0992 14.8193,-23.5023 31.7556,-25.2584 l 0,-7.8942 c -3.2594,-2.8065 -11.2401,-8.2554 -23.9423,-16.3137 z m 211.9627,-9.9951 c -8.1484,0 -15.7941,5.2519 -22.9524,15.7886 -5.5439,8.0583 -9.7627,17.3641 -12.7022,27.8843 -3.899,-1.7561 -15.1391,-10.1756 -33.6899,-25.2584 -15.9615,-12.2927 -25.7395,-18.4145 -29.3034,-18.4145 -9.1231,0 -21.4902,6.8275 -37.1167,20.5153 -15.3219,14.3771 -22.9524,26.1446 -22.9524,35.2698 l -1.9647,118.4139 c 0,2.7901 -3.2593,8.239 -9.7628,16.3138 -6.1987,7.7137 -9.6104,13.1461 -10.2501,16.3137 18.8706,23.1576 30.5829,34.7282 35.1521,34.7282 1.9646,0 3.7467,-0.8863 5.3763,-2.626 l 5.3764,-5.7935 c 13.022,-10.8813 21.0028,-21.4179 23.927,-31.577 0.6397,-2.8065 0.9748,-16.839 0.9748,-42.0973 l 0,-72.624 c 0,-9.4862 4.0666,-17.561 12.2149,-24.2079 8.4528,-7.0409 17.0886,-10.5367 25.8918,-10.5367 11.0573,0 23.7443,6.1382 38.0914,18.4145 l 0,162.6284 24.4145,5.7935 c 8.133,1.7397 16.2662,2.626 24.4145,2.626 l -1.9495,-172.0983 c 0,-8.4194 3.5791,-15.969 10.7375,-22.6324 7.4934,-7.0244 11.3923,-11.39 11.7274,-13.1461 0,-4.218 -11.895,-15.4439 -35.6545,-33.6779 z m 198.7731,24.7332 c -16.9363,-16.5107 -36.9644,-24.7332 -60.0843,-24.7332 -16.2662,0 -34.8321,6.3023 -55.6675,18.9397 -22.7847,14.0324 -34.1924,29.1152 -34.1924,45.2648 0,3.1512 6.671,8.2389 20.0281,15.2634 l 25.8918,12.6209 c 0,-21.0568 2.4369,-36.5007 7.3106,-46.3152 6.5187,-13.3431 18.7335,-19.99 36.6294,-19.99 11.7275,0 21.8252,4.2836 30.2934,12.9 8.4682,8.5835 12.6871,19.2022 12.6871,31.8232 0,11.587 -3.4117,22.4519 -10.2502,32.6439 -7.8132,10.5202 -16.9363,15.7885 -27.3539,15.7885 -8.4682,0 -20.0282,-3.5286 -34.6647,-10.5366 -15.6417,-7.7302 -26.0441,-11.7512 -31.2681,-12.0958 -16.6013,19.2843 -24.9018,41.9167 -24.9018,67.8808 0,21.4015 8.468,39.9965 25.3892,55.785 16.9362,15.805 35.6545,23.6828 56.1699,23.6828 15.3067,0 31.2531,-5.2519 47.8543,-15.7885 16.9363,-9.8309 28.1764,-22.2878 33.705,-37.3541 l -47.8542,-28.426 c -3.2593,17.5283 -7.006,30.0015 -11.2401,37.3706 -6.8384,11.9152 -16.921,17.8893 -30.2782,17.8893 -8.7879,0 -16.3575,-3.6107 -22.7086,-10.7828 -6.3512,-7.205 -9.5191,-15.887 -9.5191,-26.0626 0,-5.2519 0.8986,-10.4381 2.6806,-15.5095 1.7972,-5.1042 4.234,-9.6668 7.3259,-13.6878 3.0918,-4.0374 6.6709,-7.287 10.7375,-9.7488 4.0818,-2.4618 8.5442,-3.6763 13.4333,-3.6763 8.7879,0 22.3126,4.382 40.5435,13.1625 l 27.8413,13.1462 c 17.5761,-16.8389 26.364,-42.0973 26.364,-75.7751 0,-25.6194 -8.3006,-46.8404 -24.9018,-63.6793 l 0,0" />
            <path
               inkscape:connector-curvature="0"
               id="path4511"
               style="fill:#348e93;fill-opacity:1;fill-rule:nonzero;stroke:none"
               d="m 3791.8848,2117.861 c -29.6385,0 -54.053,10.8649 -73.2587,32.6275 -18.5659,22.1072 -27.8413,49.2858 -27.8413,81.5686 0,23.1576 3.2594,40.8663 9.7628,53.1591 5.2087,9.8144 15.9616,23.4858 32.2429,41.0468 l 17.0886,18.4145 c 7.8132,8.4195 13.9969,13.3431 18.566,14.7382 35.8069,-25.9805 55.6674,-44.0339 59.5816,-54.2095 l -89.3877,-93.6808 c 5.8638,-13.6713 13.677,-23.1576 23.4549,-28.4095 8.1332,-4.2179 19.8606,-6.3187 35.152,-6.3187 l 16.6165,2.1008 c 9.7627,1.0504 15.1391,1.592 16.1139,1.592 -18.566,-41.7691 -31.2682,-62.629 -38.0915,-62.629 z m -18.566,166.3048 c -2.2693,2.7901 -4.7976,5.4324 -7.5695,7.8942 -2.7719,2.4455 -5.62,4.5462 -8.5444,6.3023 -2.9242,1.7561 -5.3763,2.8065 -7.3258,3.1676 -6.8385,0 -12.7022,-6.1546 -17.576,-18.4309 -4.2341,-9.4698 -6.3511,-18.7756 -6.3511,-27.8843 0,-11.9317 3.4116,-19.6618 10.2501,-23.1576 l 42.0057,44.7232 c -0.9747,2.1172 -2.6044,4.5626 -4.889,7.3855" />
            <path
               inkscape:connector-curvature="0"
               id="path4513"
               style="fill:#231f20;fill-opacity:1;fill-rule:nonzero;stroke:none"
               d="m 3017.3079,2138.3763 c -16.2815,-12.9985 -35.8222,-19.4649 -58.6069,-19.4649 -4.5692,0 -10.0065,0.3447 -16.3576,1.0504 -6.3511,0.7057 -13.7683,1.7561 -22.2365,3.1511 -17.2409,3.1676 -30.1107,4.7432 -38.5788,4.7432 -18.2309,0 -34.9997,-1.7725 -50.3064,-5.2683 l -4.3863,-4.2016 c -21.1704,0 -31.7556,1.9203 -31.7556,5.7771 0,5.2683 4.5692,16.4943 13.6769,33.6943 9.1232,17.1671 13.6771,32.6274 13.6771,46.2987 l 0,125.7995 c 0,20.6794 -5.3764,37.3541 -16.1139,49.9915 -4.5539,5.5966 -6.8385,9.2893 -6.8385,11.0454 0,7.7138 23.6072,22.6324 70.8218,44.7397 46.8794,21.7297 76.3504,32.6274 88.3978,32.6274 21.81,0 37.9238,-7.7301 48.3568,-23.1576 l 23.4396,-51.5835 c -3.2593,-2.4454 -7.1735,-4.9073 -11.7274,-7.3691 -4.5539,-2.4618 -9.6104,-4.9072 -15.1392,-7.3527 l -27.8413,-12.1122 c -7.1583,18.9397 -13.8292,33.1527 -20.0281,42.6225 -9.7627,15.0828 -21.6425,22.6324 -35.6545,22.6324 -28.9684,0 -43.4678,-25.7835 -43.4678,-77.3506 0,-2.4783 0.1675,-7.1229 0.5026,-13.9504 0.3198,-6.8439 0.8072,-15.887 1.4621,-27.1129 l 1.9495,-33.6779 c 0.3351,-2.8064 0.4874,-5.4488 0.4874,-7.8942 0,-2.4618 0,-4.7267 0,-6.8439 0,-39.6519 -9.443,-72.4598 -28.3288,-98.4075 8.1484,0 20.348,2.6259 36.6294,7.8943 15.6417,5.5965 28.0089,8.4194 37.1319,8.4194 23.1047,0 40.1932,-5.4488 51.2658,-16.3137 26.3792,14.3771 45.0975,28.0484 56.1701,41.0469 l 11.2401,0 0,-12.1122 c 0,-23.5187 -9.2906,-42.6225 -27.8413,-57.3606 z m 219.7759,-19.9901 c -21.1703,12.2599 -31.7556,26.834 -31.7556,43.6729 l -8.3006,3.6763 c -2.2693,-2.4618 -7.9655,-7.4511 -17.0886,-14.9843 -9.123,-7.5496 -21.8101,-17.4626 -38.0914,-29.7389 -18.2461,0 -35.6546,12.1122 -52.2559,36.3202 -14.9868,21.385 -22.4649,42.803 -22.4649,64.2045 0,31.2159 10.905,58.5751 32.715,82.0937 6.5035,7.008 19.8606,19.2844 40.041,36.8454 21.8253,19.2843 34.6799,29.2794 38.5941,29.9851 l 47.3668,-29.4599 25.4044,-13.6878 c 12.3672,-7.0244 18.5508,-12.8179 18.5508,-17.3641 0,-1.4114 -2.7719,-5.6294 -8.3007,-12.6374 -5.5286,-7.0244 -8.468,-12.982 -8.7879,-17.8892 l -3.4268,-94.7312 c 0,-3.8733 0.6548,-5.9741 1.9646,-6.3187 l 2.9243,3.1675 c 0,-4.9236 3.5791,-10.7171 10.7375,-17.3805 7.1735,-7.0244 11.0725,-11.2259 11.7275,-12.6209 z m -36.1419,166.83 c -3.9143,3.8404 -11.3924,9.8144 -22.465,17.8892 -11.3924,8.4195 -19.2209,12.8016 -23.4398,13.1626 -8.8031,0 -17.7587,-9.1416 -26.8665,-27.3755 -7.8132,-15.4439 -11.7275,-28.9511 -11.7275,-40.5217 0,-15.4439 4.8889,-30.182 14.6518,-44.2145 10.0977,-16.1331 21.9776,-24.2079 35.6545,-24.2079 6.1836,0 13.1896,1.9202 21.0028,5.7935 8.788,4.5626 13.1897,10.3396 13.1897,17.3641 z m 269.0923,-166.83 c -8.1331,0 -15.7941,5.2519 -22.9524,15.7886 -5.5439,8.0583 -9.7627,17.3641 -12.6871,27.8843 -3.9142,-1.7561 -15.139,-10.1756 -33.705,-25.2584 -15.9463,-12.2927 -25.7243,-18.4145 -29.3035,-18.4145 -9.1078,0 -21.4902,6.8275 -37.1166,20.5153 -15.3067,14.3771 -22.9524,26.1446 -22.9524,35.2698 l -1.9648,118.4139 c 0,2.7901 -3.244,8.239 -9.7627,16.3138 -6.1835,7.7137 -9.5951,13.1461 -10.2501,16.3137 18.8705,23.1576 30.598,34.7282 35.1672,34.7282 1.9495,0 3.7315,-0.8863 5.3612,-2.626 l 5.3763,-5.7935 c 13.0221,-10.8813 21.0029,-21.4179 23.9271,-31.577 0.6549,-2.8065 0.99,-16.839 0.99,-42.0973 l 0,-72.624 c 0,-9.4862 4.0665,-17.561 12.1996,-24.2079 8.4682,-7.0409 17.0886,-10.5367 25.8918,-10.5367 11.0574,0 23.7596,6.1382 38.0915,18.4145 l 0,162.6284 24.4144,5.7935 c 8.1332,1.7397 16.2815,2.626 24.4298,2.626 l -1.9648,-172.0983 c 0,-8.4194 3.5944,-15.969 10.7527,-22.6324 7.4782,-7.0244 11.3924,-11.39 11.7123,-13.1461 0,-4.218 -11.8798,-15.4439 -35.6545,-33.6779 z m 185.1112,152.0918 c -13.3571,-12.2927 -23.2873,-19.6618 -29.7908,-22.1072 -1.9647,9.8145 -2.9395,20.5316 -2.9395,32.1022 0,7.3691 0.4874,14.213 1.4774,20.5317 l -8.3158,0 c -3.5792,0 -6.9147,-1.4115 -10.0064,-4.2179 -3.1071,-2.8065 -4.6454,-5.9741 -4.6454,-9.4699 l 0,-168.9307 -46.8794,0 0,131.5602 c 0,18.595 -1.9495,32.4469 -5.8638,41.5885 -5.2088,11.9152 -15.1391,19.99 -29.7908,24.2079 l 0,4.2016 c 1.3098,2.4454 8.1331,8.7641 20.5155,18.9396 11.7123,9.4863 19.0381,14.5576 21.9776,15.2798 7.8132,0 16.4336,-6.6798 25.8766,-20.0065 l 14.1643,-20.0064 c 29.3035,26.3251 45.5849,39.6518 48.8442,40.0129 6.1836,0 12.2149,-7.7466 18.0786,-23.1576 4.8738,-13.3431 7.3107,-23.8798 7.3107,-31.5935 0,-7.0244 -6.671,-16.6748 -20.013,-28.9347 l 0,0" />
          </g>
          <path
             d="m 2289.7978,2318.78 c -12.64,-4.59 -28.1,-10.81 -46.47,-18.72 -44.03,-19.13 -66.05,-32.04 -66.05,-38.72 0,-1.52 2.12,-4.71 6.38,-9.56 10.02,-10.93 15.03,-25.36 15.03,-43.28 l 0,-108.87 c 0,-11.84 -4.25,-25.21 -12.75,-40.08 -8.51,-14.89 -12.76,-24.6 -12.76,-29.16 0,-3.34 9.87,-5.01 29.62,-5.01 l 4.09,3.65 c 14.27,3.03 29.91,4.56 46.92,4.56 7.9,0 19.89,-1.38 35.99,-4.11 l 0,51.57 c -7.7,-0.82 -17.25,-3.11 -28.7,-6.93 -15.19,-4.55 -26.57,-6.83 -34.16,-6.83 17.61,22.47 26.41,50.87 26.41,85.18 0,1.82 0,3.8 0,5.92 0,2.13 -0.15,4.4 -0.45,6.84 l -1.82,29.15 c -0.61,9.72 -1.07,17.54 -1.37,23.46 -0.31,5.92 -0.46,9.95 -0.46,12.07 0,44.64 13.51,66.96 40.55,66.96 l 0,21.91"
             style="fill:#d1cbbc;fill-opacity:1;fill-rule:nonzero;stroke:none"
             id="path4515"
             inkscape:connector-curvature="0" />
          <path
             d="m 2406.4078,2092.35 0,10.47 -10.48,0 c -10.33,-11.24 -27.78,-23.08 -52.38,-35.53 -10.33,9.41 -26.27,14.12 -47.83,14.12 -1.82,0 -3.82,-0.13 -5.92,-0.36 l 0,-51.57 c 7.89,-1.21 14.8,-2.12 20.72,-2.73 5.92,-0.61 11.01,-0.91 15.26,-0.91 21.25,0 39.47,5.61 54.66,16.85 17.31,12.76 25.97,29.31 25.97,49.66 z m -24.6,164.89 c 4.25,2.12 7.9,4.25 10.93,6.38 l -21.86,44.64 c -9.73,13.36 -24.75,20.04 -45.1,20.04 -6.52,0 -18.54,-3.19 -35.98,-9.52 l 0,-21.91 c 13.05,0 24.14,-6.53 33.25,-19.58 5.76,-8.2 11.99,-20.5 18.68,-36.9 l 25.96,10.48 c 5.16,2.12 9.87,4.25 14.12,6.37"
             style="fill:#e7e2d4;fill-opacity:1;fill-rule:nonzero;stroke:none"
             id="path4517"
             inkscape:connector-curvature="0" />
        </g>
      </g>
    </g>
    <rect
       style="opacity:0.69199997;fill:#4e4eb1;fill-opacity:0;stroke-width:4;stroke-miterlimit:4;stroke-dasharray:none"
       id="rect4334"
       width="4.4642859"
       height="5.9523807"
       x="-1784.8215"
       y="246.13094" />
  </g>
</svg>
