<?xml version="1.0" encoding="UTF-8" standalone="no"?>
<!-- Created with Inkscape (http://www.inkscape.org/) -->

<svg
   xmlns:dc="http://purl.org/dc/elements/1.1/"
   xmlns:cc="http://creativecommons.org/ns#"
   xmlns:rdf="http://www.w3.org/1999/02/22-rdf-syntax-ns#"
   xmlns:svg="http://www.w3.org/2000/svg"
   xmlns="http://www.w3.org/2000/svg"
   xmlns:sodipodi="http://sodipodi.sourceforge.net/DTD/sodipodi-0.dtd"
   xmlns:inkscape="http://www.inkscape.org/namespaces/inkscape"
   id="svg4187"
   version="1.1"
   inkscape:version="0.91 r13725"
   width="476.18182"
   height="54.818184"
   viewBox="0 0 476.18182 54.818184"
   sodipodi:docname="zbs-logos-2.svg">
  <metadata
     id="metadata4193">
    <rdf:RDF>
      <cc:Work
         rdf:about="">
        <dc:format>image/svg+xml</dc:format>
        <dc:type
           rdf:resource="http://purl.org/dc/dcmitype/StillImage" />
        <dc:title />
      </cc:Work>
    </rdf:RDF>
  </metadata>
  <defs
     id="defs4191" />
  <sodipodi:namedview
     pagecolor="#ffffff"
     bordercolor="#666666"
     borderopacity="1"
     objecttolerance="10"
     gridtolerance="10"
     guidetolerance="10"
     inkscape:pageopacity="0"
     inkscape:pageshadow="2"
     inkscape:window-width="2560"
     inkscape:window-height="1378"
     id="namedview4189"
     showgrid="false"
     inkscape:zoom="1.982436"
     inkscape:cx="214.43961"
     inkscape:cy="141.56119"
     inkscape:window-x="0"
     inkscape:window-y="0"
     inkscape:window-maximized="1"
     inkscape:current-layer="svg4187" />
  <path
     style="fill:#a0394b;fill-opacity:1"
     d="m 282.08044,45.698987 c 0,-0.197447 0.27614,-0.58817 0.61364,-0.868271 0.95673,-0.794012 0.90629,-18.634921 -0.0557,-19.697895 -0.60176,-0.664941 -0.60476,-0.764365 -0.0297,-0.985019 0.35177,-0.134984 1.06716,-0.184845 1.58978,-0.110801 l 0.95019,0.134624 0.1094,9.856224 c 0.10506,9.465038 0.0755,9.899366 -0.7456,10.943181 -0.80567,1.024254 -2.43198,1.511051 -2.43198,0.727957 z m 172.22728,0 c 0,-0.197447 0.27613,-0.58817 0.61363,-0.868271 0.95674,-0.794012 0.9063,-18.634921 -0.0557,-19.697895 -0.60177,-0.664941 -0.60475,-0.764365 -0.0299,-0.985019 0.35174,-0.134984 1.06716,-0.184845 1.58977,-0.110801 l 0.95032,0.134624 0.10935,10.102452 c 0.10783,9.95845 0.0965,10.114437 -0.79303,10.943181 -0.9103,0.848091 -2.3845,1.145913 -2.3845,0.481729 z m -289.5341,-5.766345 -1.73863,-0.789196 0,-3.497274 c 0,-3.800088 0.51779,-4.53659 1.2364,-1.758638 1.39337,5.386432 2.6134,6.603536 5.69417,5.680514 1.88292,-0.564135 2.93186,-2.010949 3.20319,-4.418199 0.28232,-2.50476 -0.52677,-3.467112 -4.74782,-5.647201 -4.71091,-2.433093 -5.59049,-3.368855 -5.59049,-5.947619 0,-3.732072 2.71317,-5.91228 6.95455,-5.588424 1.35,0.103081 2.96079,0.386255 3.57954,0.629276 1.07857,0.423622 1.125,0.560449 1.125,3.315618 0,3.693352 -0.75583,3.822398 -1.85637,0.316944 -0.92873,-2.958194 -2.06225,-3.802434 -4.49305,-3.346412 -2.19532,0.411845 -3.10981,1.365476 -3.34961,3.492995 -0.19223,1.705472 -0.10248,1.942442 1.12778,2.977634 0.73514,0.618584 2.7609,1.840808 4.50167,2.716053 4.05076,2.036683 4.88776,3.073261 4.88776,6.053222 0,1.679963 -0.23978,2.626325 -0.92045,3.632718 -1.88238,2.783182 -6.15025,3.750076 -9.61364,2.177989 z m 43.10058,-0.04969 c -2.61071,-2.05358 -3.70905,-6.697962 -2.53725,-10.728817 1.22554,-4.215707 4.10307,-6.371435 6.70722,-5.024776 0.6629,0.342797 1.32065,0.507882 1.46168,0.366855 0.45433,-0.454332 0.27247,-4.849446 -0.22109,-5.343001 -0.59393,-0.593935 0.35615,-1.044836 1.77729,-0.843489 l 0.95021,0.134624 0.10957,10.194149 c 0.0697,6.481472 0.26905,10.386311 0.54747,10.721782 0.61924,0.746147 -1.32459,1.189305 -2.48728,0.567053 -0.70313,-0.376305 -1.08416,-0.341614 -1.86462,0.16976 -1.35774,0.889628 -3.14979,0.80326 -4.4432,-0.21414 z m 4.14477,-0.587028 c 1.23627,-0.865915 1.74233,-3.03155 1.71792,-7.351576 -0.0242,-4.275869 -0.60282,-6.327993 -1.97696,-7.01109 -1.33401,-0.663149 -2.53226,-0.141177 -3.5204,1.533521 -1.1208,1.899539 -1.18396,9.28219 -0.0966,11.286782 1.14187,2.105021 2.37317,2.594987 3.876,1.542363 z m 20.86828,1.002016 c -1.59319,-0.927948 -1.94317,-2.524632 -1.94317,-8.865095 0,-4.084648 -0.15644,-6.231296 -0.4775,-6.552359 -0.64238,-0.642374 0.51734,-1.094784 1.91023,-0.745191 l 1.02181,0.256459 0,6.917531 c 0,5.74321 0.10914,7.026663 0.64286,7.560388 1.34845,1.348448 3.45925,0.515387 4.3005,-1.697256 0.20615,-0.542233 0.37483,-3.464898 0.37483,-6.494812 0,-4.510038 -0.11084,-5.551469 -0.61129,-5.743508 -0.86843,-0.333249 -0.33985,-0.967022 0.80652,-0.967022 2.28343,0 2.25931,-0.08258 2.25931,7.734678 0,4.971202 0.14954,7.387595 0.4775,7.715548 0.76757,0.76757 -0.7699,1.119971 -2.36686,0.542504 -1.1521,-0.416608 -1.52629,-0.393564 -2.28948,0.141 -1.03259,0.723255 -3.03673,0.819494 -4.10526,0.197135 z m 25.48821,-0.274682 c -0.87755,-0.445323 -1.77803,-1.410048 -2.38594,-2.556182 -0.86814,-1.63678 -0.95947,-2.255306 -0.82362,-5.578073 0.13316,-3.256908 0.29869,-3.957618 1.28806,-5.452659 3.27857,-4.954261 9.67194,-2.918253 9.67194,3.08009 l 0,1.405187 -4.28766,0 c -4.19366,0 -4.29311,0.02169 -4.53596,0.989265 -0.35299,1.406449 0.54266,5.319816 1.4945,6.529878 1.04708,1.331148 2.11972,1.643421 3.77198,1.098123 1.48393,-0.489738 2.73895,-2.253605 2.73895,-3.849424 0,-0.570755 0.19634,-1.159081 0.43631,-1.307391 1.6271,-1.0056 0.58415,2.963579 -1.26747,4.82364 -1.23984,1.245495 -1.82478,1.533972 -3.10934,1.533455 -0.87022,-3.49e-4 -2.21651,-0.322508 -2.99175,-0.715909 z m 5.33924,-10.431183 c 0.12255,-1.445709 -0.17348,-3.067034 -0.71367,-3.908709 -0.4999,-0.778892 -0.90121,-0.921135 -2.30831,-0.818182 -1.60342,0.117317 -1.74929,0.236126 -2.4896,2.027782 -1.16302,2.81468 -0.8435,3.210473 2.59176,3.210473 2.00533,0 2.8896,-0.154867 2.91982,-0.511364 z m 27.49259,10.298044 c -0.71773,-0.459745 -1.70238,-1.656868 -2.18813,-2.660274 -0.74744,-1.544017 -0.86123,-2.383629 -0.74048,-5.463648 0.1282,-3.270065 0.26822,-3.817828 1.38019,-5.399275 1.67656,-2.384409 3.72201,-3.188167 6.03388,-2.371009 2.23099,0.788574 3.30627,2.325719 3.33895,4.773141 l 0.026,1.948021 -4.29545,0.204546 -4.29545,0.204545 0.082,2.380305 c 0.096,2.787826 1.12613,5.144602 2.60546,5.960942 2.07748,1.146414 4.52252,-0.378006 5.31265,-3.312303 0.51576,-1.915396 1.4217,-2.12648 1.0451,-0.24351 -0.79747,3.98734 -5.08459,6.041168 -8.3047,3.978519 z m 5.5296,-10.463775 c 0.40463,-0.72304 -0.10474,-3.227345 -0.83998,-4.129723 -0.76862,-0.943349 -3.04054,-0.613293 -3.97748,0.577833 -0.99027,1.258923 -1.43893,2.732484 -1.10049,3.614434 0.35463,0.924161 5.39558,0.870886 5.91795,-0.06254 z m 17.90883,10.455659 c -0.86161,-0.67774 -1.21291,-0.756219 -1.67361,-0.373872 -1.2844,1.065953 -1.43712,0.0074 -1.43712,-9.960653 0,-7.012851 -0.13983,-10.056592 -0.4775,-10.394265 -0.59394,-0.593935 0.35614,-1.044836 1.77729,-0.843489 0.8768,0.124223 0.95972,0.355858 1.07332,2.99826 0.0677,1.575 0.27666,3.017371 0.46435,3.205268 0.18769,0.187897 0.92812,0.03815 1.64539,-0.332765 2.38398,-1.232802 4.93318,0.198445 6.33635,3.55754 0.98912,2.367881 0.84468,7.095856 -0.28511,9.332246 -1.67857,3.32268 -5.11775,4.625329 -7.42336,2.81173 z m 3.90534,-0.402401 c 1.4171,-0.758406 1.98398,-2.879216 1.98329,-7.419841 -4.1e-4,-3.192897 -0.17296,-4.546279 -0.71591,-5.617345 -1.41564,-2.792654 -4.49362,-2.153063 -5.40344,1.122813 -0.54334,1.956338 -0.54227,7.623921 0.002,9.582967 0.64272,2.314217 2.35848,3.281774 4.13426,2.331406 z m 7.10861,-0.07875 c -1.13053,-1.130529 -1.44286,-1.770138 -1.44286,-2.954716 0,-2.379473 1.2179,-3.685419 4.40311,-4.72142 4.76992,-1.551437 5.33633,-2.332375 4.00413,-5.52078 -0.5546,-1.327327 -0.71394,-1.418679 -2.47455,-1.418679 -1.81735,0 -1.90881,0.05954 -2.67098,1.738636 -0.43406,0.95625 -0.79324,2.060796 -0.79819,2.454546 -0.005,0.39375 -0.20226,0.715909 -0.43848,0.715909 -0.26438,0 -0.38234,-0.904375 -0.30682,-2.352273 0.11861,-2.274207 0.17427,-2.377472 1.6771,-3.111584 1.95921,-0.957047 4.72308,-0.630021 6.32825,0.74877 1.10993,0.953397 1.11875,1.002684 1.33044,7.439694 0.11721,3.563967 0.3013,6.751705 0.40909,7.083863 0.33494,1.032109 -1.48206,0.994181 -2.21073,-0.04615 l -0.64481,-0.920593 -1.00558,0.944697 c -0.62695,0.588985 -1.70419,1.023439 -2.86092,1.15382 -1.70393,0.192058 -1.97307,0.09138 -3.2982,-1.23374 z m 6.00405,-0.989134 c 0.79113,-0.71288 1.70989,-4.315477 1.49284,-5.853733 -0.1762,-1.248795 -0.85452,-1.190852 -4.03066,0.344303 -1.59114,0.769059 -2.36297,1.416947 -2.63579,2.212515 -1.10215,3.213961 2.62781,5.590896 5.17361,3.296915 z m 44.6099,1.543629 -1.73863,-0.811905 0,-3.497274 c 0,-1.923501 0.17103,-3.497274 0.38006,-3.497274 0.20903,0 0.67731,1.058522 1.04061,2.352272 1.06026,3.775694 1.50796,4.647235 2.60065,5.062674 2.91389,1.107858 6.20595,-1.572923 6.20595,-5.053606 0,-2.053662 -0.94631,-3.029693 -4.83817,-4.990101 -4.61481,-2.32458 -5.59365,-3.368417 -5.59365,-5.965108 0,-3.732072 2.71318,-5.91228 6.95455,-5.588424 1.35,0.103081 2.96079,0.386255 3.57954,0.629276 1.07732,0.423127 1.125,0.562644 1.125,3.291475 0,2.601958 -0.55131,4.139744 -1.01156,2.821561 -1.59115,-4.5572 -1.99134,-5.315037 -3.0115,-5.702902 -2.74328,-1.042993 -5.79512,0.894362 -5.79512,3.678831 0,1.995181 1.14889,3.071177 5.7486,5.383867 3.99578,2.009036 4.88777,3.088627 4.88777,5.915765 0,2.345318 -0.96269,4.188624 -2.96042,5.668485 -1.62855,1.206387 -5.32204,1.353853 -7.57368,0.302388 z m 22.80682,0.496576 c -3.59083,-1.306614 -5.2725,-8.407172 -3.09748,-13.078599 1.18191,-2.53847 2.53796,-3.520335 4.93348,-3.572166 4.33387,-0.09377 7.16494,5.286854 5.90044,11.214191 -0.37456,1.755751 -0.85856,2.627399 -2.21318,3.985818 -1.46767,1.471775 -1.97751,1.733679 -3.3217,1.70634 -0.87336,-0.01776 -1.86406,-0.132776 -2.20156,-0.255584 z m 3.58492,-1.163015 c 2.16837,-1.5188 2.82603,-9.89793 1.01958,-12.990973 -1.28161,-2.194414 -3.8643,-2.203824 -5.29656,-0.0193 -0.60087,0.916463 -0.73976,1.976679 -0.73976,5.647005 0,4.907449 0.49599,6.795936 1.97231,7.509677 1.26775,0.612907 2.0114,0.577143 3.04443,-0.146409 z m 21.98326,1.087115 c -1.40301,-0.609881 -3.03975,-2.536589 -3.4697,-4.084447 -0.7837,-2.821356 -0.51595,-6.646455 0.62558,-8.937191 1.30197,-2.612686 2.66339,-3.542538 5.18854,-3.543735 1.45514,-6.96e-4 2.18291,0.231654 2.93302,0.936344 1.31715,1.237396 1.97104,2.897261 1.80892,4.592026 l -0.13181,1.378055 -4.17007,0.11633 c -4.89583,0.136574 -4.9646,0.207029 -4.16708,4.267819 0.55252,2.813265 2.06043,4.820397 3.62144,4.820397 1.81742,0 3.22637,-1.1601 3.97751,-3.274939 0.75342,-2.121288 1.35184,-2.654596 1.35184,-1.204745 0,1.134624 -0.92946,2.842276 -2.18565,4.015701 -1.12521,1.05104 -3.96336,1.535291 -5.38254,0.918385 z m 4.89032,-11.031654 c 0.42398,-1.335821 -0.69304,-3.883493 -1.97137,-4.496158 -1.04805,-0.502314 -1.28585,-0.476627 -2.24971,0.242981 -1.20375,0.898745 -2.32953,3.417648 -1.95902,4.383246 0.1852,0.48262 0.90438,0.629001 3.09028,0.629001 2.41568,0 2.88556,-0.115434 3.08982,-0.75907 z m 34.7915,11.00515 c -2.25241,-0.931663 -3.92375,-4.229255 -3.94069,-7.775184 -0.0151,-3.186911 0.73718,-5.478765 2.34078,-7.129957 3.38805,-3.488547 8.759,-1.291535 8.759,3.582901 l 0,1.865719 -4.19318,0.116584 -4.19318,0.116584 -0.135,1.420978 c -0.36982,3.892107 1.01238,6.742077 3.50149,7.219801 1.13253,0.217367 1.52456,0.04998 2.74782,-1.173259 0.97794,-0.977953 1.51184,-1.958702 1.69716,-3.117615 0.31614,-1.977001 0.98398,-2.264164 0.98398,-0.423094 0,1.833548 -1.17319,4.029285 -2.62636,4.915412 -1.30672,0.796855 -3.52342,0.967814 -4.94182,0.38113 z m 4.67657,-11.01201 c 0.44546,-0.832293 -3.7e-4,-2.986908 -0.82309,-3.978264 -0.81009,-0.976081 -3.07236,-0.711427 -4.00005,0.46795 -0.90876,1.155312 -1.48746,3.20901 -1.08688,3.857172 0.14245,0.230489 1.43824,0.419072 2.87955,0.419072 2.14229,0 2.69538,-0.13979 3.03047,-0.76593 z M 130.8524,39.810111 c -0.10742,-0.173833 2.03687,-4.664203 4.7651,-9.9786 2.72822,-5.314397 4.86448,-9.912511 4.74724,-10.218031 -0.15097,-0.393408 -1.03398,-0.555492 -3.02624,-0.555492 -3.30533,0 -3.95839,0.485714 -4.73236,3.519684 -0.83138,3.259001 -1.53505,2.79382 -1.3959,-0.922798 l 0.1202,-3.210522 5.87772,-0.01019 c 3.64681,-0.0063 5.93815,0.148951 6.03692,0.409091 0.0876,0.230604 -2.06257,4.72099 -4.77807,9.978636 -2.7155,5.257646 -4.8396,9.813897 -4.72022,10.125001 0.15792,0.411515 1.04862,0.565641 3.26887,0.565641 3.33677,0 4.14657,-0.421224 4.57722,-2.380879 0.51067,-2.323763 1.27622,-4.369121 1.63529,-4.369121 0.51114,0 0.71111,5.769369 0.22979,6.629446 -0.33349,0.595918 -1.2005,0.692369 -6.39801,0.71176 -3.30673,0.01234 -6.10012,-0.119796 -6.20755,-0.293626 z m 16.03715,0.133607 c -0.12735,-0.206057 -0.0445,-0.490279 0.18422,-0.631605 0.26284,-0.162448 0.41576,-3.850332 0.41576,-10.026852 0,-6.17652 -0.15292,-9.864404 -0.41576,-10.026852 -1.14013,-0.704637 0.40228,-1.029492 4.07092,-0.857395 4.47289,0.209824 6.42335,0.841455 7.7307,2.503479 1.66305,2.114231 0.73112,6.21934 -1.5783,6.952323 -1.13379,0.359851 -1.00527,0.838199 0.37931,1.411707 4.63999,1.92195 4.49328,8.069436 -0.24073,10.08695 -1.53366,0.653605 -10.20674,1.137375 -10.54612,0.588245 z m 7.78818,-0.890277 c 2.58558,-0.651059 3.85726,-2.273742 3.85726,-4.921945 0,-2.648044 -1.42068,-4.231973 -4.1649,-4.643495 -3.82323,-0.573328 -3.79656,-0.603711 -3.92926,4.475516 -0.0643,2.46054 -0.0241,4.715654 0.0894,5.011363 0.2528,0.658776 1.73195,0.686793 4.14747,0.07856 z m -0.71972,-11.215036 c 2.38474,-0.708193 3.3497,-1.987767 3.3497,-4.441834 0,-1.914094 -1.36526,-3.377119 -3.721,-3.987441 -3.09044,-0.800666 -3.23354,-0.610085 -3.23354,4.306474 0,4.073874 0.13009,4.562921 1.25529,4.719179 0.12791,0.01776 1.18521,-0.250607 2.34955,-0.596378 z m 36.39779,12.028603 c -0.24957,-0.154206 1.60613,-4.242162 4.58217,-10.09416 2.75089,-5.409248 4.87926,-10.032965 4.72971,-10.274928 -0.42031,-0.680075 -5.2107,-0.54432 -6.24031,0.176844 -0.56275,0.394171 -1.06205,1.427708 -1.38339,2.863637 -0.30346,1.355971 -0.72032,2.24686 -1.05136,2.24686 -0.75149,0 -0.78709,-5.964868 -0.0372,-6.228807 0.83038,-0.29226 11.29314,-0.103053 11.60608,0.209883 0.15769,0.157697 -1.96232,4.706794 -4.71116,10.109106 -2.74883,5.402311 -4.88458,10.005693 -4.74612,10.229738 0.13847,0.224044 1.62158,0.407353 3.2958,0.407353 3.77084,0 4.29128,-0.433862 5.04022,-4.201784 0.36109,-1.81659 0.74075,-2.752761 1.1164,-2.752761 0.7692,0 0.82504,6.74816 0.0598,7.221134 -0.61212,0.378313 -11.6624,0.457522 -12.26062,0.08788 z m 29.19233,0.09949 c -0.38692,-0.245165 -0.4179,-0.436447 -0.10227,-0.631515 0.64571,-0.399074 0.62277,-13.806985 -0.0247,-14.454492 -0.76757,-0.76757 0.7699,-1.119971 2.36686,-0.542503 1.1521,0.416608 1.52628,0.393563 2.28948,-0.141 1.16667,-0.817171 2.54067,-0.815593 3.36012,0.0038 0.69868,0.698682 0.88548,4.068087 0.27864,5.025819 -0.43793,0.691143 -0.70931,0.271416 -1.07097,-1.656414 -0.33059,-1.762137 -1.42523,-2.917531 -2.40715,-2.540733 -1.48755,0.570846 -1.88492,2.334245 -1.88492,8.36465 0,5.654736 0.0209,5.79145 0.92045,6.031305 0.91814,0.2448 0.91788,0.246146 -0.10227,0.534559 -1.45895,0.41247 -2.9782,0.415187 -3.62322,0.0065 z m 24.21566,-0.275589 c -0.0928,-0.24191 1.41935,-3.427081 3.36039,-7.078159 1.94105,-3.651077 3.4265,-6.905885 3.30101,-7.232905 -0.33486,-0.872643 -2.82318,-0.739285 -4.03816,0.216419 -0.58519,0.460309 -1.14775,1.433252 -1.30098,2.25 -0.45206,2.409673 -1.10067,1.660906 -0.96831,-1.11782 l 0.12179,-2.556818 4.25995,-0.117322 c 2.34298,-0.06453 4.42769,0.05041 4.63269,0.255413 0.38161,0.381607 -1.07044,3.50698 -4.91041,10.569144 -2.27417,4.182457 -2.22339,4.633674 0.5214,4.633674 2.22726,0 3.00047,-0.643745 3.60108,-2.998152 0.27495,-1.077793 0.68091,-1.950786 0.90215,-1.939986 0.55821,0.02725 0.75078,4.548682 0.21648,5.082983 -0.58924,0.589241 -9.47404,0.619955 -9.69908,0.03353 z m 25.28434,0.275589 c -0.38692,-0.245165 -0.4179,-0.436447 -0.10227,-0.631515 0.59548,-0.368027 0.63058,-13.982444 0.037,-14.3493 -0.22867,-0.141326 -0.30985,-0.428326 -0.1804,-0.637779 0.32455,-0.525136 1.67988,-0.477407 2.5904,0.09122 0.59733,0.373035 0.95848,0.330132 1.72184,-0.204546 1.18581,-0.83057 2.51217,-0.86164 3.99732,-0.09364 1.79846,0.930021 2.10479,2.175669 2.10479,8.559021 0,3.735952 0.16356,5.994313 0.45526,6.286015 1.09176,1.091763 -1.12538,1.768648 -3.11435,0.950802 -0.75108,-0.308836 -0.75947,-0.360394 -0.10228,-0.628651 0.63491,-0.259161 0.71591,-0.955389 0.71591,-6.153642 0,-3.223781 -0.17758,-6.328489 -0.39462,-6.899352 -0.51152,-1.345397 -2.15079,-1.772483 -3.47443,-0.905205 -1.41169,0.92498 -1.85332,2.994781 -1.85594,8.698379 -0.002,4.324151 0.089,5.00261 0.70216,5.237917 0.60346,0.231567 0.61812,0.324914 0.10227,0.65114 -0.75505,0.477507 -2.47041,0.493108 -3.20266,0.02914 z m 69.68033,-0.06279 c -0.14515,-0.234856 -0.055,-0.678699 0.20027,-0.986319 0.54324,-0.654556 0.42689,-13.082117 -0.13326,-14.234398 -0.28684,-0.590054 -0.1558,-0.715909 0.74537,-0.715909 0.60136,0 1.45268,0.192284 1.8918,0.427298 0.59843,0.320266 1.02437,0.26903 1.7005,-0.204546 1.14012,-0.798571 2.47469,-0.803231 4.00095,-0.01397 2.07742,1.074279 2.37528,2.317054 2.4992,10.427584 0.0834,5.457611 0.0734,5.524333 -0.84403,5.658906 -0.51062,0.0749 -1.39057,0.02018 -1.95544,-0.121592 -0.95646,-0.240058 -0.98172,-0.307848 -0.36748,-0.986572 0.53865,-0.59521 0.65956,-1.749117 0.65956,-6.294961 0,-3.061386 -0.17355,-6.022615 -0.38566,-6.580509 -0.74809,-1.967614 -3.27328,-1.879077 -4.32338,0.151584 -0.72592,1.403793 -0.89176,12.450192 -0.19338,12.881812 0.22867,0.141326 0.30985,0.428327 0.1804,0.63778 -0.3221,0.521175 -3.34827,0.483146 -3.67542,-0.04619 z m 13.89813,-0.01773 c -0.15117,-0.244605 -0.07,-0.649605 0.18041,-0.9 0.30728,-0.307277 0.45526,-3.443421 0.45526,-9.648051 0,-7.937194 -0.0914,-9.293805 -0.66932,-9.93238 -0.60177,-0.664941 -0.60477,-0.764365 -0.0297,-0.985019 0.35176,-0.134984 1.06716,-0.184845 1.58977,-0.110801 0.9333,0.132229 0.95384,0.240147 1.15475,6.066442 0.13764,3.991797 0.35472,5.931819 0.66373,5.931819 0.25256,0 1.3442,-0.984345 2.42588,-2.187433 1.65145,-1.836801 1.89318,-2.305149 1.50807,-2.921805 -0.59167,-0.947409 -0.27359,-1.231672 1.37817,-1.231672 1.60827,0 2.07826,0.562524 1.08746,1.301555 -1.34813,1.005563 -4.60877,4.919847 -4.60877,5.532673 0,0.712879 4.25503,6.872111 5.64083,8.165205 0.92953,0.867345 0.93212,0.891252 0.12424,1.147664 -1.30769,0.415043 -2.29192,-0.381749 -4.80174,-3.887298 -1.29012,-1.801958 -2.5409,-3.211943 -2.7795,-3.133301 -0.23861,0.07864 -0.48919,1.300156 -0.55685,2.714474 -0.0914,1.91069 0.0445,2.756634 0.52903,3.291985 0.59703,0.659711 0.59596,0.74202 -0.0127,0.975589 -1.05966,0.406631 -2.97904,0.295619 -3.27895,-0.189645 z m 36.71858,0.09554 c -0.42391,-0.268902 -0.40332,-0.442402 0.10227,-0.862008 0.92731,-0.769601 0.94932,-18.880646 0.0239,-19.648697 -0.83931,-0.69658 -0.39303,-1.23101 1.02799,-1.23101 0.75659,0 1.34269,0.287666 1.61223,0.791288 0.25746,0.481081 0.42348,4.561179 0.42348,10.407675 0,6.588066 0.14258,9.704508 0.45276,9.896213 0.67367,0.416344 -0.41288,0.983205 -1.88458,0.983205 -0.675,0 -1.4661,-0.151499 -1.758,-0.336664 z m 23.7493,-0.162168 c -0.22235,-0.28125 -1.4562,-3.68515 -2.74181,-7.564222 -1.28565,-3.879072 -2.50994,-7.159406 -2.72062,-7.289631 -0.79016,-0.488342 0.14793,-0.998421 1.8362,-0.998421 2.05556,0 2.55424,0.333151 1.57288,1.050753 -0.66069,0.48309 -0.5963,0.858178 0.95502,5.563177 1.04952,3.183276 1.86983,5.045162 2.22279,5.045162 0.87341,0 3.93374,-9.522022 3.35704,-10.445414 -0.54057,-0.865607 -0.25944,-1.213678 0.98031,-1.213678 1.13126,0 1.61644,0.663374 1.01516,1.387919 -0.24374,0.293644 -1.4407,3.461148 -2.65999,7.038899 -2.69796,7.916651 -2.70581,7.936819 -3.09739,7.936819 -0.17342,0 -0.49721,-0.230113 -0.71959,-0.511363 z m 21.67969,0.240614 c -0.39351,-0.158825 -0.37003,-0.40711 0.10227,-1.081456 0.89186,-1.273275 0.89521,-13.040741 0.004,-13.780421 -0.335,-0.278044 -0.50825,-0.668767 -0.38495,-0.868273 0.29139,-0.471437 2.25777,-0.456604 3.01536,0.02275 0.38058,0.240813 0.98939,0.166121 1.71831,-0.21081 1.37675,-0.711942 2.42889,-0.73798 3.84001,-0.09503 1.88166,0.857332 2.23859,2.196669 2.23859,8.399925 0,4.341637 0.14126,5.858268 0.60774,6.524259 0.54099,0.772351 0.5373,0.894732 -0.0335,1.113752 -0.91064,0.349455 -2.7297,0.293537 -3.355,-0.103136 -0.4239,-0.268903 -0.40332,-0.442403 0.10228,-0.862008 0.51541,-0.427776 0.63298,-1.576149 0.63298,-6.183277 0,-3.45268 -0.18679,-6.06788 -0.47921,-6.709718 -0.97245,-2.134304 -3.62798,-1.663076 -4.66907,0.82853 -0.8557,2.048002 -0.8141,11.344005 0.054,12.064465 0.50559,0.419605 0.52617,0.593105 0.10227,0.862008 -0.57469,0.364557 -2.67063,0.411586 -3.49609,0.07845 z m 13.57969,-0.173987 c -0.15116,-0.244605 -0.07,-0.649605 0.18041,-0.9 0.65421,-0.654205 0.62198,-13.052194 -0.0356,-13.70981 -0.68441,-0.684394 0.121,-1.417346 1.36419,-1.241454 l 0.96758,0.136909 0.1123,7.137938 c 0.0895,5.694081 0.23793,7.276806 0.73354,7.824455 0.55694,0.615385 0.55244,0.712947 -0.0434,0.941607 -1.05966,0.406631 -2.97904,0.295619 -3.27898,-0.189645 z M 182.26226,17.387534 c 0,-7.372597 0.11212,-9.4058609 0.51136,-9.2729729 0.38464,0.128028 0.53862,2.4682199 0.62132,9.4431819 0.0957,8.069125 0.0293,9.272973 -0.51137,9.272973 -0.53775,0 -0.62131,-1.270089 -0.62131,-9.443182 z m 64.63991,3.312354 c -0.73484,-1.145155 -1.22653,-2.191645 -1.09264,-2.325533 0.13389,-0.133888 0.91653,0.347552 1.7392,1.069868 l 1.49577,1.3133 1.37548,-1.333169 c 1.8478,-1.790957 2.19499,-1.229799 0.71892,1.161975 -1.67123,2.707991 -2.55665,2.731723 -4.23673,0.113559 z m 36.28644,0.557175 c -0.93487,-0.934873 0.28845,-2.831469 1.5212,-2.358418 1.00203,0.384514 0.69044,2.373324 -0.3962,2.528873 -0.45926,0.06574 -0.96551,-0.01096 -1.125,-0.170455 z m 165.66457,-0.01726 c -0.54356,-0.543525 -0.25478,-1.753555 0.51705,-2.166613 0.59613,-0.319051 0.94717,-0.26527 1.43182,0.219373 0.77073,0.770737 0.79793,1.08223 0.15112,1.729059 -0.53485,0.53486 -1.66582,0.652362 -2.09999,0.218181 z m 6.41034,-0.367821 c -0.2763,-0.720015 0.23265,-1.869235 0.93088,-2.10198 0.21801,-0.07268 0.75715,0.1357 1.19802,0.463055 0.64101,0.475927 0.71133,0.743443 0.3508,1.335059 -0.61122,1.003001 -2.13955,1.190285 -2.4797,0.303866 z"
     id="path4141"
     inkscape:connector-curvature="0"
     sodipodi:nodetypes="csscscsccccsscccssccscssssssssssssssssssssssscssssscssscccsssscsscssssssssssssscssssssssssssssscsssssccccsssccssssssssssssssssccsscccsssssscssssssscssssssssscsssssssssssssssssssssssssssssssssssscssssscsccccscscssccccscsscsccsssccssssscscscssssscscscsssssscssscccsssscscscsssscscsssccccscsscsscscscccssssscssssssscssssssssssssssscssscsscssssssssssssccsscssssssssssscscscccssscscscccscsccscscsscccsccsssscccsccssccccccccccccsssssssscsssssssccsscsccss" />
  <g
     id="g4278" />
  <path
     style="fill:#3f5296;fill-opacity:1"
     d="m 42.099541,54.341085 c -0.0937,-0.085 -1.18296,-0.26057 -2.42046,-0.39011 -6.46689,-0.67695 -20.33819,-5.52211 -30.75861,-10.74378 -7.1270801,-3.57139 -7.4391801,-3.78242 -6.7826301,-4.58601 1.43957,-1.762 16.0688301,-10.30733 17.6457201,-10.30733 0.3811,0 1.83792,0.48945 3.23739,1.08767 1.39947,0.59822 4.93736,1.93436 7.86197,2.96919 l 5.31747,1.88153 0.53132,1.63308 c 1.27084,3.90616 3.55361,7.70657 6.52863,10.86904 2.84722,3.0266 8.20262,6.91488 9.54398,6.92939 0.47671,0.005 0.47062,0.0765 -0.0343,0.40282 -0.56894,0.36769 -10.28999,0.59955 -10.67045,0.25451 z m 17.01136,-0.23654 c -5.60483,-1.22448 -11.37727,-4.55335 -15.14681,-8.73491 -2.53811,-2.81555 -5.526,-8.52167 -6.36034,-12.14669 -0.73262,-3.18309 -0.67095,-10.929046 0.0931,-11.693096 0.75122,-0.75121 6.24027,-1.8069 9.395,-1.8069 4.57888,0 7.41707,2.21367 8.15243,6.358576 1.24469,7.01584 3.60133,9.49394 9.42627,9.9121 6.04326,0.43383 19.542674,-3.74347 31.519859,-9.75361 4.10186,-2.058316 12.82643,-7.287086 14.96222,-8.967106 0.57524,-0.45248 1.20515,-0.82269 1.39981,-0.82269 0.19465,0 0.35392,4.8761 0.35392,10.835776 l 0,10.83578 -1.53409,0.96321 c -8.25582,5.18362 -24.207725,11.71072 -34.7519,14.21957 -3.994149,0.95035 -14.602629,1.43504 -17.509469,0.79999 z m -59.5227301,-27.00368 0,-11.071786 1.32955,-0.83898 c 3.18882,-2.01222 16.5251301,-8.2673199 21.5795401,-10.1213999 6.11246,-2.2421797 13.6501,-4.45940966 16.65883,-4.90025966 1.07514,-0.15753 4.71617,-0.28643 8.09117,-0.28643 5.20385,0 6.57154,0.13789 9,0.90733 8.54257,2.70666996 15.87006,10.19269956 18.25382,18.64875956 1.173279,4.16207 1.390949,12.111406 0.359819,13.141126 -1.422079,1.42013 -10.377879,2.4122 -12.961999,1.43585 -1.38505,-0.5233 -3.27681,-2.25062 -4.00383,-3.65579 -0.29103,-0.5625 -0.6632,-2.03523 -0.82705,-3.27273 -0.57953,-4.377086 -1.94336,-6.434706 -5.32076,-8.027406 -3.64807,-1.72035 -9.02042,-1.1274 -18.96784,2.0935 -9.6575,3.12703 -19.07718,7.668176 -27.4639801,13.240146 -2.5875,1.71907 -4.93466,3.2728 -5.21591,3.45273 -0.40455,0.25881 -0.51136,-1.98546 -0.51136,-10.74466 z M 89.383635,24.739639 c -1.35,-0.57661 -4.83158,-1.89523 -7.73685,-2.93026 l -5.282305,-1.88189 -0.72525,-2.14295 C 73.249561,10.723689 68.451231,5.1195091 61.712711,1.5191694 l -2.55613,-1.36570996 1.58648,-0.297629 c 2.59915,-0.487603 12.37029,0.131919 15.983969,1.013429 5.470545,1.33447996 13.956565,4.27443966 20.65074,7.15441966 6.68358,2.8754099 13.1115,6.2682599 13.37016,7.0571699 0.32513,0.99164 -16.018385,10.807186 -17.887025,10.742546 -0.5625,-0.0195 -2.12727,-0.50715 -3.47727,-1.083756 z"
     id="path4141-3"
     inkscape:connector-curvature="0"
     sodipodi:nodetypes="csssssscsscsccssssssssssscsssscssssssssssssssssscsscsssscs" />
</svg>
