<?xml version="1.0" encoding="UTF-8" standalone="no"?>
<svg
   xmlns:osb="http://www.openswatchbook.org/uri/2009/osb"
   xmlns:dc="http://purl.org/dc/elements/1.1/"
   xmlns:cc="http://creativecommons.org/ns#"
   xmlns:rdf="http://www.w3.org/1999/02/22-rdf-syntax-ns#"
   xmlns:svg="http://www.w3.org/2000/svg"
   xmlns="http://www.w3.org/2000/svg"
   xmlns:sodipodi="http://sodipodi.sourceforge.net/DTD/sodipodi-0.dtd"
   xmlns:inkscape="http://www.inkscape.org/namespaces/inkscape"
   width="86"
   height="86"
   viewBox="0 0 73.1 358.33334"
   id="svg2"
   version="1.1"
   inkscape:version="0.91 r13725"
   sodipodi:docname="icon.svg">
  <defs
     id="defs4">
    <linearGradient
       id="linearGradient5762"
       osb:paint="gradient">
      <stop
         style="stop-color:#1c1f24;stop-opacity:1;"
         offset="0"
         id="stop5764" />
      <stop
         style="stop-color:#1c1f24;stop-opacity:0;"
         offset="1"
         id="stop5766" />
    </linearGradient>
    <linearGradient
       id="linearGradient4299"
       osb:paint="solid">
      <stop
         style="stop-color:#c38300;stop-opacity:1;"
         offset="0"
         id="stop4301" />
    </linearGradient>
    <marker
       inkscape:stockid="Arrow1Lstart"
       orient="auto"
       refY="0"
       refX="0"
       id="Arrow1Lstart"
       style="overflow:visible"
       inkscape:isstock="true">
      <path
         id="path4178"
         d="M 0,0 5,-5 -12.5,0 5,5 0,0 Z"
         style="fill:#000000;fill-opacity:1;fill-rule:evenodd;stroke:#000000;stroke-width:1pt;stroke-opacity:1"
         transform="matrix(0.8,0,0,0.8,10,0)"
         inkscape:connector-curvature="0" />
    </marker>
    <filter
       style="color-interpolation-filters:sRGB"
       inkscape:label="Inner Shadow"
       inkscape:menu="Shadows and Glows"
       inkscape:menu-tooltip="Adds a colorizable drop shadow inside"
       id="filter3209">
      <feGaussianBlur
         stdDeviation="4"
         result="result8"
         id="feGaussianBlur3211" />
      <feOffset
         dx="4"
         dy="4"
         result="result11"
         id="feOffset3213" />
      <feComposite
         result="result6"
         in="SourceGraphic"
         operator="in"
         in2="result11"
         id="feComposite3215" />
      <feFlood
         result="result10"
         in="result6"
         flood-opacity="1"
         flood-color="rgb(0,0,0)"
         id="feFlood3217" />
      <feBlend
         mode="normal"
         in="result6"
         in2="result10"
         id="feBlend3219" />
      <feComposite
         result="result2"
         operator="in"
         in2="SourceGraphic"
         id="feComposite3221" />
    </filter>
    <filter
       style="color-interpolation-filters:sRGB"
       inkscape:label="Drop Shadow"
       id="filter8612">
      <feFlood
         flood-opacity="0.301"
         flood-color="rgb(0,0,0)"
         result="flood"
         id="feFlood8614" />
      <feComposite
         in="flood"
         in2="SourceGraphic"
         operator="in"
         result="composite1"
         id="feComposite8616" />
      <feGaussianBlur
         stdDeviation="2"
         result="blur"
         id="feGaussianBlur8618" />
      <feOffset
         dx="5.4"
         dy="-0.4"
         result="offset"
         id="feOffset8620" />
      <feComposite
         in="SourceGraphic"
         in2="offset"
         operator="over"
         result="composite2"
         id="feComposite8622" />
    </filter>
    <clipPath
       clipPathUnits="userSpaceOnUse"
       id="clipPath4503">
      <path
         d="m 300,300 4499.41,0 0,3181.4 -4499.41,0 z"
         id="path4501"
         inkscape:connector-curvature="0" />
    </clipPath>
  </defs>
  <sodipodi:namedview
     id="base"
     pagecolor="#ffffff"
     bordercolor="#666666"
     borderopacity="1.0"
     inkscape:pageopacity="0.0"
     inkscape:pageshadow="2"
     inkscape:zoom="5.6"
     inkscape:cx="128.20882"
     inkscape:cy="85.708247"
     inkscape:document-units="px"
     inkscape:current-layer="g4497"
     showgrid="false"
     inkscape:window-width="2560"
     inkscape:window-height="1378"
     inkscape:window-x="0"
     inkscape:window-y="0"
     inkscape:window-maximized="1" />
  <metadata
     id="metadata7">
    <rdf:RDF>
      <cc:Work
         rdf:about="">
        <dc:format>image/svg+xml</dc:format>
        <dc:type
           rdf:resource="http://purl.org/dc/dcmitype/StillImage" />
        <dc:title></dc:title>
      </cc:Work>
    </rdf:RDF>
  </metadata>
  <g
     inkscape:label="Layer 1"
     inkscape:groupmode="layer"
     id="layer1"
     transform="translate(0,158.33328)">
    <ellipse
       style="opacity:0.66000001;fill:#0000ff;fill-opacity:1;stroke:#000000;stroke-width:4.16666698;stroke-linejoin:miter;stroke-miterlimit:4.0818181;stroke-dasharray:none;stroke-dashoffset:0;stroke-opacity:1"
       id="path5735"
       cx="-572.09668"
       cy="876.46265"
       rx="2.1044846"
       ry="21.044846" />
    <g
       id="g4495"
       transform="matrix(0.66666668,0,0,-0.66666668,-1600.6434,1175.2361)"
       inkscape:export-xdpi="119.81396"
       inkscape:export-ydpi="119.81396">
      <g
         id="g4497">
        <g
           id="g4499"
           clip-path="url(#clipPath4503)"
           transform="translate(-83.349952,-447.17596)">
          <path
             d="m 2770.22,2012.67 0,7.19 c 0,16.78 12.65,31.37 28.79,33.71 l 0,33.22 c -16.14,2.34 -28.6,16.08 -28.6,32.88 l 0,9.53 c 0,16.79 12.46,30.53 28.6,32.86 l 0,14.78 0,14.79 c -16.14,2.33 -28.6,16.07 -28.6,32.86 l 0,9.53 c 0,16.79 12.46,30.54 28.6,32.88 l 0,33.22 c -16.14,2.33 -28.79,16.93 -28.79,33.71 l 0,7.19 c 0,16.79 12.65,33.27 28.79,35.6 l 0,32.08 c -8.99,1.09 -17.25,5.76 -22.64,12.33 -6.57,5.38 -11.23,13.64 -12.33,22.63 l -27.45,0 c -2.32,-16.13 -16.08,-28.59 -32.86,-28.59 l -9.54,0 c -16.78,0 -30.54,12.46 -32.87,28.59 l -29.54,0 c -2.33,-16.13 -16.09,-28.59 -32.87,-28.59 l -9.53,0 c -16.79,0 -30.54,12.46 -32.88,28.59 l -15.55,0 0,-65.86 0,-10.38 0,-190.58 0,-190.58 0,-10.38 0,-65.85 15.55,0 c 2.34,16.13 16.09,28.58 32.88,28.58 l 9.53,0 c 16.78,0 30.54,-12.45 32.87,-28.58 l 29.54,0 c 2.33,16.13 16.09,28.58 32.87,28.58 l 9.54,0 c 16.78,0 30.54,-12.45 32.86,-28.58 l 27.45,0 c 1.1,8.99 5.76,17.24 12.33,22.63 5.39,6.56 13.65,11.23 22.64,12.33 l 0,32.07 c -16.14,2.34 -28.79,18.82 -28.79,35.61"
             style="fill:#399ca1;fill-opacity:1;fill-rule:nonzero;stroke:none"
             id="path4505"
             inkscape:connector-curvature="0" />
          <path
             d="m 2540.95,1910.03 0,533.35 -15.56,0 c -2.34,-16.13 -16.09,-28.58 -32.88,-28.58 l -9.53,0 c -16.78,0 -30.53,12.45 -32.87,28.58 l -29.54,0 c -2.33,-16.13 -16.08,-28.58 -32.86,-28.58 l -9.55,0 c -16.78,0 -30.53,12.45 -32.86,28.58 l -27.45,0 c -1.1,-8.99 -5.76,-17.24 -12.33,-22.63 -5.39,-6.57 -13.64,-11.23 -22.63,-12.33 l 0,-32.08 c 16.13,-2.33 28.78,-18.8 28.78,-35.59 l 0,-7.2 c 0,-16.78 -12.65,-31.38 -28.78,-33.71 l 0,-33.22 c 16.13,-2.34 28.59,-16.08 28.59,-32.88 l 0,-9.53 c 0,-16.79 -12.46,-30.53 -28.59,-32.86 l 0,-14.51 0,-0.28 0,-14.5 c 16.13,-2.33 28.59,-16.07 28.59,-32.86 l 0,-9.53 c 0,-16.8 -12.46,-30.54 -28.59,-32.88 l 0,-33.22 c 16.13,-2.34 28.78,-16.93 28.78,-33.71 l 0,-7.19 c 0,-16.79 -12.65,-33.27 -28.78,-35.61 l 0,-32.07 c 8.99,-1.1 17.24,-5.77 22.63,-12.33 6.57,-5.39 11.23,-13.64 12.33,-22.63 l 27.45,0 c 2.33,16.13 16.08,28.58 32.86,28.58 l 9.55,0 c 16.78,0 30.53,-12.45 32.86,-28.58 l 29.54,0 c 2.34,16.13 16.09,28.58 32.87,28.58 l 9.53,0 c 16.79,0 30.54,-12.45 32.88,-28.58 l 15.56,0"
             style="fill:#348e93;fill-opacity:1;fill-rule:nonzero;stroke:none"
             id="path4507"
             inkscape:connector-curvature="0" />
          <path
             d="m 2540.95,2318.78 c -12.64,-4.59 -28.1,-10.81 -46.47,-18.72 -44.03,-19.13 -66.05,-32.04 -66.05,-38.72 0,-1.52 2.12,-4.71 6.38,-9.56 10.02,-10.93 15.03,-25.36 15.03,-43.28 l 0,-108.87 c 0,-11.84 -4.25,-25.21 -12.75,-40.08 -8.51,-14.89 -12.76,-24.6 -12.76,-29.16 0,-3.34 9.87,-5.01 29.62,-5.01 l 4.09,3.65 c 14.27,3.03 29.91,4.56 46.92,4.56 7.9,0 19.89,-1.38 35.99,-4.11 l 0,51.57 c -7.7,-0.82 -17.25,-3.11 -28.7,-6.93 -15.19,-4.55 -26.57,-6.83 -34.16,-6.83 17.61,22.47 26.41,50.87 26.41,85.18 0,1.82 0,3.8 0,5.92 0,2.13 -0.15,4.4 -0.45,6.84 l -1.82,29.15 c -0.61,9.72 -1.07,17.54 -1.37,23.46 -0.31,5.92 -0.46,9.95 -0.46,12.07 0,44.64 13.51,66.96 40.55,66.96 l 0,21.91"
             style="fill:#d1cbbc;fill-opacity:1;fill-rule:nonzero;stroke:none"
             id="path4515"
             inkscape:connector-curvature="0" />
          <path
             d="m 2657.56,2092.35 0,10.47 -10.48,0 c -10.33,-11.24 -27.78,-23.08 -52.38,-35.53 -10.33,9.41 -26.27,14.12 -47.83,14.12 -1.82,0 -3.82,-0.13 -5.92,-0.36 l 0,-51.57 c 7.89,-1.21 14.8,-2.12 20.72,-2.73 5.92,-0.61 11.01,-0.91 15.26,-0.91 21.25,0 39.47,5.61 54.66,16.85 17.31,12.76 25.97,29.31 25.97,49.66 z m -24.6,164.89 c 4.25,2.12 7.9,4.25 10.93,6.38 l -21.86,44.64 c -9.73,13.36 -24.75,20.04 -45.1,20.04 -6.52,0 -18.54,-3.19 -35.98,-9.52 l 0,-21.91 c 13.05,0 24.14,-6.53 33.25,-19.58 5.76,-8.2 11.99,-20.5 18.68,-36.9 l 25.96,10.48 c 5.16,2.12 9.87,4.25 14.12,6.37"
             style="fill:#e7e2d4;fill-opacity:1;fill-rule:nonzero;stroke:none"
             id="path4517"
             inkscape:connector-curvature="0" />
        </g>
      </g>
    </g>
  </g>
</svg>
