<?xml version="1.0" encoding="UTF-8" standalone="no"?>
<!-- Created with Inkscape (http://www.inkscape.org/) -->

<svg
   xmlns:dc="http://purl.org/dc/elements/1.1/"
   xmlns:cc="http://creativecommons.org/ns#"
   xmlns:rdf="http://www.w3.org/1999/02/22-rdf-syntax-ns#"
   xmlns:svg="http://www.w3.org/2000/svg"
   xmlns="http://www.w3.org/2000/svg"
   xmlns:sodipodi="http://sodipodi.sourceforge.net/DTD/sodipodi-0.dtd"
   xmlns:inkscape="http://www.inkscape.org/namespaces/inkscape"
   version="1.1"
   id="svg4485"
   xml:space="preserve"
   width="816"
   height="1056"
   viewBox="0 0 816 1056"
   sodipodi:docname="Logotip Laurentius.svg"
   inkscape:version="0.92.1 r15371"><metadata
     id="metadata4491"><rdf:RDF><cc:Work
         rdf:about=""><dc:format>image/svg+xml</dc:format><dc:type
           rdf:resource="http://purl.org/dc/dcmitype/StillImage" /><dc:title /></cc:Work></rdf:RDF></metadata><defs
     id="defs4489"><clipPath
       clipPathUnits="userSpaceOnUse"
       id="clipPath4503"><path
         d="M 300,300 H 4799.41 V 3481.4 H 300 Z"
         id="path4501"
         inkscape:connector-curvature="0" /></clipPath></defs><sodipodi:namedview
     pagecolor="#ffffff"
     bordercolor="#666666"
     borderopacity="1"
     objecttolerance="10"
     gridtolerance="10"
     guidetolerance="10"
     inkscape:pageopacity="0"
     inkscape:pageshadow="2"
     inkscape:window-width="1920"
     inkscape:window-height="1017"
     id="namedview4487"
     showgrid="false"
     inkscape:zoom="0.76325758"
     inkscape:cx="199.0273"
     inkscape:cy="528.65509"
     inkscape:window-x="-8"
     inkscape:window-y="-8"
     inkscape:window-maximized="1"
     inkscape:current-layer="g4493" /><g
     id="g4493"
     inkscape:groupmode="layer"
     inkscape:label="Logotip Laurentius"
     transform="matrix(1.3333333,0,0,-1.3333333,0,1056)"><g
       id="g4495"
       transform="scale(0.12)"
       inkscape:export-xdpi="119.81396"
       inkscape:export-ydpi="119.81396"><g
         id="g4497"><g
           id="g4499"
           clip-path="url(#clipPath4503)"><path
             d="m 2770.22,2012.67 v 7.19 c 0,16.78 12.65,31.37 28.79,33.71 v 33.22 c -16.14,2.34 -28.6,16.08 -28.6,32.88 v 9.53 c 0,16.79 12.46,30.53 28.6,32.86 v 14.78 14.79 c -16.14,2.33 -28.6,16.07 -28.6,32.86 v 9.53 c 0,16.79 12.46,30.54 28.6,32.88 v 33.22 c -16.14,2.33 -28.79,16.93 -28.79,33.71 v 7.19 c 0,16.79 12.65,33.27 28.79,35.6 v 32.08 c -8.99,1.09 -17.25,5.76 -22.64,12.33 -6.57,5.38 -11.23,13.64 -12.33,22.63 h -27.45 c -2.32,-16.13 -16.08,-28.59 -32.86,-28.59 h -9.54 c -16.78,0 -30.54,12.46 -32.87,28.59 h -29.54 c -2.33,-16.13 -16.09,-28.59 -32.87,-28.59 h -9.53 c -16.79,0 -30.54,12.46 -32.88,28.59 h -15.55 v -65.86 -10.38 -190.58 -190.58 -10.38 -65.85 h 15.55 c 2.34,16.13 16.09,28.58 32.88,28.58 h 9.53 c 16.78,0 30.54,-12.45 32.87,-28.58 h 29.54 c 2.33,16.13 16.09,28.58 32.87,28.58 h 9.54 c 16.78,0 30.54,-12.45 32.86,-28.58 h 27.45 c 1.1,8.99 5.76,17.24 12.33,22.63 5.39,6.56 13.65,11.23 22.64,12.33 v 32.07 c -16.14,2.34 -28.79,18.82 -28.79,35.61"
             style="fill:#399ca1;fill-opacity:1;fill-rule:nonzero;stroke:none"
             id="path4505"
             inkscape:connector-curvature="0" /><path
             d="m 2540.95,1910.03 v 533.35 h -15.56 c -2.34,-16.13 -16.09,-28.58 -32.88,-28.58 h -9.53 c -16.78,0 -30.53,12.45 -32.87,28.58 h -29.54 c -2.33,-16.13 -16.08,-28.58 -32.86,-28.58 h -9.55 c -16.78,0 -30.53,12.45 -32.86,28.58 h -27.45 c -1.1,-8.99 -5.76,-17.24 -12.33,-22.63 -5.39,-6.57 -13.64,-11.23 -22.63,-12.33 v -32.08 c 16.13,-2.33 28.78,-18.8 28.78,-35.59 v -7.2 c 0,-16.78 -12.65,-31.38 -28.78,-33.71 v -33.22 c 16.13,-2.34 28.59,-16.08 28.59,-32.88 v -9.53 c 0,-16.79 -12.46,-30.53 -28.59,-32.86 v -14.51 -0.28 -14.5 c 16.13,-2.33 28.59,-16.07 28.59,-32.86 v -9.53 c 0,-16.8 -12.46,-30.54 -28.59,-32.88 v -33.22 c 16.13,-2.34 28.78,-16.93 28.78,-33.71 v -7.19 c 0,-16.79 -12.65,-33.27 -28.78,-35.61 v -32.07 c 8.99,-1.1 17.24,-5.77 22.63,-12.33 6.57,-5.39 11.23,-13.64 12.33,-22.63 h 27.45 c 2.33,16.13 16.08,28.58 32.86,28.58 h 9.55 c 16.78,0 30.53,-12.45 32.86,-28.58 h 29.54 c 2.34,16.13 16.09,28.58 32.87,28.58 h 9.53 c 16.79,0 30.54,-12.45 32.88,-28.58 h 15.56"
             style="fill:#348e93;fill-opacity:1;fill-rule:nonzero;stroke:none"
             id="path4507"
             inkscape:connector-curvature="0" /><path
             d="m 2718.86,1640.94 -13.15,0.32 -12.82,0.96 v 83.06 c 0,9.4 -1.28,16.03 -3.85,19.88 -3.21,4.91 -9.3,7.37 -18.28,7.37 -3.64,0 -8.77,-1.07 -15.39,-3.21 -7.05,-1.92 -10.58,-4.6 -10.58,-8.01 V 1640.3 h -31.11 v 102.29 c 0,4.27 -3,8.12 -8.98,11.55 -1.07,0.64 -2.77,1.44 -5.13,2.4 -2.35,0.96 -5.34,2.19 -8.97,3.69 v 3.85 l 27.89,20.84 c 10.26,-4.71 17.64,-9.94 22.13,-15.71 l 6.41,-8.98 38.48,25.97 c 14.96,-4.28 24.9,-8.56 29.83,-12.82 7.48,-6.42 11.22,-16.15 11.22,-29.18 v -101.98 c -2.14,-1.28 -4.7,-1.71 -7.7,-1.28 z m 79.2,121.53 v -76.31 c 0,-14.98 9.62,-22.45 28.86,-22.45 v -4.81 c -17.53,-13.05 -27.47,-19.56 -29.82,-19.56 -6.63,-0.21 -13.58,3.41 -20.85,10.9 -6.84,7.9 -10.25,15.28 -10.25,22.13 v 87.22 c -1.72,1.28 -4.18,2.24 -7.38,2.88 l -7.38,0.32 -8.01,-0.32 v 13.15 l 45.53,40.08 h 8.34 l 0.64,-16.03 v -12.51 c -0.21,-1.07 -0.37,-1.87 -0.48,-2.4 -0.11,-0.54 -0.16,-0.92 -0.16,-1.12 h 32.38 v -21.17 z m 101.97,79.85 0.32,-10.26 c 0.42,-3.85 -2.14,-6.95 -7.7,-9.3 -0.85,-0.22 -2.35,-0.6 -4.49,-1.12 -2.14,-0.54 -5.02,-1.35 -8.66,-2.41 l -20.52,-5.77 -0.64,2.88 0.64,5.78 c 0.64,6.19 2.14,10.26 4.49,12.18 l 12.83,5.77 19.88,11.23 h 3.85 l 0.64,-5.13 c 0,-0.44 -0.22,-1.72 -0.64,-3.85 z m 3.2,-197.53 c -7.91,-4.49 -13.14,-6.95 -15.71,-7.38 -15.61,11.55 -23.41,19.77 -23.41,24.7 v 77.6 c 0,4.91 -1.71,8.76 -5.13,11.54 l -9.94,5.77 c -3.42,1.93 -5.13,3.74 -5.13,5.45 l 12.18,11.87 c 5.35,5.34 9.52,8.34 12.51,8.98 10.26,-6.42 17.58,-13.37 21.97,-20.85 4.38,-7.49 6.47,-16.99 6.25,-28.54 l -0.64,-30.78 c -0.43,-13.9 0.21,-23.31 1.92,-28.22 2.78,-9.2 9.73,-14.32 20.85,-15.39 v -4.81 c -2.14,-1.71 -7.38,-5.03 -15.72,-9.94 z m 139.17,-6.09 c -5.35,0 -10.37,3.2 -15.07,9.62 -3.64,4.91 -6.41,10.58 -8.34,16.99 -2.56,-1.07 -9.94,-6.2 -22.12,-15.39 -10.48,-7.49 -16.9,-11.22 -19.24,-11.22 -5.99,0 -14.11,4.16 -24.37,12.5 -10.06,8.76 -15.07,15.93 -15.07,21.49 l -1.29,72.15 c 0,1.7 -2.14,5.02 -6.41,9.94 -4.07,4.7 -6.31,8.01 -6.73,9.94 12.39,14.11 20.08,21.16 23.08,21.16 1.29,0 2.46,-0.54 3.53,-1.6 l 3.53,-3.53 c 8.55,-6.63 13.79,-13.05 15.71,-19.24 0.42,-1.71 0.64,-10.26 0.64,-25.65 v -44.25 c 0,-5.78 2.67,-10.7 8.02,-14.75 5.55,-4.29 11.22,-6.42 17,-6.42 7.26,0 15.59,3.74 25.01,11.22 v 99.09 l 16.03,3.53 c 5.34,1.06 10.68,1.6 16.03,1.6 l -1.28,-104.86 c 0,-5.13 2.35,-9.73 7.05,-13.79 4.92,-4.28 7.48,-6.94 7.7,-8.01 0,-2.57 -7.81,-9.41 -23.41,-20.52 z m 130.51,15.07 c -11.12,-10.06 -24.27,-15.07 -39.45,-15.07 -10.68,0 -22.87,3.84 -36.55,11.54 -14.96,8.55 -22.45,17.74 -22.45,27.58 0,1.92 4.38,5.02 13.15,9.3 l 17,7.69 c 0,-12.83 1.6,-22.24 4.8,-28.22 4.28,-8.13 12.3,-12.18 24.05,-12.18 7.7,0 14.33,2.61 19.89,7.86 5.56,5.23 8.33,11.7 8.33,19.39 0,7.06 -2.24,13.68 -6.73,19.89 -5.13,6.41 -11.12,9.62 -17.96,9.62 -5.56,0 -13.15,-2.15 -22.76,-6.42 -10.27,-4.71 -17.1,-7.16 -20.53,-7.37 -10.9,11.75 -16.35,25.54 -16.35,41.36 0,13.04 5.56,24.37 16.67,33.99 11.12,9.63 23.41,14.43 36.88,14.43 10.05,0 20.52,-3.2 31.42,-9.62 11.12,-5.99 18.5,-13.58 22.13,-22.76 l -31.42,-17.32 c -2.14,10.68 -4.6,18.28 -7.38,22.77 -4.49,7.26 -11.11,10.9 -19.88,10.9 -5.77,0 -10.74,-2.2 -14.91,-6.57 -4.17,-4.39 -6.25,-9.68 -6.25,-15.88 0,-3.2 0.59,-6.36 1.76,-9.45 1.18,-3.11 2.78,-5.89 4.81,-8.34 2.03,-2.46 4.38,-4.44 7.05,-5.94 2.68,-1.5 5.61,-2.24 8.82,-2.24 5.77,0 14.65,2.67 26.62,8.02 l 18.28,8.01 c 11.54,-10.26 17.31,-25.65 17.31,-46.17 0,-15.61 -5.45,-28.54 -16.35,-38.8 v 0"
             style="fill:#231f20;fill-opacity:1;fill-rule:nonzero;stroke:none"
             id="path4509"
             inkscape:connector-curvature="0" /><path
             d="m 2557.57,1638.38 c -19.46,0 -35.49,6.62 -48.1,19.88 -12.19,13.47 -18.28,30.03 -18.28,49.7 0,14.11 2.14,24.9 6.41,32.39 3.42,5.98 10.48,14.31 21.17,25.01 l 11.22,11.22 c 5.13,5.13 9.19,8.13 12.19,8.98 23.51,-15.83 36.55,-26.83 39.12,-33.03 l -58.69,-57.08 c 3.85,-8.33 8.98,-14.11 15.4,-17.31 5.34,-2.57 13.04,-3.85 23.08,-3.85 l 10.91,1.28 c 6.41,0.64 9.94,0.97 10.58,0.97 -12.19,-25.45 -20.53,-38.16 -25.01,-38.16 z m -12.19,101.33 c -1.49,1.7 -3.15,3.31 -4.97,4.81 -1.82,1.49 -3.69,2.77 -5.61,3.84 -1.92,1.07 -3.53,1.71 -4.81,1.93 -4.49,0 -8.34,-3.75 -11.54,-11.23 -2.78,-5.77 -4.17,-11.44 -4.17,-16.99 0,-7.27 2.24,-11.98 6.73,-14.11 l 27.58,27.25 c -0.64,1.29 -1.71,2.78 -3.21,4.5"
             style="fill:#348e93;fill-opacity:1;fill-rule:nonzero;stroke:none"
             id="path4511"
             inkscape:connector-curvature="0" /><path
             d="m 2049,1650.88 c -10.69,-7.92 -23.52,-11.86 -38.48,-11.86 -3,0 -6.57,0.21 -10.74,0.64 -4.17,0.43 -9.04,1.07 -14.6,1.92 -11.32,1.93 -19.77,2.89 -25.33,2.89 -11.97,0 -22.98,-1.08 -33.03,-3.21 l -2.88,-2.56 c -13.9,0 -20.85,1.17 -20.85,3.52 0,3.21 3,10.05 8.98,20.53 5.99,10.46 8.98,19.88 8.98,28.21 v 76.65 c 0,12.6 -3.53,22.76 -10.58,30.46 -2.99,3.41 -4.49,5.66 -4.49,6.73 0,4.7 15.5,13.79 46.5,27.26 30.78,13.24 50.13,19.88 58.04,19.88 14.32,0 24.9,-4.71 31.75,-14.11 l 15.39,-31.43 c -2.14,-1.49 -4.71,-2.99 -7.7,-4.49 -2.99,-1.5 -6.31,-2.99 -9.94,-4.48 l -18.28,-7.38 c -4.7,11.54 -9.08,20.2 -13.15,25.97 -6.41,9.19 -14.21,13.79 -23.41,13.79 -19.02,0 -28.54,-15.71 -28.54,-47.13 0,-1.51 0.11,-4.34 0.33,-8.5 0.21,-4.17 0.53,-9.68 0.96,-16.52 l 1.28,-20.52 c 0.22,-1.71 0.32,-3.32 0.32,-4.81 0,-1.5 0,-2.88 0,-4.17 0,-24.16 -6.2,-44.15 -18.6,-59.96 5.35,0 13.36,1.6 24.05,4.81 10.27,3.41 18.39,5.13 24.38,5.13 15.17,0 26.39,-3.32 33.66,-9.94 17.32,8.76 29.61,17.09 36.88,25.01 h 7.38 v -7.38 c 0,-14.33 -6.1,-25.97 -18.28,-34.95 z m 144.3,-12.18 c -13.9,7.47 -20.85,16.35 -20.85,26.61 l -5.45,2.24 c -1.49,-1.5 -5.23,-4.54 -11.22,-9.13 -5.99,-4.6 -14.32,-10.64 -25.01,-18.12 -11.98,0 -23.41,7.38 -34.31,22.13 -9.84,13.03 -14.75,26.08 -14.75,39.12 0,19.02 7.16,35.69 21.48,50.02 4.27,4.27 13.04,11.75 26.29,22.45 14.33,11.75 22.77,17.84 25.34,18.27 l 31.1,-17.95 16.68,-8.34 c 8.12,-4.28 12.18,-7.81 12.18,-10.58 0,-0.86 -1.82,-3.43 -5.45,-7.7 -3.63,-4.28 -5.56,-7.91 -5.77,-10.9 l -2.25,-57.72 c 0,-2.36 0.43,-3.64 1.29,-3.85 l 1.92,1.93 c 0,-3 2.35,-6.53 7.05,-10.59 4.71,-4.28 7.27,-6.84 7.7,-7.69 z m -23.73,101.65 c -2.57,2.34 -7.48,5.98 -14.75,10.9 -7.48,5.13 -12.62,7.8 -15.39,8.02 -5.78,0 -11.66,-5.57 -17.64,-16.68 -5.13,-9.41 -7.7,-17.64 -7.7,-24.69 0,-9.41 3.21,-18.39 9.62,-26.94 6.63,-9.83 14.43,-14.75 23.41,-14.75 4.06,0 8.66,1.17 13.79,3.53 5.77,2.78 8.66,6.3 8.66,10.58 z m 176.68,-101.65 c -5.34,0 -10.37,3.2 -15.07,9.62 -3.64,4.91 -6.41,10.58 -8.33,16.99 -2.57,-1.07 -9.94,-6.2 -22.13,-15.39 -10.47,-7.49 -16.89,-11.22 -19.24,-11.22 -5.98,0 -14.11,4.16 -24.37,12.5 -10.05,8.76 -15.07,15.93 -15.07,21.49 l -1.29,72.15 c 0,1.7 -2.13,5.02 -6.41,9.94 -4.06,4.7 -6.3,8.01 -6.73,9.94 12.39,14.11 20.09,21.16 23.09,21.16 1.28,0 2.45,-0.54 3.52,-1.6 l 3.53,-3.53 c 8.55,-6.63 13.79,-13.05 15.71,-19.24 0.43,-1.71 0.65,-10.26 0.65,-25.65 v -44.25 c 0,-5.78 2.67,-10.7 8.01,-14.75 5.56,-4.29 11.22,-6.42 17,-6.42 7.26,0 15.6,3.74 25.01,11.22 v 99.09 l 16.03,3.53 c 5.34,1.06 10.69,1.6 16.04,1.6 l -1.29,-104.86 c 0,-5.13 2.36,-9.73 7.06,-13.79 4.91,-4.28 7.48,-6.94 7.69,-8.01 0,-2.57 -7.8,-9.41 -23.41,-20.52 z m 121.54,92.67 c -8.77,-7.49 -15.29,-11.98 -19.56,-13.47 -1.29,5.98 -1.93,12.51 -1.93,19.56 0,4.49 0.32,8.66 0.97,12.51 h -5.46 c -2.35,0 -4.54,-0.86 -6.57,-2.57 -2.04,-1.71 -3.05,-3.64 -3.05,-5.77 V 1638.7 h -30.78 v 80.16 c 0,11.33 -1.28,19.77 -3.85,25.34 -3.42,7.26 -9.94,12.18 -19.56,14.75 v 2.56 c 0.86,1.49 5.34,5.34 13.47,11.54 7.69,5.78 12.5,8.87 14.43,9.31 5.13,0 10.79,-4.07 16.99,-12.19 l 9.3,-12.19 c 19.24,16.04 29.93,24.16 32.07,24.38 4.06,0 8.02,-4.72 11.87,-14.11 3.2,-8.13 4.8,-14.55 4.8,-19.25 0,-4.28 -4.38,-10.16 -13.14,-17.63 v 0"
             style="fill:#231f20;fill-opacity:1;fill-rule:nonzero;stroke:none"
             id="path4513"
             inkscape:connector-curvature="0" /><path
             d="m 2540.95,2318.78 c -12.64,-4.59 -28.1,-10.81 -46.47,-18.72 -44.03,-19.13 -66.05,-32.04 -66.05,-38.72 0,-1.52 2.12,-4.71 6.38,-9.56 10.02,-10.93 15.03,-25.36 15.03,-43.28 v -108.87 c 0,-11.84 -4.25,-25.21 -12.75,-40.08 -8.51,-14.89 -12.76,-24.6 -12.76,-29.16 0,-3.34 9.87,-5.01 29.62,-5.01 l 4.09,3.65 c 14.27,3.03 29.91,4.56 46.92,4.56 7.9,0 19.89,-1.38 35.99,-4.11 v 51.57 c -7.7,-0.82 -17.25,-3.11 -28.7,-6.93 -15.19,-4.55 -26.57,-6.83 -34.16,-6.83 17.61,22.47 26.41,50.87 26.41,85.18 0,1.82 0,3.8 0,5.92 0,2.13 -0.15,4.4 -0.45,6.84 l -1.82,29.15 c -0.61,9.72 -1.07,17.54 -1.37,23.46 -0.31,5.92 -0.46,9.95 -0.46,12.07 0,44.64 13.51,66.96 40.55,66.96 v 21.91"
             style="fill:#d1cbbc;fill-opacity:1;fill-rule:nonzero;stroke:none"
             id="path4515"
             inkscape:connector-curvature="0" /><path
             d="m 2657.56,2092.35 v 10.47 h -10.48 c -10.33,-11.24 -27.78,-23.08 -52.38,-35.53 -10.33,9.41 -26.27,14.12 -47.83,14.12 -1.82,0 -3.82,-0.13 -5.92,-0.36 v -51.57 c 7.89,-1.21 14.8,-2.12 20.72,-2.73 5.92,-0.61 11.01,-0.91 15.26,-0.91 21.25,0 39.47,5.61 54.66,16.85 17.31,12.76 25.97,29.31 25.97,49.66 z m -24.6,164.89 c 4.25,2.12 7.9,4.25 10.93,6.38 l -21.86,44.64 c -9.73,13.36 -24.75,20.04 -45.1,20.04 -6.52,0 -18.54,-3.19 -35.98,-9.52 v -21.91 c 13.05,0 24.14,-6.53 33.25,-19.58 5.76,-8.2 11.99,-20.5 18.68,-36.9 l 25.96,10.48 c 5.16,2.12 9.87,4.25 14.12,6.37"
             style="fill:#e7e2d4;fill-opacity:1;fill-rule:nonzero;stroke:none"
             id="path4517"
             inkscape:connector-curvature="0" /></g></g></g></g></svg>